<svg xmlns="http://www.w3.org/2000/svg" xmlns:xlink="http://www.w3.org/1999/xlink" width="18" height="18" viewBox="0 0 18 18">
  <defs>
    <clipPath id="clip-path">
      <rect id="Rectangle_24510" data-name="Rectangle 24510" width="18" height="18" fill="none"/>
    </clipPath>
    <clipPath id="clip-All_promotions_Filter_Icon_Clicked_1">
      <rect width="18" height="18"/>
    </clipPath>
  </defs>
  <g id="All_promotions_Filter_Icon_Clicked_1" data-name="All promotions Filter Icon Clicked – 1" clip-path="url(#clip-All_promotions_Filter_Icon_Clicked_1)">
    <g id="Group_60493" data-name="Group 60493" transform="translate(14649 1931)">
      <g id="Group_60484" data-name="Group 60484" transform="translate(-14649 -1931)">
        <g id="Mask_Group_60483" data-name="Mask Group 60483" transform="translate(0 0)" clip-path="url(#clip-path)">
          <path id="Path_35626" data-name="Path 35626" d="M6.541,8.164H1.623A1.625,1.625,0,0,1,0,6.541V1.623A1.625,1.625,0,0,1,1.623,0H6.541A1.625,1.625,0,0,1,8.164,1.623V6.541A1.625,1.625,0,0,1,6.541,8.164M1.623,1.279a.345.345,0,0,0-.344.344V6.541a.345.345,0,0,0,.344.344H6.541a.345.345,0,0,0,.344-.344V1.623a.345.345,0,0,0-.344-.344Z" transform="translate(0 0)" fill="#fff"/>
          <path id="Path_35627" data-name="Path 35627" d="M16.541,8.164H11.623A1.625,1.625,0,0,1,10,6.541V1.623A1.625,1.625,0,0,1,11.623,0h4.918a1.625,1.625,0,0,1,1.623,1.623V6.541a1.625,1.625,0,0,1-1.623,1.623M11.623,1.279a.345.345,0,0,0-.344.344V6.541a.345.345,0,0,0,.344.344h4.918a.345.345,0,0,0,.344-.344V1.623a.345.345,0,0,0-.344-.344Z" transform="translate(-0.164 0)" fill="#fff"/>
          <path id="Path_35628" data-name="Path 35628" d="M6.541,18.164H1.623A1.625,1.625,0,0,1,0,16.541V11.623A1.625,1.625,0,0,1,1.623,10H6.541a1.625,1.625,0,0,1,1.623,1.623v4.918a1.625,1.625,0,0,1-1.623,1.623M1.623,11.279a.345.345,0,0,0-.344.344v4.918a.345.345,0,0,0,.344.344H6.541a.345.345,0,0,0,.344-.344V11.623a.345.345,0,0,0-.344-.344Z" transform="translate(0 -0.164)" fill="#fff"/>
          <path id="Path_35629" data-name="Path 35629" d="M16.541,18.164H11.623A1.625,1.625,0,0,1,10,16.541V11.623A1.625,1.625,0,0,1,11.623,10h4.918a1.625,1.625,0,0,1,1.623,1.623v4.918a1.625,1.625,0,0,1-1.623,1.623m-4.918-6.885a.345.345,0,0,0-.344.344v4.918a.345.345,0,0,0,.344.344h4.918a.345.345,0,0,0,.344-.344V11.623a.345.345,0,0,0-.344-.344Z" transform="translate(-0.164 -0.164)" fill="#fff"/>
        </g>
      </g>
    </g>
  </g>
</svg>
