<svg xmlns="http://www.w3.org/2000/svg" xmlns:xlink="http://www.w3.org/1999/xlink" width="17" height="17" viewBox="0 0 17 17">
  <defs>
    <clipPath id="clip-path">
      <rect id="Rectangle_24448" data-name="Rectangle 24448" width="8.275" height="8.421" fill="none"/>
    </clipPath>
    <clipPath id="clip-Blue_Message_Still_In_Process_Close">
      <rect width="17" height="17"/>
    </clipPath>
  </defs>
  <g id="Blue_Message_Still_In_Process_Close" data-name="Blue Message Still In Process Close" clip-path="url(#clip-Blue_Message_Still_In_Process_Close)">
    <g id="Group_60485" data-name="Group 60485" transform="translate(14634 2279)">
      <circle id="Ellipse_2" data-name="Ellipse 2" cx="8.5" cy="8.5" r="8.5" transform="translate(-14634 -2279)" fill="#16417d"/>
      <g id="Group_59434" data-name="Group 59434" transform="translate(-14629.75 -2274.75)" clip-path="url(#clip-path)">
        <path id="Path_34781" data-name="Path 34781" d="M5.656,4.21,7.963,1.854a1.094,1.094,0,0,0,0-1.53,1.078,1.078,0,0,0-1.53,0L4.138,2.659,1.855.325a1.075,1.075,0,0,0-1.536,0,1.091,1.091,0,0,0,0,1.529L2.625,4.209.313,6.567a1.091,1.091,0,0,0,0,1.53,1.06,1.06,0,0,0,.751.324h.015A1.084,1.084,0,0,0,1.845,8.1L4.138,5.75,6.429,8.089a1.053,1.053,0,0,0,.75.325,1.161,1.161,0,0,0,.782-.323,1.1,1.1,0,0,0,0-1.53Z" transform="translate(0 0)" fill="#eef3ff"/>
      </g>
    </g>
  </g>
</svg>
