<svg xmlns="http://www.w3.org/2000/svg" xmlns:xlink="http://www.w3.org/1999/xlink" width="60" height="60" viewBox="0 0 60 60">
  <defs>
    <clipPath id="clip-path">
      <rect id="Rectangle_24456" data-name="Rectangle 24456" width="55" height="42.167" fill="none"/>
    </clipPath>
    <clipPath id="clip-Casino_Bonus_Icon_-_Desktop">
      <rect width="60" height="60"/>
    </clipPath>
  </defs>
  <g id="Casino_Bonus_Icon_-_Desktop" data-name="Casino Bonus Icon - Desktop" clip-path="url(#clip-Casino_Bonus_Icon_-_Desktop)">
    <g id="Group_60361" data-name="Group 60361" transform="translate(3 9)">
      <g id="Group_60360" data-name="Group 60360" transform="translate(0 0)" clip-path="url(#clip-path)">
        <path id="Path_35104" data-name="Path 35104" d="M6.211,35.912H6.2a6.892,6.892,0,0,0,.023,1.018l.007,0a6.746,6.746,0,0,1-.023-1.019" transform="translate(0.812 2.772)" fill="#fdd53b"/>
        <path id="Path_35105" data-name="Path 35105" d="M36.8,34.009l.041,1.723,0,0L36.8,34.008h0" transform="translate(4.823 2.625)" fill="#fdd53b"/>
        <path id="Path_35106" data-name="Path 35106" d="M8.109,35.483a9.326,9.326,0,0,0,1.715.273A9.326,9.326,0,0,1,8.109,35.483Z" transform="translate(1.063 2.739)" fill="#fdd53b"/>
        <path id="Path_35107" data-name="Path 35107" d="M15.916,34.8c.109-.1.2-.207.3-.312-.1.106-.193.213-.3.312" transform="translate(2.086 2.662)" fill="#fdd53b"/>
        <path id="Path_35108" data-name="Path 35108" d="M26.4,35.058l.023.852h0l-.023-.852h0" transform="translate(3.46 2.706)" fill="#fc9b03"/>
        <path id="Path_35109" data-name="Path 35109" d="M26.409,35.183l-.046-1.725h0l.046,1.725h0" transform="translate(3.455 2.582)" fill="#fc9b03"/>
        <path id="Path_35110" data-name="Path 35110" d="M37.173,35.731l-.041-1.723a11.531,11.531,0,0,1-2.771.323l0-.005h0v.01h0l-.092.079.035,2.111.012.729a.375.375,0,0,0,.26.3,12.147,12.147,0,0,0,2.633-.431Z" transform="translate(4.491 2.625)" fill="#fdba03"/>
        <path id="Path_35111" data-name="Path 35111" d="M37.121,34.009V34a11.489,11.489,0,0,1-2.773.323l0,.005a11.53,11.53,0,0,0,2.771-.322" transform="translate(4.502 2.624)" fill="#fdba03"/>
        <path id="Path_35112" data-name="Path 35112" d="M32.373,34.379l-.113-.025h0c-.667-.152-2.011-.317-2.753-.5l-.044,1.813-.027,1.088a7.877,7.877,0,0,0,2.936.76V34.38h0" transform="translate(3.858 2.613)" fill="#fdba03"/>
        <path id="Path_35113" data-name="Path 35113" d="M34.6,37.229h.006l-.012-.729-.035-2.111a14.6,14.6,0,0,1-2.521-.047v3.134h0v0a20.144,20.144,0,0,0,2.828.053.373.373,0,0,1-.26-.3" transform="translate(4.198 2.651)" fill="#fdd53b"/>
        <path id="Path_35114" data-name="Path 35114" d="M33.052,33.581c.478.01.976-.034,1.453-.051v0c-.477.016-.976.061-1.453.051v0" transform="translate(4.332 2.588)" fill="#fde145"/>
        <path id="Path_35115" data-name="Path 35115" d="M6.209,36v0C9.15,37.549,14.62,37.1,17.188,34.78,14.617,37.1,9.149,37.547,6.209,36" transform="translate(0.814 2.684)" fill="#fde145"/>
        <path id="Path_35116" data-name="Path 35116" d="M5.294,34.6c.015.057.025.116.044.172V34.74c-.016-.046-.032-.094-.044-.141" transform="translate(0.694 2.67)" fill="#fde145"/>
        <path id="Path_35117" data-name="Path 35117" d="M5.962,35.707c.058.05.109.1.172.15l.1.07h0a2.458,2.458,0,0,1-.278-.219" transform="translate(0.781 2.756)" fill="#fde145"/>
        <path id="Path_35118" data-name="Path 35118" d="M5.333,34.762c.012.037.029.072.044.109-.018-.045-.028-.094-.044-.14Z" transform="translate(0.699 2.681)" fill="#fde145"/>
        <path id="Path_35119" data-name="Path 35119" d="M34.347,34.312v0Z" transform="translate(4.501 2.648)" fill="#fd9502"/>
        <path id="Path_35120" data-name="Path 35120" d="M6.923,34.821a2.687,2.687,0,0,0,1.341.714h0a2.7,2.7,0,0,1-1.34-.713" transform="translate(0.907 2.687)" fill="#fdba03"/>
        <path id="Path_35121" data-name="Path 35121" d="M44.52,16.053a1.1,1.1,0,0,1-.011-.11l-.044-3.494h0l.044,3.493a1.112,1.112,0,0,0,.012.111" transform="translate(5.827 0.961)" fill="#fdd53b"/>
        <rect id="Rectangle_24450" data-name="Rectangle 24450" width="0.003" height="0.197" transform="matrix(0.006, -1, 1, 0.006, 53.136, 17.484)" fill="#fdd53b"/>
        <path id="Path_35122" data-name="Path 35122" d="M45.673,16.383a1.184,1.184,0,0,0,.812-.288v0a1.186,1.186,0,0,1-.811.287h0l-.034,2.384.034-2.383Z" transform="translate(5.981 1.242)" fill="#fdd53b"/>
        <path id="Path_35123" data-name="Path 35123" d="M44.709,6.362v0a4.405,4.405,0,0,0,1.2.055v0a4.44,4.44,0,0,1-1.194-.054" transform="translate(5.86 0.491)" fill="#fdd53b"/>
        <path id="Path_35124" data-name="Path 35124" d="M45.673,11.012a1.923,1.923,0,0,0-.576.156,1.923,1.923,0,0,1,.576-.156" transform="translate(5.91 0.85)" fill="#fdd53b"/>
        <path id="Path_35125" data-name="Path 35125" d="M30.051,2.927a.252.252,0,0,0-.028,0h0a1.227,1.227,0,0,0-.139.045,1.237,1.237,0,0,0-.169.11,1.135,1.135,0,0,1,.308-.15l.029-.009" transform="translate(3.894 0.226)" fill="#fdd53b"/>
        <path id="Path_35126" data-name="Path 35126" d="M27.418,8.914c.026-.016-.02-.18-.11-.259.087.08.131.24.106.256V24.8h0V8.912a.378.378,0,0,1,.2.215l.012,1.092h0l-.012-1.091a.378.378,0,0,0-.2-.215" transform="translate(3.579 0.668)" fill="#fdd53b"/>
        <path id="Path_35127" data-name="Path 35127" d="M24.673,17.294h0a.634.634,0,0,1-.2-.1.624.624,0,0,0,.2.112c.467.134.8-.067.826-.436a.589.589,0,0,0-.158-.4.592.592,0,0,1,.15.392c-.025.368-.359.569-.826.436" transform="translate(3.208 1.271)" fill="#fdd53b"/>
        <path id="Path_35128" data-name="Path 35128" d="M17.922,16.759A2.586,2.586,0,0,1,20.6,15.6a9.929,9.929,0,0,1,2.726-4.174,1.182,1.182,0,0,1,.822-.139.7.7,0,0,1,.5.627v0a.694.694,0,0,0-.5-.629,1.182,1.182,0,0,0-.822.139A9.945,9.945,0,0,0,20.6,15.6a2.585,2.585,0,0,0-2.686,1.154l-.006-.005a2.269,2.269,0,0,0,.369,2.838q.08.068.163.129c.049.036.1.058.153.09a2.694,2.694,0,0,1-.3-.211,2.269,2.269,0,0,1-.369-2.838" transform="translate(2.303 0.869)" fill="#fdd53b"/>
        <path id="Path_35129" data-name="Path 35129" d="M21.222,16.969a.538.538,0,0,1-.037.116.53.53,0,0,0,.046-.11v-.006a.575.575,0,0,0-.268-.527.574.574,0,0,1,.258.527" transform="translate(2.748 1.269)" fill="#fdd53b"/>
        <path id="Path_35130" data-name="Path 35130" d="M24.181,15.551h0a2.381,2.381,0,0,1,1.932.736,2.381,2.381,0,0,0-1.935-.739,4.656,4.656,0,0,1-.533-2.365,4.672,4.672,0,0,0,.533,2.37" transform="translate(3.099 1.017)" fill="#fdd53b"/>
        <path id="Path_35131" data-name="Path 35131" d="M20.872,17.342a.564.564,0,0,0,.321-.3.578.578,0,0,1-.321.3" transform="translate(2.735 1.316)" fill="#fdd53b"/>
        <path id="Path_35132" data-name="Path 35132" d="M20.521,17.342a.617.617,0,0,1-.422-.4.617.617,0,0,0,.425.405.643.643,0,0,0,.128.038c.025,0,.049,0,.074,0a.626.626,0,0,1-.21-.043Z" transform="translate(2.634 1.308)" fill="#fdd53b"/>
        <path id="Path_35133" data-name="Path 35133" d="M6.466,8.633a3.762,3.762,0,0,0-2.193.981,3.763,3.763,0,0,1,2.191-.979L16.4,8.616l.037,1.217v0l0,0L16.4,8.614Z" transform="translate(0.56 0.665)" fill="#fdd53b"/>
        <path id="Path_35134" data-name="Path 35134" d="M11.681,15.7a4.7,4.7,0,0,1-.339-3.491.8.8,0,0,0-.428-.888.925.925,0,0,0-.249-.057.943.943,0,0,1,.245.057.8.8,0,0,1,.428.888,4.7,4.7,0,0,0,.339,3.491l-1.145.222a5.168,5.168,0,0,1-.458-2.543h0a5.16,5.16,0,0,0,.458,2.544l1.145-.222a2.264,2.264,0,0,1,.991,4.384,2.264,2.264,0,0,0-.986-4.386" transform="translate(1.318 0.87)" fill="#fdd53b"/>
        <path id="Path_35135" data-name="Path 35135" d="M31.39,4.162a1.123,1.123,0,0,0-.029-.461c0-.016-.009-.032-.015-.047a1.106,1.106,0,0,0-.141-.248,1.1,1.1,0,0,1,.155.3,1.117,1.117,0,0,1,.031.456" transform="translate(4.09 0.263)" fill="#fdd53b"/>
        <path id="Path_35136" data-name="Path 35136" d="M25.01,2.928a1.24,1.24,0,0,1,1.516.818l0,.016c0-.008,0-.015,0-.023v0a1.242,1.242,0,0,0-1.519-.812h0c-.034.009-.068.018-.1.03a1.072,1.072,0,0,0-.195.112,1.182,1.182,0,0,1,.291-.136h0" transform="translate(3.239 0.222)" fill="#fdd53b"/>
        <path id="Path_35137" data-name="Path 35137" d="M21.312,15.659h0" transform="translate(2.793 1.209)" fill="#fdd53b"/>
        <path id="Path_35138" data-name="Path 35138" d="M22.783,13.213v0l0,0a5.887,5.887,0,0,0,.468,2.557,6.327,6.327,0,0,0-1.136.93l.006,0a6.379,6.379,0,0,1,1.136-.931h0a5.889,5.889,0,0,1-.468-2.569" transform="translate(2.898 1.02)" fill="#fdd53b"/>
        <path id="Path_35139" data-name="Path 35139" d="M25.588,5.015c.04-.011.068-.039.106-.053a1.154,1.154,0,0,1-.15.064l.044-.011" transform="translate(3.348 0.383)" fill="#fdd53b"/>
        <path id="Path_35140" data-name="Path 35140" d="M33.31,16.331a.632.632,0,0,1,.595.32.63.63,0,0,0-.6-.326v0a.623.623,0,0,0-.6.548.585.585,0,0,0,.06.193.631.631,0,0,1-.057-.183.623.623,0,0,1,.6-.548" transform="translate(4.286 1.26)" fill="#fdd53b"/>
        <path id="Path_35141" data-name="Path 35141" d="M42.658,13.03a6.916,6.916,0,0,0-.882-2.775,3.1,3.1,0,0,0-2.613-1.622l-10.29-.006h0l10.289.006a3.1,3.1,0,0,1,2.613,1.622,6.916,6.916,0,0,1,.882,2.775c.273,2.487.607,8.79-.986,10.782a3.073,3.073,0,0,1-2.192,1h0a3.073,3.073,0,0,0,2.192-1,3.609,3.609,0,0,1,.621.711,3.536,3.536,0,0,0-.621-.712c1.594-1.993,1.259-8.291.986-10.782" transform="translate(3.784 0.666)" fill="#fdd53b"/>
        <path id="Path_35142" data-name="Path 35142" d="M34.955,16.773h0l-.93-.931L32.946,15.5c-.044-.767.983-2.188,1.84-3.207-.857,1.018-1.883,2.439-1.841,3.207l1.079.339Z" transform="translate(4.318 0.949)" fill="#fdd53b"/>
        <path id="Path_35143" data-name="Path 35143" d="M35.136,18.7a2.941,2.941,0,0,1-3.148.991v0a2.451,2.451,0,0,1-1.571-1.258,2.208,2.208,0,0,1-.2-1.033,2.2,2.2,0,0,0,.2,1.037,2.451,2.451,0,0,0,1.571,1.258,2.941,2.941,0,0,0,3.148-.991,3.157,3.157,0,0,0,3.936.707c.02-.012.034-.03.053-.043-.019.013-.034.029-.054.041a3.157,3.157,0,0,1-3.936-.707" transform="translate(3.96 1.343)" fill="#fdd53b"/>
        <path id="Path_35144" data-name="Path 35144" d="M35.33,13.247a6.518,6.518,0,0,0,.463,2.517h0a6.527,6.527,0,0,1-.463-2.518h0" transform="translate(4.63 1.022)" fill="#fdd53b"/>
        <path id="Path_35145" data-name="Path 35145" d="M37.857,16.384a.574.574,0,0,0-.244-.1.544.544,0,0,0-.094-.011.56.56,0,0,1,.094.012.588.588,0,0,1,.244.1" transform="translate(4.917 1.256)" fill="#fdd53b"/>
        <path id="Path_35146" data-name="Path 35146" d="M37.42,16.261a.55.55,0,0,0-.14.04.675.675,0,0,1,.175-.037c-.012,0-.024,0-.035,0" transform="translate(4.886 1.255)" fill="#fdd53b"/>
        <path id="Path_35147" data-name="Path 35147" d="M38.021,16.894c0-.008.008-.014.009-.022a.386.386,0,0,0,0-.072.435.435,0,0,1-.006.094" transform="translate(4.983 1.297)" fill="#fdd53b"/>
        <path id="Path_35148" data-name="Path 35148" d="M28.663,8.771c-.015-.073.15-.14.238-.145h0c-.087.006-.252.072-.238.145a.818.818,0,0,0,.147.353v0a.8.8,0,0,1-.146-.349" transform="translate(3.756 0.666)" fill="#fdd53b"/>
        <path id="Path_35149" data-name="Path 35149" d="M36.973,16.618a.522.522,0,0,1,.109-.183.525.525,0,0,0-.109.183" transform="translate(4.846 1.268)" fill="#fdd53b"/>
        <path id="Path_35150" data-name="Path 35150" d="M36.95,16.805h0c0-.012,0-.023,0-.034,0,.012-.006.023,0,.034" transform="translate(4.843 1.294)" fill="#fdd53b"/>
        <path id="Path_35151" data-name="Path 35151" d="M33.307,17.345l.019,0c-.025,0-.05,0-.076,0,.019,0,.037.006.057.006" transform="translate(4.358 1.338)" fill="#fdd53b"/>
        <path id="Path_35152" data-name="Path 35152" d="M7.989,17.373a.606.606,0,0,1-.594-.507.6.6,0,0,1,.339-.476.6.6,0,0,0-.349.482.606.606,0,0,0,.594.507.648.648,0,0,0,.079,0,.808.808,0,0,0,.088-.022.621.621,0,0,1-.162.018Z" transform="translate(0.968 1.265)" fill="#fdd53b"/>
        <path id="Path_35153" data-name="Path 35153" d="M39.014,17.42c0-.028.008-.054.006-.082S39,17.266,39,17.229c.008.064.012.127.015.191" transform="translate(5.111 1.33)" fill="#fdd53b"/>
        <path id="Path_35154" data-name="Path 35154" d="M34.511,4.782a1.114,1.114,0,0,1-.219-.405,1.154,1.154,0,0,1,.84-1.429,1.225,1.225,0,0,1,1.5.8,1.178,1.178,0,0,1-.845,1.432c-.008,0-.017,0-.026,0,.009,0,.018,0,.028,0a1.177,1.177,0,0,0,.844-1.432l-.009-.033a1.211,1.211,0,0,0-1.484-.793v0a1.167,1.167,0,0,0-.863,1.439,1.135,1.135,0,0,0,.232.425" transform="translate(4.487 0.222)" fill="#fdd53b"/>
        <path id="Path_35155" data-name="Path 35155" d="M30.771,33.293h0l-.374-.1.374.1" transform="translate(3.984 2.562)" fill="#fdd53b"/>
        <path id="Path_35156" data-name="Path 35156" d="M39.951,26.288a.919.919,0,0,0-.141-.211.957.957,0,0,1,.141.211" transform="translate(5.217 2.013)" fill="#fdd53b"/>
        <path id="Path_35157" data-name="Path 35157" d="M37.265,24.69c.307.09.61.187.909.3.009.011-.04.023-.105.027.066,0,.114-.015.106-.027-.3-.111-.6-.208-.911-.3" transform="translate(4.884 1.906)" fill="#fdd53b"/>
        <path id="Path_35158" data-name="Path 35158" d="M33.857,28.1h0Z" transform="translate(4.437 2.169)" fill="#fdd53b"/>
        <path id="Path_35159" data-name="Path 35159" d="M4.844,26.347l19.4-.009,1.184-.022a31.569,31.569,0,0,0,4.411-.086h0l-.139-.076h0l.138.075a31.569,31.569,0,0,1-4.411.086l-1.184.022-19.4.009a4.454,4.454,0,0,1-.756-.094l.094-.073-.1.071c-.053-.008-.105-.024-.157-.032v0c.055.01.107.026.163.033a4.455,4.455,0,0,0,.756.094" transform="translate(0.515 2.019)" fill="#fdd53b"/>
        <path id="Path_35160" data-name="Path 35160" d="M31.751,27.018h0c.114.874,2.029.7,2.353,1-.313-.308-2.235-.131-2.353-1.005" transform="translate(4.161 2.085)" fill="#fdd53b"/>
        <path id="Path_35161" data-name="Path 35161" d="M26.314,33.471c-1.622-.2-3.782-.709-4.584-2.033l.011,1.19-.01-1.188c.8,1.325,2.962,1.838,4.585,2.034a4.793,4.793,0,0,1,.651.14v0a4.994,4.994,0,0,0-.654-.14" transform="translate(2.848 2.426)" fill="#fdd53b"/>
        <path id="Path_35162" data-name="Path 35162" d="M7.055,30.941h0a12.7,12.7,0,0,1,4.2-1.161,12.727,12.727,0,0,0-4.2,1.161" transform="translate(0.925 2.298)" fill="#fdd53b"/>
        <path id="Path_35163" data-name="Path 35163" d="M6.774,31.861l0,0c2.893-1.873,7.822-2.246,10.307-.438v0c-2.486-1.8-7.413-1.432-10.3.439" transform="translate(0.887 2.334)" fill="#fdd53b"/>
        <path id="Path_35164" data-name="Path 35164" d="M40.352,33.589h0c0-.149-.012-.3-.01-.445,0,.149.008.3.01.445" transform="translate(5.287 2.558)" fill="#fdd53b"/>
        <path id="Path_35165" data-name="Path 35165" d="M44.752,30.124v-.009l0,0c-.39.978-3.4,1.226-4.323,1.141v.011c.923.085,3.934-.164,4.324-1.141" transform="translate(5.298 2.324)" fill="#fdd53b"/>
        <path id="Path_35166" data-name="Path 35166" d="M15.31,31.636h0c-3.968-1.587-9.855.986-8.655,3.08a2.615,2.615,0,0,0,.323.391,2.546,2.546,0,0,1-.322-.39c-1.2-2.094,4.686-4.665,8.654-3.08" transform="translate(0.851 2.404)" fill="#fdd53b"/>
        <path id="Path_35167" data-name="Path 35167" d="M23.213,30.839h0c-.018,1.03,2.249,1.575,3.185,1.7l1.13.145h0v0l-1.13-.145c-.935-.12-3.2-.665-3.185-1.694" transform="translate(3.042 2.38)" fill="#fdd53b"/>
        <path id="Path_35168" data-name="Path 35168" d="M26.332,28.585h0l-.007.768Z" transform="translate(3.45 2.206)" fill="#fdd53b"/>
        <path id="Path_35169" data-name="Path 35169" d="M31.921,28.461c.061.506,4.152.594,3.934-.576.213,1.166-3.861,1.08-3.934.576" transform="translate(4.184 2.152)" fill="#fdd53b"/>
        <path id="Path_35170" data-name="Path 35170" d="M10.665,32.952c-.061-.052.145-.268.226-.287l1.508-.334a.472.472,0,0,0,.247-.262l0,0c.051-.32-1.029-.327-2.049-.069,1.018-.256,2.089-.247,2.036.072a.476.476,0,0,1-.247.262l-1.508.334c-.08.018-.286.235-.226.287.424.373,2.2-.361,2.8.574.433.671-1.145,1.719-2.832,1.777,1.692-.054,3.273-1.1,2.841-1.778-.6-.935-2.372-.2-2.8-.574" transform="translate(1.389 2.456)" fill="#fdd53b"/>
        <path id="Path_35171" data-name="Path 35171" d="M21.731,31.5c-.4-2.035,3.787-2.8,5.25-2.884,0-.128,0-.3-.017-.5h0c.017.2.017.371.017.5h0c-1.466.085-5.659.85-5.249,2.885l-.167-.157-.193.016v0l.195-.016Z" transform="translate(2.801 2.17)" fill="#fdd53b"/>
        <path id="Path_35172" data-name="Path 35172" d="M15.536,4.991h0c-.008,0-.016,0-.023,0s.014,0,.02,0" transform="translate(2.034 0.385)" fill="#fdd53b"/>
        <path id="Path_35173" data-name="Path 35173" d="M5.054,16.719l-.008.027a2.2,2.2,0,0,1,.1-.2c-.031.058-.064.114-.089.175" transform="translate(0.661 1.277)" fill="#fdd53b"/>
        <path id="Path_35174" data-name="Path 35174" d="M8.859,15.685h0l-1.139-.4a2.756,2.756,0,0,0-.416-.048,2.741,2.741,0,0,1,.415.048Z" transform="translate(0.957 1.176)" fill="#fdd53b"/>
        <path id="Path_35175" data-name="Path 35175" d="M19.946,2.932c-.017,0-.033,0-.049.006l0,0c-.034.012-.069.025-.1.039a1.129,1.129,0,0,0-.223.153,1.176,1.176,0,0,1,.318-.179l.053-.016" transform="translate(2.565 0.226)" fill="#fdd53b"/>
        <path id="Path_35176" data-name="Path 35176" d="M21.192,4.552a1.133,1.133,0,0,0,.094-.888l-.02-.059a1.128,1.128,0,0,0-.195-.3,1.152,1.152,0,0,1,.21.372,1.128,1.128,0,0,1-.089.878" transform="translate(2.762 0.255)" fill="#fdd53b"/>
        <path id="Path_35177" data-name="Path 35177" d="M8.293,19.472a2.749,2.749,0,0,0,1.1-.883h0a2.758,2.758,0,0,1-1.1.884" transform="translate(1.087 1.435)" fill="#fdd53b"/>
        <path id="Path_35178" data-name="Path 35178" d="M28.842,23.648h0Z" transform="translate(3.78 1.825)" fill="#fdd53b"/>
        <path id="Path_35179" data-name="Path 35179" d="M42.851,6.179l-36.6,0-.05,0v0l.048,0Z" transform="translate(0.813 0.476)" fill="#fdd53b"/>
        <path id="Path_35180" data-name="Path 35180" d="M2.877,15.91v-.878h0V15.9l-.247.023c-.014,0-.024.015-.031.033.007-.018.017-.03.031-.03l.248-.02a1.54,1.54,0,0,1-.045.214v0h0a1.554,1.554,0,0,0,.045-.215" transform="translate(0.34 1.16)" fill="#fdd53b"/>
        <path id="Path_35181" data-name="Path 35181" d="M39.281,28.211a.761.761,0,0,0,.061-.1.889.889,0,0,1-.183.2h0c-2.678,2.116-10.353,1.253-10.388-.841a1.308,1.308,0,0,1,.746-1.025,1.311,1.311,0,0,0-.75,1.03c.034,2.094,7.708,2.958,10.388.841a.9.9,0,0,0,.123-.11" transform="translate(3.771 2.041)" fill="#fdd53b"/>
        <path id="Path_35182" data-name="Path 35182" d="M41.445,27.691c-.143-1.149-1.871-1.965-2.978-2.308A14.491,14.491,0,0,0,30,25.366a6.357,6.357,0,0,0-2.287,1.252,6.36,6.36,0,0,1,2.284-1.248,14.491,14.491,0,0,1,8.469.017c1.107.344,2.836,1.158,2.978,2.307v0c.132.014.39.22.39.374,0,.112,0,.21.006.317l0-.012c0-.1-.006-.2-.006-.3,0-.157-.258-.36-.39-.373" transform="translate(3.632 1.91)" fill="#fdd53b"/>
        <path id="Path_35183" data-name="Path 35183" d="M39.279,32.742a11.22,11.22,0,0,1-4.937,1.163l-.046-3.43.046,3.43h0a11.22,11.22,0,0,0,4.937-1.163c1.916-1.018,1.771-2.2,1.707-4.126h0c.062,1.926.212,3.108-1.706,4.127" transform="translate(4.495 2.209)" fill="#fdd53b"/>
        <path id="Path_35184" data-name="Path 35184" d="M34.794,26.725l-1.2.029a.835.835,0,0,0-.309.151c-.06.05-.069.088-.041.122-.026-.032-.016-.07.042-.118a.835.835,0,0,1,.309-.151l1.2-.029c.087,0,.282-.189.226-.238h0c.046.053-.144.236-.226.236" transform="translate(4.354 2.044)" fill="#fdd53b"/>
        <path id="Path_35185" data-name="Path 35185" d="M14.182,4.3c0,.014.017.024.021.038a1.087,1.087,0,0,1-.06-.38,1.078,1.078,0,0,0,.038.343" transform="translate(1.854 0.306)" fill="#fdd53b"/>
        <path id="Path_35186" data-name="Path 35186" d="M11.391,3.545a1.114,1.114,0,0,1-.222,1.31l.007-.005A1.114,1.114,0,0,0,11.4,3.533a1.214,1.214,0,0,0-1.322-.646,1.265,1.265,0,0,0-.629.316,1.27,1.27,0,0,1,.618-.3,1.217,1.217,0,0,1,1.322.646" transform="translate(1.239 0.221)" fill="#fdd53b"/>
        <path id="Path_35187" data-name="Path 35187" d="M14.942,2.949l.015,0a1.258,1.258,0,0,1,1.569.758,1.057,1.057,0,0,1,.021.187,1.062,1.062,0,0,0-.021-.2l0-.014a1.26,1.26,0,0,0-1.579-.74,1.166,1.166,0,0,0-.8,1.042,1.175,1.175,0,0,1,.8-1.032" transform="translate(1.853 0.222)" fill="#fdd53b"/>
        <path id="Path_35188" data-name="Path 35188" d="M48.6,1.245A3.8,3.8,0,0,0,45.422.016a3.712,3.712,0,0,0-3.317,3l0,0a3.5,3.5,0,0,0,2.6,3.77c.113.03.23.046.344.068a4.634,4.634,0,0,0,1.927-.068,4.367,4.367,0,0,0,2.125-1.77,3.276,3.276,0,0,0-.508-3.77" transform="translate(5.515 0)" fill="#f74b2c"/>
        <path id="Path_35189" data-name="Path 35189" d="M16.475,10.42a3.161,3.161,0,0,0-1.062-.349l-.383-.326h0l.386.329a3.122,3.122,0,0,1,1.06.347Z" transform="translate(1.97 0.752)" fill="#fdcb2b"/>
        <path id="Path_35190" data-name="Path 35190" d="M28.752,10.145c-.288-.26-.647-.2-1.163-.016h0c.517-.181.877-.243,1.164.016l.225-.306v0Z" transform="translate(3.616 0.759)" fill="#fdcb2b"/>
        <path id="Path_35191" data-name="Path 35191" d="M2.616,15.009a.741.741,0,0,0,.254.025v0a.874.874,0,0,1-.254-.02" transform="translate(0.343 1.158)" fill="#fdcb2b"/>
        <path id="Path_35192" data-name="Path 35192" d="M40.1,1.329a5.5,5.5,0,0,0-.7-.022L10.43,1.338A4.939,4.939,0,0,0,5.375,6.15c0,.112,0,.224.012.335l.925.065.05,0,36.6,0h0c.1,0,.2.01.3.012a6.738,6.738,0,0,1,1.484.178A5.014,5.014,0,0,0,40.1,1.329M11.71,4.97l-.007.005,0,.005a1.184,1.184,0,0,1-1.5.164v.006A1.2,1.2,0,0,1,9.632,3.9a1.169,1.169,0,0,1,.353-.578,1.265,1.265,0,0,1,.629-.316,1.214,1.214,0,0,1,1.322.646A1.114,1.114,0,0,1,11.71,4.97m6-.643a1.113,1.113,0,0,1-.119.376c0,.008-.01.012-.015.018a1.148,1.148,0,0,1-.278.331c-.008.005-.018.009-.027.015a1.187,1.187,0,0,1-.344.2h0c-.02.006-.041,0-.06.009h0c-.007,0-.014,0-.02,0a1.257,1.257,0,0,1-.454.044c-.027,0-.052-.015-.079-.019a1.223,1.223,0,0,1-.361-.1,1.216,1.216,0,0,1-.133-.093,1.2,1.2,0,0,1-.226-.172,1.21,1.21,0,0,1-.143-.223,1.068,1.068,0,0,1-.093-.144c0-.008,0-.015,0-.023s-.017-.024-.021-.038a1.081,1.081,0,0,1-.038-.344c0-.02-.008-.041-.007-.06a1.166,1.166,0,0,1,.8-1.042,1.26,1.26,0,0,1,1.579.74l0,.014a1.062,1.062,0,0,1,.021.2,1.15,1.15,0,0,1,.027.262.466.466,0,0,1-.016.053m5.542.379a1.225,1.225,0,0,1-.714.582l0,0a1.233,1.233,0,0,1-1.481-.665q-.022-.048-.041-.1a1.078,1.078,0,0,1-.038-.273c0-.038-.016-.075-.016-.113a1.063,1.063,0,0,1,.049-.273,1.109,1.109,0,0,1,.048-.169,1.093,1.093,0,0,1,.11-.169,1.137,1.137,0,0,1,.161-.2,1.368,1.368,0,0,1,.113-.078A1.172,1.172,0,0,1,21.66,3.1q.049-.021.1-.039l0,0c.016-.005.032,0,.048-.006l.01,0c.012,0,.025,0,.037,0a1.28,1.28,0,0,1,.445-.04h0a1.262,1.262,0,0,1,.446.13h0a1.214,1.214,0,0,1,.356.277c.01.012.016.027.025.039a1.1,1.1,0,0,1,.193.3c.008.019.015.039.021.059a1.133,1.133,0,0,1-.094.888m5.768-.135a1.177,1.177,0,0,1-.081.2,1.159,1.159,0,0,1-.18.2,1.148,1.148,0,0,1-.121.122,1.2,1.2,0,0,1-.3.148.876.876,0,0,1-.106.053l-.043.011c-.012,0-.02.012-.033.014h0a1.278,1.278,0,0,1-1.436-.784,1,1,0,0,1-.032-.1,1.044,1.044,0,0,1-.015-.237,1.184,1.184,0,0,1-.009-.154,1.1,1.1,0,0,1,.068-.254,1.141,1.141,0,0,1,.062-.17,1.23,1.23,0,0,1,.137-.177,1.172,1.172,0,0,1,.155-.168,1.233,1.233,0,0,1,.166-.095,1.072,1.072,0,0,1,.195-.112c.033-.012.067-.022.1-.03h0a1.241,1.241,0,0,1,1.519.812v0c0,.008,0,.015,0,.022l.015.055a1.122,1.122,0,0,1,0,.151,1.121,1.121,0,0,1,.007.275,1.172,1.172,0,0,1-.071.209m4.888.732h0a1.245,1.245,0,0,1-1.47-.713,1.154,1.154,0,0,1-.049-.131,1,1,0,0,1-.012-.165,1.115,1.115,0,0,1-.018-.22,1.068,1.068,0,0,1,.042-.2,1.089,1.089,0,0,1,.077-.223,1.068,1.068,0,0,1,.1-.151,1.146,1.146,0,0,1,.173-.194,1.118,1.118,0,0,1,.152-.1,1.081,1.081,0,0,1,.169-.109,1.143,1.143,0,0,1,.138-.046h0c.009,0,.019,0,.028,0l.02-.005c.029-.008.058,0,.087,0a1.261,1.261,0,0,1,.385-.023c.028,0,.052.017.08.024a1.246,1.246,0,0,1,.359.118.936.936,0,0,1,.076.058,1.224,1.224,0,0,1,.273.226c.029.037.044.082.07.122a1.106,1.106,0,0,1,.141.248c.006.015.01.031.015.047a1.123,1.123,0,0,1,.029.461,1.2,1.2,0,0,1-.87.979m5.668,0c-.009,0-.018,0-.028,0a1.265,1.265,0,0,1-.9-.114,1.277,1.277,0,0,1-.165-.134,1.067,1.067,0,0,1-.184-.152,1.135,1.135,0,0,1-.232-.425,1.167,1.167,0,0,1,.864-1.439v0a1.212,1.212,0,0,1,1.484.794l.009.032A1.179,1.179,0,0,1,39.574,5.3" transform="translate(0.704 0.101)" fill="#fc9b03"/>
        <path id="Path_35193" data-name="Path 35193" d="M38.871,6.19a6.738,6.738,0,0,1,1.484.178h0A6.8,6.8,0,0,0,38.871,6.19Z" transform="translate(5.094 0.478)" fill="#fc9b03"/>
        <path id="Path_35194" data-name="Path 35194" d="M38.607,6.179h0c.1,0,.2.01.3.012-.1,0-.2-.014-.3-.012" transform="translate(5.06 0.477)" fill="#fc9b03"/>
        <path id="Path_35195" data-name="Path 35195" d="M26.836,26.387h0c1.835-1.939,5.832-2.395,8.45-2.228a14.341,14.341,0,0,1,3.341.573,14.315,14.315,0,0,0-3.345-.574c-2.616-.166-6.614.288-8.45,2.228" transform="translate(3.517 1.862)" fill="#fd9502"/>
        <path id="Path_35196" data-name="Path 35196" d="M19.11,33.97a7.551,7.551,0,0,0-.347-1.8l0-.008v.008A3.718,3.718,0,0,0,17.594,30.9,9.287,9.287,0,0,0,11.5,29.786a12.7,12.7,0,0,0-4.2,1.161A6.286,6.286,0,0,0,5.7,32.029h0a3.043,3.043,0,0,0-.53.638.768.768,0,0,1,.56.289c.023-.025.05-.047.074-.072A6.182,6.182,0,0,1,6.985,31.9c2.89-1.871,7.818-2.243,10.3-.439.076.054.158.1.228.16.01.008.017.017.027.025l.027.023c.024.019.04.043.062.062a2.307,2.307,0,0,1,.238.24c.021.026.037.055.058.082a2.128,2.128,0,0,1,.176.271c.017.031.028.065.043.1a2.229,2.229,0,0,1,.113.287c.01.037.015.073.023.11a2.121,2.121,0,0,1,.052.291c0,.042,0,.083,0,.124a2.15,2.15,0,0,1-.007.283c-.006.046-.019.092-.027.138a2.1,2.1,0,0,1-.061.262c-.017.053-.043.1-.064.155a2.186,2.186,0,0,1-.105.227,1.956,1.956,0,0,1-.113.165c-.038.054-.068.111-.112.163l-.048.054c-.052.062-.116.117-.172.178-.1.106-.193.213-.3.312C14.756,37.5,9.286,37.941,6.346,36.391a6.731,6.731,0,0,0,.023,1.018c.086.689.348.51.61,1.349a7.407,7.407,0,0,0,1.9.6,12.9,12.9,0,0,0,7.08-.913c2.069-.919,3.486-2.2,3.147-4.475" transform="translate(0.677 2.293)" fill="#fdba03"/>
        <path id="Path_35197" data-name="Path 35197" d="M16.158,30.818h0a3.72,3.72,0,0,1,1.165,1.266v-.006a3.717,3.717,0,0,0-1.159-1.259" transform="translate(2.117 2.379)" fill="#fdba03"/>
        <path id="Path_35198" data-name="Path 35198" d="M10.769,29.786A9.293,9.293,0,0,1,16.86,30.9h0a9.289,9.289,0,0,0-6.094-1.118" transform="translate(1.411 2.293)" fill="#fdba03"/>
        <path id="Path_35199" data-name="Path 35199" d="M40.039,26.162a5.8,5.8,0,0,0-1.968-1.195h0a5.871,5.871,0,0,1,1.967,1.194" transform="translate(4.99 1.927)" fill="#fc9b03"/>
        <path id="Path_35200" data-name="Path 35200" d="M38.494,25.03a.644.644,0,0,0,.206.016.668.668,0,0,1-.2-.016,16.992,16.992,0,0,0-6.047-.7,17.007,17.007,0,0,1,6.044.7" transform="translate(4.253 1.875)" fill="#fc9b03"/>
        <path id="Path_35201" data-name="Path 35201" d="M26.966,27.472a.855.855,0,0,0,.259.072.887.887,0,0,1-.259-.072" transform="translate(3.534 2.12)" fill="#fc9b03"/>
        <path id="Path_35202" data-name="Path 35202" d="M46.923,29.827c-.113-.741-.95-1.192-1.59-1.453v.006h0a.89.89,0,0,1,.026.518l-.008,0h0a2.841,2.841,0,0,1,.843.646.944.944,0,0,1-.016,1.35l-.006.01a3.307,3.307,0,0,1-.65.462,9.718,9.718,0,0,1-5.111.9q-.059.62-.07,1.242c0,.149.009.3.01.445,0,.268,0,.535.019.8l1.4.033c1.232.029,4.914-.609,5.159-1.956a9.362,9.362,0,0,0-.006-3.01" transform="translate(5.287 2.19)" fill="#fdba03"/>
        <path id="Path_35203" data-name="Path 35203" d="M44.78,28.892l0,0,.008,0a.89.89,0,0,0-.026-.518h0a.887.887,0,0,1,.025.512" transform="translate(5.866 2.19)" fill="#fdba03"/>
        <path id="Path_35204" data-name="Path 35204" d="M40.342,33.233q.01-.622.07-1.242h0q-.059.62-.069,1.242" transform="translate(5.287 2.469)" fill="#fdba03"/>
        <path id="Path_35205" data-name="Path 35205" d="M27.04,36.2V36.19h0l-.023-.852-.046-1.725a4.794,4.794,0,0,0-.651-.14c-1.623-.2-3.785-.709-4.585-2.034l.01,1.188,0,.231.014,1.439.354.717-.006,0,0,.01c1.2.949,3.768,1.279,5.382,1.363a5.539,5.539,0,0,0,1.794-.038c-.679-.323-1.5.041-2.245-.144" transform="translate(2.848 2.427)" fill="#fdba03"/>
        <path id="Path_35206" data-name="Path 35206" d="M21.755,34.2l-.014-1.439.012,1.446.349.708.006,0Z" transform="translate(2.849 2.528)" fill="#fdba03"/>
        <path id="Path_35207" data-name="Path 35207" d="M46.645,11.511a1.238,1.238,0,0,0-.455-.394.854.854,0,0,0-.433-.1,1.916,1.916,0,0,0-.575.156,2.309,2.309,0,0,1-.484.157.549.549,0,0,1-.226-.011h0l-.019.222.012,1.022.044,3.494a1.1,1.1,0,0,0,.011.11c.032.327.17.526.4.542l.9.064h0a1.186,1.186,0,0,0,.811-.287l.026-2.37.027-2.384h0v0Z" transform="translate(5.826 0.85)" fill="#fdcb2b"/>
        <path id="Path_35208" data-name="Path 35208" d="M45.944,6.424a4.449,4.449,0,0,1-1.2-.055c-.113-.02-.227-.038-.339-.067h0l.07,5.376a.554.554,0,0,0,.227.011,2.388,2.388,0,0,0,.483-.157,1.914,1.914,0,0,1,.576-.156.858.858,0,0,1,.433.1,1.239,1.239,0,0,1,.454.4L46.68,6.3a4.5,4.5,0,0,1-.736.122" transform="translate(5.82 0.486)" fill="#fdd53b"/>
        <path id="Path_35209" data-name="Path 35209" d="M45.989,11.108h0a1.238,1.238,0,0,1,.455.394,1.238,1.238,0,0,0-.455-.394" transform="translate(6.027 0.857)" fill="#fdd53b"/>
        <path id="Path_35210" data-name="Path 35210" d="M46.039,11.115a.855.855,0,0,0-.433-.1A.855.855,0,0,1,46.039,11.115Z" transform="translate(5.977 0.85)" fill="#fdd53b"/>
        <path id="Path_35211" data-name="Path 35211" d="M46.41,14.063h0l.026-2.385Z" transform="translate(6.082 0.901)" fill="#fdba03"/>
        <path id="Path_35212" data-name="Path 35212" d="M46.388,16.261l.026-2.367v0l-.026,2.37h0" transform="translate(6.079 1.072)" fill="#fdba03"/>
        <path id="Path_35213" data-name="Path 35213" d="M45.006,16.669c-.234-.016-.376-.215-.4-.543,0-.038-.011-.07-.012-.111l-.044-3.493L44.533,11.5h-.7V11.5h0c.045.3.066.605.1.908a26.527,26.527,0,0,1,.189,3.084l.028,3.619,0,.467h.831a1.893,1.893,0,0,1,.883-.1v.01l.006-.379.034-2.384Z" transform="translate(5.744 0.887)" fill="#fc9b03"/>
        <path id="Path_35214" data-name="Path 35214" d="M43.934,12.413c-.034-.3-.055-.606-.1-.908h0c.045.3.066.606.1.909Z" transform="translate(5.744 0.888)" fill="#fc9b03"/>
        <rect id="Rectangle_24451" data-name="Rectangle 24451" width="0.004" height="0.468" transform="matrix(1, -0.007, 0.007, 1, 49.892, 20.004)" fill="#fc9b03"/>
        <path id="Path_35215" data-name="Path 35215" d="M44.108,15.426l.028,3.626h0l-.028-3.619a26.526,26.526,0,0,0-.189-3.084h0a26.7,26.7,0,0,1,.188,3.079" transform="translate(5.756 0.953)" fill="#fc9b03"/>
        <path id="Path_35216" data-name="Path 35216" d="M44.916,16.337c-.233-.016-.371-.214-.4-.542.028.327.17.527.4.543l.9.064h0Z" transform="translate(5.834 1.219)" fill="#fc9b03"/>
        <path id="Path_35217" data-name="Path 35217" d="M6.445,37.195a6.876,6.876,0,0,1-.023-1.017h0c-.035-.023-.07-.045-.1-.07-.063-.045-.114-.1-.172-.15s-.1-.083-.147-.128A2.643,2.643,0,0,1,5.81,35.6c-.036-.047-.076-.094-.109-.143a2.372,2.372,0,0,1-.145-.261c-.024-.051-.052-.1-.074-.152-.015-.037-.031-.072-.044-.109-.019-.056-.028-.115-.044-.172s-.032-.108-.042-.163a2.2,2.2,0,0,1-.029-.287c0-.057-.01-.115-.009-.173a2.15,2.15,0,0,1,.027-.281c.009-.06.014-.121.027-.18a2.3,2.3,0,0,1,.085-.271c.021-.06.04-.121.067-.179a2.218,2.218,0,0,1,.14-.251c.027-.044.045-.093.076-.136s.042-.057.063-.085l.008-.014h0a.765.765,0,0,0-.566-.288c-1.028.683-.762,3.17-.372,4.08a3.95,3.95,0,0,0,2.183,2.011c-.261-.841-.524-.659-.61-1.353" transform="translate(0.593 2.505)" fill="#fc9b03"/>
        <path id="Path_35218" data-name="Path 35218" d="M46.971,14.924l0,0-.018-2.335-.036-.856h-.007l.036.852Z" transform="translate(6.148 0.906)" fill="#fdd53b"/>
        <path id="Path_35219" data-name="Path 35219" d="M46.913,11.731v0h.007l.036.856.018,2.336,0-.005.016,1.651h0l.2,0,.594,0,.009-3.691a1.181,1.181,0,0,0-.874-1.159" transform="translate(6.148 0.905)" fill="#fdd53b"/>
        <path id="Path_35220" data-name="Path 35220" d="M39.936,26.274h0" transform="translate(5.234 2.028)" fill="#fd9502"/>
        <path id="Path_35221" data-name="Path 35221" d="M41.312,25.782h0l.223-.008h0Z" transform="translate(5.414 1.989)" fill="#fd9502"/>
        <path id="Path_35222" data-name="Path 35222" d="M40.84,26.034v0a3.5,3.5,0,0,0,.536-.254v0h0a3.549,3.549,0,0,1-.532.252" transform="translate(5.352 1.99)" fill="#fd9502"/>
        <path id="Path_35223" data-name="Path 35223" d="M39.935,26.293v0h0a3.555,3.555,0,0,0,1.019-.274l0,0a3.609,3.609,0,0,1-1.024.276" transform="translate(5.234 2.008)" fill="#fd9502"/>
        <path id="Path_35224" data-name="Path 35224" d="M40.4,27.463c.009.024.02.052.028.075h.008c-.01-.026-.023-.058-.033-.086Z" transform="translate(5.295 2.119)" fill="#fd9502"/>
        <path id="Path_35225" data-name="Path 35225" d="M39.938,26.275h0" transform="translate(5.234 2.028)" fill="#fd9502"/>
        <path id="Path_35226" data-name="Path 35226" d="M48.079,17.385l-.029-.8-.595-.005h-.2v0h0l-.016-1.651-.021-2.336-.036-.852a3.64,3.64,0,0,0-.541-.06l-.027,2.386-.026,2.367h0v0a1.184,1.184,0,0,1-.812.288v0L45.742,19.1l-.006.381a1.893,1.893,0,0,0-.883.1l1.583.006a1.725,1.725,0,0,0,1.251-.453,1.917,1.917,0,0,0,.391-1.251.517.517,0,0,1,0-.5" transform="translate(5.878 0.901)" fill="#fdba03"/>
        <path id="Path_35227" data-name="Path 35227" d="M47.713,17.472c0-.16.009-.341,0-.5a.517.517,0,0,0,0,.5" transform="translate(6.245 1.31)" fill="#fdba03"/>
        <path id="Path_35228" data-name="Path 35228" d="M42.668,13.031a6.933,6.933,0,0,0-.882-2.775,3.1,3.1,0,0,0-2.613-1.622l-10.29-.006c0,.081-.088.38-.088.5l0-.006v.006l.035.8h0l.023,14.881H39.49a3.078,3.078,0,0,0,2.192-1c1.594-1.992,1.259-8.294.986-10.782m-2.316,5.053a2.12,2.12,0,0,1-.031.448c-.006.034-.006.07-.012.1a2.224,2.224,0,0,1-.179.492c-.026.052-.058.1-.087.15a2.252,2.252,0,0,1-.224.312,1.836,1.836,0,0,1-.124.14,2.322,2.322,0,0,1-.381.309c-.02.013-.034.031-.053.043a3.157,3.157,0,0,1-3.936-.707,2.942,2.942,0,0,1-3.148.991,2.448,2.448,0,0,1-1.571-1.258,2.184,2.184,0,0,1-.2-1.037,2.211,2.211,0,0,1,.31-1.014,2.576,2.576,0,0,1,2.77-1.272h0c-.042-.768.984-2.189,1.841-3.207.3-.355.579-.665.785-.876a.907.907,0,0,1,.942-.179.788.788,0,0,1,.413.889A4.8,4.8,0,0,0,37.8,15.89h0c.021,0,.042,0,.062,0a2.49,2.49,0,0,1,.508.03c.062.011.121.026.182.041a2.336,2.336,0,0,1,.383.126c.053.023.106.042.157.068a2.4,2.4,0,0,1,.456.3c.025.02.044.046.068.068a2.281,2.281,0,0,1,.314.352c.016.022.037.037.053.059s.031.064.05.094a2.382,2.382,0,0,1,.115.218c.031.067.058.132.081.2a2.065,2.065,0,0,1,.062.217,2,2,0,0,1,.042.229c.006.037.017.071.02.109s-.007.054-.006.082" transform="translate(3.773 0.666)" fill="#fdfcfc"/>
        <path id="Path_35229" data-name="Path 35229" d="M28.826,9.89h0l-.035-.8h0v0l.029.795V9.9l.006-.009Z" transform="translate(3.773 0.702)" fill="#fdfcfc"/>
        <path id="Path_35230" data-name="Path 35230" d="M38.323,23.648Z" transform="translate(4.94 1.825)" fill="#fdfcfc"/>
        <rect id="Rectangle_24452" data-name="Rectangle 24452" width="0.008" height="14.876" transform="matrix(1, -0.002, 0.002, 1, 32.592, 10.595)" fill="#fdfcfc"/>
        <path id="Path_35631" data-name="Path 35631" d="M0,0H.009V0H0Z" transform="translate(32.592 10.597) rotate(-54.464)" fill="#fdfcfc"/>
        <path id="Path_35231" data-name="Path 35231" d="M6.657,8.635a3.754,3.754,0,0,0-2.191.979,3.462,3.462,0,0,0-1,1.6,16.357,16.357,0,0,0-.613,4.309h0v.878a1.588,1.588,0,0,1-.045.215h0c.123,2-.055,4.526.828,6.474a3.023,3.023,0,0,0,2.5,1.7l10.483.01.016-14.971-.036-1.217Zm6.962,11.658a2.456,2.456,0,0,1-.441.124,3.191,3.191,0,0,1-3.067-1.059,2.753,2.753,0,0,1-1.1.883,2.918,2.918,0,0,1-2.333.026h0a2.478,2.478,0,0,1-.331-.154c-.026-.015-.046-.036-.072-.051s-.046-.033-.07-.05a2.292,2.292,0,0,1-.3-.234c-.01-.009-.017-.018-.027-.027a2.408,2.408,0,0,1-.274-.311l0-.005a2.328,2.328,0,0,1-.217-.375v0a2.1,2.1,0,0,1-.138-.405l0-.026a2.091,2.091,0,0,1-.051-.4c0-.017,0-.034,0-.051a2.22,2.22,0,0,1,.031-.387c0-.025.014-.048.018-.073a2.191,2.191,0,0,1,.106-.358l.008-.027c.026-.06.06-.116.09-.175s.038-.094.066-.138A2.7,2.7,0,0,1,8.31,15.793c-.052-1.051,1.805-3.3,2.61-4.105a.953.953,0,0,1,.944-.159.8.8,0,0,1,.428.888,4.7,4.7,0,0,0,.339,3.491,2.264,2.264,0,0,1,.986,4.386" transform="translate(0.367 0.665)" fill="#fdfcfc"/>
        <path id="Path_35232" data-name="Path 35232" d="M3.459,11.147a3.477,3.477,0,0,1,1-1.6,3.482,3.482,0,0,0-1,1.606,16.341,16.341,0,0,0-.613,4.307h0a16.357,16.357,0,0,1,.613-4.309" transform="translate(0.373 0.737)" fill="#fdfcfc"/>
        <path id="Path_35233" data-name="Path 35233" d="M6.132,24.707a3.021,3.021,0,0,1-2.5-1.7c-.883-1.948-.7-4.47-.829-6.474.124,2-.055,4.524.829,6.478a3.021,3.021,0,0,0,2.5,1.7l10.483.01L16.63,9.748v0l-.016,14.971Z" transform="translate(0.367 0.752)" fill="#fdfcfc"/>
        <path id="Path_35234" data-name="Path 35234" d="M28.75,8.658a.151.151,0,0,0-.1-.043L16.53,8.628c-.036.39-.043.74-.1,1.077l-.123.806h0a1.9,1.9,0,0,1,.169.52V24.807H28.856V8.914c.025-.016-.019-.177-.106-.256M25.7,20.425a3.424,3.424,0,0,1-3.08-.99c-.043.053-.087.1-.135.154a2.881,2.881,0,0,1-1.751.87l-.033,0a2.981,2.981,0,0,1-.481.015c-.028,0-.058,0-.087,0a3.07,3.07,0,0,1-.421-.064c-.048-.011-.1-.019-.143-.032a2.935,2.935,0,0,1-.351-.124c-.063-.027-.128-.052-.19-.083a2.882,2.882,0,0,1-.273-.16c-.05-.032-.1-.055-.153-.09s-.11-.084-.163-.129a2.269,2.269,0,0,1-.369-2.838l.006.005a2.587,2.587,0,0,1,2.686-1.154,9.945,9.945,0,0,1,2.728-4.176,1.182,1.182,0,0,1,.822-.139.694.694,0,0,1,.5.629v0l-.2,1.408a4.66,4.66,0,0,0,.533,2.367,2.38,2.38,0,0,1,1.935.738,2.161,2.161,0,0,1,.556,1.116A2.324,2.324,0,0,1,25.7,20.425" transform="translate(2.137 0.665)" fill="#fdfcfc"/>
        <path id="Path_35235" data-name="Path 35235" d="M16.309,10.51h0l.123-.806c.052-.337.059-.687.1-1.077l12.122-.013a.149.149,0,0,1,.1.042.15.15,0,0,0-.1-.044l-12.122.013c-.036.394-.043.744-.1,1.077l-.123.8h0" transform="translate(2.137 0.665)" fill="#fdfcfc"/>
        <path id="Path_35236" data-name="Path 35236" d="M16.478,10.894a1.9,1.9,0,0,0-.169-.52h0a1.889,1.889,0,0,1,.169.52V24.676H28.856v0H16.478Z" transform="translate(2.137 0.801)" fill="#fdfcfc"/>
        <path id="Path_35237" data-name="Path 35237" d="M16.309,10.373h0" transform="translate(2.137 0.801)" fill="#fdfcfc"/>
        <path id="Path_35238" data-name="Path 35238" d="M28.663,8.771a.8.8,0,0,0,.146.349c0-.124.088-.415.088-.493h0c-.087.005-.252.072-.238.145" transform="translate(3.756 0.666)" fill="#fdcb2b"/>
        <path id="Path_35239" data-name="Path 35239" d="M28.792,9.12v.006c0-.12.089-.419.089-.5h0c0,.079-.089.369-.087.493" transform="translate(3.773 0.666)" fill="#fdcb2b"/>
        <path id="Path_35240" data-name="Path 35240" d="M49.9,20h0l0-.467-.028-3.626a26.7,26.7,0,0,0-.188-3.079c-.034-.3-.055-.606-.1-.908h0a10.388,10.388,0,0,0-1.131-3.11,4.817,4.817,0,0,0-2.993-2.437h0A6.87,6.87,0,0,0,43.965,6.2c-.1,0-.2-.014-.3-.012H7.065l-.048,0-.926-.065C2.976,5.9.983,8.685.421,11.649a28.726,28.726,0,0,0-.415,5.463c0,1.145,0,2.228.069,3.307v0c.007.1-.011.29,0,.39l0,0,.015.094,0,0c.1.64.193,1.91.37,2.585a5.827,5.827,0,0,0,2.691,3.916,5.96,5.96,0,0,0,1.288.357c.052.009.1.025.157.032l.1-.071L4.6,27.8a4.455,4.455,0,0,0,.756.094l19.4-.009,1.184-.022a31.568,31.568,0,0,0,4.411-.086l-.138-.075h0l.139.076c1.836-1.94,5.833-2.393,8.45-2.228a14.325,14.325,0,0,1,3.345.574c.307.09.611.187.911.3h0a5.809,5.809,0,0,1,1.968,1.195,1.032,1.032,0,0,1,.141.212,3.6,3.6,0,0,0,1.022-.277,3.5,3.5,0,0,0,.532-.252h0l.224-.008h0a6.543,6.543,0,0,0,2.692-4.917,19.614,19.614,0,0,0,.253-2.37Zm-4.443,4a3.536,3.536,0,0,1,.621.712,3.609,3.609,0,0,0-.621-.711,3.073,3.073,0,0,1-2.192,1H32.619l-.025-14.873-.225.306c-.287-.26-.647-.2-1.164-.016h0l-.012-1.092a.378.378,0,0,0-.2-.215V25h0v0H18.613V11.224a1.889,1.889,0,0,0-.169-.52,3.116,3.116,0,0,0-1.06-.348L17,10.027l0,0v0L16.982,25,6.5,24.992a3.021,3.021,0,0,1-2.5-1.7c-.884-1.954-.7-4.474-.829-6.478v0h-.2c-.042,0-.055-.11-.037-.165.007-.018.017-.032.031-.033l.247-.023v-.871a.713.713,0,0,1-.254-.025.835.835,0,0,0,.254.02v0h0a16.341,16.341,0,0,1,.613-4.307,3.482,3.482,0,0,1,1-1.606,3.762,3.762,0,0,1,2.193-.981l9.936-.019L17,10.027l.383.326a3.114,3.114,0,0,1,1.062.349l.123-.806c.052-.333.059-.683.1-1.077l12.122-.013a.154.154,0,0,1,.1.045c.089.079.136.242.11.259a.378.378,0,0,1,.2.215l.012,1.091c.516-.182.874-.243,1.163.016l.226-.308v-.008l-.029-.795v0a.818.818,0,0,1-.147-.353c-.015-.073.15-.139.238-.145h0l10.29.006a3.1,3.1,0,0,1,2.613,1.622,6.916,6.916,0,0,1,.882,2.775c.273,2.49.607,8.789-.986,10.782" transform="translate(0 0.471)" fill="#fdd53b"/>
        <path id="Path_35241" data-name="Path 35241" d="M2.627,15.866c-.014,0-.024.012-.031.03-.018.056,0,.162.037.162h.2v0a1.54,1.54,0,0,0,.045-.214Z" transform="translate(0.339 1.223)" fill="#fdd53b"/>
        <path id="Path_35242" data-name="Path 35242" d="M2.634,16.055c-.041,0-.055-.106-.037-.162-.018.055,0,.165.037.165h.2v0Z" transform="translate(0.339 1.227)" fill="#fdd53b"/>
        <path id="Path_35243" data-name="Path 35243" d="M36.634,3.747a1.225,1.225,0,0,0-1.5-.8,1.152,1.152,0,0,0-.84,1.43,1.133,1.133,0,0,0,.218.4,1.067,1.067,0,0,0,.184.152,1.276,1.276,0,0,0,.165.134,1.283,1.283,0,0,0,.9.114c.009,0,.018,0,.027,0a1.179,1.179,0,0,0,.845-1.432" transform="translate(4.488 0.224)" fill="#fdd53b"/>
        <path id="Path_35244" data-name="Path 35244" d="M34.788,4.911a1.259,1.259,0,0,0,.9.113,1.276,1.276,0,0,1-.9-.113" transform="translate(4.559 0.379)" fill="#fdd53b"/>
        <path id="Path_35245" data-name="Path 35245" d="M24.255,4.41a1.278,1.278,0,0,0,1.436.783l.031-.008a1.063,1.063,0,0,0,.149-.064,1.2,1.2,0,0,0,.3-.148,1.148,1.148,0,0,0,.121-.122,1.159,1.159,0,0,0,.18-.2,1.142,1.142,0,0,0,.081-.2,1.144,1.144,0,0,0,.071-.209,1.178,1.178,0,0,0-.006-.275A1.158,1.158,0,0,0,26.6,3.76l0-.015a1.239,1.239,0,0,0-1.516-.818h0a1.182,1.182,0,0,0-.291.136,1.234,1.234,0,0,0-.166.095,1.173,1.173,0,0,0-.155.168,1.182,1.182,0,0,0-.137.178,1.087,1.087,0,0,0-.062.169,1.1,1.1,0,0,0-.068.254,1.184,1.184,0,0,0,.009.154,1.1,1.1,0,0,0,.051.329" transform="translate(3.171 0.223)" fill="#fdd53b"/>
        <path id="Path_35246" data-name="Path 35246" d="M24.254,4.325A1.1,1.1,0,0,1,24.2,4a1.044,1.044,0,0,0,.015.237.994.994,0,0,0,.032.1,1.278,1.278,0,0,0,1.436.784h0c.012,0,.02-.011.033-.014l-.031.008a1.278,1.278,0,0,1-1.436-.783" transform="translate(3.172 0.308)" fill="#fdd53b"/>
        <path id="Path_35247" data-name="Path 35247" d="M26.335,3.752c0-.018-.009-.037-.015-.055a1.054,1.054,0,0,1,.018.206.96.96,0,0,0,0-.151" transform="translate(3.449 0.285)" fill="#fdd53b"/>
        <path id="Path_35248" data-name="Path 35248" d="M29.31,4.463a1.243,1.243,0,0,0,1.47.713,1.2,1.2,0,0,0,.869-.974,1.136,1.136,0,0,0-.031-.456,1.127,1.127,0,0,0-.155-.3c-.026-.04-.041-.085-.07-.122a1.224,1.224,0,0,0-.273-.226.936.936,0,0,0-.076-.058,1.246,1.246,0,0,0-.359-.118c-.028-.005-.052-.019-.08-.024a1.3,1.3,0,0,0-.385.023c-.036.006-.071,0-.107.01l-.029.009a1.194,1.194,0,0,0-.307.15,1.118,1.118,0,0,0-.152.1,1.146,1.146,0,0,0-.173.194,1.067,1.067,0,0,0-.1.151,1.09,1.09,0,0,0-.077.223,1.068,1.068,0,0,0-.042.2,1.115,1.115,0,0,0,.018.22,1.044,1.044,0,0,0,.061.291" transform="translate(3.831 0.223)" fill="#fdd53b"/>
        <path id="Path_35249" data-name="Path 35249" d="M30.778,5.084a1.243,1.243,0,0,1-1.47-.713,1.044,1.044,0,0,1-.061-.291,1,1,0,0,0,.012.165,1.154,1.154,0,0,0,.049.131,1.243,1.243,0,0,0,1.47.713h0a1.2,1.2,0,0,0,.87-.979,1.2,1.2,0,0,1-.869.974" transform="translate(3.833 0.315)" fill="#fdd53b"/>
        <path id="Path_35250" data-name="Path 35250" d="M30.032,2.922l-.02.005c.036-.01.071,0,.107-.011-.029.005-.058,0-.087.005" transform="translate(3.933 0.225)" fill="#fdd53b"/>
        <path id="Path_35251" data-name="Path 35251" d="M14.2,4.422a1.04,1.04,0,0,0,.1.168,1.238,1.238,0,0,0,.143.222,1.12,1.12,0,0,0,.226.172,1.226,1.226,0,0,0,.133.094,1.291,1.291,0,0,0,.361.1c.027,0,.052.016.079.018a1.259,1.259,0,0,0,.454-.044.179.179,0,0,0,.024,0,1.242,1.242,0,0,0,.4-.208c.008-.006.019-.009.027-.015a1.176,1.176,0,0,0,.278-.33c0-.006.011-.012.015-.018a1.128,1.128,0,0,0,.119-.376c0-.019.014-.036.016-.054a1.158,1.158,0,0,0-.028-.262.96.96,0,0,0-.02-.187,1.259,1.259,0,0,0-1.569-.758l-.015,0a1.175,1.175,0,0,0-.8,1.032c0,.02.007.041.007.061a1.087,1.087,0,0,0,.06.38" transform="translate(1.853 0.223)" fill="#fdd53b"/>
        <path id="Path_35252" data-name="Path 35252" d="M15.6,5h0a1.208,1.208,0,0,0,.345-.2,1.236,1.236,0,0,1-.4.208c.019-.005.04,0,.06-.009" transform="translate(2.036 0.37)" fill="#fdd53b"/>
        <path id="Path_35253" data-name="Path 35253" d="M14.2,4.335a1.222,1.222,0,0,0,.093.144,1.04,1.04,0,0,1-.1-.168c0,.008,0,.016,0,.024" transform="translate(1.861 0.333)" fill="#fdd53b"/>
        <path id="Path_35254" data-name="Path 35254" d="M19.254,4.491a1.229,1.229,0,0,0,2.19.093,1.129,1.129,0,0,0,.089-.878,1.152,1.152,0,0,0-.21-.372c-.009-.012-.015-.027-.025-.039a1.217,1.217,0,0,0-.356-.277h0a1.262,1.262,0,0,0-.446-.13h0a1.282,1.282,0,0,0-.445.04c-.016,0-.032,0-.048.008s-.035.01-.052.016a1.2,1.2,0,0,0-.318.178,1.369,1.369,0,0,0-.113.078,1.138,1.138,0,0,0-.161.2,1.093,1.093,0,0,0-.11.169,1.227,1.227,0,0,0-.048.17,1.046,1.046,0,0,0-.049.271c0,.038.012.075.016.113a1.062,1.062,0,0,0,.086.357" transform="translate(2.51 0.222)" fill="#fdd53b"/>
        <path id="Path_35255" data-name="Path 35255" d="M20.733,5.066A1.233,1.233,0,0,1,19.252,4.4a1.062,1.062,0,0,1-.086-.357,1.078,1.078,0,0,0,.038.273q.019.048.041.1a1.233,1.233,0,0,0,1.481.665l0,0a1.225,1.225,0,0,0,.714-.582,1.224,1.224,0,0,1-.709.572" transform="translate(2.512 0.312)" fill="#fdd53b"/>
        <path id="Path_35256" data-name="Path 35256" d="M19.913,2.928l-.011,0c.016,0,.032,0,.048-.006-.012,0-.024,0-.036,0" transform="translate(2.608 0.226)" fill="#fdd53b"/>
        <path id="Path_35257" data-name="Path 35257" d="M9.718,5.012a1.183,1.183,0,0,0,1.493-.158,1.114,1.114,0,0,0,.222-1.31A1.217,1.217,0,0,0,10.11,2.9a1.27,1.27,0,0,0-.618.3,1.167,1.167,0,0,0-.34.564,1.2,1.2,0,0,0,.566,1.246" transform="translate(1.197 0.222)" fill="#fdd53b"/>
        <path id="Path_35258" data-name="Path 35258" d="M9.149,3.7v0Z" transform="translate(1.199 0.285)" fill="#fdd53b"/>
        <path id="Path_35259" data-name="Path 35259" d="M9.707,5.006V5a1.184,1.184,0,0,0,1.5-.164l0-.005a1.183,1.183,0,0,1-1.493.158,1.2,1.2,0,0,1-.566-1.246v0a1.167,1.167,0,0,1,.34-.564,1.169,1.169,0,0,0-.353.578,1.2,1.2,0,0,0,.566,1.25" transform="translate(1.195 0.245)" fill="#fdd53b"/>
        <path id="Path_35260" data-name="Path 35260" d="M35.227,30.774v0a9.949,9.949,0,0,0,5.586-1.664,1.948,1.948,0,0,0,.7-1.412c-.143-1.149-1.871-1.964-2.978-2.307a14.491,14.491,0,0,0-8.469-.017,6.36,6.36,0,0,0-2.284,1.248,1.486,1.486,0,0,0-.58,1.139h0l.016.2c.736,1.84,3.47,2.459,5.463,2.73l-.01,3.435.122.108v0h0l1.029.022h0v0c.477.011.976-.034,1.453-.051Zm-6.25-3.163a1.31,1.31,0,0,1,.75-1.03,5.019,5.019,0,0,1,1.33-.556,12.354,12.354,0,0,1,6.9.194,4.094,4.094,0,0,1,1.459.813.889.889,0,0,1,.115.117.876.876,0,0,1,.059.111.814.814,0,0,1,.123.327.791.791,0,0,1-.015.338.894.894,0,0,1-.057.168.932.932,0,0,1-.092.149,1.036,1.036,0,0,1-.062.1.975.975,0,0,1-.123.11c-2.679,2.117-10.354,1.253-10.388-.841" transform="translate(3.564 1.91)" fill="#fde145"/>
        <rect id="Rectangle_24454" data-name="Rectangle 24454" width="0.002" height="0.205" transform="translate(30.767 29.664)" fill="#fde145"/>
        <path id="Path_35261" data-name="Path 35261" d="M27.2,27.621h0a1.484,1.484,0,0,1,.58-1.139A1.485,1.485,0,0,0,27.2,27.621Z" transform="translate(3.564 2.044)" fill="#fde145"/>
        <path id="Path_35262" data-name="Path 35262" d="M27.2,27.539Z" transform="translate(3.564 2.125)" fill="#fde145"/>
        <rect id="Rectangle_24455" data-name="Rectangle 24455" width="0.166" height="0.005" transform="translate(36.207 36.088)" fill="#fde145"/>
        <path id="Path_35263" data-name="Path 35263" d="M32.665,33.893l.01-3.435v0c-1.992-.271-4.722-.89-5.462-2.727.064.832-.067,2.473.008,3.333.128,1.461,2.293,2.181,3.6,2.544l.374.1,0,0a9.635,9.635,0,0,0,1.47.184" transform="translate(3.564 2.141)" fill="#fdba03"/>
        <path id="Path_35264" data-name="Path 35264" d="M27.22,31.068c-.075-.86.057-2.5-.008-3.333v-.008h0c.066.828-.067,2.478.009,3.339.128,1.461,2.293,2.183,3.6,2.544-1.3-.362-3.469-1.083-3.6-2.543" transform="translate(3.564 2.14)" fill="#fdba03"/>
        <path id="Path_35265" data-name="Path 35265" d="M30.731,33.281l0,0h0a9.636,9.636,0,0,0,1.47.184v-.005a9.635,9.635,0,0,1-1.47-.184" transform="translate(4.027 2.569)" fill="#fdba03"/>
        <path id="Path_35266" data-name="Path 35266" d="M32.031,33.7l.01-3.435Z" transform="translate(4.198 2.336)" fill="#fdba03"/>
        <path id="Path_35267" data-name="Path 35267" d="M27.21,27.735c.739,1.838,3.47,2.456,5.462,2.727v0c-1.993-.27-4.727-.89-5.463-2.73v.006" transform="translate(3.566 2.14)" fill="#fdba03"/>
        <path id="Path_35268" data-name="Path 35268" d="M27.21,27.736v-.006h0v.008" transform="translate(3.566 2.14)" fill="#fdba03"/>
        <path id="Path_35269" data-name="Path 35269" d="M32.031,33.452h0v0Z" transform="translate(4.198 2.582)" fill="#fdba03"/>
        <path id="Path_35270" data-name="Path 35270" d="M28.356,33.836a.44.44,0,0,0,.3-.178l-.927-.8h0L26.6,32.71c-.937-.121-3.2-.666-3.185-1.7h0c.019-1.109,2.641-1.6,3.52-1.66l.007-.768h0c-1.464.083-5.654.849-5.25,2.884h0c.009.047.032.14.045.189h0c.8,1.324,2.962,1.837,4.584,2.033a5,5,0,0,1,.654.14v-.005Z" transform="translate(2.839 2.206)" fill="#fde145"/>
        <path id="Path_35271" data-name="Path 35271" d="M21.734,31.451h0c-.014-.048-.036-.141-.045-.189h0c.009.047.033.14.045.189" transform="translate(2.843 2.413)" fill="#fde145"/>
        <path id="Path_35272" data-name="Path 35272" d="M27.957,33.352h0l-.927-.8Z" transform="translate(3.542 2.512)" fill="#fde145"/>
        <path id="Path_35273" data-name="Path 35273" d="M27.741,33.473l-1.38-.011v.005l1.38.011a.445.445,0,0,0,.307-.181l0,0a.44.44,0,0,1-.3.178" transform="translate(3.455 2.57)" fill="#fde145"/>
        <path id="Path_35274" data-name="Path 35274" d="M27.849,33.294h0l0,0h0Z" transform="translate(3.65 2.57)" fill="#fde145"/>
        <path id="Path_35275" data-name="Path 35275" d="M26.733,29.3h0c-.879.056-3.5.55-3.52,1.659-.017,1.03,2.25,1.576,3.185,1.7l1.13.145a3.661,3.661,0,0,1-.749-1.577Z" transform="translate(3.042 2.261)" fill="#fdba03"/>
        <path id="Path_35276" data-name="Path 35276" d="M26.325,29.3l.046,1.922A3.661,3.661,0,0,0,27.12,32.8h0a3.652,3.652,0,0,1-.75-1.579L26.325,29.3h0Z" transform="translate(3.45 2.261)" fill="#fdba03"/>
        <path id="Path_35277" data-name="Path 35277" d="M23.213,30.958h0c.02-1.109,2.641-1.6,3.52-1.66h0c-.879.057-3.5.55-3.52,1.66" transform="translate(3.042 2.261)" fill="#fdba03"/>
        <path id="Path_35278" data-name="Path 35278" d="M27.029,28.618c0-.127,0-.3-.017-.5-1.673.086-4.988.726-5.826,2.393a1.812,1.812,0,0,0-.2.883l.434-.036.193-.016.167.157c-.409-2.036,3.783-2.8,5.249-2.885" transform="translate(2.75 2.17)" fill="#fdba03"/>
        <path id="Path_35279" data-name="Path 35279" d="M26.33,28.582h0Z" transform="translate(3.451 2.206)" fill="#fdba03"/>
        <path id="Path_35280" data-name="Path 35280" d="M21.186,30.339a1.813,1.813,0,0,0-.2.887h0a1.812,1.812,0,0,1,.2-.883Z" transform="translate(2.75 2.342)" fill="#fdba03"/>
        <path id="Path_35281" data-name="Path 35281" d="M26.989,28.12v0c-1.672.087-4.987.725-5.827,2.392v0c.838-1.667,4.153-2.307,5.826-2.393" transform="translate(2.773 2.17)" fill="#fdba03"/>
        <path id="Path_35282" data-name="Path 35282" d="M5.708,32.813a2.423,2.423,0,0,0-.139.221,2.218,2.218,0,0,0-.14.251c-.027.059-.045.12-.067.179a2.3,2.3,0,0,0-.085.271c-.014.059-.018.12-.027.18a2.15,2.15,0,0,0-.027.281c0,.058.006.116.009.175a2.436,2.436,0,0,0,.029.287c.01.055.028.108.042.162s.029.095.044.141V33.7l1.628-1.949a6.188,6.188,0,0,0-1.183.978c-.023.025-.051.046-.074.072h0l-.01.014" transform="translate(0.685 2.45)" fill="#fde145"/>
        <path id="Path_35283" data-name="Path 35283" d="M15.884,31.341l.763,2.387-.426,1.005c.055-.06.119-.114.17-.176a2.03,2.03,0,0,0,.163-.22c.038-.055.08-.107.113-.164a2.053,2.053,0,0,0,.1-.227c.021-.052.048-.1.066-.155a2.135,2.135,0,0,0,.06-.262c.009-.046.021-.092.027-.138a1.975,1.975,0,0,0,.007-.283c0-.041,0-.083,0-.124a1.959,1.959,0,0,0-.051-.291c-.009-.037-.014-.074-.024-.11a1.943,1.943,0,0,0-.113-.287c-.015-.032-.025-.066-.042-.1a2.021,2.021,0,0,0-.178-.271c-.019-.027-.035-.056-.057-.082a2.206,2.206,0,0,0-.238-.24c-.032-.028-.058-.058-.09-.085l-.029-.023c-.069-.058-.15-.1-.224-.158" transform="translate(2.082 2.419)" fill="#fde145"/>
        <path id="Path_35284" data-name="Path 35284" d="M18.031,33.812l-.763-2.387c-2.485-1.806-7.415-1.435-10.308.439L5.333,33.812v1.265c.016.046.026.094.044.14s.049.1.074.151a2.378,2.378,0,0,0,.144.262c.033.05.072.095.11.142A2.07,2.07,0,0,0,5.9,36c.045.046.1.086.147.129a2.609,2.609,0,0,0,.278.219h0v0C9.263,37.9,14.732,37.453,17.3,35.13c.109-.1.2-.207.3-.312ZM15.35,35a9.387,9.387,0,0,1-6.877.885h0a2.683,2.683,0,0,1-1.341-.714,2.554,2.554,0,0,1-.323-.39c-1.2-2.094,4.687-4.666,8.655-3.08h0a1.644,1.644,0,0,1,1.223,1.625A2.5,2.5,0,0,1,15.35,35" transform="translate(0.699 2.335)" fill="#fde145"/>
        <path id="Path_35285" data-name="Path 35285" d="M16.136,31.532l-.027-.022c.033.026.059.057.089.085-.023-.02-.038-.044-.062-.064" transform="translate(2.111 2.432)" fill="#fde145"/>
        <path id="Path_35286" data-name="Path 35286" d="M5.735,32.656c-.023.025-.051.047-.074.072.023-.025.051-.047.074-.072" transform="translate(0.742 2.52)" fill="#fde145"/>
        <path id="Path_35287" data-name="Path 35287" d="M5.652,32.738l.01-.014h0l0,0-.008.013" transform="translate(0.741 2.526)" fill="#fde145"/>
        <path id="Path_35288" data-name="Path 35288" d="M40.984,28.7c-.006-.168-.007-.352-.009-.533,0-.107-.007-.2-.007-.317,0-.154-.258-.36-.39-.374v0h0a1.944,1.944,0,0,1-.7,1.415A9.952,9.952,0,0,1,34.3,30.563l.046,3.43a11.215,11.215,0,0,0,4.936-1.163c1.917-1.019,1.768-2.2,1.706-4.127" transform="translate(4.495 2.121)" fill="#fdba03"/>
        <path id="Path_35289" data-name="Path 35289" d="M39.882,28.894A9.949,9.949,0,0,1,34.3,30.558v0A9.957,9.957,0,0,0,39.882,28.9a1.945,1.945,0,0,0,.7-1.415h0A1.948,1.948,0,0,1,39.882,28.894Z" transform="translate(4.495 2.121)" fill="#fdba03"/>
        <path id="Path_35290" data-name="Path 35290" d="M46.186,29.576a2.841,2.841,0,0,0-.843-.646,12.977,12.977,0,0,0-4.884-.907l-.026.695c.057.012.113.028.17.04.852-.018,3.521.323,4.079,1.069a.444.444,0,0,1,.076.451h0v.009c-.39.977-3.4,1.226-4.324,1.141a7.729,7.729,0,0,1-.027.856,9.737,9.737,0,0,0,5.11-.9,3.391,3.391,0,0,0,.658-.465.931.931,0,0,0,.014-1.339" transform="translate(5.295 2.163)" fill="#fde145"/>
        <path id="Path_35291" data-name="Path 35291" d="M40.43,28.668l0,.051a1.585,1.585,0,0,1,.172-.012c-.057-.012-.113-.027-.17-.039" transform="translate(5.298 2.213)" fill="#fde145"/>
        <path id="Path_35292" data-name="Path 35292" d="M40.457,28.023h-.01l-.026.693.01,0Z" transform="translate(5.298 2.163)" fill="#fde145"/>
        <path id="Path_35293" data-name="Path 35293" d="M40.421,28.727V28.72h.008l0-.052-.01,0,0,.061h0" transform="translate(5.297 2.212)" fill="#fde145"/>
        <path id="Path_35294" data-name="Path 35294" d="M40.4,32.038a8.323,8.323,0,0,0,.027-.856h-.007a8,8,0,0,1-.027.871H40.4Z" transform="translate(5.295 2.407)" fill="#fde145"/>
        <path id="Path_35295" data-name="Path 35295" d="M44.922,31.221v.012a3.35,3.35,0,0,0,.651-.462l.006-.01a.947.947,0,0,0,.292-.669.941.941,0,0,1-.292.664,3.417,3.417,0,0,1-.657.465" transform="translate(5.887 2.323)" fill="#fde145"/>
        <path id="Path_35296" data-name="Path 35296" d="M40.4,32.042v.015a9.724,9.724,0,0,0,5.112-.9V31.14a9.738,9.738,0,0,1-5.11.9" transform="translate(5.295 2.403)" fill="#fde145"/>
        <path id="Path_35297" data-name="Path 35297" d="M40.4,31.977h0v0" transform="translate(5.295 2.468)" fill="#fde145"/>
        <path id="Path_35298" data-name="Path 35298" d="M44.672,29.771c-.563-.735-3.166-1.075-4.042-1.061a1.725,1.725,0,0,0-.2.013c-.037.878-.019,1.758,0,2.639.923.084,3.932-.163,4.323-1.141l0,0a.448.448,0,0,0-.084-.452" transform="translate(5.296 2.216)" fill="#fdba03"/>
        <path id="Path_35299" data-name="Path 35299" d="M40.431,28.722h-.008c-.033.877-.015,1.757,0,2.638h.008c-.019-.881-.037-1.761,0-2.639" transform="translate(5.295 2.217)" fill="#fdba03"/>
        <path id="Path_35300" data-name="Path 35300" d="M44.65,29.771l.008,0c-.556-.746-3.227-1.087-4.077-1.069l.027.005c.877-.014,3.479.326,4.042,1.061" transform="translate(5.318 2.215)" fill="#fdba03"/>
        <path id="Path_35301" data-name="Path 35301" d="M44.262,30.147h0a.443.443,0,0,0-.076-.451l-.009,0a.448.448,0,0,1,.084.452" transform="translate(5.79 2.292)" fill="#fdba03"/>
        <path id="Path_35302" data-name="Path 35302" d="M40.428,28.723a1.748,1.748,0,0,1,.2-.013l-.028-.005a1.38,1.38,0,0,0-.172.011v.008" transform="translate(5.298 2.215)" fill="#fdba03"/>
        <path id="Path_35303" data-name="Path 35303" d="M40.429,28.72v-.005h-.008v.008h.008v0" transform="translate(5.298 2.216)" fill="#fdba03"/>
        <path id="Path_35304" data-name="Path 35304" d="M50.255,28.708a12.641,12.641,0,0,0-3.654-.8L45.367,27.8v0h-.008c-.008-.023-.019-.051-.028-.075l0-.011.033.087,1.225.107-.007-2-.223.008h0v0a3.5,3.5,0,0,1-.536.254,3.613,3.613,0,0,1-1.019.275h0a.98.98,0,0,0-.14-.212A5.888,5.888,0,0,0,42.7,25.033h0c.008.012-.041.023-.106.027a.644.644,0,0,1-.206-.016,17.007,17.007,0,0,0-6.044-.7,17.017,17.017,0,0,1,6.047.7.668.668,0,0,0,.2.016c.066,0,.114-.016.105-.027-.3-.111-.6-.208-.909-.3a14.3,14.3,0,0,0-3.341-.573c-2.618-.167-6.616.289-8.451,2.228h0a31.569,31.569,0,0,1-4.411.086l-1.184.022-19.4.009a4.455,4.455,0,0,1-.756-.094c-.055-.008-.107-.024-.163-.033a5.971,5.971,0,0,1-1.283-.355l.024,5.154c0,.6.809,1.125,1.379,1.162L6,32.46a6.286,6.286,0,0,1,1.609-1.083,12.735,12.735,0,0,1,4.2-1.161,9.289,9.289,0,0,1,6.094,1.118,3.716,3.716,0,0,1,1.16,1.258l-.01-.17,4.064-.006c.034,1.562-.147,2.368,1.465,3.16l-.349-.708-.012-1.446,0-.231L24.212,32h0c-.012-.048-.036-.141-.045-.189h0L24,31.655l-.195.016-.435.036v0h0a1.8,1.8,0,0,1,.2-.887c.84-1.667,4.156-2.305,5.827-2.392v0h0c.012.2.018.372.017.5h0l-.007.768.046,1.922a3.652,3.652,0,0,0,.75,1.579h0v0l.927.8,0,0a.445.445,0,0,1-.307.181l-1.38-.011v0h0L29.5,35.9l.023.852c.748.184,1.571-.176,2.243.144l1.16.6.026-1.083h0L33,34.6c.743.185,2.086.35,2.753.5h0l.113.025h0a14.6,14.6,0,0,0,2.521.047l.092-.079v-.011h0a11.489,11.489,0,0,0,2.773-.323v.006h0l.041,1.722.033,1.4A6.623,6.623,0,0,0,44.2,36.709a2.973,2.973,0,0,0,1-1.524,6.259,6.259,0,0,0,1.5-.056l-1.4-.033c-.017-.27-.016-.541-.019-.811,0-.148-.012-.3-.01-.445q.01-.62.069-1.242h-.006a8,8,0,0,0,.027-.871h.007v-.011h-.008c-.015-.881-.033-1.76,0-2.638h0l0-.061.026-.693h.01v0a12.986,12.986,0,0,1,4.886.9l0,0a.9.9,0,0,0-.025-.512m-6.843,4.38a11.22,11.22,0,0,1-4.937,1.163h0v0c-.477.016-.975.06-1.453.051h0l-1.029-.022h0l-.121-.107a9.636,9.636,0,0,1-1.47-.184h0l-.374-.1c-1.305-.362-3.47-1.085-3.6-2.545-.076-.862.057-2.511-.009-3.339h0l-.016-.2v0a.887.887,0,0,1-.259-.072.887.887,0,0,0,.259.072,1.492,1.492,0,0,1,.584-1.138,6.357,6.357,0,0,1,2.287-1.252,14.491,14.491,0,0,1,8.469.017c1.107.344,2.836,1.159,2.978,2.308.132.013.39.215.39.373,0,.108,0,.2.006.3,0,.185.006.374.011.546.064,1.925.209,3.108-1.707,4.126" transform="translate(0.366 1.862)" fill="#fd9502"/>
        <path id="Path_35305" data-name="Path 35305" d="M32.032,36.314h0V34.342h0Z" transform="translate(4.198 2.65)" fill="#fd9502"/>
        <path id="Path_35306" data-name="Path 35306" d="M40.108,17.154a2.223,2.223,0,0,0-.062-.217c-.024-.068-.051-.134-.081-.2a2.231,2.231,0,0,0-.115-.217c-.033-.053-.067-.1-.1-.154a2.4,2.4,0,0,0-.314-.352c-.024-.022-.043-.047-.068-.068a2.45,2.45,0,0,0-.456-.3c-.052-.026-.1-.045-.157-.068a2.56,2.56,0,0,0-.383-.126c-.061-.014-.12-.03-.182-.04a2.415,2.415,0,0,0-.508-.031c-.021,0-.042,0-.063,0h0a7.2,7.2,0,0,0-1.151.229h0a.985.985,0,0,0-.21.106c-.032.018-.066.027-.1.048a2.516,2.516,0,0,0-.287.24l-.009.006c-.192.183-.376.388-.545.534h0l-.931-.931L33.3,15.277h0a2.576,2.576,0,0,0-2.77,1.272v0a2.22,2.22,0,0,0-.309,1.009,2.193,2.193,0,0,0,.2,1.033,2.451,2.451,0,0,0,1.571,1.258v0a2.941,2.941,0,0,0,3.148-.991,3.157,3.157,0,0,0,3.936.707c.02-.012.035-.028.055-.041a2.424,2.424,0,0,0,.381-.308c.045-.045.084-.094.124-.141a2.252,2.252,0,0,0,.224-.312c.029-.05.061-.1.087-.15a2.165,2.165,0,0,0,.178-.492c.008-.033.008-.069.014-.1a2.135,2.135,0,0,0,.031-.449c0-.064-.007-.127-.015-.191a2.038,2.038,0,0,0-.042-.229m-5.826-.062a.484.484,0,0,1-.027.054.475.475,0,0,1-.029.058.515.515,0,0,1-.1.132.343.343,0,0,1-.031.026.572.572,0,0,1-.155.1l-.033.011a.579.579,0,0,1-.189.034.123.123,0,0,1-.019,0,.51.51,0,0,1-.057-.008.492.492,0,0,1-.079,0v0a.651.651,0,0,1-.481-.355.615.615,0,0,1-.061-.193.624.624,0,0,1,.6-.548v0a.632.632,0,0,1,.6.326.565.565,0,0,1,.068.225.518.518,0,0,1-.017.131m4.762-.076a.519.519,0,0,1-.1.232.885.885,0,0,1-.7.137.705.705,0,0,1-.413-.458h0c0-.012,0-.023,0-.034a.523.523,0,0,1,.021-.178h0a.542.542,0,0,1,.109-.183c.012-.014.031-.022.044-.034a.589.589,0,0,1,.127-.095.694.694,0,0,1,.068-.018.55.55,0,0,1,.14-.04c.012,0,.023,0,.035,0a.571.571,0,0,1,.1.011.692.692,0,0,1,.1.01h0a.575.575,0,0,1,.244.1.111.111,0,0,1,.02.008.465.465,0,0,1,.045.05.551.551,0,0,1,.085.093.606.606,0,0,1,.045.089.589.589,0,0,1,.035.1.475.475,0,0,1,.006.113.386.386,0,0,1,0,.072c0,.008-.008.014-.009.022" transform="translate(3.96 1.175)" fill="#f75d9e"/>
        <path id="Path_35307" data-name="Path 35307" d="M30.532,16.551a2.576,2.576,0,0,1,2.77-1.272v0h0a2.576,2.576,0,0,0-2.77,1.272,2.211,2.211,0,0,0-.31,1.014,2.221,2.221,0,0,1,.31-1.009Z" transform="translate(3.961 1.175)" fill="#f75d9e"/>
        <path id="Path_35308" data-name="Path 35308" d="M36.758,15.372c.021,0,.042,0,.063,0-.021,0-.042-.005-.063,0h0v0" transform="translate(4.817 1.186)" fill="#f75d9e"/>
        <path id="Path_35309" data-name="Path 35309" d="M38.7,16.344c-.015-.023-.037-.038-.053-.059.036.05.071.1.1.153-.018-.03-.029-.064-.05-.094" transform="translate(5.064 1.257)" fill="#f75d9e"/>
        <path id="Path_35310" data-name="Path 35310" d="M34.025,15.922A4.4,4.4,0,0,1,35.643,13.4h0a6.528,6.528,0,0,0,.463,2.518,7.164,7.164,0,0,1,1.15-.231,4.8,4.8,0,0,1-.331-3.475.788.788,0,0,0-.413-.889.908.908,0,0,0-.942.179c-.2.211-.484.519-.784.875-.857,1.018-1.884,2.439-1.84,3.206Z" transform="translate(4.318 0.869)" fill="#972d4d"/>
        <path id="Path_35311" data-name="Path 35311" d="M36.3,11.324a.787.787,0,0,1,.413.889,4.8,4.8,0,0,0,.331,3.475h0a4.8,4.8,0,0,1-.333-3.477.787.787,0,0,0-.413-.889.908.908,0,0,0-.942.179c-.2.211-.485.52-.785.876.3-.354.579-.662.784-.874a.906.906,0,0,1,.942-.179" transform="translate(4.531 0.869)" fill="#972d4d"/>
        <path id="Path_35312" data-name="Path 35312" d="M36.89,15.37a7.188,7.188,0,0,0-1.15.231A7.309,7.309,0,0,1,36.89,15.37Z" transform="translate(4.684 1.186)" fill="#972d4d"/>
        <path id="Path_35313" data-name="Path 35313" d="M36.757,15.37h0" transform="translate(4.817 1.186)" fill="#972d4d"/>
        <path id="Path_35314" data-name="Path 35314" d="M14.833,17.446A2.288,2.288,0,0,0,12.352,15.4l-1.145.222a4.361,4.361,0,0,0-1.171.921l-.863-.856-1.14-.4a2.759,2.759,0,0,0-.416-.05,2.637,2.637,0,0,0-2.383,1.273v0c-.028.044-.048.094-.072.14-.035.067-.07.135-.1.2a2.274,2.274,0,0,0-.106.358c0,.025-.014.048-.017.073a2.016,2.016,0,0,0-.031.386c0,.017,0,.034,0,.051a2.091,2.091,0,0,0,.051.4l0,.026a2.261,2.261,0,0,0,.138.405v0a2.22,2.22,0,0,0,.218.376l0,0a2.278,2.278,0,0,0,.275.312l.026.027a2.369,2.369,0,0,0,.3.234c.025.016.045.033.07.048a2.431,2.431,0,0,0,.411.2,2.921,2.921,0,0,0,2.329-.024,2.758,2.758,0,0,0,1.1-.884h0l0,0a3.192,3.192,0,0,0,3.07,1.06,2.482,2.482,0,0,0,.435-.122,2.275,2.275,0,0,0,1.491-2.337m-5.885-.5a.526.526,0,0,1-.033.109.5.5,0,0,1-.017.058.553.553,0,0,1-.079.127.472.472,0,0,1-.049.057.592.592,0,0,1-.1.076.709.709,0,0,1-.089.048.6.6,0,0,1-.107.026.466.466,0,0,1-.087.022.647.647,0,0,1-.079,0,.607.607,0,0,1-.594-.507.6.6,0,0,1,.348-.481.644.644,0,0,1,.213-.062.612.612,0,0,1,.679.452.559.559,0,0,1,0,.075" transform="translate(0.643 1.176)" fill="#f75d9e"/>
        <path id="Path_35315" data-name="Path 35315" d="M6.281,19.445a2.416,2.416,0,0,1-.409-.2c.025.015.045.036.072.051a2.478,2.478,0,0,0,.331.154h0a2.918,2.918,0,0,0,2.333-.026,2.916,2.916,0,0,1-2.329.024" transform="translate(0.77 1.485)" fill="#f75d9e"/>
        <path id="Path_35316" data-name="Path 35316" d="M9.266,18.586l0,0a3.192,3.192,0,0,0,3.069,1.059,2.418,2.418,0,0,0,.44-.124,2.482,2.482,0,0,1-.435.122,3.193,3.193,0,0,1-3.07-1.06" transform="translate(1.214 1.434)" fill="#f75d9e"/>
        <path id="Path_35317" data-name="Path 35317" d="M5.2,16.507a2.64,2.64,0,0,1,2.384-1.272A2.638,2.638,0,0,0,5.2,16.507c-.027.044-.043.093-.067.138.025-.047.044-.1.072-.141Z" transform="translate(0.673 1.176)" fill="#f75d9e"/>
        <path id="Path_35318" data-name="Path 35318" d="M10.073,13.228v0h0Z" transform="translate(1.32 1.021)" fill="#972d4d"/>
        <path id="Path_35319" data-name="Path 35319" d="M8.811,15.991a3.824,3.824,0,0,1,1.576-2.61h0v0h0a5.156,5.156,0,0,0,.458,2.543L11.99,15.7a4.7,4.7,0,0,1-.339-3.491.8.8,0,0,0-.428-.888.9.9,0,0,0-.245-.057.926.926,0,0,0-.692.217c-.8.807-2.663,3.055-2.61,4.106h0Z" transform="translate(1.005 0.869)" fill="#972d4d"/>
        <path id="Path_35320" data-name="Path 35320" d="M10.286,11.484a.935.935,0,0,1,.692-.217.934.934,0,0,0-.7.217c-.805.807-2.663,3.055-2.61,4.106h0c-.052-1.051,1.81-3.3,2.61-4.106" transform="translate(1.005 0.869)" fill="#972d4d"/>
        <path id="Path_35321" data-name="Path 35321" d="M22.443,18.913l.006,0,.007,0h0a3.423,3.423,0,0,0,3.076.987,2.324,2.324,0,0,0,1.933-2.672,2.159,2.159,0,0,0-.553-1.113,2.38,2.38,0,0,0-1.932-.735h0a9.143,9.143,0,0,0-1.129.233,6.379,6.379,0,0,0-1.136.931l-.006-.005v0l-.9-.861v0l-1.2-.4v0a2.586,2.586,0,0,0-2.681,1.155,2.269,2.269,0,0,0,.369,2.838,2.694,2.694,0,0,0,.3.211,2.883,2.883,0,0,0,.273.161c.062.031.127.056.19.083a3.137,3.137,0,0,0,.351.124c.046.013.1.022.143.032a3.071,3.071,0,0,0,.421.064c.029,0,.059,0,.087,0a2.981,2.981,0,0,0,.481-.015l.033,0a2.883,2.883,0,0,0,1.874-1.034m3.426-2.56a.648.648,0,0,1,.382.207.589.589,0,0,1,.158.4c-.025.369-.359.57-.826.436a.63.63,0,0,1-.2-.112.572.572,0,0,1-.208-.578.717.717,0,0,1,.7-.351m-4.2.714a.556.556,0,0,1-.046.11l0,.005v0a.566.566,0,0,1-.321.3l-.007,0a.644.644,0,0,1-.193.034c-.016,0-.032,0-.048,0a.419.419,0,0,1-.074,0,.576.576,0,0,1-.128-.037.617.617,0,0,1-.425-.405.582.582,0,0,1-.031-.2.648.648,0,0,1,.7-.46h.008a.629.629,0,0,1,.3.12.575.575,0,0,1,.268.526v.008" transform="translate(2.304 1.177)" fill="#f75d9e"/>
        <path id="Path_35322" data-name="Path 35322" d="M21.885,18.655l.006.005h0Z" transform="translate(2.868 1.44)" fill="#f75d9e"/>
        <path id="Path_35323" data-name="Path 35323" d="M22.1,18.655l-.006,0a2.877,2.877,0,0,1-1.874,1.033,2.874,2.874,0,0,0,1.751-.869c.048-.05.092-.1.135-.154l-.008-.006Z" transform="translate(2.65 1.439)" fill="#f75d9e"/>
        <path id="Path_35324" data-name="Path 35324" d="M26.346,16.062a2.155,2.155,0,0,1,.553,1.113,2.325,2.325,0,0,1-1.933,2.672,3.426,3.426,0,0,1-3.076-.988h0a3.424,3.424,0,0,0,3.08.99A2.325,2.325,0,0,0,26.9,17.178a2.17,2.17,0,0,0-.556-1.116" transform="translate(2.869 1.24)" fill="#f75d9e"/>
        <path id="Path_35325" data-name="Path 35325" d="M21.885,18.655h0l.008.006-.006-.005" transform="translate(2.868 1.44)" fill="#f75d9e"/>
        <path id="Path_35326" data-name="Path 35326" d="M23.8,11.291a1.182,1.182,0,0,0-.822.139A9.929,9.929,0,0,0,20.251,15.6h.006L21.451,16h0a3.756,3.756,0,0,1,1.573-2.63v-.008l0,0,0,0v0l0,0v0a5.889,5.889,0,0,0,.468,2.569h0a9.083,9.083,0,0,1,1.128-.233,4.663,4.663,0,0,1-.533-2.37h0v0l.2-1.407a.7.7,0,0,0-.5-.627" transform="translate(2.654 0.87)" fill="#972d4d"/>
        <path id="Path_35327" data-name="Path 35327" d="M23.648,13.281l.2-1.408v0l-.2,1.407v0" transform="translate(3.099 0.916)" fill="#972d4d"/>
        <path id="Path_35328" data-name="Path 35328" d="M23.121,15.614a9.1,9.1,0,0,1,1.129-.233h0a9.111,9.111,0,0,0-1.127.234h0" transform="translate(3.03 1.187)" fill="#972d4d"/>
        <path id="Path_35329" data-name="Path 35329" d="M20.251,15.293v0l1.2.4v0l-1.194-.393h-.006" transform="translate(2.654 1.18)" fill="#972d4d"/>
        <path id="Path_35330" data-name="Path 35330" d="M28.773,27.544c.035,2.094,7.709,2.957,10.388.841h0a.971.971,0,0,0,.184-.2.933.933,0,0,0,.092-.149.894.894,0,0,0,.057-.168.855.855,0,0,0,.026-.178.768.768,0,0,0-.012-.16.8.8,0,0,0-.05-.189.862.862,0,0,0-.072-.139.911.911,0,0,0-.175-.224,4.094,4.094,0,0,0-1.459-.813,12.354,12.354,0,0,0-6.9-.194h0a5.051,5.051,0,0,0-1.327.552,1.31,1.31,0,0,0-.746,1.025m6.83-.986v0h0c.055.05-.139.236-.226.238l-1.2.029a.835.835,0,0,0-.309.151c-.059.048-.068.086-.042.118.2.228,2.29.141,2.444.964v0c.218,1.171-3.873,1.084-3.934.576a.133.133,0,0,1,.042-.107c.357-.391,1.336.078,2.149-.236h0a.135.135,0,0,0-.029-.16c-.323-.3-2.238-.13-2.353-1h0v0c-.1-.755,2.64-1.309,3.463-.57" transform="translate(3.771 1.973)" fill="#fdba03"/>
        <path id="Path_35331" data-name="Path 35331" d="M30.762,25.967a12.354,12.354,0,0,1,6.9.194,4.094,4.094,0,0,1,1.459.813.911.911,0,0,1,.175.224.878.878,0,0,0-.059-.111.889.889,0,0,0-.115-.117,4.094,4.094,0,0,0-1.459-.813,12.354,12.354,0,0,0-6.9-.194,5.019,5.019,0,0,0-1.33.556,5.051,5.051,0,0,1,1.327-.552Z" transform="translate(3.857 1.973)" fill="#fdba03"/>
        <path id="Path_35332" data-name="Path 35332" d="M16.533,33.262a1.645,1.645,0,0,0-1.223-1.625h0c-3.968-1.586-9.855.987-8.654,3.081a2.524,2.524,0,0,0,.322.389,2.69,2.69,0,0,0,1.34.713h0a9.384,9.384,0,0,0,6.876-.885,2.5,2.5,0,0,0,1.337-1.671m-5.371,2.1a3.991,3.991,0,0,1-.734-.04.684.684,0,0,1-.348-.215c-.055-.093.174-.34.3-.367l1.583-.334c.1-.02.327-.259.254-.306l0,0c-.535-.355-2.478.3-2.785-.517-.278-.748.688-1.272,1.708-1.529s2.1-.251,2.049.069l0,0a.48.48,0,0,1-.247.262l-1.508.334c-.081.018-.287.235-.226.287.428.373,2.2-.361,2.8.574.432.674-1.149,1.725-2.841,1.778" transform="translate(0.852 2.404)" fill="#fdba03"/>
        <path id="Path_35333" data-name="Path 35333" d="M14.9,31.6h0a1.644,1.644,0,0,1,1.223,1.625A2.5,2.5,0,0,1,14.786,34.9a9.291,9.291,0,0,1-5.161,1.158A9.283,9.283,0,0,0,14.787,34.9a2.5,2.5,0,0,0,1.337-1.671A1.646,1.646,0,0,0,14.9,31.6" transform="translate(1.261 2.439)" fill="#fdba03"/>
        <path id="Path_35334" data-name="Path 35334" d="M33.9,15.769h0l.93.931c.169-.145.353-.35.546-.534l.009-.008a2.611,2.611,0,0,1,.286-.239,1.04,1.04,0,0,1,.1-.048.908.908,0,0,1,.209-.106h0a6.519,6.519,0,0,1-.463-2.517A4.391,4.391,0,0,0,33.9,15.769" transform="translate(4.443 1.022)" fill="#fdfcfc"/>
        <path id="Path_35335" data-name="Path 35335" d="M34.723,16.49c.17-.146.353-.351.545-.534C35.075,16.139,34.89,16.345,34.723,16.49Z" transform="translate(4.551 1.231)" fill="#fdfcfc"/>
        <path id="Path_35336" data-name="Path 35336" d="M35.553,15.689a.932.932,0,0,1,.21-.1h0a.947.947,0,0,0-.209.1" transform="translate(4.66 1.203)" fill="#fdfcfc"/>
        <path id="Path_35337" data-name="Path 35337" d="M35.517,13.247h0A4.4,4.4,0,0,0,33.9,15.769h0a4.391,4.391,0,0,1,1.616-2.522" transform="translate(4.443 1.022)" fill="#fdfcfc"/>
        <path id="Path_35338" data-name="Path 35338" d="M33.9,16.65a.632.632,0,0,0-.595-.32.623.623,0,0,0-.6.548.569.569,0,0,0,.057.183.652.652,0,0,0,.478.346.5.5,0,0,0,.08.01.6.6,0,0,0,.076,0,.579.579,0,0,0,.189-.034.29.29,0,0,0,.033-.012.569.569,0,0,0,.155-.1.355.355,0,0,0,.031-.027.492.492,0,0,0,.1-.131.565.565,0,0,0,.029-.058.547.547,0,0,0,.043-.192.6.6,0,0,0-.067-.219" transform="translate(4.286 1.26)" fill="#fdfcfc"/>
        <path id="Path_35339" data-name="Path 35339" d="M33.833,16.846a.523.523,0,0,1-.043.192c.008-.019.023-.034.028-.054a.574.574,0,0,0,.017-.131.566.566,0,0,0-.069-.225.557.557,0,0,1,.067.219" transform="translate(4.425 1.283)" fill="#fdfcfc"/>
        <path id="Path_35340" data-name="Path 35340" d="M32.756,17.009a.653.653,0,0,0,.482.355v0a.64.64,0,0,0,.079,0,.672.672,0,0,1-.081-.01.659.659,0,0,1-.478-.346" transform="translate(4.293 1.313)" fill="#fdfcfc"/>
        <path id="Path_35341" data-name="Path 35341" d="M38.163,16.728a.512.512,0,0,0-.036-.1.6.6,0,0,0-.044-.089A.55.55,0,0,0,38,16.443a.541.541,0,0,0-.066-.057.59.59,0,0,0-.244-.1.465.465,0,0,0-.094-.011.709.709,0,0,0-.1-.011.7.7,0,0,0-.175.037c-.021.008-.046.009-.068.018a.556.556,0,0,0-.126.095.467.467,0,0,0-.044.034.522.522,0,0,0-.109.183.5.5,0,0,0-.021.179c0,.012-.006.023,0,.034a.7.7,0,0,0,.413.458.886.886,0,0,0,.7-.137.545.545,0,0,0,.1-.231.651.651,0,0,0,.006-.094.475.475,0,0,0-.006-.113" transform="translate(4.843 1.255)" fill="#fdfcfc"/>
        <path id="Path_35342" data-name="Path 35342" d="M37.434,16.264a.486.486,0,0,1,.1.011.5.5,0,0,0-.1-.011" transform="translate(4.906 1.255)" fill="#fdfcfc"/>
        <path id="Path_35343" data-name="Path 35343" d="M36.975,16.606a.523.523,0,0,0-.021.178.5.5,0,0,1,.023-.179h0" transform="translate(4.843 1.282)" fill="#fdfcfc"/>
        <path id="Path_35344" data-name="Path 35344" d="M37.363,17.261a.7.7,0,0,1-.413-.458h0a.7.7,0,0,0,.413.458.886.886,0,0,0,.7-.137.532.532,0,0,0,.1-.232.551.551,0,0,1-.1.231.886.886,0,0,1-.7.137" transform="translate(4.843 1.297)" fill="#fdfcfc"/>
        <path id="Path_35345" data-name="Path 35345" d="M37.838,16.385c-.006,0-.015,0-.02-.009a.55.55,0,0,1,.066.058.481.481,0,0,0-.045-.05" transform="translate(4.956 1.264)" fill="#fdfcfc"/>
        <path id="Path_35346" data-name="Path 35346" d="M8.681,15.84h0l.863.856a4.361,4.361,0,0,1,1.171-.921,5.16,5.16,0,0,1-.458-2.544A3.826,3.826,0,0,0,8.681,15.84" transform="translate(1.137 1.021)" fill="#fdfcfc"/>
        <path id="Path_35347" data-name="Path 35347" d="M10.255,13.229a3.831,3.831,0,0,0-1.576,2.61h0a3.826,3.826,0,0,1,1.573-2.609h0Z" transform="translate(1.137 1.021)" fill="#fdfcfc"/>
        <path id="Path_35348" data-name="Path 35348" d="M7.939,16.334l0,0a.627.627,0,0,0-.2.058.6.6,0,0,0-.339.475.606.606,0,0,0,.594.507l0,0a.62.62,0,0,0,.162-.018.7.7,0,0,0,.106-.027.709.709,0,0,0,.089-.048.594.594,0,0,0,.105-.075.6.6,0,0,0,.048-.058.57.57,0,0,0,.079-.126c.008-.019.011-.04.018-.059a.543.543,0,0,0,.027-.182.612.612,0,0,0-.679-.452" transform="translate(0.969 1.26)" fill="#fdfcfc"/>
        <path id="Path_35349" data-name="Path 35349" d="M7.906,16.332a.656.656,0,0,0-.212.062.654.654,0,0,1,.2-.057l0,0a.612.612,0,0,1,.679.452.543.543,0,0,1-.027.182.578.578,0,0,0,.032-.109.559.559,0,0,0,0-.075.612.612,0,0,0-.679-.452" transform="translate(1.008 1.26)" fill="#fdfcfc"/>
        <path id="Path_35350" data-name="Path 35350" d="M22.884,13.22a3.752,3.752,0,0,0-1.572,2.627h.006l.9.857a6.374,6.374,0,0,1,1.136-.93,5.887,5.887,0,0,1-.468-2.557" transform="translate(2.793 1.02)" fill="#fdfcfc"/>
        <path id="Path_35351" data-name="Path 35351" d="M21.312,15.659l.9.861v0l-.9-.856Z" transform="translate(2.793 1.209)" fill="#fdfcfc"/>
        <path id="Path_35352" data-name="Path 35352" d="M22.884,13.22v0a3.752,3.752,0,0,0-1.573,2.63h0a3.752,3.752,0,0,1,1.572-2.627" transform="translate(2.793 1.02)" fill="#fdfcfc"/>
        <path id="Path_35353" data-name="Path 35353" d="M22.7,13.209v.008l0,0Z" transform="translate(2.975 1.019)" fill="#fdfcfc"/>
        <path id="Path_35354" data-name="Path 35354" d="M21.081,16.45a.629.629,0,0,0-.3-.113.649.649,0,0,0-.7.46l0,0a.584.584,0,0,0,.027.194.617.617,0,0,0,.422.4l-.006,0a.6.6,0,0,0,.21.042c.016,0,.032,0,.049,0a.643.643,0,0,0,.192-.034l.007,0a.576.576,0,0,0,.321-.3l0-.008a.538.538,0,0,0,.037-.116.574.574,0,0,0-.258-.527" transform="translate(2.631 1.261)" fill="#fdfcfc"/>
        <path id="Path_35355" data-name="Path 35355" d="M21.158,17.044l0-.005,0,.008v0" transform="translate(2.773 1.315)" fill="#fdfcfc"/>
        <path id="Path_35356" data-name="Path 35356" d="M20.08,16.8a.648.648,0,0,1,.7-.46.629.629,0,0,1,.3.113.617.617,0,0,0-.3-.118h-.008a.648.648,0,0,0-.7.46.582.582,0,0,0,.031.2.584.584,0,0,1-.027-.194Z" transform="translate(2.631 1.26)" fill="#fdfcfc"/>
        <path id="Path_35357" data-name="Path 35357" d="M24.3,16.631h0a.572.572,0,0,0,.2.571.634.634,0,0,0,.2.1h0c.467.132.8-.068.826-.436a.592.592,0,0,0-.15-.392.647.647,0,0,0-.374-.2.719.719,0,0,0-.7.351" transform="translate(3.183 1.256)" fill="#fdfcfc"/>
        <path id="Path_35358" data-name="Path 35358" d="M24.3,16.633h0a.719.719,0,0,1,.7-.351.647.647,0,0,1,.374.2.648.648,0,0,0-.382-.207.719.719,0,0,0-.7.351.572.572,0,0,0,.208.578.574.574,0,0,1-.2-.571" transform="translate(3.182 1.256)" fill="#fdfcfc"/>
        <path id="Path_35359" data-name="Path 35359" d="M31.751,27.084c.118.874,2.039.7,2.353,1.005a.134.134,0,0,1,.029.159v0h0v0c-.818.315-1.8-.155-2.149.236a.135.135,0,0,0-.042.1c.072.5,4.146.59,3.934-.576-.154-.827-2.256-.735-2.444-.966-.028-.033-.019-.072.041-.122a.818.818,0,0,1,.309-.151l1.2-.029c.083,0,.273-.184.226-.236-.825-.738-3.558-.183-3.462.57" transform="translate(4.161 2.02)" fill="#fde145"/>
        <path id="Path_35360" data-name="Path 35360" d="M33.857,28.1h0" transform="translate(4.437 2.169)" fill="#fde145"/>
        <path id="Path_35361" data-name="Path 35361" d="M33.831,27.951a.132.132,0,0,1,.029.159.134.134,0,0,0-.029-.159" transform="translate(4.434 2.157)" fill="#fde145"/>
        <path id="Path_35362" data-name="Path 35362" d="M35.682,27.954v0c-.153-.823-2.242-.736-2.444-.964.188.232,2.29.14,2.444.966" transform="translate(4.356 2.083)" fill="#fde145"/>
        <path id="Path_35363" data-name="Path 35363" d="M34.112,28.1v0c-.813.313-1.792-.155-2.149.236a.133.133,0,0,0-.042.107.135.135,0,0,1,.042-.1c.353-.391,1.331.079,2.149-.236" transform="translate(4.183 2.169)" fill="#fde145"/>
        <path id="Path_35364" data-name="Path 35364" d="M35.214,26.514v0c-.823-.739-3.562-.185-3.463.57v0c-.1-.753,2.638-1.308,3.462-.57" transform="translate(4.161 2.019)" fill="#fde145"/>
        <path id="Path_35365" data-name="Path 35365" d="M13.658,33.527c-.6-.935-2.375-.2-2.8-.574-.06-.052.146-.268.226-.287l1.508-.334a.472.472,0,0,0,.247-.262c.053-.319-1.018-.329-2.036-.072s-1.971.781-1.694,1.525c.305.821,2.249.162,2.785.517.071.047-.157.285-.254.306l-1.583.334c-.128.027-.357.275-.3.367a.684.684,0,0,0,.348.215,3.9,3.9,0,0,0,.725.041c1.688-.058,3.265-1.106,2.832-1.777" transform="translate(1.187 2.456)" fill="#fde145"/>
        <path id="Path_35366" data-name="Path 35366" d="M9.754,35.036c-.054-.093.175-.34.3-.367l1.583-.334c.1-.02.326-.259.254-.306-.536-.355-2.479.3-2.785-.517-.277-.744.679-1.267,1.694-1.525-1.02.257-1.985.781-1.708,1.529.307.821,2.25.162,2.785.517l0,0c.072.047-.156.285-.254.306l-1.583.334c-.129.027-.359.275-.3.367a.67.67,0,0,0,.348.215,3.9,3.9,0,0,0,.734.04,3.9,3.9,0,0,1-.725-.041.684.684,0,0,1-.348-.215" transform="translate(1.186 2.469)" fill="#fde145"/>
        <path id="Path_35367" data-name="Path 35367" d="M11.794,16.742h0a.572.572,0,0,0,.2.571.634.634,0,0,0,.2.1h0c.467.132.8-.068.826-.436a.592.592,0,0,0-.15-.392.647.647,0,0,0-.374-.2.719.719,0,0,0-.7.351" transform="translate(1.544 1.265)" fill="#fdfcfc"/>
      </g>
    </g>
  </g>
</svg>
