<svg xmlns="http://www.w3.org/2000/svg" xmlns:xlink="http://www.w3.org/1999/xlink" width="50" height="50" viewBox="0 0 50 50">
  <defs>
    <clipPath id="clip-path">
      <rect id="Rectangle_24456" data-name="Rectangle 24456" width="50" height="38" fill="none"/>
    </clipPath>
    <clipPath id="clip-Casino_Bonus_Icon_-_Mobile">
      <rect width="50" height="50"/>
    </clipPath>
  </defs>
  <g id="Casino_Bonus_Icon_-_Mobile" data-name="Casino Bonus Icon - Mobile" clip-path="url(#clip-Casino_Bonus_Icon_-_Mobile)">
    <g id="Group_60361" data-name="Group 60361" transform="translate(0 6)">
      <g id="Group_60360" data-name="Group 60360" transform="translate(0 0)" clip-path="url(#clip-path)">
        <path id="Path_35104" data-name="Path 35104" d="M6.209,35.912H6.2a6.266,6.266,0,0,0,.021.925l.006,0a6.133,6.133,0,0,1-.021-.926" transform="translate(0.175 -0.745)" fill="#fdd53b"/>
        <path id="Path_35105" data-name="Path 35105" d="M36.8,34.009l.037,1.567,0,0L36.8,34.008h0" transform="translate(1.039 -0.705)" fill="#fdd53b"/>
        <path id="Path_35106" data-name="Path 35106" d="M8.109,35.483a8.478,8.478,0,0,0,1.559.248A8.478,8.478,0,0,1,8.109,35.483Z" transform="translate(0.229 -0.736)" fill="#fdd53b"/>
        <path id="Path_35107" data-name="Path 35107" d="M15.916,34.774c.1-.09.185-.188.275-.284-.089.1-.176.194-.275.284" transform="translate(0.449 -0.715)" fill="#fdd53b"/>
        <path id="Path_35108" data-name="Path 35108" d="M26.4,35.058l.021.775h0l-.021-.775h0" transform="translate(0.745 -0.727)" fill="#fc9b03"/>
        <path id="Path_35109" data-name="Path 35109" d="M26.4,35.026l-.042-1.568h0l.042,1.568h0" transform="translate(0.744 -0.694)" fill="#fc9b03"/>
        <path id="Path_35110" data-name="Path 35110" d="M36.909,35.575l-.037-1.567a10.483,10.483,0,0,1-2.519.294l0,0h0v.009h0l-.083.071L34.3,36.3l.011.663a.34.34,0,0,0,.236.274,11.043,11.043,0,0,0,2.394-.392Z" transform="translate(0.967 -0.705)" fill="#fdba03"/>
        <path id="Path_35111" data-name="Path 35111" d="M36.869,34.009V34a10.445,10.445,0,0,1-2.521.294l0,0a10.482,10.482,0,0,0,2.519-.293" transform="translate(0.97 -0.705)" fill="#fdba03"/>
        <path id="Path_35112" data-name="Path 35112" d="M32.106,34.331l-.1-.023h0c-.607-.138-1.828-.288-2.5-.456l-.04,1.648-.025.989a7.161,7.161,0,0,0,2.669.691V34.332h0" transform="translate(0.831 -0.702)" fill="#fdba03"/>
        <path id="Path_35113" data-name="Path 35113" d="M34.366,36.966h.005L34.36,36.3l-.032-1.919a13.271,13.271,0,0,1-2.292-.043v2.849h0v0a18.313,18.313,0,0,0,2.571.048.339.339,0,0,1-.236-.274" transform="translate(0.904 -0.712)" fill="#fdd53b"/>
        <path id="Path_35114" data-name="Path 35114" d="M33.052,33.576c.435.009.887-.031,1.321-.046v0c-.434.015-.887.056-1.321.046v0" transform="translate(0.933 -0.695)" fill="#fde145"/>
        <path id="Path_35115" data-name="Path 35115" d="M6.209,35.886v0c2.673,1.409,7.646,1,9.981-1.109-2.337,2.112-7.309,2.516-9.981,1.106" transform="translate(0.175 -0.722)" fill="#fde145"/>
        <path id="Path_35116" data-name="Path 35116" d="M5.294,34.6c.013.052.023.106.04.157v-.028c-.014-.042-.029-.085-.04-.128" transform="translate(0.149 -0.718)" fill="#fde145"/>
        <path id="Path_35117" data-name="Path 35117" d="M5.962,35.707c.052.045.1.095.156.136l.095.064h0a2.234,2.234,0,0,1-.253-.2" transform="translate(0.168 -0.741)" fill="#fde145"/>
        <path id="Path_35118" data-name="Path 35118" d="M5.333,34.759c.011.033.027.066.04.1-.016-.041-.026-.085-.04-.127Z" transform="translate(0.151 -0.72)" fill="#fde145"/>
        <path id="Path_35119" data-name="Path 35119" d="M34.347,34.312v0Z" transform="translate(0.97 -0.712)" fill="#fd9502"/>
        <path id="Path_35120" data-name="Path 35120" d="M6.923,34.821a2.443,2.443,0,0,0,1.219.649h0a2.45,2.45,0,0,1-1.218-.648" transform="translate(0.195 -0.722)" fill="#fdba03"/>
        <path id="Path_35121" data-name="Path 35121" d="M44.514,15.726a1,1,0,0,1-.01-.1l-.04-3.177h0l.04,3.176a1.012,1.012,0,0,0,.011.1" transform="translate(1.255 -0.258)" fill="#fdd53b"/>
        <rect id="Rectangle_24450" data-name="Rectangle 24450" width="0.003" height="0.179" transform="matrix(0.006, -1, 1, 0.006, 48.305, 15.894)" fill="#fdd53b"/>
        <path id="Path_35122" data-name="Path 35122" d="M45.67,16.356a1.077,1.077,0,0,0,.738-.261v0a1.078,1.078,0,0,1-.737.26h0l-.031,2.167.031-2.166Z" transform="translate(1.289 -0.334)" fill="#fdd53b"/>
        <path id="Path_35123" data-name="Path 35123" d="M44.709,6.362v0a4,4,0,0,0,1.087.05v0a4.036,4.036,0,0,1-1.086-.049" transform="translate(1.262 -0.132)" fill="#fdd53b"/>
        <path id="Path_35124" data-name="Path 35124" d="M45.62,11.012a1.748,1.748,0,0,0-.523.142,1.748,1.748,0,0,1,.523-.142" transform="translate(1.273 -0.228)" fill="#fdd53b"/>
        <path id="Path_35125" data-name="Path 35125" d="M30.02,2.927a.23.23,0,0,0-.026,0h0a1.115,1.115,0,0,0-.126.041,1.124,1.124,0,0,0-.153.1,1.032,1.032,0,0,1,.28-.136l.027-.008" transform="translate(0.839 -0.061)" fill="#fdd53b"/>
        <path id="Path_35126" data-name="Path 35126" d="M27.408,8.89c.024-.015-.019-.164-.1-.235.079.072.119.218.1.233V23.336h0V8.889a.344.344,0,0,1,.178.2l.011.993h0l-.011-.992a.344.344,0,0,0-.178-.2" transform="translate(0.771 -0.18)" fill="#fdd53b"/>
        <path id="Path_35127" data-name="Path 35127" d="M24.655,17.219h0a.577.577,0,0,1-.178-.095.567.567,0,0,0,.185.1c.425.121.728-.061.751-.4a.536.536,0,0,0-.144-.362.538.538,0,0,1,.137.356c-.023.335-.326.517-.751.4" transform="translate(0.691 -0.342)" fill="#fdd53b"/>
        <path id="Path_35128" data-name="Path 35128" d="M17.89,16.259a2.351,2.351,0,0,1,2.437-1.05A9.026,9.026,0,0,1,22.8,11.415a1.074,1.074,0,0,1,.748-.126.632.632,0,0,1,.453.57v0a.631.631,0,0,0-.452-.572,1.074,1.074,0,0,0-.748.126,9.041,9.041,0,0,0-2.48,3.8,2.35,2.35,0,0,0-2.442,1.049l-.005,0a2.063,2.063,0,0,0,.335,2.58q.072.062.148.118c.044.032.094.053.139.082a2.449,2.449,0,0,1-.276-.192,2.063,2.063,0,0,1-.335-2.58" transform="translate(0.496 -0.234)" fill="#fdd53b"/>
        <path id="Path_35129" data-name="Path 35129" d="M21.2,16.921a.489.489,0,0,1-.034.106.482.482,0,0,0,.042-.1v-.006a.523.523,0,0,0-.244-.479.522.522,0,0,1,.234.479" transform="translate(0.592 -0.341)" fill="#fdd53b"/>
        <path id="Path_35130" data-name="Path 35130" d="M24.132,15.335h0A2.165,2.165,0,0,1,25.892,16a2.164,2.164,0,0,0-1.759-.672,4.233,4.233,0,0,1-.484-2.15,4.247,4.247,0,0,0,.484,2.154" transform="translate(0.668 -0.273)" fill="#fdd53b"/>
        <path id="Path_35131" data-name="Path 35131" d="M20.872,17.315a.513.513,0,0,0,.292-.27.525.525,0,0,1-.292.27" transform="translate(0.589 -0.354)" fill="#fdd53b"/>
        <path id="Path_35132" data-name="Path 35132" d="M20.483,17.306a.561.561,0,0,1-.384-.359.561.561,0,0,0,.387.368.585.585,0,0,0,.116.034c.023,0,.044,0,.067,0a.569.569,0,0,1-.191-.039Z" transform="translate(0.568 -0.352)" fill="#fdd53b"/>
        <path id="Path_35133" data-name="Path 35133" d="M6.267,8.632a3.42,3.42,0,0,0-1.994.892,3.421,3.421,0,0,1,1.992-.89L15.3,8.616l.034,1.107v0l0,0L15.3,8.614Z" transform="translate(0.121 -0.179)" fill="#fdd53b"/>
        <path id="Path_35134" data-name="Path 35134" d="M11.533,15.3a4.275,4.275,0,0,1-.308-3.174.728.728,0,0,0-.389-.807.841.841,0,0,0-.226-.052.857.857,0,0,1,.223.052.727.727,0,0,1,.389.807A4.275,4.275,0,0,0,11.53,15.3l-1.041.2a4.7,4.7,0,0,1-.416-2.312h0a4.691,4.691,0,0,0,.416,2.313l1.041-.2a2.058,2.058,0,0,1,.9,3.986,2.059,2.059,0,0,0-.9-3.988" transform="translate(0.284 -0.234)" fill="#fdd53b"/>
        <path id="Path_35135" data-name="Path 35135" d="M31.374,4.093a1.021,1.021,0,0,0-.027-.419c0-.015-.008-.029-.013-.043a1.006,1.006,0,0,0-.129-.225,1,1,0,0,1,.141.273,1.015,1.015,0,0,1,.028.414" transform="translate(0.881 -0.071)" fill="#fdd53b"/>
        <path id="Path_35136" data-name="Path 35136" d="M24.983,2.923a1.127,1.127,0,0,1,1.378.743l0,.015c0-.007,0-.014,0-.021v0a1.129,1.129,0,0,0-1.381-.738h0c-.031.008-.062.017-.092.027a.974.974,0,0,0-.177.1,1.075,1.075,0,0,1,.264-.123h0" transform="translate(0.698 -0.06)" fill="#fdd53b"/>
        <path id="Path_35137" data-name="Path 35137" d="M21.312,15.659h0" transform="translate(0.602 -0.325)" fill="#fdd53b"/>
        <path id="Path_35138" data-name="Path 35138" d="M22.722,13.213v0l0,0a5.352,5.352,0,0,0,.426,2.325,5.752,5.752,0,0,0-1.032.845l.005,0a5.8,5.8,0,0,1,1.032-.846h0a5.354,5.354,0,0,1-.426-2.336" transform="translate(0.624 -0.274)" fill="#fdd53b"/>
        <path id="Path_35139" data-name="Path 35139" d="M25.584,5.01c.036-.01.062-.035.1-.048a1.049,1.049,0,0,1-.137.058l.04-.01" transform="translate(0.721 -0.103)" fill="#fdd53b"/>
        <path id="Path_35140" data-name="Path 35140" d="M33.255,16.33a.575.575,0,0,1,.541.291.573.573,0,0,0-.543-.3v0a.567.567,0,0,0-.549.5.532.532,0,0,0,.054.175.574.574,0,0,1-.051-.166.567.567,0,0,1,.549-.5" transform="translate(0.923 -0.339)" fill="#fdd53b"/>
        <path id="Path_35141" data-name="Path 35141" d="M41.405,12.629a6.287,6.287,0,0,0-.8-2.523,2.814,2.814,0,0,0-2.375-1.475l-9.355-.006h0l9.354.006A2.814,2.814,0,0,1,40.6,10.108a6.287,6.287,0,0,1,.8,2.523c.248,2.261.552,7.991-.9,9.8a2.794,2.794,0,0,1-1.993.9h0a2.794,2.794,0,0,0,1.993-.9,3.281,3.281,0,0,1,.564.646,3.215,3.215,0,0,0-.564-.647c1.449-1.812,1.144-7.537.9-9.8" transform="translate(0.815 -0.179)" fill="#fdd53b"/>
        <path id="Path_35142" data-name="Path 35142" d="M34.772,16.366h0l-.845-.846-.981-.308c-.04-.7.894-1.989,1.673-2.915-.779.925-1.712,2.217-1.674,2.915l.981.308Z" transform="translate(0.93 -0.255)" fill="#fdd53b"/>
        <path id="Path_35143" data-name="Path 35143" d="M34.689,18.579a2.673,2.673,0,0,1-2.862.9v0A2.228,2.228,0,0,1,30.4,18.334a2.007,2.007,0,0,1-.179-.939,2,2,0,0,0,.179.943,2.228,2.228,0,0,0,1.428,1.144,2.673,2.673,0,0,0,2.862-.9,2.87,2.87,0,0,0,3.578.642c.019-.011.031-.027.048-.039-.017.012-.031.026-.049.037a2.87,2.87,0,0,1-3.578-.642" transform="translate(0.853 -0.361)" fill="#fdd53b"/>
        <path id="Path_35144" data-name="Path 35144" d="M35.33,13.247a5.926,5.926,0,0,0,.421,2.289h0a5.934,5.934,0,0,1-.421-2.289h0" transform="translate(0.998 -0.275)" fill="#fdd53b"/>
        <path id="Path_35145" data-name="Path 35145" d="M37.826,16.374a.522.522,0,0,0-.222-.091.5.5,0,0,0-.085-.01.508.508,0,0,1,.085.011.535.535,0,0,1,.222.09" transform="translate(1.059 -0.338)" fill="#fdd53b"/>
        <path id="Path_35146" data-name="Path 35146" d="M37.408,16.261a.5.5,0,0,0-.128.036.613.613,0,0,1,.159-.033c-.011,0-.022,0-.032,0" transform="translate(1.053 -0.337)" fill="#fdd53b"/>
        <path id="Path_35147" data-name="Path 35147" d="M38.021,16.885c0-.007.007-.013.008-.02a.351.351,0,0,0,0-.066.4.4,0,0,1-.005.085" transform="translate(1.074 -0.349)" fill="#fdd53b"/>
        <path id="Path_35148" data-name="Path 35148" d="M28.663,8.758c-.013-.067.137-.127.216-.132h0c-.079.006-.229.066-.216.132a.744.744,0,0,0,.134.321v0a.727.727,0,0,1-.133-.317" transform="translate(0.809 -0.179)" fill="#fdd53b"/>
        <path id="Path_35149" data-name="Path 35149" d="M36.973,16.6a.475.475,0,0,1,.1-.166.477.477,0,0,0-.1.166" transform="translate(1.044 -0.341)" fill="#fdd53b"/>
        <path id="Path_35150" data-name="Path 35150" d="M36.95,16.8h0c0-.011,0-.021,0-.031,0,.011-.005.021,0,.031" transform="translate(1.043 -0.348)" fill="#fdd53b"/>
        <path id="Path_35151" data-name="Path 35151" d="M33.3,17.345l.017,0-.069,0c.017,0,.034.006.051.006" transform="translate(0.939 -0.36)" fill="#fdd53b"/>
        <path id="Path_35152" data-name="Path 35152" d="M7.934,17.284a.551.551,0,0,1-.54-.461A.545.545,0,0,1,7.7,16.39a.545.545,0,0,0-.318.438.551.551,0,0,0,.54.461.589.589,0,0,0,.072,0,.734.734,0,0,0,.08-.02.564.564,0,0,1-.147.017Z" transform="translate(0.209 -0.34)" fill="#fdd53b"/>
        <path id="Path_35153" data-name="Path 35153" d="M39.012,17.4c0-.025.007-.049.005-.074s-.013-.066-.019-.1c.007.058.011.116.013.173" transform="translate(1.101 -0.357)" fill="#fdd53b"/>
        <path id="Path_35154" data-name="Path 35154" d="M34.486,4.609a1.012,1.012,0,0,1-.2-.368,1.049,1.049,0,0,1,.764-1.3,1.114,1.114,0,0,1,1.365.728,1.071,1.071,0,0,1-.768,1.3c-.007,0-.015,0-.024,0,.008,0,.016,0,.026,0a1.07,1.07,0,0,0,.767-1.3l-.008-.03a1.1,1.1,0,0,0-1.349-.721v0a1.061,1.061,0,0,0-.785,1.308,1.032,1.032,0,0,0,.211.387" transform="translate(0.967 -0.06)" fill="#fdd53b"/>
        <path id="Path_35155" data-name="Path 35155" d="M30.737,33.284h0l-.34-.092.34.093" transform="translate(0.858 -0.689)" fill="#fdd53b"/>
        <path id="Path_35156" data-name="Path 35156" d="M39.939,26.269a.835.835,0,0,0-.129-.192.87.87,0,0,1,.129.192" transform="translate(1.124 -0.541)" fill="#fdd53b"/>
        <path id="Path_35157" data-name="Path 35157" d="M37.265,24.69c.279.082.554.17.827.271.008.01-.036.021-.1.024.06,0,.1-.014.1-.024-.272-.1-.549-.189-.828-.271" transform="translate(1.052 -0.512)" fill="#fdd53b"/>
        <path id="Path_35158" data-name="Path 35158" d="M33.857,28.1h0Z" transform="translate(0.956 -0.583)" fill="#fdd53b"/>
        <path id="Path_35159" data-name="Path 35159" d="M4.761,26.329,22.4,26.321l1.077-.02a28.7,28.7,0,0,0,4.01-.078h0l-.126-.07h0l.125.069a28.7,28.7,0,0,1-4.01.078l-1.077.02L4.76,26.328a4.049,4.049,0,0,1-.687-.085l.085-.067-.089.065c-.048-.007-.1-.022-.143-.029v0c.05.009.1.024.148.03a4.05,4.05,0,0,0,.687.085" transform="translate(0.111 -0.543)" fill="#fdd53b"/>
        <path id="Path_35160" data-name="Path 35160" d="M31.751,27.018h0c.1.794,1.845.637,2.139.913-.285-.28-2.032-.119-2.139-.914" transform="translate(0.897 -0.56)" fill="#fdd53b"/>
        <path id="Path_35161" data-name="Path 35161" d="M25.9,33.286c-1.474-.178-3.438-.644-4.167-1.848l.01,1.082-.009-1.08c.728,1.2,2.693,1.671,4.168,1.849a4.358,4.358,0,0,1,.592.127v0a4.541,4.541,0,0,0-.594-.127" transform="translate(0.614 -0.652)" fill="#fdd53b"/>
        <path id="Path_35162" data-name="Path 35162" d="M7.055,30.836h0a11.546,11.546,0,0,1,3.815-1.056,11.57,11.57,0,0,0-3.819,1.056" transform="translate(0.199 -0.618)" fill="#fdd53b"/>
        <path id="Path_35163" data-name="Path 35163" d="M6.774,31.714l0,0c2.63-1.7,7.111-2.042,9.37-.4v0c-2.26-1.64-6.739-1.3-9.366.4" transform="translate(0.191 -0.627)" fill="#fdd53b"/>
        <path id="Path_35164" data-name="Path 35164" d="M40.351,33.548h0c0-.135-.011-.269-.009-.4,0,.135.007.269.009.4" transform="translate(1.139 -0.688)" fill="#fdd53b"/>
        <path id="Path_35165" data-name="Path 35165" d="M44.359,30.123v-.008l0,0c-.355.889-3.09,1.114-3.93,1.037v.01c.839.077,3.576-.149,3.931-1.037" transform="translate(1.141 -0.625)" fill="#fdd53b"/>
        <path id="Path_35166" data-name="Path 35166" d="M14.509,31.591h0c-3.607-1.442-8.959.9-7.868,2.8a2.377,2.377,0,0,0,.294.355,2.315,2.315,0,0,1-.293-.354c-1.092-1.9,4.26-4.241,7.867-2.8" transform="translate(0.183 -0.646)" fill="#fdd53b"/>
        <path id="Path_35167" data-name="Path 35167" d="M23.213,30.839h0c-.016.936,2.044,1.432,2.9,1.541l1.027.132h0v0l-1.027-.132c-.85-.109-2.911-.6-2.9-1.54" transform="translate(0.655 -0.64)" fill="#fdd53b"/>
        <path id="Path_35168" data-name="Path 35168" d="M26.331,28.585h0l-.006.7Z" transform="translate(0.743 -0.593)" fill="#fdd53b"/>
        <path id="Path_35169" data-name="Path 35169" d="M31.921,28.409c.056.46,3.775.54,3.576-.524.193,1.06-3.51.982-3.576.524" transform="translate(0.901 -0.578)" fill="#fdd53b"/>
        <path id="Path_35170" data-name="Path 35170" d="M10.66,32.849c-.056-.047.132-.244.206-.26l1.371-.3a.43.43,0,0,0,.224-.238l0,0c.046-.291-.936-.3-1.863-.063.925-.233,1.9-.224,1.851.066a.433.433,0,0,1-.224.238l-1.371.3c-.073.017-.26.213-.206.26.386.339,2-.328,2.545.522.394.61-1.041,1.563-2.575,1.616,1.538-.049,2.976-1,2.583-1.617-.545-.85-2.156-.183-2.545-.522" transform="translate(0.299 -0.66)" fill="#fdd53b"/>
        <path id="Path_35171" data-name="Path 35171" d="M21.7,31.2c-.366-1.85,3.443-2.546,4.773-2.621,0-.117,0-.275-.015-.454h0c.015.179.015.337.015.452h0c-1.333.077-5.144.773-4.772,2.622l-.152-.143-.176.015v0l.177-.015Z" transform="translate(0.603 -0.583)" fill="#fdd53b"/>
        <path id="Path_35172" data-name="Path 35172" d="M15.535,4.991h0c-.007,0-.014,0-.021,0s.012,0,.019,0" transform="translate(0.438 -0.104)" fill="#fdd53b"/>
        <path id="Path_35173" data-name="Path 35173" d="M5.053,16.7l-.007.024a2,2,0,0,1,.088-.183c-.028.053-.059.1-.081.159" transform="translate(0.142 -0.343)" fill="#fdd53b"/>
        <path id="Path_35174" data-name="Path 35174" d="M8.718,15.644h0l-1.035-.364a2.506,2.506,0,0,0-.378-.044,2.492,2.492,0,0,1,.377.044Z" transform="translate(0.206 -0.316)" fill="#fdd53b"/>
        <path id="Path_35175" data-name="Path 35175" d="M19.912,2.932c-.015,0-.03,0-.044.006l0,0c-.031.011-.063.023-.093.035a1.026,1.026,0,0,0-.2.139,1.069,1.069,0,0,1,.289-.163l.048-.015" transform="translate(0.553 -0.061)" fill="#fdd53b"/>
        <path id="Path_35176" data-name="Path 35176" d="M21.181,4.438a1.03,1.03,0,0,0,.085-.807l-.019-.054a1.025,1.025,0,0,0-.177-.275,1.047,1.047,0,0,1,.191.338,1.026,1.026,0,0,1-.081.8" transform="translate(0.595 -0.069)" fill="#fdd53b"/>
        <path id="Path_35177" data-name="Path 35177" d="M8.293,19.392a2.5,2.5,0,0,0,1-.8h0a2.507,2.507,0,0,1-1,.8" transform="translate(0.234 -0.386)" fill="#fdd53b"/>
        <path id="Path_35178" data-name="Path 35178" d="M28.842,23.648h0Z" transform="translate(0.814 -0.491)" fill="#fdd53b"/>
        <path id="Path_35179" data-name="Path 35179" d="M39.52,6.179l-33.271,0-.045,0v0l.043,0Z" transform="translate(0.175 -0.128)" fill="#fdd53b"/>
        <path id="Path_35180" data-name="Path 35180" d="M2.851,15.83v-.8h0v.792l-.224.021c-.012,0-.022.014-.028.03.006-.017.015-.027.028-.027l.225-.019a1.4,1.4,0,0,1-.041.195v0h0a1.413,1.413,0,0,0,.041-.2" transform="translate(0.073 -0.312)" fill="#fdd53b"/>
        <path id="Path_35181" data-name="Path 35181" d="M38.325,28.051a.692.692,0,0,0,.056-.09.808.808,0,0,1-.167.186h0c-2.435,1.923-9.411,1.139-9.443-.765a1.189,1.189,0,0,1,.679-.932,1.192,1.192,0,0,0-.682.936c.031,1.9,7.007,2.689,9.443.765a.816.816,0,0,0,.112-.1" transform="translate(0.812 -0.549)" fill="#fdd53b"/>
        <path id="Path_35182" data-name="Path 35182" d="M40.2,27.423c-.13-1.045-1.7-1.786-2.707-2.1a13.173,13.173,0,0,0-7.7-.016,5.779,5.779,0,0,0-2.079,1.138,5.782,5.782,0,0,1,2.076-1.135,13.173,13.173,0,0,1,7.7.016c1.007.312,2.578,1.053,2.707,2.1v0c.12.013.355.2.355.34,0,.1,0,.191.005.288l0-.011c0-.094-.005-.179-.005-.277,0-.143-.234-.327-.355-.339" transform="translate(0.782 -0.513)" fill="#fdd53b"/>
        <path id="Path_35183" data-name="Path 35183" d="M38.826,32.367a10.2,10.2,0,0,1-4.488,1.058L34.3,30.306l.042,3.118h0a10.2,10.2,0,0,0,4.488-1.058c1.742-.925,1.61-2,1.552-3.751h0c.057,1.751.192,2.825-1.551,3.752" transform="translate(0.968 -0.594)" fill="#fdd53b"/>
        <path id="Path_35184" data-name="Path 35184" d="M34.651,26.7l-1.1.026a.759.759,0,0,0-.281.137c-.054.045-.063.08-.037.111-.024-.029-.014-.064.038-.108a.759.759,0,0,1,.281-.137l1.1-.026c.079,0,.256-.171.206-.216h0c.042.048-.131.214-.206.214" transform="translate(0.938 -0.55)" fill="#fdd53b"/>
        <path id="Path_35185" data-name="Path 35185" d="M14.179,4.27c0,.013.015.022.02.034a.988.988,0,0,1-.054-.346.98.98,0,0,0,.035.311" transform="translate(0.399 -0.082)" fill="#fdd53b"/>
        <path id="Path_35186" data-name="Path 35186" d="M11.214,3.483a1.013,1.013,0,0,1-.2,1.191l.006,0a1.013,1.013,0,0,0,.206-1.2,1.1,1.1,0,0,0-1.2-.588,1.15,1.15,0,0,0-.572.287,1.155,1.155,0,0,1,.561-.276,1.106,1.106,0,0,1,1.2.588" transform="translate(0.267 -0.059)" fill="#fdd53b"/>
        <path id="Path_35187" data-name="Path 35187" d="M14.869,2.943l.013,0a1.143,1.143,0,0,1,1.426.689.961.961,0,0,1,.02.17.965.965,0,0,0-.02-.179l0-.013a1.146,1.146,0,0,0-1.435-.673,1.06,1.06,0,0,0-.731.947,1.068,1.068,0,0,1,.731-.938" transform="translate(0.399 -0.06)" fill="#fdd53b"/>
        <path id="Path_35188" data-name="Path 35188" d="M48.006,1.132A3.451,3.451,0,0,0,45.118.015,3.374,3.374,0,0,0,42.1,2.738l0,0a3.18,3.18,0,0,0,2.365,3.427c.1.027.209.042.313.062a4.212,4.212,0,0,0,1.752-.062,3.97,3.97,0,0,0,1.932-1.609,2.978,2.978,0,0,0-.462-3.427" transform="translate(1.188 0)" fill="#f74b2c"/>
        <path id="Path_35189" data-name="Path 35189" d="M16.344,10.359a2.874,2.874,0,0,0-.966-.317l-.349-.3h0l.351.3a2.838,2.838,0,0,1,.963.315Z" transform="translate(0.424 -0.202)" fill="#fdcb2b"/>
        <path id="Path_35190" data-name="Path 35190" d="M28.646,10.117c-.262-.236-.588-.18-1.057-.015h0c.47-.165.8-.221,1.058.015l.2-.278v0Z" transform="translate(0.779 -0.204)" fill="#fdcb2b"/>
        <path id="Path_35191" data-name="Path 35191" d="M2.616,15.009a.673.673,0,0,0,.231.023v0a.794.794,0,0,1-.231-.019" transform="translate(0.074 -0.311)" fill="#fdcb2b"/>
        <path id="Path_35192" data-name="Path 35192" d="M36.942,1.327a5,5,0,0,0-.641-.02L9.97,1.335a4.49,4.49,0,0,0-4.6,4.374c0,.1,0,.2.011.3l.841.059.045,0,33.271,0h0c.09,0,.181.009.271.011a6.125,6.125,0,0,1,1.349.162,4.558,4.558,0,0,0-4.224-4.924M11.134,4.636l-.006,0,0,0A1.077,1.077,0,0,1,9.76,4.8V4.8a1.092,1.092,0,0,1-.514-1.136,1.063,1.063,0,0,1,.321-.526,1.15,1.15,0,0,1,.572-.287,1.1,1.1,0,0,1,1.2.588,1.013,1.013,0,0,1-.206,1.2m5.452-.585a1.012,1.012,0,0,1-.108.342c0,.007-.009.011-.013.017a1.043,1.043,0,0,1-.253.3c-.007,0-.016.008-.025.014a1.079,1.079,0,0,1-.313.18h0c-.019.006-.037,0-.054.008h0c-.006,0-.012,0-.019,0a1.142,1.142,0,0,1-.412.04c-.025,0-.047-.014-.072-.018a1.112,1.112,0,0,1-.328-.094,1.105,1.105,0,0,1-.121-.084,1.087,1.087,0,0,1-.206-.157,1.1,1.1,0,0,1-.13-.2.971.971,0,0,1-.084-.131c0-.007,0-.014,0-.021s-.015-.022-.02-.034a.983.983,0,0,1-.035-.312c0-.019-.007-.037-.006-.055a1.06,1.06,0,0,1,.731-.947,1.146,1.146,0,0,1,1.435.673l0,.013a.965.965,0,0,1,.02.179A1.045,1.045,0,0,1,16.6,4a.424.424,0,0,1-.014.048m5.038.345a1.114,1.114,0,0,1-.649.529l0,0a1.121,1.121,0,0,1-1.346-.6q-.02-.044-.037-.088a.98.98,0,0,1-.035-.248c0-.034-.014-.069-.014-.1a.966.966,0,0,1,.044-.248,1.008,1.008,0,0,1,.043-.154.993.993,0,0,1,.1-.154,1.034,1.034,0,0,1,.146-.185,1.244,1.244,0,0,1,.1-.071,1.066,1.066,0,0,1,.2-.138q.045-.019.093-.035l0,0c.014,0,.029,0,.043-.006l.009,0c.011,0,.023,0,.034,0a1.163,1.163,0,0,1,.4-.036h0a1.148,1.148,0,0,1,.405.118h0a1.1,1.1,0,0,1,.324.252c.009.011.014.024.023.035a1,1,0,0,1,.176.275c.007.018.013.035.02.054a1.03,1.03,0,0,1-.085.807m5.244-.122a1.07,1.07,0,0,1-.074.181,1.054,1.054,0,0,1-.163.186,1.044,1.044,0,0,1-.11.111,1.092,1.092,0,0,1-.27.134.8.8,0,0,1-.1.048l-.039.01c-.011,0-.019.011-.03.013h0a1.162,1.162,0,0,1-1.306-.713.9.9,0,0,1-.029-.089.949.949,0,0,1-.013-.215,1.077,1.077,0,0,1-.008-.14,1,1,0,0,1,.062-.231,1.037,1.037,0,0,1,.057-.155,1.118,1.118,0,0,1,.124-.161A1.066,1.066,0,0,1,25.11,3.1a1.121,1.121,0,0,1,.151-.086.974.974,0,0,1,.177-.1c.03-.011.061-.02.092-.027h0a1.128,1.128,0,0,1,1.381.738v0c0,.007,0,.014,0,.02l.013.05a1.019,1.019,0,0,1,0,.137,1.019,1.019,0,0,1,.006.25,1.066,1.066,0,0,1-.065.19m4.444.666h0a1.131,1.131,0,0,1-1.337-.648,1.049,1.049,0,0,1-.044-.119.911.911,0,0,1-.011-.15,1.014,1.014,0,0,1-.016-.2.971.971,0,0,1,.038-.18.99.99,0,0,1,.07-.2.97.97,0,0,1,.095-.137,1.042,1.042,0,0,1,.157-.176,1.016,1.016,0,0,1,.138-.089.982.982,0,0,1,.153-.1,1.039,1.039,0,0,1,.125-.042h0c.008,0,.017,0,.026,0l.019,0c.027-.007.052,0,.079,0a1.146,1.146,0,0,1,.35-.021c.026,0,.047.016.073.022a1.133,1.133,0,0,1,.326.108.851.851,0,0,1,.069.053,1.113,1.113,0,0,1,.248.206c.027.033.04.074.064.111a1.006,1.006,0,0,1,.129.225c.005.014.009.028.013.043a1.021,1.021,0,0,1,.027.419,1.1,1.1,0,0,1-.791.89m5.152,0c-.008,0-.016,0-.026,0a1.15,1.15,0,0,1-.821-.1,1.161,1.161,0,0,1-.15-.121.969.969,0,0,1-.168-.138,1.032,1.032,0,0,1-.211-.387,1.061,1.061,0,0,1,.786-1.308v0a1.1,1.1,0,0,1,1.349.722l.008.029a1.072,1.072,0,0,1-.768,1.3" transform="translate(0.152 -0.027)" fill="#fc9b03"/>
        <path id="Path_35193" data-name="Path 35193" d="M38.871,6.19a6.126,6.126,0,0,1,1.349.162h0A6.184,6.184,0,0,0,38.871,6.19Z" transform="translate(1.098 -0.128)" fill="#fc9b03"/>
        <path id="Path_35194" data-name="Path 35194" d="M38.607,6.179h0c.092,0,.182.009.274.011-.09,0-.181-.013-.271-.011" transform="translate(1.09 -0.128)" fill="#fc9b03"/>
        <path id="Path_35195" data-name="Path 35195" d="M26.836,26.181h0c1.668-1.763,5.3-2.177,7.682-2.025a13.038,13.038,0,0,1,3.037.521,13.013,13.013,0,0,0-3.04-.522c-2.378-.151-6.013.261-7.682,2.025" transform="translate(0.758 -0.501)" fill="#fd9502"/>
        <path id="Path_35196" data-name="Path 35196" d="M17.842,33.583a6.864,6.864,0,0,0-.316-1.637l0-.007v.007a3.38,3.38,0,0,0-1.058-1.151,8.442,8.442,0,0,0-5.537-1.016,11.546,11.546,0,0,0-3.815,1.056,5.714,5.714,0,0,0-1.463.984h0a2.767,2.767,0,0,0-.482.58.7.7,0,0,1,.509.262c.021-.023.045-.043.067-.066A5.62,5.62,0,0,1,6.819,31.7c2.627-1.7,7.107-2.039,9.366-.4.069.049.144.093.208.146.009.007.015.016.025.023l.025.021c.022.018.036.039.057.057a2.1,2.1,0,0,1,.216.218c.02.023.034.05.052.074a1.934,1.934,0,0,1,.16.247c.015.028.026.059.039.088a2.026,2.026,0,0,1,.1.26c.009.033.013.067.021.1a1.928,1.928,0,0,1,.047.264c0,.038,0,.075,0,.113a1.954,1.954,0,0,1-.006.258c-.005.042-.017.083-.025.125a1.906,1.906,0,0,1-.056.238c-.015.048-.039.094-.059.141a1.988,1.988,0,0,1-.1.207,1.778,1.778,0,0,1-.1.15c-.035.049-.062.1-.1.148l-.043.049c-.047.057-.106.107-.156.162-.089.1-.176.194-.275.284-2.335,2.113-7.308,2.518-9.981,1.109a6.119,6.119,0,0,0,.021.925c.078.627.317.463.554,1.226a6.733,6.733,0,0,0,1.732.546,11.723,11.723,0,0,0,6.437-.83c1.881-.835,3.169-2,2.861-4.068" transform="translate(0.146 -0.616)" fill="#fdba03"/>
        <path id="Path_35197" data-name="Path 35197" d="M16.157,30.818h0a3.382,3.382,0,0,1,1.059,1.151v-.006a3.379,3.379,0,0,0-1.054-1.145" transform="translate(0.456 -0.639)" fill="#fdba03"/>
        <path id="Path_35198" data-name="Path 35198" d="M10.769,29.779a8.448,8.448,0,0,1,5.537,1.016h0a8.444,8.444,0,0,0-5.54-1.016" transform="translate(0.304 -0.616)" fill="#fdba03"/>
        <path id="Path_35199" data-name="Path 35199" d="M39.86,26.053a5.271,5.271,0,0,0-1.789-1.086h0a5.337,5.337,0,0,1,1.788,1.085" transform="translate(1.075 -0.518)" fill="#fc9b03"/>
        <path id="Path_35200" data-name="Path 35200" d="M37.945,24.963a.586.586,0,0,0,.187.015.607.607,0,0,1-.185-.015,15.447,15.447,0,0,0-5.5-.636,15.461,15.461,0,0,1,5.495.636" transform="translate(0.916 -0.504)" fill="#fc9b03"/>
        <path id="Path_35201" data-name="Path 35201" d="M26.966,27.472a.777.777,0,0,0,.235.066.806.806,0,0,1-.235-.066" transform="translate(0.761 -0.57)" fill="#fc9b03"/>
        <path id="Path_35202" data-name="Path 35202" d="M46.324,29.7c-.1-.674-.864-1.084-1.446-1.321v.006h0a.809.809,0,0,1,.024.471l-.007,0h0a2.582,2.582,0,0,1,.766.588.858.858,0,0,1-.014,1.227l-.005.009a3.006,3.006,0,0,1-.591.42,8.835,8.835,0,0,1-4.647.823q-.054.564-.064,1.129c0,.135.008.27.009.4,0,.244,0,.487.017.73l1.271.03c1.12.026,4.468-.553,4.69-1.778a8.511,8.511,0,0,0-.005-2.736" transform="translate(1.139 -0.589)" fill="#fdba03"/>
        <path id="Path_35203" data-name="Path 35203" d="M44.778,28.845l0,0,.007,0a.809.809,0,0,0-.024-.471h0a.806.806,0,0,1,.023.465" transform="translate(1.264 -0.589)" fill="#fdba03"/>
        <path id="Path_35204" data-name="Path 35204" d="M40.342,33.12q.009-.566.064-1.129h0q-.054.564-.063,1.129" transform="translate(1.139 -0.664)" fill="#fdba03"/>
        <path id="Path_35205" data-name="Path 35205" d="M26.558,35.769v-.011h0l-.021-.775-.042-1.568a4.358,4.358,0,0,0-.592-.127c-1.476-.178-3.44-.644-4.168-1.849l.009,1.08,0,.21.012,1.308.322.652-.005,0,0,.009c1.1.863,3.425,1.162,4.892,1.239A5.036,5.036,0,0,0,28.6,35.9c-.617-.294-1.36.037-2.041-.131" transform="translate(0.614 -0.652)" fill="#fdba03"/>
        <path id="Path_35206" data-name="Path 35206" d="M21.754,34.065l-.012-1.308.011,1.314.318.643.005,0Z" transform="translate(0.614 -0.68)" fill="#fdba03"/>
        <path id="Path_35207" data-name="Path 35207" d="M46.446,11.465a1.126,1.126,0,0,0-.413-.358.776.776,0,0,0-.394-.095,1.741,1.741,0,0,0-.522.142,2.1,2.1,0,0,1-.44.143.5.5,0,0,1-.206-.01h0l-.017.2.011.929L44.5,15.6a1,1,0,0,0,.01.1c.029.3.154.478.366.493l.823.058h0a1.078,1.078,0,0,0,.737-.26l.024-2.154.025-2.167h0v0Z" transform="translate(1.255 -0.228)" fill="#fdcb2b"/>
        <path id="Path_35208" data-name="Path 35208" d="M45.8,6.413a4.044,4.044,0,0,1-1.087-.05c-.1-.019-.207-.034-.308-.061h0l.064,4.887a.5.5,0,0,0,.207.01,2.171,2.171,0,0,0,.439-.143,1.74,1.74,0,0,1,.523-.142.78.78,0,0,1,.394.094,1.126,1.126,0,0,1,.412.359L46.474,6.3a4.093,4.093,0,0,1-.669.111" transform="translate(1.254 -0.131)" fill="#fdd53b"/>
        <path id="Path_35209" data-name="Path 35209" d="M45.989,11.108h0a1.126,1.126,0,0,1,.413.358,1.126,1.126,0,0,0-.413-.358" transform="translate(1.299 -0.23)" fill="#fdd53b"/>
        <path id="Path_35210" data-name="Path 35210" d="M46,11.106a.777.777,0,0,0-.394-.094A.777.777,0,0,1,46,11.106Z" transform="translate(1.288 -0.228)" fill="#fdd53b"/>
        <path id="Path_35211" data-name="Path 35211" d="M46.41,13.846h0l.024-2.168Z" transform="translate(1.31 -0.242)" fill="#fdba03"/>
        <path id="Path_35212" data-name="Path 35212" d="M46.388,16.045l.024-2.151v0l-.024,2.154h0" transform="translate(1.31 -0.288)" fill="#fdba03"/>
        <path id="Path_35213" data-name="Path 35213" d="M44.9,16.2c-.213-.015-.341-.2-.367-.494,0-.034-.01-.064-.011-.1l-.04-3.176-.011-.93h-.639v0h0c.041.274.06.55.09.826a24.116,24.116,0,0,1,.172,2.8l.026,3.29,0,.425h.756a1.721,1.721,0,0,1,.8-.089v.009l.005-.345.031-2.167Z" transform="translate(1.238 -0.239)" fill="#fc9b03"/>
        <path id="Path_35214" data-name="Path 35214" d="M43.925,12.33c-.031-.275-.05-.551-.09-.826h0c.041.274.06.551.092.826Z" transform="translate(1.238 -0.239)" fill="#fc9b03"/>
        <rect id="Rectangle_24451" data-name="Rectangle 24451" width="0.003" height="0.425" transform="matrix(1, -0.007, 0.007, 1, 45.356, 18.186)" fill="#fc9b03"/>
        <path id="Path_35215" data-name="Path 35215" d="M44.091,15.146l.026,3.3h0l-.026-3.29a24.115,24.115,0,0,0-.172-2.8h0a24.271,24.271,0,0,1,.171,2.8" transform="translate(1.24 -0.256)" fill="#fc9b03"/>
        <path id="Path_35216" data-name="Path 35216" d="M44.879,16.288c-.212-.015-.337-.195-.366-.493.026.3.154.479.367.494l.822.058h0Z" transform="translate(1.257 -0.328)" fill="#fc9b03"/>
        <path id="Path_35217" data-name="Path 35217" d="M6.271,36.764a6.251,6.251,0,0,1-.021-.924h0c-.032-.021-.064-.041-.095-.064-.058-.041-.1-.091-.156-.136s-.093-.075-.134-.117a2.4,2.4,0,0,1-.176-.207c-.033-.043-.069-.085-.1-.13a2.157,2.157,0,0,1-.132-.237c-.022-.046-.047-.091-.067-.138s-.028-.066-.04-.1c-.017-.051-.026-.1-.04-.157s-.029-.1-.038-.148a2,2,0,0,1-.027-.26c0-.052-.009-.1-.008-.158a1.954,1.954,0,0,1,.025-.256c.008-.055.012-.11.025-.164a2.086,2.086,0,0,1,.077-.247c.02-.055.036-.11.061-.163a2.016,2.016,0,0,1,.128-.228c.025-.04.041-.084.069-.123s.038-.052.058-.077l.007-.013h0a.7.7,0,0,0-.514-.261c-.935.621-.693,2.882-.338,3.709a3.591,3.591,0,0,0,1.984,1.828c-.238-.765-.476-.6-.554-1.23" transform="translate(0.128 -0.673)" fill="#fc9b03"/>
        <path id="Path_35218" data-name="Path 35218" d="M46.966,14.634l0,0-.016-2.123-.033-.779h-.006l.033.775Z" transform="translate(1.325 -0.243)" fill="#fdd53b"/>
        <path id="Path_35219" data-name="Path 35219" d="M46.913,11.731v0h.006l.033.779.016,2.124,0,0,.014,1.5h0l.179,0,.54,0,.008-3.356a1.073,1.073,0,0,0-.795-1.054" transform="translate(1.325 -0.243)" fill="#fdd53b"/>
        <path id="Path_35220" data-name="Path 35220" d="M39.936,26.274h0" transform="translate(1.128 -0.545)" fill="#fd9502"/>
        <path id="Path_35221" data-name="Path 35221" d="M41.312,25.782h0l.2-.007h0Z" transform="translate(1.166 -0.535)" fill="#fd9502"/>
        <path id="Path_35222" data-name="Path 35222" d="M40.84,26.011v0a3.185,3.185,0,0,0,.487-.231v0h0a3.226,3.226,0,0,1-.483.229" transform="translate(1.153 -0.535)" fill="#fd9502"/>
        <path id="Path_35223" data-name="Path 35223" d="M39.935,26.268v0h0a3.232,3.232,0,0,0,.926-.249l0,0a3.281,3.281,0,0,1-.931.251" transform="translate(1.128 -0.54)" fill="#fd9502"/>
        <path id="Path_35224" data-name="Path 35224" d="M40.4,27.462c.008.022.019.047.026.069h.007c-.009-.024-.021-.053-.03-.078Z" transform="translate(1.141 -0.569)" fill="#fd9502"/>
        <path id="Path_35225" data-name="Path 35225" d="M39.938,26.275h0" transform="translate(1.128 -0.545)" fill="#fd9502"/>
        <path id="Path_35226" data-name="Path 35226" d="M47.786,16.866l-.027-.724-.541,0h-.179v0h0l-.014-1.5L47,12.508l-.033-.775a3.309,3.309,0,0,0-.491-.055l-.025,2.169L46.431,16h0v0a1.077,1.077,0,0,1-.738.261v0l-.031,2.166-.005.347a1.721,1.721,0,0,0-.8.089l1.44.006a1.568,1.568,0,0,0,1.137-.412,1.742,1.742,0,0,0,.356-1.137.47.47,0,0,1,0-.454" transform="translate(1.266 -0.242)" fill="#fdba03"/>
        <path id="Path_35227" data-name="Path 35227" d="M47.708,17.426c0-.146.008-.31,0-.454a.47.47,0,0,0,0,.454" transform="translate(1.345 -0.352)" fill="#fdba03"/>
        <path id="Path_35228" data-name="Path 35228" d="M41.406,12.63a6.3,6.3,0,0,0-.8-2.523,2.816,2.816,0,0,0-2.375-1.475l-9.355-.006c0,.073-.08.346-.08.454l0-.006v.006l.032.725h0l.021,13.528h9.674a2.8,2.8,0,0,0,1.993-.9c1.449-1.811,1.144-7.54.9-9.8M39.3,17.224a1.927,1.927,0,0,1-.028.407c-.005.031-.005.064-.011.095a2.022,2.022,0,0,1-.162.448c-.024.047-.052.091-.079.136a2.048,2.048,0,0,1-.2.284,1.67,1.67,0,0,1-.113.127,2.111,2.111,0,0,1-.347.281c-.019.012-.031.028-.048.039A2.87,2.87,0,0,1,34.73,18.4a2.674,2.674,0,0,1-2.862.9,2.226,2.226,0,0,1-1.428-1.144,1.985,1.985,0,0,1-.179-.943,2.01,2.01,0,0,1,.282-.921,2.341,2.341,0,0,1,2.518-1.157h0c-.038-.7.895-1.99,1.674-2.915.272-.323.526-.6.714-.8a.825.825,0,0,1,.857-.163.716.716,0,0,1,.375.808,4.368,4.368,0,0,0,.3,3.161h0c.02,0,.038,0,.057,0a2.263,2.263,0,0,1,.462.027c.057.01.11.024.166.037a2.124,2.124,0,0,1,.349.115c.048.021.1.038.143.062a2.179,2.179,0,0,1,.414.269c.023.019.04.042.062.062a2.074,2.074,0,0,1,.286.32c.014.02.034.033.048.054s.028.058.045.085a2.165,2.165,0,0,1,.1.2c.028.061.052.12.074.182a1.877,1.877,0,0,1,.057.2,1.814,1.814,0,0,1,.038.209c.005.033.015.065.019.1s-.006.049-.005.074" transform="translate(0.813 -0.179)" fill="#fdfcfc"/>
        <path id="Path_35229" data-name="Path 35229" d="M28.823,9.817h0l-.032-.726h0v0l.027.723v.007l.005-.008Z" transform="translate(0.813 -0.189)" fill="#fdfcfc"/>
        <path id="Path_35230" data-name="Path 35230" d="M38.266,23.648Z" transform="translate(1.064 -0.491)" fill="#fdfcfc"/>
        <rect id="Rectangle_24452" data-name="Rectangle 24452" width="0.007" height="13.524" transform="matrix(1, -0.002, 0.002, 1, 29.63, 9.632)" fill="#fdfcfc"/>
        <path id="Path_35631" data-name="Path 35631" d="M0,0H.009V0H0Z" transform="translate(29.629 9.633) rotate(-54.464)" fill="#fdfcfc"/>
        <path id="Path_35231" data-name="Path 35231" d="M6.306,8.634a3.412,3.412,0,0,0-1.992.89,3.148,3.148,0,0,0-.91,1.458A14.87,14.87,0,0,0,2.847,14.9h0v.8a1.444,1.444,0,0,1-.041.2h0c.112,1.821-.05,4.115.753,5.885a2.748,2.748,0,0,0,2.273,1.545l9.53.009.014-13.61-.033-1.107Zm6.329,10.6a2.232,2.232,0,0,1-.4.113,2.9,2.9,0,0,1-2.789-.963,2.5,2.5,0,0,1-1,.8,2.653,2.653,0,0,1-2.121.024h0a2.253,2.253,0,0,1-.3-.14c-.024-.014-.042-.032-.066-.046s-.042-.03-.064-.045a2.084,2.084,0,0,1-.277-.212c-.009-.008-.015-.017-.025-.024a2.189,2.189,0,0,1-.249-.283l0,0a2.116,2.116,0,0,1-.2-.341v0a1.905,1.905,0,0,1-.125-.368l0-.024a1.9,1.9,0,0,1-.046-.365c0-.016,0-.031,0-.046A2.018,2.018,0,0,1,5,16.954c0-.023.012-.044.016-.067a1.992,1.992,0,0,1,.1-.325l.007-.024c.024-.055.054-.106.082-.159s.035-.085.06-.125A2.458,2.458,0,0,1,7.81,15.141c-.047-.956,1.641-3,2.373-3.732a.866.866,0,0,1,.859-.145.728.728,0,0,1,.389.807,4.275,4.275,0,0,0,.308,3.174,2.059,2.059,0,0,1,.9,3.988" transform="translate(0.079 -0.179)" fill="#fdfcfc"/>
        <path id="Path_35232" data-name="Path 35232" d="M3.4,11a3.161,3.161,0,0,1,.91-1.458A3.166,3.166,0,0,0,3.4,11a14.856,14.856,0,0,0-.557,3.915h0A14.87,14.87,0,0,1,3.4,11" transform="translate(0.08 -0.198)" fill="#fdfcfc"/>
        <path id="Path_35233" data-name="Path 35233" d="M5.829,23.347A2.746,2.746,0,0,1,3.556,21.8c-.8-1.77-.641-4.064-.754-5.885.113,1.822-.05,4.113.754,5.889a2.746,2.746,0,0,0,2.273,1.545l9.53.009.014-13.612v0l-.014,13.61Z" transform="translate(0.079 -0.202)" fill="#fdfcfc"/>
        <path id="Path_35234" data-name="Path 35234" d="M27.619,8.654a.137.137,0,0,0-.089-.039l-11.02.012c-.033.354-.039.673-.086.979l-.112.732h0a1.728,1.728,0,0,1,.153.473V23.335H27.715V8.887c.023-.015-.017-.161-.1-.233m-2.771,10.7a3.113,3.113,0,0,1-2.8-.9c-.039.048-.079.095-.122.14a2.62,2.62,0,0,1-1.592.791l-.03,0a2.71,2.71,0,0,1-.437.014l-.079,0a2.792,2.792,0,0,1-.383-.058c-.043-.01-.087-.018-.13-.029a2.668,2.668,0,0,1-.319-.113c-.058-.024-.116-.047-.173-.075a2.62,2.62,0,0,1-.248-.146c-.045-.029-.095-.05-.139-.082s-.1-.076-.148-.118a2.063,2.063,0,0,1-.335-2.58l.005,0a2.352,2.352,0,0,1,2.442-1.049,9.041,9.041,0,0,1,2.48-3.8,1.074,1.074,0,0,1,.748-.126.631.631,0,0,1,.452.572v0l-.186,1.28a4.236,4.236,0,0,0,.484,2.151,2.164,2.164,0,0,1,1.759.671,1.965,1.965,0,0,1,.506,1.015,2.113,2.113,0,0,1-1.757,2.43" transform="translate(0.46 -0.179)" fill="#fdfcfc"/>
        <path id="Path_35235" data-name="Path 35235" d="M16.309,10.337h0l.112-.732c.047-.307.053-.625.086-.979l11.02-.012a.136.136,0,0,1,.088.038.136.136,0,0,0-.092-.04l-11.02.012c-.033.358-.039.677-.086.979l-.112.732h0" transform="translate(0.46 -0.179)" fill="#fdfcfc"/>
        <path id="Path_35236" data-name="Path 35236" d="M16.462,10.847a1.728,1.728,0,0,0-.153-.473h0a1.717,1.717,0,0,1,.153.473V23.376H27.715v0H16.462Z" transform="translate(0.46 -0.215)" fill="#fdfcfc"/>
        <path id="Path_35237" data-name="Path 35237" d="M16.309,10.373h0" transform="translate(0.46 -0.215)" fill="#fdfcfc"/>
        <path id="Path_35238" data-name="Path 35238" d="M28.663,8.758a.727.727,0,0,0,.133.317c0-.113.08-.377.08-.448h0c-.079,0-.229.066-.216.132" transform="translate(0.809 -0.179)" fill="#fdcb2b"/>
        <path id="Path_35239" data-name="Path 35239" d="M28.792,9.075v.006c0-.109.081-.381.081-.454h0c0,.071-.081.336-.079.448" transform="translate(0.813 -0.179)" fill="#fdcb2b"/>
        <path id="Path_35240" data-name="Path 35240" d="M45.363,18.737h0l0-.425-.026-3.3a24.271,24.271,0,0,0-.171-2.8c-.031-.275-.05-.551-.09-.826h0A9.444,9.444,0,0,0,44.04,8.565,4.379,4.379,0,0,0,41.32,6.35h0a6.245,6.245,0,0,0-1.349-.162c-.092,0-.182-.013-.274-.011H6.422l-.043,0-.842-.059C2.705,5.92.894,8.45.383,11.145a26.115,26.115,0,0,0-.377,4.967c0,1.041,0,2.025.063,3.006v0c.006.089-.01.263,0,.354l0,0,.013.085,0,0c.095.582.176,1.736.336,2.35a5.3,5.3,0,0,0,2.446,3.56,5.419,5.419,0,0,0,1.171.324c.047.008.095.023.143.029l.089-.065-.085.067a4.05,4.05,0,0,0,.687.085L22.506,25.9l1.077-.02a28.7,28.7,0,0,0,4.01-.078l-.125-.069h0l.126.07c1.669-1.764,5.3-2.176,7.682-2.025a13.023,13.023,0,0,1,3.04.522c.279.082.555.17.828.271h0a5.281,5.281,0,0,1,1.789,1.086.938.938,0,0,1,.129.193,3.275,3.275,0,0,0,.93-.252,3.179,3.179,0,0,0,.483-.229h0l.2-.007h0a5.948,5.948,0,0,0,2.447-4.47,17.831,17.831,0,0,0,.23-2.154Zm-4.039,3.641a3.215,3.215,0,0,1,.564.647,3.281,3.281,0,0,0-.564-.646,2.794,2.794,0,0,1-1.993.9H29.653L29.631,9.763l-.2.278c-.261-.236-.588-.179-1.058-.015h0l-.011-.993a.344.344,0,0,0-.178-.2V23.283h0v0H16.921V10.758a1.717,1.717,0,0,0-.153-.473,2.832,2.832,0,0,0-.963-.316l-.351-.3,0,0v0l-.014,13.612-9.53-.009A2.746,2.746,0,0,1,3.635,21.73c-.8-1.776-.641-4.067-.754-5.889v0H2.7c-.038,0-.05-.1-.034-.15.006-.017.015-.029.028-.03l.224-.021v-.792a.648.648,0,0,1-.231-.023.759.759,0,0,0,.231.019v0h0a14.856,14.856,0,0,1,.557-3.915,3.166,3.166,0,0,1,.912-1.46A3.42,3.42,0,0,1,6.387,8.58l9.033-.018.034,1.109.349.3a2.831,2.831,0,0,1,.966.317l.112-.732c.047-.3.053-.621.086-.979l11.02-.012a.14.14,0,0,1,.093.041c.081.071.123.22.1.235a.344.344,0,0,1,.178.2l.011.992c.469-.165.795-.221,1.057.015l.206-.28V9.753L29.6,9.03v0a.744.744,0,0,1-.134-.321c-.013-.067.137-.126.216-.132h0l9.355.006a2.814,2.814,0,0,1,2.375,1.475,6.287,6.287,0,0,1,.8,2.523c.248,2.264.552,7.99-.9,9.8" transform="translate(0 -0.127)" fill="#fdd53b"/>
        <path id="Path_35241" data-name="Path 35241" d="M2.624,15.865c-.012,0-.022.011-.028.027-.016.051,0,.147.034.147h.178v0a1.4,1.4,0,0,0,.041-.195Z" transform="translate(0.073 -0.329)" fill="#fdd53b"/>
        <path id="Path_35242" data-name="Path 35242" d="M2.63,16.04c-.037,0-.05-.1-.034-.147-.016.05,0,.15.034.15h.178v0Z" transform="translate(0.073 -0.33)" fill="#fdd53b"/>
        <path id="Path_35243" data-name="Path 35243" d="M36.417,3.67a1.114,1.114,0,0,0-1.365-.728,1.047,1.047,0,0,0-.764,1.3,1.03,1.03,0,0,0,.2.367.97.97,0,0,0,.168.138,1.16,1.16,0,0,0,.15.121,1.166,1.166,0,0,0,.821.1c.008,0,.016,0,.025,0a1.072,1.072,0,0,0,.768-1.3" transform="translate(0.967 -0.06)" fill="#fdd53b"/>
        <path id="Path_35244" data-name="Path 35244" d="M34.788,4.911a1.145,1.145,0,0,0,.821.1,1.16,1.16,0,0,1-.821-.1" transform="translate(0.982 -0.102)" fill="#fdd53b"/>
        <path id="Path_35245" data-name="Path 35245" d="M24.25,4.272a1.161,1.161,0,0,0,1.306.712l.028-.007a.967.967,0,0,0,.136-.058,1.092,1.092,0,0,0,.27-.134,1.044,1.044,0,0,0,.11-.111,1.054,1.054,0,0,0,.163-.186,1.038,1.038,0,0,0,.074-.181,1.04,1.04,0,0,0,.065-.19,1.071,1.071,0,0,0-.005-.25,1.053,1.053,0,0,0-.016-.187l0-.014A1.126,1.126,0,0,0,25,2.923h0a1.075,1.075,0,0,0-.264.123,1.122,1.122,0,0,0-.151.086,1.066,1.066,0,0,0-.141.153,1.075,1.075,0,0,0-.124.162.988.988,0,0,0-.057.154,1,1,0,0,0-.062.231,1.076,1.076,0,0,0,.008.14,1,1,0,0,0,.046.3" transform="translate(0.683 -0.06)" fill="#fdd53b"/>
        <path id="Path_35246" data-name="Path 35246" d="M24.249,4.295A1,1,0,0,1,24.2,4a.949.949,0,0,0,.013.215.9.9,0,0,0,.029.089,1.162,1.162,0,0,0,1.306.713h0c.011,0,.019-.01.03-.013l-.028.007a1.161,1.161,0,0,1-1.306-.712" transform="translate(0.683 -0.083)" fill="#fdd53b"/>
        <path id="Path_35247" data-name="Path 35247" d="M26.333,3.747c0-.017-.008-.033-.013-.05a.958.958,0,0,1,.016.187.873.873,0,0,0,0-.137" transform="translate(0.743 -0.077)" fill="#fdd53b"/>
        <path id="Path_35248" data-name="Path 35248" d="M29.3,4.32a1.13,1.13,0,0,0,1.337.648,1.1,1.1,0,0,0,.79-.885,1.033,1.033,0,0,0-.028-.414,1.024,1.024,0,0,0-.141-.273c-.024-.036-.037-.077-.064-.111a1.113,1.113,0,0,0-.248-.206.851.851,0,0,0-.069-.053,1.133,1.133,0,0,0-.326-.108c-.026,0-.047-.018-.073-.022a1.178,1.178,0,0,0-.35.021c-.033.006-.065,0-.1.009l-.027.008a1.086,1.086,0,0,0-.279.136,1.017,1.017,0,0,0-.138.089,1.042,1.042,0,0,0-.157.176.97.97,0,0,0-.095.137.99.99,0,0,0-.07.2.971.971,0,0,0-.038.18,1.014,1.014,0,0,0,.016.2.949.949,0,0,0,.056.264" transform="translate(0.825 -0.06)" fill="#fdd53b"/>
        <path id="Path_35249" data-name="Path 35249" d="M30.639,4.993A1.13,1.13,0,0,1,29.3,4.344a.949.949,0,0,1-.056-.264.911.911,0,0,0,.011.15,1.049,1.049,0,0,0,.044.119A1.13,1.13,0,0,0,30.639,5h0a1.1,1.1,0,0,0,.791-.89,1.1,1.1,0,0,1-.79.885" transform="translate(0.826 -0.085)" fill="#fdd53b"/>
        <path id="Path_35250" data-name="Path 35250" d="M30.031,2.922l-.019,0c.033-.009.065,0,.1-.01-.027,0-.052,0-.079,0" transform="translate(0.847 -0.061)" fill="#fdd53b"/>
        <path id="Path_35251" data-name="Path 35251" d="M14.2,4.282a.945.945,0,0,0,.087.153,1.126,1.126,0,0,0,.13.2,1.018,1.018,0,0,0,.206.157,1.114,1.114,0,0,0,.121.085,1.174,1.174,0,0,0,.328.094c.025,0,.047.015.072.017a1.145,1.145,0,0,0,.412-.04l.022,0a1.129,1.129,0,0,0,.363-.189c.007-.006.017-.008.025-.014a1.07,1.07,0,0,0,.253-.3c0-.006.01-.011.013-.017a1.026,1.026,0,0,0,.108-.342c0-.018.012-.032.014-.049a1.053,1.053,0,0,0-.026-.238.873.873,0,0,0-.019-.17,1.144,1.144,0,0,0-1.426-.689l-.013,0a1.068,1.068,0,0,0-.731.938c0,.019.006.037.006.056a.988.988,0,0,0,.054.346" transform="translate(0.399 -0.06)" fill="#fdd53b"/>
        <path id="Path_35252" data-name="Path 35252" d="M15.591,4.978h0A1.1,1.1,0,0,0,15.9,4.8a1.123,1.123,0,0,1-.364.189c.017,0,.036,0,.054-.008" transform="translate(0.439 -0.1)" fill="#fdd53b"/>
        <path id="Path_35253" data-name="Path 35253" d="M14.2,4.333a1.111,1.111,0,0,0,.084.131.945.945,0,0,1-.087-.153c0,.007,0,.015,0,.022" transform="translate(0.401 -0.089)" fill="#fdd53b"/>
        <path id="Path_35254" data-name="Path 35254" d="M19.245,4.345a1.117,1.117,0,0,0,1.991.084,1.026,1.026,0,0,0,.081-.8,1.047,1.047,0,0,0-.191-.338c-.008-.011-.013-.024-.023-.035a1.107,1.107,0,0,0-.324-.252h0a1.148,1.148,0,0,0-.405-.118h0a1.166,1.166,0,0,0-.4.036c-.014,0-.029,0-.043.007s-.032.009-.047.015a1.093,1.093,0,0,0-.289.162,1.244,1.244,0,0,0-.1.071,1.034,1.034,0,0,0-.146.185.994.994,0,0,0-.1.154,1.115,1.115,0,0,0-.043.155.951.951,0,0,0-.044.247c0,.034.011.069.014.1a.965.965,0,0,0,.078.324" transform="translate(0.541 -0.06)" fill="#fdd53b"/>
        <path id="Path_35255" data-name="Path 35255" d="M20.59,4.973a1.121,1.121,0,0,1-1.346-.6.965.965,0,0,1-.078-.324.98.98,0,0,0,.035.248q.017.044.037.088a1.121,1.121,0,0,0,1.346.6l0,0a1.114,1.114,0,0,0,.649-.529,1.112,1.112,0,0,1-.645.52" transform="translate(0.541 -0.084)" fill="#fdd53b"/>
        <path id="Path_35256" data-name="Path 35256" d="M19.912,2.928l-.01,0c.014,0,.029,0,.043-.006-.011,0-.022,0-.033,0" transform="translate(0.562 -0.061)" fill="#fdd53b"/>
        <path id="Path_35257" data-name="Path 35257" d="M9.665,4.818a1.075,1.075,0,0,0,1.357-.144,1.013,1.013,0,0,0,.2-1.191,1.106,1.106,0,0,0-1.2-.588,1.155,1.155,0,0,0-.561.276,1.061,1.061,0,0,0-.309.513,1.091,1.091,0,0,0,.514,1.133" transform="translate(0.258 -0.06)" fill="#fdd53b"/>
        <path id="Path_35258" data-name="Path 35258" d="M9.149,3.7v0Z" transform="translate(0.258 -0.077)" fill="#fdd53b"/>
        <path id="Path_35259" data-name="Path 35259" d="M9.654,4.84V4.834a1.077,1.077,0,0,0,1.363-.149l0,0a1.075,1.075,0,0,1-1.357.144,1.091,1.091,0,0,1-.514-1.133v0a1.061,1.061,0,0,1,.309-.513A1.063,1.063,0,0,0,9.14,3.7,1.092,1.092,0,0,0,9.654,4.84" transform="translate(0.258 -0.066)" fill="#fdd53b"/>
        <path id="Path_35260" data-name="Path 35260" d="M34.5,30.226v0a9.044,9.044,0,0,0,5.078-1.513,1.771,1.771,0,0,0,.633-1.284c-.13-1.045-1.7-1.785-2.707-2.1a13.173,13.173,0,0,0-7.7-.016,5.782,5.782,0,0,0-2.076,1.135,1.351,1.351,0,0,0-.527,1.035h0l.014.186c.669,1.673,3.155,2.236,4.966,2.481l-.009,3.123.111.1v0h0l.936.02h0v0c.434.01.887-.031,1.321-.046Zm-5.682-2.875a1.191,1.191,0,0,1,.682-.936,4.563,4.563,0,0,1,1.209-.505,11.231,11.231,0,0,1,6.272.176,3.721,3.721,0,0,1,1.326.739.809.809,0,0,1,.1.107.8.8,0,0,1,.053.1.74.74,0,0,1,.112.3.719.719,0,0,1-.013.307.813.813,0,0,1-.051.153.848.848,0,0,1-.083.135.942.942,0,0,1-.057.09.886.886,0,0,1-.112.1c-2.436,1.924-9.412,1.139-9.443-.765" transform="translate(0.768 -0.513)" fill="#fde145"/>
        <rect id="Rectangle_24454" data-name="Rectangle 24454" width="0.001" height="0.186" transform="translate(27.97 26.968)" fill="#fde145"/>
        <path id="Path_35261" data-name="Path 35261" d="M27.2,27.517h0a1.349,1.349,0,0,1,.527-1.035A1.35,1.35,0,0,0,27.2,27.517Z" transform="translate(0.768 -0.549)" fill="#fde145"/>
        <path id="Path_35262" data-name="Path 35262" d="M27.2,27.539Z" transform="translate(0.768 -0.571)" fill="#fde145"/>
        <rect id="Rectangle_24455" data-name="Rectangle 24455" width="0.151" height="0.004" transform="translate(32.915 32.807)" fill="#fde145"/>
        <path id="Path_35263" data-name="Path 35263" d="M32.168,33.333l.009-3.123v0c-1.811-.247-4.293-.809-4.965-2.479.059.756-.061,2.248.007,3.03.116,1.328,2.084,1.983,3.27,2.313l.34.092,0,0a8.759,8.759,0,0,0,1.337.167" transform="translate(0.768 -0.575)" fill="#fdba03"/>
        <path id="Path_35264" data-name="Path 35264" d="M27.218,30.765c-.068-.781.051-2.274-.007-3.03v-.007h0c.06.753-.061,2.252.008,3.036.116,1.328,2.084,1.985,3.271,2.313-1.186-.329-3.154-.984-3.27-2.312" transform="translate(0.768 -0.575)" fill="#fdba03"/>
        <path id="Path_35265" data-name="Path 35265" d="M30.731,33.281l0,0h0a8.76,8.76,0,0,0,1.337.167v0a8.759,8.759,0,0,1-1.337-.167" transform="translate(0.868 -0.69)" fill="#fdba03"/>
        <path id="Path_35266" data-name="Path 35266" d="M32.031,33.386l.009-3.123Z" transform="translate(0.904 -0.628)" fill="#fdba03"/>
        <path id="Path_35267" data-name="Path 35267" d="M27.21,27.735c.671,1.671,3.155,2.233,4.965,2.479v0c-1.812-.246-4.3-.809-4.966-2.481v.006" transform="translate(0.768 -0.575)" fill="#fdba03"/>
        <path id="Path_35268" data-name="Path 35268" d="M27.21,27.735v-.006h0v.007" transform="translate(0.768 -0.575)" fill="#fdba03"/>
        <path id="Path_35269" data-name="Path 35269" d="M32.031,33.452h0v0Z" transform="translate(0.904 -0.694)" fill="#fdba03"/>
        <path id="Path_35270" data-name="Path 35270" d="M27.748,33.359a.4.4,0,0,0,.276-.162l-.843-.73h0l-1.027-.132c-.851-.11-2.912-.605-2.9-1.541h0c.017-1.009,2.4-1.457,3.2-1.509l.006-.7h0c-1.331.075-5.14.772-4.773,2.621h0c.008.043.029.127.041.171h0c.729,1.2,2.693,1.67,4.167,1.848a4.541,4.541,0,0,1,.594.127v0Z" transform="translate(0.612 -0.593)" fill="#fde145"/>
        <path id="Path_35271" data-name="Path 35271" d="M21.73,31.433h0c-.012-.044-.033-.128-.041-.171h0c.008.043.03.127.041.171" transform="translate(0.612 -0.649)" fill="#fde145"/>
        <path id="Path_35272" data-name="Path 35272" d="M27.872,33.279h0l-.843-.73Z" transform="translate(0.763 -0.675)" fill="#fde145"/>
        <path id="Path_35273" data-name="Path 35273" d="M27.615,33.457l-1.254-.01v0l1.254.01a.4.4,0,0,0,.279-.165l0,0a.4.4,0,0,1-.276.162" transform="translate(0.744 -0.691)" fill="#fde145"/>
        <path id="Path_35274" data-name="Path 35274" d="M27.849,33.294h0l0,0h0Z" transform="translate(0.786 -0.691)" fill="#fde145"/>
        <path id="Path_35275" data-name="Path 35275" d="M26.413,29.3h0c-.8.051-3.181.5-3.2,1.508-.015.936,2.045,1.433,2.9,1.541l1.027.132a3.328,3.328,0,0,1-.681-1.434Z" transform="translate(0.655 -0.608)" fill="#fdba03"/>
        <path id="Path_35276" data-name="Path 35276" d="M26.325,29.3l.042,1.747a3.328,3.328,0,0,0,.681,1.434h0a3.32,3.32,0,0,1-.682-1.436L26.325,29.3h0Z" transform="translate(0.743 -0.608)" fill="#fdba03"/>
        <path id="Path_35277" data-name="Path 35277" d="M23.213,30.807h0c.019-1.009,2.4-1.458,3.2-1.509h0c-.8.052-3.182.5-3.2,1.509" transform="translate(0.655 -0.608)" fill="#fdba03"/>
        <path id="Path_35278" data-name="Path 35278" d="M26.48,28.572c0-.116,0-.273-.015-.452-1.521.078-4.535.66-5.3,2.176a1.647,1.647,0,0,0-.183.8l.395-.032.176-.015.152.143c-.372-1.851,3.439-2.546,4.772-2.622" transform="translate(0.592 -0.583)" fill="#fdba03"/>
        <path id="Path_35279" data-name="Path 35279" d="M26.33,28.582h0Z" transform="translate(0.743 -0.593)" fill="#fdba03"/>
        <path id="Path_35280" data-name="Path 35280" d="M21.167,30.339a1.648,1.648,0,0,0-.184.806h0a1.647,1.647,0,0,1,.183-.8Z" transform="translate(0.592 -0.629)" fill="#fdba03"/>
        <path id="Path_35281" data-name="Path 35281" d="M26.459,28.12v0c-1.52.079-4.533.659-5.3,2.175v0c.762-1.516,3.776-2.1,5.3-2.176" transform="translate(0.598 -0.583)" fill="#fdba03"/>
        <path id="Path_35282" data-name="Path 35282" d="M5.664,32.716a2.2,2.2,0,0,0-.126.2,2.016,2.016,0,0,0-.128.228c-.025.054-.041.109-.061.163a2.086,2.086,0,0,0-.077.247c-.012.054-.016.109-.025.164a1.954,1.954,0,0,0-.025.256c0,.053.005.106.008.159a2.215,2.215,0,0,0,.027.26c.009.05.026.1.038.147s.027.086.04.128V33.519l1.48-1.771a5.625,5.625,0,0,0-1.076.889c-.021.023-.046.042-.067.066h0l-.009.013" transform="translate(0.147 -0.659)" fill="#fde145"/>
        <path id="Path_35283" data-name="Path 35283" d="M15.884,31.341l.694,2.17-.388.914c.05-.055.108-.1.154-.16a1.846,1.846,0,0,0,.148-.2c.035-.05.073-.1.1-.149a1.866,1.866,0,0,0,.095-.207c.02-.047.043-.093.06-.141a1.941,1.941,0,0,0,.054-.238c.008-.042.02-.083.025-.125a1.8,1.8,0,0,0,.006-.258c0-.037,0-.075,0-.113a1.781,1.781,0,0,0-.046-.264c-.008-.033-.012-.068-.022-.1a1.766,1.766,0,0,0-.1-.26c-.013-.029-.023-.06-.038-.088a1.837,1.837,0,0,0-.161-.247c-.017-.024-.032-.051-.051-.074a2.005,2.005,0,0,0-.216-.218c-.029-.025-.052-.053-.082-.077l-.027-.021c-.063-.053-.137-.095-.2-.144" transform="translate(0.448 -0.65)" fill="#fde145"/>
        <path id="Path_35284" data-name="Path 35284" d="M16.877,33.488l-.694-2.17c-2.259-1.642-6.741-1.3-9.371.4l-1.479,1.77v1.15c.014.042.024.085.04.127s.044.092.067.137a2.162,2.162,0,0,0,.131.238c.03.045.066.086.1.129a1.881,1.881,0,0,0,.176.207c.041.042.088.078.134.118a2.373,2.373,0,0,0,.253.2h0v0c2.672,1.41,7.644,1.007,9.981-1.106.1-.09.185-.188.275-.284Zm-2.438,1.081a8.533,8.533,0,0,1-6.252.8h0a2.439,2.439,0,0,1-1.219-.649,2.321,2.321,0,0,1-.294-.354c-1.091-1.9,4.261-4.242,7.868-2.8h0a1.5,1.5,0,0,1,1.112,1.478,2.276,2.276,0,0,1-1.215,1.519" transform="translate(0.151 -0.627)" fill="#fde145"/>
        <path id="Path_35285" data-name="Path 35285" d="M16.134,31.53l-.025-.02c.03.024.053.052.081.077-.021-.019-.035-.04-.057-.058" transform="translate(0.455 -0.654)" fill="#fde145"/>
        <path id="Path_35286" data-name="Path 35286" d="M5.728,32.656c-.021.023-.046.043-.067.066.021-.023.046-.043.067-.066" transform="translate(0.16 -0.677)" fill="#fde145"/>
        <path id="Path_35287" data-name="Path 35287" d="M5.652,32.737l.009-.013h0l0,0-.007.012" transform="translate(0.16 -0.679)" fill="#fde145"/>
        <path id="Path_35288" data-name="Path 35288" d="M40.376,28.591c-.005-.153-.006-.32-.008-.485,0-.1-.006-.186-.006-.288,0-.14-.234-.327-.355-.34v0h0a1.767,1.767,0,0,1-.632,1.287A9.047,9.047,0,0,1,34.3,30.283l.042,3.118a10.2,10.2,0,0,0,4.487-1.058c1.743-.926,1.607-2,1.551-3.752" transform="translate(0.968 -0.57)" fill="#fdba03"/>
        <path id="Path_35289" data-name="Path 35289" d="M39.374,28.766A9.044,9.044,0,0,1,34.3,30.279v0a9.052,9.052,0,0,0,5.078-1.513,1.768,1.768,0,0,0,.633-1.287h0A1.771,1.771,0,0,1,39.374,28.766Z" transform="translate(0.968 -0.57)" fill="#fdba03"/>
        <path id="Path_35290" data-name="Path 35290" d="M45.66,29.435a2.582,2.582,0,0,0-.766-.588,11.8,11.8,0,0,0-4.44-.825l-.024.632c.051.011.1.025.154.036.774-.017,3.2.294,3.708.971a.4.4,0,0,1,.069.41h0v.008c-.355.888-3.091,1.114-3.931,1.037a7.027,7.027,0,0,1-.025.779,8.851,8.851,0,0,0,4.646-.82,3.083,3.083,0,0,0,.6-.423.847.847,0,0,0,.012-1.217" transform="translate(1.141 -0.581)" fill="#fde145"/>
        <path id="Path_35291" data-name="Path 35291" d="M40.43,28.668l0,.046a1.441,1.441,0,0,1,.156-.011l-.154-.035" transform="translate(1.141 -0.595)" fill="#fde145"/>
        <path id="Path_35292" data-name="Path 35292" d="M40.454,28.023h-.009l-.024.63.009,0Z" transform="translate(1.141 -0.581)" fill="#fde145"/>
        <path id="Path_35293" data-name="Path 35293" d="M40.421,28.722v-.007h.007l0-.047-.009,0,0,.056h0" transform="translate(1.141 -0.595)" fill="#fde145"/>
        <path id="Path_35294" data-name="Path 35294" d="M40.4,31.961a7.566,7.566,0,0,0,.025-.779h-.006a7.275,7.275,0,0,1-.025.792H40.4Z" transform="translate(1.141 -0.647)" fill="#fde145"/>
        <path id="Path_35295" data-name="Path 35295" d="M44.922,31.118v.011a3.045,3.045,0,0,0,.592-.42l.005-.009a.861.861,0,0,0,.265-.608.856.856,0,0,1-.265.6,3.106,3.106,0,0,1-.6.423" transform="translate(1.268 -0.624)" fill="#fde145"/>
        <path id="Path_35296" data-name="Path 35296" d="M40.4,31.96v.014a8.84,8.84,0,0,0,4.648-.823V31.14a8.853,8.853,0,0,1-4.646.82" transform="translate(1.141 -0.646)" fill="#fde145"/>
        <path id="Path_35297" data-name="Path 35297" d="M40.4,31.977h0v0" transform="translate(1.141 -0.663)" fill="#fde145"/>
        <path id="Path_35298" data-name="Path 35298" d="M44.284,29.675c-.512-.668-2.878-.977-3.675-.965a1.568,1.568,0,0,0-.181.012c-.034.8-.017,1.6,0,2.4.839.076,3.574-.148,3.93-1.037l0,0a.407.407,0,0,0-.076-.411" transform="translate(1.141 -0.596)" fill="#fdba03"/>
        <path id="Path_35299" data-name="Path 35299" d="M40.429,28.722h-.007c-.03.8-.013,1.6,0,2.4h.007c-.017-.8-.034-1.6,0-2.4" transform="translate(1.141 -0.596)" fill="#fdba03"/>
        <path id="Path_35300" data-name="Path 35300" d="M44.28,29.674l.007,0c-.506-.679-2.934-.988-3.707-.971l.025,0c.8-.013,3.163.3,3.675.965" transform="translate(1.146 -0.595)" fill="#fdba03"/>
        <path id="Path_35301" data-name="Path 35301" d="M44.254,30.106h0a.4.4,0,0,0-.069-.41l-.008,0a.407.407,0,0,1,.076.411" transform="translate(1.247 -0.616)" fill="#fdba03"/>
        <path id="Path_35302" data-name="Path 35302" d="M40.428,28.722a1.589,1.589,0,0,1,.182-.012l-.026,0a1.255,1.255,0,0,0-.156.01v.007" transform="translate(1.141 -0.595)" fill="#fdba03"/>
        <path id="Path_35303" data-name="Path 35303" d="M40.428,28.72v0h-.007v.007h.007v0" transform="translate(1.141 -0.596)" fill="#fdba03"/>
        <path id="Path_35304" data-name="Path 35304" d="M45.94,28.292a11.492,11.492,0,0,0-3.322-.729l-1.121-.1v0h-.007c-.007-.021-.017-.046-.026-.069l0-.01.03.079,1.114.1L42.6,25.742l-.2.007h0v0a3.185,3.185,0,0,1-.487.231,3.284,3.284,0,0,1-.926.25h0a.891.891,0,0,0-.128-.193,5.353,5.353,0,0,0-1.788-1.085h0c.007.011-.037.021-.1.024a.586.586,0,0,1-.187-.015,15.461,15.461,0,0,0-5.495-.636,15.47,15.47,0,0,1,5.5.636.607.607,0,0,0,.185.015c.06,0,.1-.015.1-.024-.272-.1-.549-.189-.827-.271a13,13,0,0,0-3.037-.521c-2.38-.152-6.014.262-7.683,2.025h0a28.7,28.7,0,0,1-4.01.078l-1.077.02-17.635.008a4.05,4.05,0,0,1-.687-.085c-.05-.007-.1-.022-.148-.03a5.428,5.428,0,0,1-1.166-.323l.022,4.686c0,.546.735,1.022,1.253,1.057l1.645.112a5.714,5.714,0,0,1,1.463-.984,11.577,11.577,0,0,1,3.819-1.056,8.444,8.444,0,0,1,5.54,1.016,3.378,3.378,0,0,1,1.055,1.144l-.009-.155,3.694-.006c.031,1.42-.134,2.152,1.332,2.873l-.318-.643-.011-1.314,0-.21-.01-1.082h0c-.011-.044-.033-.128-.041-.171h0l-.151-.142-.177.015-.4.032v0h0a1.637,1.637,0,0,1,.184-.806c.764-1.516,3.778-2.1,5.3-2.175v0h0c.011.179.016.338.015.454h0l-.006.7.042,1.747a3.32,3.32,0,0,0,.682,1.436h0v0l.843.73,0,0a.4.4,0,0,1-.279.165l-1.254-.01v0h0l.042,1.568.021.775c.68.167,1.428-.16,2.039.131l1.055.543.024-.984h0l.04-1.648c.676.168,1.9.318,2.5.456h0l.1.023h0a13.272,13.272,0,0,0,2.292.043l.083-.071v-.01h0A10.445,10.445,0,0,0,37.76,33.8V33.8h0l.037,1.566.03,1.274a6.021,6.021,0,0,0,2.6-1.077,2.7,2.7,0,0,0,.907-1.386,5.69,5.69,0,0,0,1.359-.051l-1.271-.03c-.015-.246-.014-.492-.017-.737,0-.134-.011-.269-.009-.4q.009-.564.063-1.129H41.46a7.275,7.275,0,0,0,.025-.792h.006v-.01h-.007c-.013-.8-.03-1.6,0-2.4h0l0-.056.024-.63h.009v0a11.805,11.805,0,0,1,4.442.822l0,0a.815.815,0,0,0-.023-.465m-6.221,3.982a10.2,10.2,0,0,1-4.488,1.058h0v0c-.434.015-.886.055-1.321.046h0l-.936-.02h0l-.11-.1A8.76,8.76,0,0,1,31.52,33.1h0L31.176,33c-1.187-.329-3.155-.986-3.271-2.314-.069-.783.051-2.283-.008-3.036h0l-.014-.181v0a.806.806,0,0,1-.235-.066.806.806,0,0,0,.235.066,1.356,1.356,0,0,1,.531-1.034A5.779,5.779,0,0,1,30.494,25.3a13.173,13.173,0,0,1,7.7.016c1.007.312,2.578,1.054,2.707,2.1.12.012.355.2.355.339,0,.1,0,.183.005.277,0,.168.005.34.01.5.059,1.75.19,2.825-1.552,3.751" transform="translate(0.079 -0.501)" fill="#fd9502"/>
        <path id="Path_35305" data-name="Path 35305" d="M32.032,36.134h0V34.342h0Z" transform="translate(0.904 -0.712)" fill="#fd9502"/>
        <path id="Path_35306" data-name="Path 35306" d="M39.209,16.979a2.023,2.023,0,0,0-.057-.2c-.022-.062-.046-.121-.074-.182a2.029,2.029,0,0,0-.1-.2c-.03-.048-.061-.095-.094-.14a2.178,2.178,0,0,0-.286-.32c-.022-.02-.039-.043-.062-.062a2.227,2.227,0,0,0-.414-.269c-.047-.024-.095-.041-.143-.062a2.327,2.327,0,0,0-.349-.115c-.056-.013-.109-.027-.166-.036A2.2,2.2,0,0,0,37,15.371c-.02,0-.038,0-.058,0h0a6.545,6.545,0,0,0-1.047.209h0a.9.9,0,0,0-.191.1c-.029.017-.06.024-.088.044a2.287,2.287,0,0,0-.261.218l-.008.006c-.175.166-.341.353-.5.486h0L34,15.581l-.98-.307h0A2.342,2.342,0,0,0,30.5,16.431v0a2.018,2.018,0,0,0-.281.918,1.994,1.994,0,0,0,.178.939,2.228,2.228,0,0,0,1.428,1.144v0a2.673,2.673,0,0,0,2.862-.9,2.87,2.87,0,0,0,3.578.642c.019-.011.032-.025.05-.037a2.2,2.2,0,0,0,.347-.28c.041-.041.076-.085.113-.128a2.047,2.047,0,0,0,.2-.284c.027-.045.056-.089.079-.136a1.968,1.968,0,0,0,.161-.448c.007-.03.007-.063.012-.094a1.941,1.941,0,0,0,.028-.408c0-.058-.006-.116-.013-.173a1.853,1.853,0,0,0-.038-.209m-5.3-.057a.441.441,0,0,1-.025.049.431.431,0,0,1-.027.053.468.468,0,0,1-.086.12.312.312,0,0,1-.028.024.52.52,0,0,1-.141.089l-.03.01a.527.527,0,0,1-.172.031.112.112,0,0,1-.017,0,.463.463,0,0,1-.051-.007.448.448,0,0,1-.072,0v0a.592.592,0,0,1-.437-.323.559.559,0,0,1-.056-.175.567.567,0,0,1,.549-.5v0a.575.575,0,0,1,.544.3.514.514,0,0,1,.062.2.471.471,0,0,1-.015.119m4.329-.07a.472.472,0,0,1-.095.211.8.8,0,0,1-.632.124.641.641,0,0,1-.375-.416h0c0-.011,0-.021,0-.031a.475.475,0,0,1,.02-.162h0a.493.493,0,0,1,.1-.166c.011-.013.028-.02.04-.031a.536.536,0,0,1,.115-.086.63.63,0,0,1,.062-.017.5.5,0,0,1,.127-.036c.011,0,.021,0,.032,0a.518.518,0,0,1,.086.01.629.629,0,0,1,.086.009h0a.523.523,0,0,1,.222.092.1.1,0,0,1,.019.007.423.423,0,0,1,.041.045.5.5,0,0,1,.077.084.551.551,0,0,1,.041.081.535.535,0,0,1,.032.094.432.432,0,0,1,.005.1.351.351,0,0,1,0,.066c0,.007-.007.013-.008.02" transform="translate(0.853 -0.316)" fill="#f75d9e"/>
        <path id="Path_35307" data-name="Path 35307" d="M30.5,16.431a2.342,2.342,0,0,1,2.518-1.156v0h0A2.342,2.342,0,0,0,30.5,16.429a2.01,2.01,0,0,0-.282.921,2.019,2.019,0,0,1,.282-.918Z" transform="translate(0.853 -0.316)" fill="#f75d9e"/>
        <path id="Path_35308" data-name="Path 35308" d="M36.758,15.372c.02,0,.038,0,.058,0-.02,0-.038,0-.058,0h0v0" transform="translate(1.038 -0.319)" fill="#f75d9e"/>
        <path id="Path_35309" data-name="Path 35309" d="M38.69,16.339c-.013-.021-.034-.034-.048-.054.033.045.065.091.094.139-.016-.027-.027-.058-.045-.085" transform="translate(1.091 -0.338)" fill="#f75d9e"/>
        <path id="Path_35310" data-name="Path 35310" d="M33.927,15.5A4,4,0,0,1,35.4,13.2h0a5.934,5.934,0,0,0,.421,2.289,6.513,6.513,0,0,1,1.046-.21,4.367,4.367,0,0,1-.3-3.159.716.716,0,0,0-.375-.808.825.825,0,0,0-.857.163c-.186.192-.44.472-.713.8-.779.925-1.713,2.217-1.673,2.914Z" transform="translate(0.93 -0.234)" fill="#972d4d"/>
        <path id="Path_35311" data-name="Path 35311" d="M36.142,11.318a.715.715,0,0,1,.375.808,4.368,4.368,0,0,0,.3,3.159h0a4.368,4.368,0,0,1-.3-3.161.715.715,0,0,0-.375-.808.825.825,0,0,0-.857.163c-.186.192-.441.473-.714.8.272-.322.526-.6.713-.794a.823.823,0,0,1,.857-.163" transform="translate(0.976 -0.234)" fill="#972d4d"/>
        <path id="Path_35312" data-name="Path 35312" d="M36.786,15.37a6.535,6.535,0,0,0-1.046.21A6.644,6.644,0,0,1,36.786,15.37Z" transform="translate(1.009 -0.319)" fill="#972d4d"/>
        <path id="Path_35313" data-name="Path 35313" d="M36.757,15.37h0" transform="translate(1.038 -0.319)" fill="#972d4d"/>
        <path id="Path_35314" data-name="Path 35314" d="M13.931,17.244a2.08,2.08,0,0,0-2.256-1.861l-1.041.2a3.965,3.965,0,0,0-1.064.837l-.785-.779-1.036-.365a2.508,2.508,0,0,0-.378-.045A2.4,2.4,0,0,0,5.2,16.391v0c-.026.04-.043.085-.066.127-.032.061-.064.122-.089.184a2.067,2.067,0,0,0-.1.325c0,.023-.012.044-.015.067a1.832,1.832,0,0,0-.028.351c0,.016,0,.031,0,.046a1.9,1.9,0,0,0,.046.366l0,.024a2.055,2.055,0,0,0,.125.368v0a2.018,2.018,0,0,0,.2.342l0,0a2.071,2.071,0,0,0,.25.284l.024.024a2.153,2.153,0,0,0,.277.212c.023.015.041.03.064.044a2.21,2.21,0,0,0,.373.184,2.655,2.655,0,0,0,2.117-.022,2.507,2.507,0,0,0,1-.8h0l0,0a2.9,2.9,0,0,0,2.791.964,2.256,2.256,0,0,0,.4-.111,2.068,2.068,0,0,0,1.355-2.125m-5.35-.455a.478.478,0,0,1-.03.1.451.451,0,0,1-.015.053.5.5,0,0,1-.072.116.429.429,0,0,1-.044.052.538.538,0,0,1-.095.07.644.644,0,0,1-.081.044.544.544,0,0,1-.1.024.424.424,0,0,1-.079.02.588.588,0,0,1-.072,0,.552.552,0,0,1-.54-.461.545.545,0,0,1,.317-.438.586.586,0,0,1,.193-.057.556.556,0,0,1,.617.411.508.508,0,0,1,0,.069" transform="translate(0.139 -0.316)" fill="#f75d9e"/>
        <path id="Path_35315" data-name="Path 35315" d="M6.244,19.427a2.2,2.2,0,0,1-.372-.183c.023.014.041.032.066.046a2.253,2.253,0,0,0,.3.14h0a2.653,2.653,0,0,0,2.121-.024,2.651,2.651,0,0,1-2.117.022" transform="translate(0.166 -0.399)" fill="#f75d9e"/>
        <path id="Path_35316" data-name="Path 35316" d="M9.266,18.586l0,0a2.9,2.9,0,0,0,2.79.963,2.2,2.2,0,0,0,.4-.113,2.256,2.256,0,0,1-.4.111,2.9,2.9,0,0,1-2.791-.964" transform="translate(0.262 -0.386)" fill="#f75d9e"/>
        <path id="Path_35317" data-name="Path 35317" d="M5.2,16.391a2.4,2.4,0,0,1,2.168-1.157,2.4,2.4,0,0,0-2.173,1.157c-.025.04-.039.084-.061.125.023-.043.04-.087.066-.128Z" transform="translate(0.145 -0.316)" fill="#f75d9e"/>
        <path id="Path_35318" data-name="Path 35318" d="M10.073,13.228v0h0Z" transform="translate(0.284 -0.274)" fill="#972d4d"/>
        <path id="Path_35319" data-name="Path 35319" d="M8.707,15.561a3.477,3.477,0,0,1,1.432-2.373h0v0h0a4.687,4.687,0,0,0,.416,2.312l1.041-.2a4.275,4.275,0,0,1-.308-3.174.726.726,0,0,0-.389-.807.82.82,0,0,0-.223-.052.842.842,0,0,0-.629.2c-.728.733-2.42,2.777-2.373,3.733h0Z" transform="translate(0.217 -0.234)" fill="#972d4d"/>
        <path id="Path_35320" data-name="Path 35320" d="M10.048,11.464a.85.85,0,0,1,.629-.2.849.849,0,0,0-.632.2c-.732.733-2.42,2.777-2.373,3.733h0c-.047-.956,1.645-3,2.373-3.733" transform="translate(0.217 -0.234)" fill="#972d4d"/>
        <path id="Path_35321" data-name="Path 35321" d="M22,18.58l.005,0,.006,0h0a3.111,3.111,0,0,0,2.8.9,2.113,2.113,0,0,0,1.757-2.43,1.963,1.963,0,0,0-.5-1.012,2.164,2.164,0,0,0-1.756-.668h0a8.312,8.312,0,0,0-1.026.212,5.8,5.8,0,0,0-1.032.846l-.005,0v0l-.822-.782v0l-1.091-.359v0a2.351,2.351,0,0,0-2.437,1.05,2.063,2.063,0,0,0,.335,2.58,2.449,2.449,0,0,0,.276.192,2.621,2.621,0,0,0,.248.146c.057.028.115.051.173.075a2.852,2.852,0,0,0,.319.113c.042.012.086.02.13.029a2.791,2.791,0,0,0,.383.058l.079,0a2.71,2.71,0,0,0,.437-.014l.03,0a2.621,2.621,0,0,0,1.7-.94m3.115-2.328a.589.589,0,0,1,.348.188.536.536,0,0,1,.144.362c-.023.336-.326.518-.751.4a.572.572,0,0,1-.186-.1.52.52,0,0,1-.189-.526.652.652,0,0,1,.634-.319M21.3,16.9a.506.506,0,0,1-.042.1l0,0v0a.514.514,0,0,1-.292.269l-.006,0a.586.586,0,0,1-.176.031H20.74a.381.381,0,0,1-.067,0,.524.524,0,0,1-.116-.033.561.561,0,0,1-.387-.368.529.529,0,0,1-.028-.185.589.589,0,0,1,.638-.418h.007a.572.572,0,0,1,.272.109.523.523,0,0,1,.244.478V16.9" transform="translate(0.496 -0.316)" fill="#f75d9e"/>
        <path id="Path_35322" data-name="Path 35322" d="M21.885,18.655l.005,0h0Z" transform="translate(0.618 -0.387)" fill="#f75d9e"/>
        <path id="Path_35323" data-name="Path 35323" d="M21.932,18.655l-.005,0a2.616,2.616,0,0,1-1.7.939,2.613,2.613,0,0,0,1.592-.79c.043-.045.083-.092.122-.14l-.007-.006Z" transform="translate(0.571 -0.387)" fill="#f75d9e"/>
        <path id="Path_35324" data-name="Path 35324" d="M25.941,16.062a1.959,1.959,0,0,1,.5,1.012,2.113,2.113,0,0,1-1.757,2.43,3.115,3.115,0,0,1-2.8-.9h0a3.113,3.113,0,0,0,2.8.9,2.113,2.113,0,0,0,1.757-2.43,1.972,1.972,0,0,0-.506-1.015" transform="translate(0.618 -0.333)" fill="#f75d9e"/>
        <path id="Path_35325" data-name="Path 35325" d="M21.885,18.655h0l.007.006-.005,0" transform="translate(0.618 -0.387)" fill="#f75d9e"/>
        <path id="Path_35326" data-name="Path 35326" d="M23.477,11.289a1.074,1.074,0,0,0-.748.126,9.026,9.026,0,0,0-2.478,3.795h.005l1.086.357h0a3.415,3.415,0,0,1,1.43-2.391v-.007l0,0,0,0v0l0,0v0a5.354,5.354,0,0,0,.426,2.336h0a8.257,8.257,0,0,1,1.025-.212,4.239,4.239,0,0,1-.484-2.154h0v0l.186-1.279a.632.632,0,0,0-.453-.57" transform="translate(0.572 -0.234)" fill="#972d4d"/>
        <path id="Path_35327" data-name="Path 35327" d="M23.648,13.153l.186-1.28v0l-.186,1.279v0" transform="translate(0.668 -0.246)" fill="#972d4d"/>
        <path id="Path_35328" data-name="Path 35328" d="M23.121,15.592a8.273,8.273,0,0,1,1.026-.212h0a8.283,8.283,0,0,0-1.024.212h0" transform="translate(0.653 -0.319)" fill="#972d4d"/>
        <path id="Path_35329" data-name="Path 35329" d="M20.251,15.293v0l1.091.359v0l-1.086-.357h-.005" transform="translate(0.572 -0.317)" fill="#972d4d"/>
        <path id="Path_35330" data-name="Path 35330" d="M28.773,27.364c.032,1.9,7.008,2.688,9.443.765h0a.883.883,0,0,0,.168-.186.848.848,0,0,0,.083-.135.813.813,0,0,0,.051-.153.777.777,0,0,0,.024-.162.7.7,0,0,0-.011-.146.729.729,0,0,0-.045-.171.784.784,0,0,0-.066-.126.829.829,0,0,0-.159-.2,3.722,3.722,0,0,0-1.326-.739,11.231,11.231,0,0,0-6.272-.176h0a4.591,4.591,0,0,0-1.206.5,1.191,1.191,0,0,0-.679.932m6.21-.9v0h0c.05.045-.126.214-.206.216l-1.1.026a.759.759,0,0,0-.281.137c-.053.044-.062.078-.038.108.183.208,2.082.128,2.222.876v0c.2,1.064-3.521.985-3.576.524a.121.121,0,0,1,.038-.1c.325-.355,1.214.071,1.954-.214h0a.123.123,0,0,0-.027-.146c-.294-.275-2.035-.118-2.139-.913h0v0c-.089-.686,2.4-1.19,3.148-.518" transform="translate(0.812 -0.53)" fill="#fdba03"/>
        <path id="Path_35331" data-name="Path 35331" d="M30.641,25.93a11.231,11.231,0,0,1,6.272.176,3.722,3.722,0,0,1,1.326.739.829.829,0,0,1,.159.2.8.8,0,0,0-.053-.1.809.809,0,0,0-.1-.107,3.722,3.722,0,0,0-1.326-.739,11.231,11.231,0,0,0-6.272-.176,4.563,4.563,0,0,0-1.209.505,4.591,4.591,0,0,1,1.206-.5Z" transform="translate(0.831 -0.53)" fill="#fdba03"/>
        <path id="Path_35332" data-name="Path 35332" d="M15.621,33.069a1.5,1.5,0,0,0-1.112-1.478h0c-3.607-1.441-8.959.9-7.867,2.8a2.3,2.3,0,0,0,.293.354,2.446,2.446,0,0,0,1.218.648h0a8.531,8.531,0,0,0,6.251-.8,2.276,2.276,0,0,0,1.215-1.519m-4.883,1.9a3.628,3.628,0,0,1-.667-.036.622.622,0,0,1-.317-.2c-.05-.084.158-.309.276-.334l1.44-.3c.089-.019.3-.235.231-.278l0,0c-.486-.323-2.253.276-2.532-.47-.253-.68.625-1.157,1.553-1.39s1.909-.228,1.863.063l0,0a.436.436,0,0,1-.224.238l-1.371.3c-.074.017-.261.213-.206.26.389.339,2-.328,2.545.522.393.613-1.045,1.568-2.583,1.617" transform="translate(0.183 -0.646)" fill="#fdba03"/>
        <path id="Path_35333" data-name="Path 35333" d="M14.422,31.6h0a1.5,1.5,0,0,1,1.112,1.478A2.276,2.276,0,0,1,14.317,34.6,8.446,8.446,0,0,1,9.625,35.65,8.439,8.439,0,0,0,14.318,34.6a2.276,2.276,0,0,0,1.215-1.519A1.5,1.5,0,0,0,14.422,31.6" transform="translate(0.272 -0.656)" fill="#fdba03"/>
        <path id="Path_35334" data-name="Path 35334" d="M33.9,15.539h0l.845.846c.153-.132.321-.318.5-.486l.008-.007a2.373,2.373,0,0,1,.26-.217.944.944,0,0,1,.089-.044.825.825,0,0,1,.19-.1h0a5.926,5.926,0,0,1-.421-2.289A3.992,3.992,0,0,0,33.9,15.539" transform="translate(0.957 -0.275)" fill="#fdfcfc"/>
        <path id="Path_35335" data-name="Path 35335" d="M34.723,16.442c.154-.133.321-.319.5-.486C35.043,16.122,34.875,16.31,34.723,16.442Z" transform="translate(0.98 -0.331)" fill="#fdfcfc"/>
        <path id="Path_35336" data-name="Path 35336" d="M35.553,15.679a.847.847,0,0,1,.191-.095h0a.861.861,0,0,0-.19.095" transform="translate(1.004 -0.323)" fill="#fdfcfc"/>
        <path id="Path_35337" data-name="Path 35337" d="M35.37,13.247h0a4,4,0,0,0-1.47,2.293h0a3.992,3.992,0,0,1,1.469-2.292" transform="translate(0.957 -0.275)" fill="#fdfcfc"/>
        <path id="Path_35338" data-name="Path 35338" d="M33.8,16.621a.575.575,0,0,0-.541-.291.567.567,0,0,0-.549.5.517.517,0,0,0,.051.166.593.593,0,0,0,.435.314.45.45,0,0,0,.073.009.548.548,0,0,0,.069,0,.527.527,0,0,0,.172-.031.264.264,0,0,0,.03-.011.517.517,0,0,0,.141-.088.323.323,0,0,0,.028-.024.447.447,0,0,0,.086-.119.514.514,0,0,0,.027-.053.5.5,0,0,0,.039-.174.543.543,0,0,0-.061-.2" transform="translate(0.923 -0.339)" fill="#fdfcfc"/>
        <path id="Path_35339" data-name="Path 35339" d="M33.827,16.826a.475.475,0,0,1-.039.174c.007-.018.021-.031.026-.049a.522.522,0,0,0,.015-.119.515.515,0,0,0-.063-.2.507.507,0,0,1,.061.2" transform="translate(0.953 -0.345)" fill="#fdfcfc"/>
        <path id="Path_35340" data-name="Path 35340" d="M32.756,17.009a.594.594,0,0,0,.438.323v0a.582.582,0,0,0,.072,0,.611.611,0,0,1-.074-.009.6.6,0,0,1-.435-.314" transform="translate(0.925 -0.353)" fill="#fdfcfc"/>
        <path id="Path_35341" data-name="Path 35341" d="M38.052,16.686a.466.466,0,0,0-.033-.094.543.543,0,0,0-.04-.081.5.5,0,0,0-.077-.084.492.492,0,0,0-.06-.052.536.536,0,0,0-.222-.091.422.422,0,0,0-.085-.01.644.644,0,0,0-.087-.01.632.632,0,0,0-.159.033c-.02.007-.042.008-.062.017a.506.506,0,0,0-.114.086.425.425,0,0,0-.04.031.475.475,0,0,0-.1.166.451.451,0,0,0-.02.163c0,.011-.005.021,0,.031a.636.636,0,0,0,.375.416.806.806,0,0,0,.632-.124.5.5,0,0,0,.095-.21.592.592,0,0,0,.005-.085.432.432,0,0,0-.005-.1" transform="translate(1.043 -0.337)" fill="#fdfcfc"/>
        <path id="Path_35342" data-name="Path 35342" d="M37.434,16.264a.443.443,0,0,1,.087.01.451.451,0,0,0-.087-.01" transform="translate(1.057 -0.337)" fill="#fdfcfc"/>
        <path id="Path_35343" data-name="Path 35343" d="M36.973,16.606a.475.475,0,0,0-.02.162.451.451,0,0,1,.021-.163h0" transform="translate(1.043 -0.344)" fill="#fdfcfc"/>
        <path id="Path_35344" data-name="Path 35344" d="M37.325,17.219a.638.638,0,0,1-.375-.416h0a.638.638,0,0,0,.375.416.806.806,0,0,0,.632-.124.484.484,0,0,0,.095-.211.5.5,0,0,1-.095.21.806.806,0,0,1-.632.124" transform="translate(1.043 -0.349)" fill="#fdfcfc"/>
        <path id="Path_35345" data-name="Path 35345" d="M37.837,16.384c-.005,0-.013,0-.019-.008a.5.5,0,0,1,.06.053.438.438,0,0,0-.041-.045" transform="translate(1.068 -0.34)" fill="#fdfcfc"/>
        <path id="Path_35346" data-name="Path 35346" d="M8.681,15.6h0l.785.779a3.965,3.965,0,0,1,1.064-.837,4.691,4.691,0,0,1-.416-2.313A3.478,3.478,0,0,0,8.681,15.6" transform="translate(0.245 -0.274)" fill="#fdfcfc"/>
        <path id="Path_35347" data-name="Path 35347" d="M10.111,13.229A3.482,3.482,0,0,0,8.679,15.6h0a3.478,3.478,0,0,1,1.43-2.372h0Z" transform="translate(0.245 -0.274)" fill="#fdfcfc"/>
        <path id="Path_35348" data-name="Path 35348" d="M7.89,16.334l0,0a.57.57,0,0,0-.183.053.542.542,0,0,0-.308.432.551.551,0,0,0,.54.461l0,0a.564.564,0,0,0,.147-.017.632.632,0,0,0,.1-.024.644.644,0,0,0,.081-.044.54.54,0,0,0,.1-.069.549.549,0,0,0,.043-.053.518.518,0,0,0,.072-.115c.007-.018.01-.036.016-.054a.494.494,0,0,0,.025-.165.557.557,0,0,0-.617-.411" transform="translate(0.209 -0.339)" fill="#fdfcfc"/>
        <path id="Path_35349" data-name="Path 35349" d="M7.886,16.332a.6.6,0,0,0-.192.057.594.594,0,0,1,.183-.052l0,0a.557.557,0,0,1,.617.411.494.494,0,0,1-.025.165.526.526,0,0,0,.029-.1.508.508,0,0,0,0-.069.557.557,0,0,0-.617-.411" transform="translate(0.217 -0.339)" fill="#fdfcfc"/>
        <path id="Path_35350" data-name="Path 35350" d="M22.741,13.22a3.411,3.411,0,0,0-1.429,2.388h.005l.817.779a5.794,5.794,0,0,1,1.032-.845,5.352,5.352,0,0,1-.426-2.325" transform="translate(0.602 -0.274)" fill="#fdfcfc"/>
        <path id="Path_35351" data-name="Path 35351" d="M21.312,15.659l.822.782v0l-.817-.779Z" transform="translate(0.602 -0.325)" fill="#fdfcfc"/>
        <path id="Path_35352" data-name="Path 35352" d="M22.741,13.22v0a3.411,3.411,0,0,0-1.43,2.391h0a3.411,3.411,0,0,1,1.429-2.388" transform="translate(0.602 -0.274)" fill="#fdfcfc"/>
        <path id="Path_35353" data-name="Path 35353" d="M22.7,13.209v.007l0,0Z" transform="translate(0.641 -0.274)" fill="#fdfcfc"/>
        <path id="Path_35354" data-name="Path 35354" d="M20.989,16.44a.572.572,0,0,0-.271-.1.59.59,0,0,0-.639.418l0,0a.531.531,0,0,0,.025.176.561.561,0,0,0,.384.359l-.005,0a.545.545,0,0,0,.191.038h.044a.585.585,0,0,0,.175-.031l.006,0a.524.524,0,0,0,.292-.269l0-.007a.489.489,0,0,0,.034-.106.522.522,0,0,0-.234-.479" transform="translate(0.567 -0.339)" fill="#fdfcfc"/>
        <path id="Path_35355" data-name="Path 35355" d="M21.157,17.044l0,0,0,.007v0" transform="translate(0.597 -0.353)" fill="#fdfcfc"/>
        <path id="Path_35356" data-name="Path 35356" d="M20.079,16.755a.589.589,0,0,1,.639-.418.571.571,0,0,1,.271.1.561.561,0,0,0-.272-.108H20.71a.589.589,0,0,0-.638.418.529.529,0,0,0,.028.185.531.531,0,0,1-.025-.176Z" transform="translate(0.567 -0.339)" fill="#fdfcfc"/>
        <path id="Path_35357" data-name="Path 35357" d="M24.3,16.6h0a.52.52,0,0,0,.183.519.577.577,0,0,0,.178.095h0c.425.12.728-.062.751-.4a.538.538,0,0,0-.137-.356.588.588,0,0,0-.34-.182.653.653,0,0,0-.635.319" transform="translate(0.686 -0.338)" fill="#fdfcfc"/>
        <path id="Path_35358" data-name="Path 35358" d="M24.3,16.6h0a.653.653,0,0,1,.635-.319.588.588,0,0,1,.34.182.589.589,0,0,0-.348-.188.654.654,0,0,0-.634.319.52.52,0,0,0,.189.526A.522.522,0,0,1,24.3,16.6" transform="translate(0.686 -0.338)" fill="#fdfcfc"/>
        <path id="Path_35359" data-name="Path 35359" d="M31.751,27c.107.794,1.854.634,2.139.914a.122.122,0,0,1,.027.145v0h0v0c-.743.286-1.633-.141-1.954.214a.123.123,0,0,0-.038.095c.066.458,3.77.537,3.576-.524-.14-.752-2.051-.668-2.222-.878-.026-.03-.017-.066.037-.111a.744.744,0,0,1,.281-.137l1.1-.026c.075,0,.248-.167.206-.214-.75-.671-3.235-.166-3.147.518" transform="translate(0.896 -0.543)" fill="#fde145"/>
        <path id="Path_35360" data-name="Path 35360" d="M33.857,28.1h0" transform="translate(0.956 -0.583)" fill="#fde145"/>
        <path id="Path_35361" data-name="Path 35361" d="M33.831,27.951a.12.12,0,0,1,.027.145.122.122,0,0,0-.027-.145" transform="translate(0.955 -0.58)" fill="#fde145"/>
        <path id="Path_35362" data-name="Path 35362" d="M35.46,27.866v0c-.139-.748-2.038-.669-2.222-.876.171.211,2.082.127,2.222.878" transform="translate(0.938 -0.56)" fill="#fde145"/>
        <path id="Path_35363" data-name="Path 35363" d="M33.913,28.1v0c-.739.285-1.629-.141-1.954.214a.121.121,0,0,0-.038.1.123.123,0,0,1,.038-.095c.321-.355,1.21.071,1.954-.214" transform="translate(0.901 -0.583)" fill="#fde145"/>
        <path id="Path_35364" data-name="Path 35364" d="M34.9,26.482v0c-.749-.672-3.238-.168-3.148.518v0c-.087-.684,2.4-1.189,3.147-.518" transform="translate(0.896 -0.543)" fill="#fde145"/>
        <path id="Path_35365" data-name="Path 35365" d="M13.24,33.372c-.545-.85-2.159-.183-2.545-.522-.054-.047.133-.244.206-.26l1.371-.3a.43.43,0,0,0,.224-.238c.048-.29-.925-.3-1.851-.066s-1.792.71-1.54,1.387c.278.746,2.044.147,2.532.47.065.043-.143.26-.231.278l-1.44.3c-.116.024-.325.25-.276.334a.622.622,0,0,0,.317.2,3.545,3.545,0,0,0,.659.037c1.534-.053,2.969-1.006,2.575-1.616" transform="translate(0.256 -0.66)" fill="#fde145"/>
        <path id="Path_35366" data-name="Path 35366" d="M9.69,34.758c-.049-.084.159-.309.276-.334l1.44-.3c.088-.019.3-.235.231-.278-.487-.323-2.254.276-2.532-.47-.252-.677.617-1.152,1.54-1.387-.927.234-1.8.71-1.553,1.39.279.746,2.045.147,2.532.47l0,0c.066.043-.142.26-.231.278l-1.44.3c-.117.024-.326.25-.276.334a.609.609,0,0,0,.317.2,3.544,3.544,0,0,0,.667.036,3.545,3.545,0,0,1-.659-.037.622.622,0,0,1-.317-.2" transform="translate(0.255 -0.664)" fill="#fde145"/>
        <path id="Path_35367" data-name="Path 35367" d="M11.792,16.71h0a.52.52,0,0,0,.183.519.577.577,0,0,0,.178.095h0c.425.12.728-.062.751-.4a.538.538,0,0,0-.137-.356.588.588,0,0,0-.34-.182.653.653,0,0,0-.635.319" transform="translate(0.333 -0.34)" fill="#fdfcfc"/>
      </g>
    </g>
  </g>
</svg>
