<svg xmlns="http://www.w3.org/2000/svg" xmlns:xlink="http://www.w3.org/1999/xlink" width="20" height="19" viewBox="0 0 20 19">
  <defs>
    <clipPath id="clip-Casino_Filter_Icon_Clicked_1">
      <rect width="20" height="19"/>
    </clipPath>
  </defs>
  <g id="Casino_Filter_Icon_Clicked_1" data-name="Casino Filter Icon Clicked – 1" clip-path="url(#clip-Casino_Filter_Icon_Clicked_1)">
    <g id="Group_60491" data-name="Group 60491" transform="translate(14519 1931)">
      <g id="Group_59439" data-name="Group 59439" transform="translate(-14519 -1931)">
        <g id="Group_59086" data-name="Group 59086" transform="translate(0)">
          <g id="Component_387_4" data-name="Component 387 – 4">
            <path id="Path_34638" data-name="Path 34638" d="M914.234,2.352a1.759,1.759,0,0,0-1.692.15,1.792,1.792,0,0,0-.8,1.335c-.118,1.11.8,1.482.688,1.685l-.741,1.314-.983,1.745-.407.7-.045-.048V8.65l-.006-7.156A1.521,1.521,0,0,0,908.675,0l-10.96.012a1.443,1.443,0,0,0-1.428,1.418l-.005,11.939c0,.194-.8.152-.8.846l0,3.953a.837.837,0,0,0,.84.831l13.956,0a.808.808,0,0,0,.824-.833l0-3.876c0-.847-.859-.711-.858-.962l.009-1.738a1.131,1.131,0,0,1,.118-.364l1.209-2.152,1.738-3.1c.04-.072.176-.211.275-.214a1.775,1.775,0,0,0,.636-3.412M897.794,1l10.869,0a.579.579,0,0,1,.6.628l0,1.626a.415.415,0,0,1-.324.409l-2.755,0-8.541,0a.344.344,0,0,1-.356-.335l0-1.773a.524.524,0,0,1,.509-.55m-.512,3.785a.333.333,0,0,1,.285-.313l11.328.01a.348.348,0,0,1,.355.291l0,3.662,0,3.946-.016,1.085h-9.77l-2.052,0a.335.335,0,0,1-.138-.143Zm7.881,13.241H896.5V14.608a.223.223,0,0,1,.122-.155l13.219,0a1.523,1.523,0,0,1,.249.037l.008,3.536Zm8.765-13.386A.773.773,0,0,1,912.864,3.6a.807.807,0,0,1,.718-.383.825.825,0,0,1,.69.516.749.749,0,0,1-.344.911" transform="translate(-895.48 0)" fill="#fff"/>
            <path id="Path_34639" data-name="Path 34639" d="M976.671,215.759l-3.494,0a.633.633,0,0,0-.389.211.576.576,0,0,0-.037.386.6.6,0,0,0,.541.326l3.379-.011c.208,0,.4-.3.4-.464s-.189-.45-.4-.45" transform="translate(-967.082 -199.979)" fill="#fff"/>
            <path id="Path_34640" data-name="Path 34640" d="M931.144,79.072h9.4a.552.552,0,0,0,.567-.616l-.006-5.667a.515.515,0,0,0-.5-.513l-9.4-.006a.5.5,0,0,0-.543.522l0,5.774a.517.517,0,0,0,.478.507m6.78-3.213,0-2.754,2.336,0,.015,5.127-2.168.013a.327.327,0,0,1-.187-.1Zm-3.209-2.624a.4.4,0,0,1,.146-.138h1.971a2.082,2.082,0,0,1,.246.041l0,2.144,0,2.8c0,.047-.073.156-.109.156h-2.2a1.22,1.22,0,0,1-.07-.256Zm-3.21-.136,2.227,0c.041,0,.149.106.143.127l0,4.859c0,.028-.082.149-.111.149l-2.229-.007a4.784,4.784,0,0,1-.055-.69Z" transform="translate(-928.091 -66.983)" fill="#fff"/>
            <path id="Path_34641" data-name="Path 34641" d="M975.782,27.294l3.16,0a.407.407,0,0,0,.392-.455.425.425,0,0,0-.425-.336l-3.066,0a.424.424,0,0,0-.409.384c0,.133.184.406.348.406" transform="translate(-966.442 -24.564)" fill="#fff"/>
            <path id="Path_34643" data-name="Path 34643" d="M945.387,105.834l.814.013c-.036.082-.075.173-.122.265l-.719,1.416c-.054.106.142.336.256.347a.516.516,0,0,0,.388-.2l.882-1.724a1.43,1.43,0,0,0,.094-.454c.006-.1-.211-.294-.316-.293l-1.33.016a.386.386,0,0,0-.282.328.428.428,0,0,0,.332.29" transform="translate(-941.428 -97.506)" fill="#fff"/>
            <path id="Path_34644" data-name="Path 34644" d="M989.092,105.82l.876.048-.82,1.608a.362.362,0,0,0,.172.385.421.421,0,0,0,.461-.172l.927-1.858a.634.634,0,0,0-.019-.442.545.545,0,0,0-.333-.18l-1.294.021c-.1,0-.266.227-.254.326a.41.41,0,0,0,.283.262" transform="translate(-981.983 -97.515)" fill="#fff"/>
            <path id="Path_34645" data-name="Path 34645" d="M1033.133,105.859l.856.034-.78,1.5a.486.486,0,0,0-.009.4.415.415,0,0,0,.419.08,1.257,1.257,0,0,0,.263-.335l.865-1.726a.575.575,0,0,0-.032-.4.512.512,0,0,0-.322-.171l-1.185-.006a.436.436,0,0,0-.36.314c-.015.121.177.3.285.3" transform="translate(-1022.801 -97.545)" fill="#fff"/>
            <path id="Path_34646" data-name="Path 34646" d="M975.782,27.294l3.16,0a.407.407,0,0,0,.392-.455.425.425,0,0,0-.425-.336l-3.066,0a.424.424,0,0,0-.409.384c0,.133.184.406.348.406" transform="translate(-972.805 -24.564)" fill="#fff"/>
          </g>
        </g>
      </g>
    </g>
  </g>
</svg>
