<svg xmlns="http://www.w3.org/2000/svg" xmlns:xlink="http://www.w3.org/1999/xlink" width="17" height="17" viewBox="0 0 17 17">
  <defs>
    <clipPath id="clip-path">
      <rect id="Rectangle_24461" data-name="Rectangle 24461" width="17" height="17" fill="none"/>
    </clipPath>
    <clipPath id="clip-Deposit_More_Icon">
      <rect width="17" height="17"/>
    </clipPath>
  </defs>
  <g id="Deposit_More_Icon" data-name="Deposit More Icon" clip-path="url(#clip-Deposit_More_Icon)">
    <g id="Group_60372" data-name="Group 60372">
      <g id="Group_60371" data-name="Group 60371" clip-path="url(#clip-path)">
        <path id="Path_35490" data-name="Path 35490" d="M8.5,0A8.5,8.5,0,1,0,17,8.5,8.5,8.5,0,0,0,8.5,0M9.544,12.756a1.132,1.132,0,0,1-.252.36.959.959,0,0,1-.36.242.99.99,0,0,1-.432.091h0a1.1,1.1,0,0,1-.792-.333,1.132,1.132,0,0,1-.252-.36,1.183,1.183,0,0,1-.081-.432,1.1,1.1,0,0,1,.333-.792.907.907,0,0,1,.171-.144,1.219,1.219,0,0,1,.189-.1,1.034,1.034,0,0,1,.216-.072,1.131,1.131,0,0,1,1.008.315,1.1,1.1,0,0,1,.333.792,1.139,1.139,0,0,1-.081.432m.081-4.231A1.232,1.232,0,0,1,8.5,9.84,1.232,1.232,0,0,1,7.375,8.525V4.315A1.232,1.232,0,0,1,8.5,3,1.232,1.232,0,0,1,9.625,4.315Z" fill="orange"/>
        <path id="Path_35491" data-name="Path 35491" d="M8.5,3A1.232,1.232,0,0,0,7.375,4.315v4.21A1.232,1.232,0,0,0,8.5,9.84,1.232,1.232,0,0,0,9.625,8.525V4.315A1.232,1.232,0,0,0,8.5,3" fill="#fff"/>
        <path id="Path_35492" data-name="Path 35492" d="M8.284,11.217a1.034,1.034,0,0,0-.216.072,1.219,1.219,0,0,0-.189.1.907.907,0,0,0-.171.144,1.1,1.1,0,0,0-.333.792,1.183,1.183,0,0,0,.081.432,1.132,1.132,0,0,0,.252.36,1.1,1.1,0,0,0,.792.333h0a1,1,0,0,0,.432-.091.959.959,0,0,0,.36-.242,1.041,1.041,0,0,0,.333-.792,1.1,1.1,0,0,0-.333-.792,1.131,1.131,0,0,0-1.008-.315" fill="#fff"/>
      </g>
    </g>
  </g>
</svg>
