<svg xmlns="http://www.w3.org/2000/svg" xmlns:xlink="http://www.w3.org/1999/xlink" width="83" height="80" viewBox="0 0 83 80">
  <defs>
    <clipPath id="clip-Deposit_Success">
      <rect width="83" height="80"/>
    </clipPath>
  </defs>
  <g id="Deposit_Success" data-name="Deposit Success" clip-path="url(#clip-Deposit_Success)">
    <g id="Group_59435" data-name="Group 59435" transform="translate(24124.965 16990)">
      <path id="Path_34505" data-name="Path 34505" d="M82.962,39.779c0,4.279-4.223,7.838-5.477,11.7-1.3,4-.019,9.355-2.443,12.685-2.448,3.364-7.951,3.79-11.315,6.238C60.4,72.825,58.3,77.941,54.3,79.24c-3.861,1.254-8.543-1.615-12.821-1.615s-8.96,2.868-12.821,1.615c-4-1.3-6.093-6.415-9.424-8.839-3.364-2.448-8.867-2.874-11.315-6.238C5.5,60.833,6.776,55.479,5.477,51.478,4.223,47.617,0,44.058,0,39.779s4.223-7.838,5.477-11.7c1.3-4,.019-9.355,2.443-12.685,2.448-3.364,7.951-3.79,11.315-6.238,3.331-2.424,5.423-7.54,9.424-8.839C32.52-.936,37.2,1.933,41.481,1.933S50.442-.936,54.3.318c4,1.3,6.093,6.415,9.424,8.839,3.364,2.448,8.867,2.874,11.315,6.238,2.424,3.331,1.144,8.684,2.443,12.685,1.254,3.861,5.477,7.42,5.477,11.7" transform="translate(-24124.965 -16990)" fill="#1fb93d" opacity="0.179"/>
      <circle id="Ellipse_1200" data-name="Ellipse 1200" cx="24.642" cy="24.642" r="24.642" transform="translate(-24107.773 -16975.1)" fill="#1fb93d"/>
      <path id="Path_34506" data-name="Path 34506" d="M142.14,197.684a2.44,2.44,0,0,1-1.726-.715l-7.585-7.585a2.44,2.44,0,0,1,3.451-3.451l5.859,5.859,12.676-12.676a2.44,2.44,0,0,1,3.451,3.451l-14.4,14.4a2.44,2.44,0,0,1-1.726.715" transform="translate(-24228.709 -17138.184)" fill="#fff"/>
    </g>
  </g>
</svg>
