<svg xmlns="http://www.w3.org/2000/svg" xmlns:xlink="http://www.w3.org/1999/xlink" width="18" height="18" viewBox="0 0 18 18">
  <defs>
    <clipPath id="clip-path">
      <rect id="Rectangle_24515" data-name="Rectangle 24515" width="17.984" height="18.014" transform="translate(0 0)" fill="#fff"/>
    </clipPath>
    <clipPath id="clip-Filters_Icon_Clicked_1">
      <rect width="18" height="18"/>
    </clipPath>
  </defs>
  <g id="Filters_Icon_Clicked_1" data-name="Filters Icon Clicked – 1" clip-path="url(#clip-Filters_Icon_Clicked_1)">
    <g id="Group_60509" data-name="Group 60509" transform="translate(0 0)">
      <g id="Group_60507" data-name="Group 60507" clip-path="url(#clip-path)">
        <path id="Path_35690" data-name="Path 35690" d="M17.222,8.266h-8.2A2.759,2.759,0,0,0,5.837,6.312a2.71,2.71,0,0,0-2.12,1.955H.837a.762.762,0,0,0-.834.7A.748.748,0,0,0,.63,9.75l3.083.016a2.766,2.766,0,0,0,2.652,2.009A2.779,2.779,0,0,0,9.026,9.766h8.2a.75.75,0,0,0,0-1.5M6.023,7.8a1.258,1.258,0,0,1,.69,2.42,1.257,1.257,0,0,1-.736-2.4l.047-.015Zm-.059-.189v0l.008.028Z" fill="#fff"/>
        <path id="Path_35691" data-name="Path 35691" d="M17.231,2.007h0v.01l-2.962-.01A2.76,2.76,0,0,0,11.072.054a2.713,2.713,0,0,0-2.12,1.953H.686A.742.742,0,0,0,0,2.786a.755.755,0,0,0,.691.721H8.959a2.766,2.766,0,0,0,2.652,2.009,2.771,2.771,0,0,0,2.661-2.009h2.963a.75.75,0,0,0,0-1.5M11.939,4.074l-.024-.092a1.255,1.255,0,1,1,.913-1.534,1.256,1.256,0,0,1-.909,1.534Zm5.289-1.857h0v0Z" fill="#fff"/>
        <path id="Path_35692" data-name="Path 35692" d="M17.766,14.725a.747.747,0,0,0-.53-.222v.2l0,.01v-.2l-2.965-.007a2.757,2.757,0,0,0-3.193-1.956,2.71,2.71,0,0,0-2.121,1.956l-8.291,0A.75.75,0,0,0,.759,16H8.953a2.764,2.764,0,0,0,2.65,2.011A2.781,2.781,0,0,0,14.273,16H17.23a.719.719,0,0,0,.531-.217.748.748,0,0,0,.005-1.061m-5.753,1.933h0l-.057-.192a1.255,1.255,0,0,1-1.565-.841,1.265,1.265,0,0,1,.86-1.571,1.251,1.251,0,0,1,1.556.79l.016.054a1.256,1.256,0,0,1-.856,1.565l.048.194" fill="#fff"/>
      </g>
    </g>
  </g>
</svg>
