<svg xmlns="http://www.w3.org/2000/svg" xmlns:xlink="http://www.w3.org/1999/xlink" width="161" height="172" viewBox="0 0 161 172">
  <defs>
    <clipPath id="clip-path">
      <rect id="Rectangle_23682" data-name="Rectangle 23682" width="151.307" height="166.339" fill="none"/>
    </clipPath>
    <clipPath id="clip-No_Bonuses_Results_Desktop">
      <rect width="161" height="172"/>
    </clipPath>
  </defs>
  <g id="No_Bonuses_Results_Desktop" data-name="No Bonuses Results Desktop" clip-path="url(#clip-No_Bonuses_Results_Desktop)">
    <g id="Group_57738" data-name="Group 57738">
      <ellipse id="Ellipse_765" data-name="Ellipse 765" cx="80" cy="22.222" rx="80" ry="22.222" transform="translate(0 126.702)" fill="#e5edfd"/>
      <g id="Group_57698" data-name="Group 57698" transform="translate(4.553)">
        <g id="Group_57697" data-name="Group 57697" clip-path="url(#clip-path)">
          <path id="Path_33653" data-name="Path 33653" d="M.726,238.972l25.936,9.255c-.1.562-10.211-2.16-11.083-2.4-2.4-.659-13.675-3.86-15.081-4.8-.967-.645-.324-1.3.228-2.057" transform="translate(0 -161.335)" fill="#6db9eb"/>
          <path id="Path_33654" data-name="Path 33654" d="M407.844,238.972a1.251,1.251,0,0,1,.228,2.057c-1.409.94-12.48,4.14-14.853,4.8-4.01,1.113-8.182,1.876-12.225,2.856Z" transform="translate(-257.217 -161.335)" fill="#6db9eb"/>
          <path id="Path_33655" data-name="Path 33655" d="M416.644,166.526c.94,2.332,1.5,2.076,3.542,3.085-2.211.318-1.408,3.763-1.714,4-.2.151-3.123-1.832-4.57,0,.412-2.228.709-2.976-1.257-4.456,2.326-.517,2.736-.573,4-2.628" transform="translate(-278.585 -112.425)" fill="#3ea0e6"/>
          <path id="Path_33656" data-name="Path 33656" d="M54.961,212.947l19.08,16.11a69.3,69.3,0,0,1-7.883-5.142c-1.468-1.071-12.228-8.93-12.225-9.712a14.584,14.584,0,0,0,1.028-1.257" transform="translate(-36.411 -143.765)" fill="#6db9eb"/>
          <path id="Path_33657" data-name="Path 33657" d="M369.373,212.947l1.257,1.257a175.95,175.95,0,0,1-19.88,14.853Z" transform="translate(-236.798 -143.765)" fill="#6db9eb"/>
          <path id="Path_33658" data-name="Path 33658" d="M338.806,193.253l1.485,1.028-14.51,16.8Z" transform="translate(-219.941 -130.469)" fill="#6db9eb"/>
          <path id="Path_33659" data-name="Path 33659" d="M97.683,193.253,110.936,211.3,96.883,194.967c-.738-.979-.067-1.1.8-1.714" transform="translate(-65.194 -130.469)" fill="#6db9eb"/>
          <path id="Path_33660" data-name="Path 33660" d="M349.368,22.337c1.02,2.027,1.9,3.054,4.227,3.542a5.386,5.386,0,0,0-3.542,4.227c-.973-2.085-1.911-3.029-4.227-3.542,1.962-.972,3.068-1.983,3.542-4.227" transform="translate(-233.474 -15.08)" fill="#3ea0e6"/>
          <path id="Path_33661" data-name="Path 33661" d="M46.713,164.416a5.951,5.951,0,0,0,4.684,2.856,5.737,5.737,0,0,0-2.4,4.684c-1.188-2.064-2.7-2.451-4.913-2.856a4.527,4.527,0,0,0,2.628-4.684" transform="translate(-29.763 -111)" fill="#3ea0e6"/>
          <path id="Path_33662" data-name="Path 33662" d="M317.565,170.007c.333-.133,1.444.527,1.485.8.155,1.027-9.956,15.381-10.854,17.709Z" transform="translate(-208.069 -114.763)" fill="#6db9eb"/>
          <path id="Path_33663" data-name="Path 33663" d="M125.833,170.043c1.01-.071,8.449,15.871,9.6,17.824l-10.168-16.338a.914.914,0,0,1,.571-1.485" transform="translate(-84.432 -114.799)" fill="#6db9eb"/>
          <path id="Path_33664" data-name="Path 33664" d="M278.828,205.865a9.017,9.017,0,0,1,1.257,1.485,11.978,11.978,0,0,1-1.485,1.257,10.108,10.108,0,0,1-1.714-1.028c-.092-.429,1.019-1.945,1.943-1.714" transform="translate(-186.928 -138.967)" fill="#6db9eb"/>
          <path id="Path_33665" data-name="Path 33665" d="M174.742,205.908c.085.053.333,1.442,1.028,1.714-.863-.154-1.121,1.227-1.257,1.257a9.315,9.315,0,0,1-1.714-1.028c-.013-.07.442-.353.457-.457a1.214,1.214,0,0,0-.228-.914,8.639,8.639,0,0,1,1.714-.571" transform="translate(-116.66 -139.01)" fill="#6db9eb"/>
          <path id="Path_33666" data-name="Path 33666" d="M15.309,158.085a1.308,1.308,0,0,1,.8,1.714c-.44.722-.862-.078-1.257.114-.6.292-1.211,2.017-1.714-.343.823-.815,1.4.134,1.485.114s-.31-1.537.685-1.6" transform="translate(-8.87 -106.726)" fill="#6db9eb"/>
          <path id="Path_33667" data-name="Path 33667" d="M168.529,17.311c-2.21,3.628-5.661,6.456-7.426,10.283,4.658-4.956,12.066-18.475,20.337-15.31,1.21.463,2.006,2.094,3.313,2.285,1.711,2.464,3.085,7.281,1.828,10.054-1.454,3.209-9.02,5.32-12.225,5.941-.359.07-6.08.32-5.6,1.028l25.136,6.055c-.041.264.224.213.228.228.764,2.9-.55,9.425.228,12.8-3.58.97-7.149,2.033-10.74,2.971l-.229-12.568c-.146-.337-.837-.319-1.143-.457-2.479-1.117-22.7-6.335-24.793-6.17-2.48.2-20.037,5.072-22.508,6.17-.14.062-.451.019-.686.228l-.228,12.568c-3.6-.938-7.325-1.756-10.968-2.742.759-3.339-.825-9.608,0-12.568.008-.031.525-.2.457-.457l24.907-6.055c-5.671-1.9-13.959-2.194-18.28-6.741-3.541-3.726-2.921-8.323-.457-12.454,5.519-9.252,14.306-1.62,18.166,4.684-6.7-23.705,26.767-21.9,20.68.228" transform="translate(-82.912 0)" fill="#ffe200"/>
          <path id="Path_33668" data-name="Path 33668" d="M223.9,25.893l-10.74.457c-1.11-9.343,2.1-16.687,12.34-17.024.064.338-5.366.669-5.941,1.828,3.576,3.5,5.305,9.221,4.8,14.168-.014.133-.451.535-.457.571" transform="translate(-143.769 -6.296)" fill="#fff"/>
          <path id="Path_33669" data-name="Path 33669" d="M224.335,60.319c-.035.2.3.256.228.571-.253,1.088-2.772,6.056-3.77,6.284-.938.214-3.441-1.163-4.8,1.143-.92,0-2.277-6.515-2.4-7.541Z" transform="translate(-144.202 -40.723)" fill="#92befa"/>
          <path id="Path_33670" data-name="Path 33670" d="M158.973,51.335l-8.683,1.6c-2.662-2.534-2.99-5.081-4-8.455l-5.142,2.171c5.915-5.655,13.364.112,17.824,4.684" transform="translate(-95.292 -29.91)" fill="#fff"/>
          <path id="Path_33671" data-name="Path 33671" d="M260.776,67.07c-3.944,4.74-10.26,3.956-15.881,5.256a27.393,27.393,0,0,1,8.112-7.084Z" transform="translate(-165.333 -44.046)" fill="#6db9eb"/>
          <path id="Path_33672" data-name="Path 33672" d="M177.966,65.946c1.915,1.963,4.008,4.232,4.913,6.855-4.609-1.365-9.963-1.8-13.6-5.256Z" transform="translate(-114.286 -44.521)" fill="#92befa"/>
          <path id="Path_33673" data-name="Path 33673" d="M264.325,38.015c-1.307-.191-2.1-1.822-3.313-2.285-8.27-3.165-15.678,10.354-20.337,15.31,1.765-3.827,5.217-6.655,7.427-10.283l.114.457c3.6-5.234,11.511-9.82,16.11-3.2" transform="translate(-162.484 -23.446)" fill="#fab82c"/>
          <path id="Path_33674" data-name="Path 33674" d="M277.633,59.916l-7.769-1.828c5.041-3.072,11.148-5.845,15.538-.114-1.843-.852-3.107-2.876-5.37-2.856a9.357,9.357,0,0,1-2.4,4.8" transform="translate(-182.191 -36.892)" fill="#fff"/>
          <path id="Path_33675" data-name="Path 33675" d="M182,132.586l-.228,12.568c-8.2-1.92-16.427-4.765-24.451-6.855l.229-12.568c.037.271.6.619.8.685,7.431,2.512,16.161,3.514,23.651,6.17" transform="translate(-106.214 -84.883)" fill="#5da1e5"/>
          <path id="Path_33676" data-name="Path 33676" d="M257.722,139c-8.382,2.189-16.756,4.433-25.136,6.627l.228-12.568,24.679-6.627Z" transform="translate(-157.023 -85.358)" fill="#3c91d9"/>
          <path id="Path_33677" data-name="Path 33677" d="M83.638,76.5c4.321,4.547,12.609,4.837,18.281,6.741L77.011,89.292c-7.143-1.266-14.555-4.414-21.594-5.713-.258-.048-1.156-.125-1.257.228h-.229l.343-.686Z" transform="translate(-36.411 -51.644)" fill="#92befa"/>
          <path id="Path_33678" data-name="Path 33678" d="M312.164,83.333h-.228c-7.663,1.044-15.052,3.833-22.622,5.484l-25.136-6.055c-.481-.709,5.24-.959,5.6-1.028,3.2-.621,10.77-2.733,12.225-5.941l30.391,7.2c.139.323-.235.323-.228.343" transform="translate(-178.332 -51.169)" fill="#92befa"/>
          <path id="Path_33679" data-name="Path 33679" d="M76.555,104.945c-.825,2.96.759,9.229,0,12.568-7.391-2-14.875-3.744-22.279-5.713L53.933,99h.228Z" transform="translate(-36.411 -66.84)" fill="#5da1e5"/>
          <path id="Path_33680" data-name="Path 33680" d="M342.48,117.512c-.778-3.371.536-9.9-.228-12.8L364.645,99h.228a102.644,102.644,0,0,1,.228,12.225l-.571.571c-7.361,1.856-14.728,3.729-22.051,5.713" transform="translate(-231.042 -66.839)" fill="#3c91d9"/>
          <path id="Path_33681" data-name="Path 33681" d="M207.441,112.2c.138.46-.71.6-1.028.685-7.557,1.926-15.149,3.711-22.622,5.941L160.14,112.2c2.471-1.1,20.028-5.973,22.508-6.17,2.091-.165,22.313,5.053,24.793,6.17" transform="translate(-108.114 -71.58)" fill="#92befa"/>
          <path id="Path_33682" data-name="Path 33682" d="M158.715,125.028l23.651,6.627c7.473-2.23,15.065-4.015,22.622-5.941.318-.081,1.166-.226,1.028-.686.306.138,1,.12,1.143.457l-24.679,6.627c-7.49-2.656-16.22-3.658-23.65-6.17-.2-.066-.763-.414-.8-.686.235-.21.545-.166.686-.228" transform="translate(-106.689 -84.409)" fill="#b3e0fb"/>
          <path id="Path_33683" data-name="Path 33683" d="M364.22,99l-22.394,5.713c0-.016-.27.036-.228-.228,7.57-1.651,14.959-4.44,22.622-5.484" transform="translate(-230.617 -66.839)" fill="#b3e0fb"/>
          <path id="Path_33684" data-name="Path 33684" d="M77.487,103.925c.068.257-.448.426-.457.457L54.636,98.441c.1-.353,1-.276,1.257-.228,7.039,1.3,14.451,4.447,21.594,5.713" transform="translate(-36.886 -66.277)" fill="#b3e0fb"/>
          <path id="Path_33686" data-name="Path 33686" d="M119.134,308.194l.228,47.073v.228l-.571.228-53.7-16.681c-.611-.553-.3-2.572-.343-3.427-.662-14.21.5-28.926,0-43.188Z" transform="translate(-43.572 -197.423)" fill="#5ea1e5"/>
          <path id="Path_33687" data-name="Path 33687" d="M287.674,292.427c-.549,14.309.734,29.171,0,43.416-.043.833.268,2.647-.343,3.2l-54.042,16.453v-.229c8.653-10.025,16.7-20.67,24.45-31.419,5.483-7.608,14.021-18.551,18.281-26.507a3.037,3.037,0,0,0,.457-1.714c3.715-1.106,7.451-2.2,11.2-3.2" transform="translate(-157.498 -197.423)" fill="#3d91d9"/>
          <path id="Path_33688" data-name="Path 33688" d="M232.814,361.914l-.228-47.072c14.587-3.785,28.982-8.27,43.416-12.568a3.04,3.04,0,0,1-.457,1.714c-4.259,7.956-12.8,18.9-18.281,26.507-7.746,10.749-15.8,21.395-24.45,31.42" transform="translate(-157.023 -204.071)" fill="#3d91d9"/>
          <path id="Path_33689" data-name="Path 33689" d="M174.184,258.238c-3.746,1-7.482,2.093-11.2,3.2-14.434,4.3-28.829,8.783-43.416,12.568L65.186,258.238l.343-.914,54.385-15.539,53.928,15.539Z" transform="translate(-44.008 -163.234)" fill="#b3e0fb"/>
          <path id="Path_33690" data-name="Path 33690" d="M250.709,270.684,235.4,246.005l50.272,14.282c-11.538,3.835-23.261,7.1-34.962,10.4" transform="translate(-158.923 -166.083)" fill="#2172c4"/>
          <path id="Path_33691" data-name="Path 33691" d="M127.644,245.3l-15.767,24.907c-11.618-3.3-23.323-6.464-34.733-10.4Z" transform="translate(-52.081 -165.608)" fill="#317fce"/>
          <path id="Path_33692" data-name="Path 33692" d="M200.735,245.53l15.31,24.679c-5.454,1.538-10.843,3.382-16.338,4.8-5.209-1.583-10.42-3.312-15.653-4.8L199.821,245.3Z" transform="translate(-124.259 -165.608)" fill="#2270be"/>
        </g>
      </g>
    </g>
  </g>
</svg>
