<svg xmlns="http://www.w3.org/2000/svg" xmlns:xlink="http://www.w3.org/1999/xlink" width="107" height="115" viewBox="0 0 107 115">
  <defs>
    <clipPath id="clip-path">
      <rect id="Rectangle_23682" data-name="Rectangle 23682" width="101.054" height="111.093" fill="none"/>
    </clipPath>
    <clipPath id="clip-No_Bonuses_Results_Mobile">
      <rect width="107" height="115"/>
    </clipPath>
  </defs>
  <g id="No_Bonuses_Results_Mobile" data-name="No Bonuses Results Mobile" clip-path="url(#clip-No_Bonuses_Results_Mobile)">
    <g id="Group_57738" data-name="Group 57738" transform="translate(0)">
      <ellipse id="Ellipse_765" data-name="Ellipse 765" cx="53.43" cy="14.842" rx="53.43" ry="14.842" transform="translate(0 84.621)" fill="#e5edfd"/>
      <g id="Group_57698" data-name="Group 57698" transform="translate(3.041)">
        <g id="Group_57697" data-name="Group 57697" clip-path="url(#clip-path)">
          <path id="Path_33653" data-name="Path 33653" d="M.485,238.972l17.322,6.181c-.064.375-6.82-1.443-7.4-1.6-1.6-.44-9.133-2.578-10.072-3.205-.646-.43-.216-.871.153-1.373" transform="translate(0 -187.12)" fill="#6db9eb"/>
          <path id="Path_33654" data-name="Path 33654" d="M398.926,238.972a.835.835,0,0,1,.153,1.373c-.941.628-8.335,2.765-9.92,3.205-2.678.743-5.464,1.253-8.165,1.908Z" transform="translate(-298.326 -187.12)" fill="#6db9eb"/>
          <path id="Path_33655" data-name="Path 33655" d="M415.316,166.526c.628,1.557,1,1.386,2.365,2.06-1.477.213-.94,2.513-1.145,2.671-.131.1-2.086-1.223-3.052,0,.275-1.488.473-1.988-.84-2.976,1.554-.345,1.827-.383,2.671-1.755" transform="translate(-323.11 -130.393)" fill="#3ea0e6"/>
          <path id="Path_33656" data-name="Path 33656" d="M54.62,212.947l12.743,10.759a46.28,46.28,0,0,1-5.265-3.434c-.981-.715-8.167-5.964-8.165-6.486a9.74,9.74,0,0,0,.687-.839" transform="translate(-42.231 -166.742)" fill="#6db9eb"/>
          <path id="Path_33657" data-name="Path 33657" d="M363.188,212.947l.839.839a117.512,117.512,0,0,1-13.277,9.92Z" transform="translate(-274.645 -166.742)" fill="#6db9eb"/>
          <path id="Path_33658" data-name="Path 33658" d="M334.48,193.253l.992.687-9.691,11.217Z" transform="translate(-255.093 -151.321)" fill="#6db9eb"/>
          <path id="Path_33659" data-name="Path 33659" d="M97.312,193.253l8.852,12.056L96.778,194.4c-.493-.654-.045-.737.534-1.145" transform="translate(-75.613 -151.321)" fill="#6db9eb"/>
          <path id="Path_33660" data-name="Path 33660" d="M348.192,22.337a3.612,3.612,0,0,0,2.823,2.366,3.6,3.6,0,0,0-2.365,2.823,3.533,3.533,0,0,0-2.823-2.366,3.7,3.7,0,0,0,2.366-2.823" transform="translate(-270.789 -17.49)" fill="#3ea0e6"/>
          <path id="Path_33661" data-name="Path 33661" d="M45.84,164.416a3.975,3.975,0,0,0,3.129,1.908,3.831,3.831,0,0,0-1.6,3.129c-.793-1.378-1.806-1.637-3.281-1.908a3.023,3.023,0,0,0,1.755-3.129" transform="translate(-34.519 -128.741)" fill="#3ea0e6"/>
          <path id="Path_33662" data-name="Path 33662" d="M314.453,170c.222-.089.964.352.992.534.1.686-6.649,10.273-7.249,11.828Z" transform="translate(-241.324 -133.105)" fill="#6db9eb"/>
          <path id="Path_33663" data-name="Path 33663" d="M125.577,170.042c.674-.048,5.643,10.6,6.41,11.9L125.2,171.034a.61.61,0,0,1,.381-.992" transform="translate(-97.927 -133.147)" fill="#6db9eb"/>
          <path id="Path_33664" data-name="Path 33664" d="M278.182,205.857a6.023,6.023,0,0,1,.839.992,8,8,0,0,1-.992.839,6.751,6.751,0,0,1-1.145-.687c-.061-.286.68-1.3,1.3-1.145" transform="translate(-216.803 -161.178)" fill="#6db9eb"/>
          <path id="Path_33665" data-name="Path 33665" d="M174.1,205.907c.057.035.222.963.687,1.145-.576-.1-.749.819-.839.84a6.221,6.221,0,0,1-1.145-.687c-.009-.047.295-.236.305-.305a.811.811,0,0,0-.153-.611,5.77,5.77,0,0,1,1.145-.381" transform="translate(-135.305 -161.228)" fill="#6db9eb"/>
          <path id="Path_33666" data-name="Path 33666" d="M14.588,158.085a.874.874,0,0,1,.534,1.145c-.294.482-.576-.052-.839.076-.4.2-.809,1.347-1.145-.229.55-.544.936.09.992.076s-.207-1.026.458-1.068" transform="translate(-10.287 -123.783)" fill="#6db9eb"/>
          <path id="Path_33667" data-name="Path 33667" d="M153.345,11.561c-1.476,2.423-3.781,4.312-4.96,6.868C151.5,15.119,156.444,6.09,161.968,8.2c.808.309,1.34,1.4,2.213,1.526,1.143,1.645,2.061,4.863,1.221,6.715-.971,2.143-6.024,3.553-8.165,3.968-.24.046-4.061.214-3.739.687l16.788,4.044c-.028.177.15.142.152.153.51,1.937-.367,6.3.153,8.546-2.391.648-4.775,1.358-7.173,1.984l-.153-8.394c-.1-.225-.559-.213-.763-.305-1.656-.746-15.162-4.231-16.559-4.121a139.141,139.141,0,0,0-15.033,4.121c-.093.041-.3.012-.458.153l-.153,8.394c-2.405-.627-4.892-1.173-7.325-1.832.507-2.23-.551-6.417,0-8.394.006-.021.35-.134.305-.305L139.915,21.1c-3.788-1.272-9.323-1.465-12.209-4.5-2.365-2.489-1.951-5.559-.305-8.317,3.686-6.179,9.555-1.082,12.133,3.129-4.474-15.832,17.877-14.629,13.812.153" transform="translate(-96.164 0)" fill="#ffe200"/>
          <path id="Path_33668" data-name="Path 33668" d="M220.265,20.39l-7.173.305c-.741-6.24,1.4-11.145,8.241-11.37.043.225-3.584.447-3.968,1.221a12.044,12.044,0,0,1,3.205,9.462c-.009.089-.3.357-.305.381" transform="translate(-166.747 -7.302)" fill="#fff"/>
          <path id="Path_33669" data-name="Path 33669" d="M220.768,60.319c-.023.131.2.171.153.381-.169.727-1.851,4.045-2.518,4.2-.626.143-2.3-.777-3.205.763-.614,0-1.521-4.352-1.6-5.036Z" transform="translate(-167.249 -47.231)" fill="#92befa"/>
          <path id="Path_33670" data-name="Path 33670" d="M153.053,49l-5.8,1.068c-1.778-1.692-2-3.394-2.671-5.647l-3.434,1.45c3.951-3.777,8.926.075,11.9,3.129" transform="translate(-110.523 -34.691)" fill="#fff"/>
          <path id="Path_33671" data-name="Path 33671" d="M255.5,66.463c-2.634,3.166-6.852,2.642-10.607,3.51a18.3,18.3,0,0,1,5.418-4.731Z" transform="translate(-191.758 -51.086)" fill="#6db9eb"/>
          <path id="Path_33672" data-name="Path 33672" d="M175.082,65.946a13.282,13.282,0,0,1,3.281,4.578c-3.078-.912-6.654-1.2-9.081-3.51Z" transform="translate(-132.552 -51.637)" fill="#92befa"/>
          <path id="Path_33673" data-name="Path 33673" d="M256.47,36.924c-.873-.128-1.4-1.217-2.213-1.526-5.524-2.114-10.471,6.915-13.583,10.225,1.179-2.556,3.484-4.444,4.96-6.868l.076.305c2.4-3.5,7.688-6.558,10.759-2.137" transform="translate(-188.453 -27.193)" fill="#fab82c"/>
          <path id="Path_33674" data-name="Path 33674" d="M275.053,58.165l-5.189-1.221c3.367-2.052,7.446-3.9,10.378-.076-1.231-.569-2.075-1.92-3.586-1.908a6.249,6.249,0,0,1-1.6,3.205" transform="translate(-211.309 -42.788)" fill="#fff"/>
          <path id="Path_33675" data-name="Path 33675" d="M173.808,130.309l-.153,8.394c-5.477-1.282-10.971-3.182-16.33-4.579l.153-8.394c.025.181.4.414.534.458,4.963,1.677,10.793,2.347,15.8,4.121" transform="translate(-123.189 -98.45)" fill="#5da1e5"/>
          <path id="Path_33676" data-name="Path 33676" d="M249.373,134.828c-5.6,1.462-11.191,2.96-16.787,4.426l.153-8.394,16.482-4.426Z" transform="translate(-182.12 -99)" fill="#3c91d9"/>
          <path id="Path_33677" data-name="Path 33677" d="M73.772,76.5c2.886,3.037,8.421,3.23,12.209,4.5L69.346,85.042c-4.771-.845-9.721-2.948-14.422-3.815-.172-.032-.772-.084-.839.153h-.153l.229-.458Z" transform="translate(-42.23 -59.898)" fill="#92befa"/>
          <path id="Path_33678" data-name="Path 33678" d="M296.217,80.828h-.153c-5.118.7-10.053,2.56-15.109,3.663l-16.788-4.044c-.322-.473,3.5-.641,3.739-.687,2.141-.415,7.193-1.825,8.165-3.968l20.3,4.807c.093.216-.157.216-.153.229" transform="translate(-206.834 -59.347)" fill="#92befa"/>
          <path id="Path_33679" data-name="Path 33679" d="M69.042,102.972c-.551,1.977.507,6.164,0,8.394-4.936-1.336-9.935-2.5-14.88-3.815L53.933,99h.153Z" transform="translate(-42.231 -77.522)" fill="#5da1e5"/>
          <path id="Path_33680" data-name="Path 33680" d="M342.395,111.365c-.52-2.252.358-6.609-.153-8.546L357.2,99h.153a68.559,68.559,0,0,1,.153,8.165l-.381.381c-4.916,1.24-9.836,2.49-14.727,3.815" transform="translate(-267.968 -77.521)" fill="#3c91d9"/>
          <path id="Path_33681" data-name="Path 33681" d="M191.731,110.148c.092.307-.475.4-.687.458-5.047,1.286-10.118,2.478-15.109,3.968l-15.8-4.426a139.216,139.216,0,0,1,15.033-4.121c1.4-.11,14.9,3.375,16.559,4.121" transform="translate(-125.393 -83.02)" fill="#92befa"/>
          <path id="Path_33682" data-name="Path 33682" d="M158.488,125.028l15.8,4.426c4.991-1.49,10.062-2.681,15.109-3.968.212-.054.779-.151.687-.458.2.092.665.08.763.305l-16.482,4.426c-5-1.774-10.833-2.443-15.8-4.121-.131-.044-.509-.277-.534-.458.157-.14.364-.111.458-.153" transform="translate(-123.741 -97.899)" fill="#b3e0fb"/>
          <path id="Path_33683" data-name="Path 33683" d="M356.705,99l-14.956,3.815c0-.01-.18.024-.153-.153,5.056-1.1,9.991-2.965,15.109-3.663" transform="translate(-267.475 -77.521)" fill="#b3e0fb"/>
          <path id="Path_33684" data-name="Path 33684" d="M69.9,102.014c.045.172-.3.284-.305.305L54.636,98.351c.067-.236.667-.184.839-.153,4.7.867,9.651,2.97,14.422,3.815" transform="translate(-42.781 -76.87)" fill="#b3e0fb"/>
          <path id="Path_33686" data-name="Path 33686" d="M101,302.957l.153,31.439v.153l-.381.153L64.909,323.56c-.408-.369-.2-1.718-.229-2.289-.442-9.491.331-19.319,0-28.844Z" transform="translate(-50.535 -228.976)" fill="#5ea1e5"/>
          <path id="Path_33687" data-name="Path 33687" d="M269.611,292.427c-.367,9.556.49,19.483,0,29-.029.556.179,1.768-.229,2.137l-36.093,10.988V334.4c5.779-6.7,11.156-13.805,16.33-20.984,3.662-5.081,9.364-12.39,12.209-17.7a2.029,2.029,0,0,0,.305-1.145c2.481-.739,4.976-1.468,7.478-2.137" transform="translate(-182.67 -228.976)" fill="#3d91d9"/>
          <path id="Path_33688" data-name="Path 33688" d="M232.739,342.106l-.153-31.439c9.743-2.528,19.356-5.523,29-8.394a2.03,2.03,0,0,1-.305,1.145c-2.845,5.313-8.547,12.622-12.209,17.7-5.173,7.179-10.551,14.289-16.33,20.984" transform="translate(-182.12 -236.687)" fill="#3d91d9"/>
          <path id="Path_33689" data-name="Path 33689" d="M137.983,252.773c-2.5.669-5,1.4-7.478,2.137-9.64,2.87-19.254,5.866-29,8.394l-36.322-10.53.229-.61,36.322-10.378,36.017,10.378Z" transform="translate(-51.042 -189.323)" fill="#b3e0fb"/>
          <path id="Path_33690" data-name="Path 33690" d="M245.624,262.487,235.4,246.005l33.575,9.538c-7.706,2.561-15.535,4.74-23.35,6.944" transform="translate(-184.322 -192.627)" fill="#2172c4"/>
          <path id="Path_33691" data-name="Path 33691" d="M110.872,245.3l-10.53,16.635c-7.759-2.2-15.577-4.317-23.2-6.944Z" transform="translate(-60.405 -192.077)" fill="#317fce"/>
          <path id="Path_33692" data-name="Path 33692" d="M195.195,245.455l10.225,16.482c-3.643,1.027-7.241,2.259-10.912,3.2-3.479-1.057-6.959-2.212-10.454-3.2l10.53-16.635Z" transform="translate(-144.118 -192.077)" fill="#2270be"/>
        </g>
      </g>
    </g>
  </g>
</svg>
