<svg xmlns="http://www.w3.org/2000/svg" xmlns:xlink="http://www.w3.org/1999/xlink" width="168" height="100" viewBox="0 0 168 100">
  <defs>
    <clipPath id="clip-path">
      <rect id="Rectangle_24458" data-name="Rectangle 24458" width="168" height="100" fill="none"/>
    </clipPath>
    <clipPath id="clip-No_matches_found_Mobile">
      <rect width="168" height="100"/>
    </clipPath>
  </defs>
  <g id="No_matches_found_Mobile" data-name="No matches found Mobile" clip-path="url(#clip-No_matches_found_Mobile)">
    <g id="Group_60366" data-name="Group 60366">
      <g id="Group_60365" data-name="Group 60365" clip-path="url(#clip-path)">
        <path id="Path_35371" data-name="Path 35371" d="M140.323,117.341a3.14,3.14,0,0,0-1.772,2.927,2.8,2.8,0,0,0,2.242,2.7c.057.142.348.266.666.27l1.546,4.6a3.4,3.4,0,0,1,.106.819c-.325.013-.768-.124-1.152-.154l-7.264-.58-14.9-1a6.1,6.1,0,0,0-3.359.528c-1.763,1.081-3.358,2.209-4.966,3.355a2.8,2.8,0,0,0-2.183,2.582l-.035,13.9a2.732,2.732,0,0,0,1.663,2.755l1.153.41,1.89,3.452a7.266,7.266,0,0,1-.454.682c-.422.583.224,1.093.633,1.3.948.484,1.044-.56,2.461-.75l2.37.165c.088.787.006-.317,1.784.818a6.479,6.479,0,0,0,2.722,1.046c2.067.115,3.965.071,5.982.039l.105-.976c.93-.017,1.877.039,2.9.122l8.5.694a10.049,10.049,0,0,0,4.183-.783,5.758,5.758,0,0,0,3.694-4.6l1.071-.244a2.159,2.159,0,0,0,1.606-1.745c.357-1.658,1.181-8.694-1.734-8.353l-.16-.131v-5.909a3.223,3.223,0,0,0-.991-2.4l-1.4-1.287a5.1,5.1,0,0,0-1.27-.836,20.1,20.1,0,0,1-.679-2.106l-1.764-5.577a4.048,4.048,0,0,0,1.4-3.336.513.513,0,0,1,.5-.041,66.648,66.648,0,0,1,8.794,5.686c7.375,5.825,12.918,13.407,13.718,23.018a18.559,18.559,0,0,1-1.433,9.169c-2.568,5.906-7.611,10.625-12.833,14.254A78.682,78.682,0,0,1,140.74,179.1a137.622,137.622,0,0,1-22.388,7.748,180.785,180.785,0,0,1-48.374,5.533c-18.889-.395-41.821-4.487-56.82-16.728C5.212,169.173-.409,160.069.023,149.523c.241-5.885,3.69-11.273,7.736-15.311,5.809-5.8,13.584-10.264,21.079-13.512a2.731,2.731,0,0,1,.674-.143,16.1,16.1,0,0,0-2.428,3.633,13.582,13.582,0,0,0-1.591,8.7c.47,3.483,1.318,4.855,3.349,7.809-1.37.23-3.105.491-3.707,2.21-.261.745.338,1.464.945,1.862,3.209,2.106,8.574,2.358,12.324,2.587l2.483.033,1.437-.063,2.295-.155A23.915,23.915,0,0,0,51.8,146.02l1.864-.73a2.791,2.791,0,0,0,1.749-1.935c.292-1.148-.732-1.925-1.785-2.106-.444-.076-1.74-.4-1.845-.852a17.018,17.018,0,0,0,1.811-3.246,12.709,12.709,0,0,0,1.1-8.909l-.133-1.03c-.338-2.621-1.991-4.561-3.76-6.421a16.321,16.321,0,0,0-7.966-4.271l-1.635-.376a145.458,145.458,0,0,1,21.653-5.227.72.72,0,0,1,.473.165c-3.979,4.83-2.177,12.529,2.705,15.985a8.91,8.91,0,0,0,10.073.5l1.367-.911,2.205-1.36,2.576-1.418a1.25,1.25,0,0,1,.378.452,13.4,13.4,0,0,0,2.86,5c3.467,3.81,9.17,4.767,12.771,1.91l1-.8c.37-.293.785-.515,1.146-.819.217-.182.6-.314.641-.618a7.818,7.818,0,0,0,1.882-1.78,59.51,59.51,0,0,0,6.275-6.959,22.358,22.358,0,0,0,1.862-3.164l1.459-1.265c1.929-1.673,1.851-3.486,1.757-5.739a103.672,103.672,0,0,1,25.272,6.834,5.851,5.851,0,0,1,.759.411m-87.9,37.124a2,2,0,0,1-.181.556l-2.549-.178c-3.146-.22-7.912.293-9.975,2.994a3.209,3.209,0,0,0-.412,2.256l-.019,2.737c0,.607-.045,1.187-.085,1.721-1.726.309-5.356,2.61-3.708,4.952,2.831,4.024,15.151,5.783,19.908,6.083l4.838.306c2.826.179,5.633.078,8.462.03l4.807-.343c1.5-.107,3.119-.375,4.54-.594l.641.032a8.9,8.9,0,0,0,1.417,1.813l2.15,2.338,1.538,1.68a7.9,7.9,0,0,0,1.9,1.745,7.013,7.013,0,0,0,4.561.706c1.447-.245,2.834-.516,4.256-.85L101,180.923l9.571-2.467,1.136-.3,9.984-2.848,3.533-1.136a4.372,4.372,0,0,0,1.851-1.205c.211-.234.039-.991-.187-1.195-1.1-.992-1.677-.906-1.671-1.369a2.316,2.316,0,0,0,.785-1.652,1.094,1.094,0,0,0-.379-.72l-3.666-1.953-3.3-1.619c-.279-.391-1.255-.361-1.012-.975l1.173-.51a1.448,1.448,0,0,0,.67-1.45c-.045-.195-.174-.648-.435-.774l-4.718-2.274-10.818-5.334a3.935,3.935,0,0,0-3.531-.434l-5.157,2.2a57.815,57.815,0,0,1-16.208,4.753l-2.726.4-.022-.164c-.078-.6.113-1.395-.2-1.521a2.515,2.515,0,0,0,.215-1.143l-.047-2.92a10.728,10.728,0,0,0-.109-2.332c-.716-2.989-4.9-4.466-7.585-4.974-4.507-.853-10.18-.416-13.885,2.569-2,1.612-1.808,3.05-1.829,4.889" transform="translate(0 -92.424)" fill="#edf0f2"/>
        <path id="Path_35372" data-name="Path 35372" d="M173.783,147.727l1.635.377,2.4,5,5.568-.724c1.769,1.86,3.423,3.8,3.76,6.421l.133,1.03-3.784,4.1,2.681,4.812a17.042,17.042,0,0,1-1.811,3.246,16.835,16.835,0,0,1-4.986,3.811l-4.934-2.549-3.873,4.02a13.747,13.747,0,0,1-8.647-4.655l1.08-5.452-4.932-2.676a13.581,13.581,0,0,1,1.591-8.7,6.6,6.6,0,0,0,1.057-.065l4.435-.721.866-5.562a15.26,15.26,0,0,1,7.763-1.7m-.12,20.486,4.745-4.739-3.051-5.947-6.615,1.082-1.057,6.594Z" transform="translate(-132.579 -124.008)" fill="#c3e4f6"/>
        <path id="Path_35373" data-name="Path 35373" d="M391.957,103.176c.139-.014.731,2.265.494,2.1a7.16,7.16,0,0,1-1.163-.241c.006-.647-2.445-.435-2.974-.354-4.336.666-5.129,5.817-3.935,9.028a9.45,9.45,0,0,0,2.289,3.72,3.327,3.327,0,0,0,.682.75,6.945,6.945,0,0,0,6.457,1.588,1.911,1.911,0,0,0,.531-.316,2.99,2.99,0,0,0,1.907-1.518c1.072-.758,1.592-3.422,1.466-4.69,1.4-.193.886-1.279,1.471-1.76a9.962,9.962,0,0,1,.347,1.926,17.33,17.33,0,0,1-.508,4.343,2.808,2.808,0,0,1-.392.861l-1.107,1.364a1.628,1.628,0,0,0-.258.528l-1.366.911a8.911,8.911,0,0,1-10.073-.5c-4.882-3.456-6.684-11.155-2.705-15.985l.759-.709a1.556,1.556,0,0,1,.665-.433,3.007,3.007,0,0,0,.938-.187,9.172,9.172,0,0,1,6.475-.43" transform="translate(-319.789 -86.278)" fill="#7ab5dd"/>
        <path id="Path_35374" data-name="Path 35374" d="M652.608,95.913c.094,2.253.172,4.066-1.757,5.739l-1.459,1.265a22.346,22.346,0,0,1-1.862,3.164,59.5,59.5,0,0,1-6.275,6.959,3.969,3.969,0,0,1,.292-1.447,9.834,9.834,0,0,0,.439-4.6,1.463,1.463,0,0,0,.725-.1l3.118-2.369c1.94-1.474,2.753-3.453,3.945-3.492a2.48,2.48,0,0,0,.1,1.034,6.953,6.953,0,0,0,.174-5.815,4.142,4.142,0,0,1-.15-.644,6.269,6.269,0,0,0,1.352-2.4,7.325,7.325,0,0,1,1.355,2.711" transform="translate(-538.316 -78.242)" fill="#82beec"/>
        <path id="Path_35375" data-name="Path 35375" d="M580.322,83.09c.165.951-2.423,1.6-3.2,1.782a21.345,21.345,0,0,0-5.96,2.4,1.136,1.136,0,0,0-.362.622c-1.5-.381-.818-.487-2.69-.807a9.636,9.636,0,0,0-3.691-.029.972.972,0,0,1,.46-.621l1.909-.854a1.335,1.335,0,0,0,.378-.406,11.285,11.285,0,0,0,2.246-.846,37.208,37.208,0,0,0,4.439-1.608l.694-.307a1.875,1.875,0,0,1,.632-.2,6.8,6.8,0,0,0,1.259-.044c1.55-.3,2.7.389,3.881.912" transform="translate(-473.819 -68.927)" fill="#b2dbf7"/>
        <path id="Path_35376" data-name="Path 35376" d="M350.228,17.885c-.019.088-.254,1.733-.753,1.424-1.122-.7.225-3.26-2.8-3.9l-1.562-.33a.657.657,0,0,1-.349-.5.72.72,0,0,1,.411-.4l1.7-.413a2.349,2.349,0,0,0,1.83-1.709l.5-1.884c.033-.122.466-.27.559-.182.626.6.322,3.184,1.929,3.621l2.543.692c.22.06-.031.7-.249.746-2.806.584-3.29.612-3.766,2.828" transform="translate(-289.422 -8.37)" fill="#c3e4f6"/>
        <path id="Path_35377" data-name="Path 35377" d="M868.239,154.718a5.991,5.991,0,0,1,.442,1.864,3.125,3.125,0,0,1-2.436,2.868l-.928.248a2.8,2.8,0,0,1-2.242-2.7,3.14,3.14,0,0,1,1.772-2.927,3.367,3.367,0,0,1,3.391.644" transform="translate(-724.525 -129.158)" fill="#fbd365"/>
        <path id="Path_35378" data-name="Path 35378" d="M533.266,62.15a9.287,9.287,0,0,1-2.281,1.814c-.617.365-1.689-.334-2.228.155a12.106,12.106,0,0,0-2.726-.342c-1.609-.248-1.191.664-2.026.679a1.384,1.384,0,0,1-.686-.336,6.451,6.451,0,0,0-3.883-1.593c1.347-1.06,3.975-.825,5.565.226a4.15,4.15,0,0,0,.954.373l1.554-1.008a5.041,5.041,0,0,1,5.759.032" transform="translate(-436.052 -51.403)" fill="#a5d4f5"/>
        <path id="Path_35379" data-name="Path 35379" d="M175.075,158.367l-.866,5.562-4.435.721a6.6,6.6,0,0,1-1.057.065,16.1,16.1,0,0,1,2.428-3.633,16.892,16.892,0,0,1,3.929-2.715" transform="translate(-141.634 -132.948)" fill="#585959"/>
        <path id="Path_35380" data-name="Path 35380" d="M742.53,7.355c-.026.153-.387.5-.488.426a.937.937,0,0,1-.294-.409l-.366-1.446c-.112-.443-.4-1.052-.9-1.175l-1.958-.489a.915.915,0,0,1-.4-.3c-.062-.1.14-.422.256-.447l1.857-.39a1.776,1.776,0,0,0,1.258-1.265l.29-1.4a.854.854,0,0,1,.275-.439c.134-.079.487.2.512.372l.166,1.15a1.835,1.835,0,0,0,1.233,1.639l1.568.291c.168.031.458.2.494.352.25,1.036-2.912.043-3.262,2.117Z" transform="translate(-619.624 0)" fill="#c3e4f6"/>
        <path id="Path_35381" data-name="Path 35381" d="M632.683,78.179l2.141.023c1.4.015,2.656.914,3.693,1.282a18.2,18.2,0,0,1,3.15,3.509,4.128,4.128,0,0,0,.15.644,6.954,6.954,0,0,1-.174,5.816,2.477,2.477,0,0,1-.1-1.034c.346-.972-.248-3.007-.634-4a8.286,8.286,0,0,0-4.322-4.628c-1.186-.523-2.331-1.212-3.881-.912a6.8,6.8,0,0,1-1.259.044c.287-.251.852-.752,1.238-.747" transform="translate(-530.081 -65.63)" fill="#68abd6"/>
        <path id="Path_35382" data-name="Path 35382" d="M510.156,69.3a6.451,6.451,0,0,1,3.883,1.593,1.381,1.381,0,0,0,.686.336c.835-.015.417-.927,2.026-.679a12.106,12.106,0,0,1,2.726.342s2.5,1.379,2.231,1.764l-2.119.45-.329.072c-.083.018-.1.174-.115.272-.862-.336-1.207-.99-2.37-1.43a4.174,4.174,0,0,0-3.091-.2,2.087,2.087,0,0,0-.625-.754,5.567,5.567,0,0,0-4.677-.983c.009-.064.021-.153.034-.208s.165-.083.258-.112Z" transform="translate(-426.773 -58.177)" fill="#82beec"/>
        <path id="Path_35383" data-name="Path 35383" d="M407.73,96.232c1.418.292,2.1-.037,3.956.659a11.234,11.234,0,0,1,5.341,4.133c-.578.426-1.093.129-1.55-.363a11.1,11.1,0,0,0-4.674-2.978,9.172,9.172,0,0,0-6.475.43,3.008,3.008,0,0,1-.939.187c.38-.854,3.434-1.839,4.342-2.069" transform="translate(-338.633 -80.786)" fill="#9ccff3"/>
        <path id="Path_35384" data-name="Path 35384" d="M453.839,77.426a6.5,6.5,0,0,1,2.712.255c.06.11-.132.466-.348.5a43.273,43.273,0,0,0-7.492,1.855,1.123,1.123,0,0,0-.506.524l-1.98-.432a8.559,8.559,0,0,0-1.72-.229,8.007,8.007,0,0,1,2.376-.848c2.353-.614,4.637-1.2,6.957-1.622" transform="translate(-373.15 -64.95)" fill="#a5d4f5"/>
        <path id="Path_35385" data-name="Path 35385" d="M647.04,69.1c.621-.13-2.235,1.744-2.047,1.489-1.037-.367-2.292-1.267-3.693-1.282l-2.141-.023c.267-1.049,2.784-1.817,3.986-1.687a7.041,7.041,0,0,1,3.894,1.5" transform="translate(-536.558 -56.732)" fill="#b2dbf7"/>
        <path id="Path_35386" data-name="Path 35386" d="M432.693,93.114a8.569,8.569,0,0,1,1.72.229l1.98.432a21.416,21.416,0,0,1,3.381,2.352,3,3,0,0,0,.779.566c.188.6.777-.066.748.784l-.815-.345-.577,1.269-.177,0a11.236,11.236,0,0,0-5.341-4.133c-1.854-.7-2.538-.368-3.956-.659a11.068,11.068,0,0,1,2.259-.5" transform="translate(-361.338 -78.168)" fill="#68abd6"/>
        <path id="Path_35387" data-name="Path 35387" d="M679.953,79.59a6.269,6.269,0,0,1-1.352,2.4,18.183,18.183,0,0,0-3.15-3.509c-.188.255,2.668-1.62,2.047-1.489.34-.093,2.693,2.293,2.455,2.6" transform="translate(-567.016 -64.63)" fill="#a5d4f5"/>
        <path id="Path_35388" data-name="Path 35388" d="M584.056,68.761l-1.041.567-2.3,1.253a5.533,5.533,0,0,1-.646.246l-.336-.14c.271-.384-2.23-1.764-2.231-1.764.539-.489,1.611.21,2.228-.155a9.287,9.287,0,0,0,2.281-1.814,3.867,3.867,0,0,1,2.044,1.806" transform="translate(-484.798 -56.208)" fill="#96cbf1"/>
        <path id="Path_35389" data-name="Path 35389" d="M508.873,75.186l-1.744.487c-.061-.543-1.194-1.238-1.767-1.4a6.5,6.5,0,0,0-2.712-.255,1.928,1.928,0,0,1,.92-.571,5.567,5.567,0,0,1,4.677.983,2.087,2.087,0,0,1,.625.754" transform="translate(-421.961 -61.543)" fill="#4b93c1"/>
        <path id="Path_35390" data-name="Path 35390" d="M597.48,78.205a3.941,3.941,0,0,1,.78,1.247,37.238,37.238,0,0,1-4.439,1.608l-.327-.79a5.527,5.527,0,0,0,.646-.246l2.3-1.253Z" transform="translate(-498.222 -65.652)" fill="#82beec"/>
        <path id="Path_35391" data-name="Path 35391" d="M881.189,160.992a4.048,4.048,0,0,1-1.4,3.336,12.7,12.7,0,0,1-2.049.17c-.318,0-.609-.128-.666-.27l.928-.248a3.126,3.126,0,0,0,2.436-2.869,6,6,0,0,0-.442-1.864,3.622,3.622,0,0,1,1.2,1.745" transform="translate(-736.276 -133.686)" fill="#e6bd51"/>
        <path id="Path_35392" data-name="Path 35392" d="M714.829,243.681V254.6l-.081,3.083c-.041,1.569-1.016,3.131-2.818,3l-11.046-.79-12.824-.971-2.7-.2a5.07,5.07,0,0,0-1.986.018l-1.153-.41a2.732,2.732,0,0,1-1.663-2.755l.035-13.9a2.8,2.8,0,0,1,2.183-2.582,2.52,2.52,0,0,0,.761.194l2.117.14,3.192.2,12.607.821,10.521.7c1.307.087,2.848,1.021,2.849,2.535m-31.593-.767c-.087.1-.313.328-.313.5l0,10.862c0,.652.572.748.987.78l10.572.828,9.264.666a2.449,2.449,0,0,0,.555.1l1.691.061.287.148c.1.051.373-.079.4-.127l1.236.138a2.713,2.713,0,0,0,.872.1l1.736.04a4.712,4.712,0,0,0,.968.1c.263-.061.546-.577.548-.907l.039-7.219.055-3.439a1.136,1.136,0,0,0-.181-.414c-.07-.435-.472-.607-.943-.636l-3.06-.186-18.973-1.278-5.136-.348a.639.639,0,0,0-.6.235" transform="translate(-571.315 -200.717)" fill="#d2ecfa"/>
        <path id="Path_35393" data-name="Path 35393" d="M350,345.346a1.3,1.3,0,0,0-.508.331c-1.788,2.655-5.159,3.728-8.234,4.1a19.84,19.84,0,0,1-9.8-.956,10.228,10.228,0,0,1-4.23-2.948,1.228,1.228,0,0,0-.638-.374c.022-1.84-.171-3.277,1.829-4.889,3.7-2.986,9.378-3.423,13.885-2.569,2.686.508,6.869,1.985,7.585,4.974a10.728,10.728,0,0,1,.109,2.332m-16.285-.58,1.413,1.3c.11.1.561.04.684-.033.1-.058.19-.376.1-.476l-1.472-1.631,1.652-1.787a.788.788,0,0,0-.726-.414,2.767,2.767,0,0,0-.666.486l-1.287,1.226L333.127,342c-.093-.156-.6-.158-.911-.075L332.21,346a1.119,1.119,0,0,0,.8.061c.346-.208.243-1.715.7-1.292m6.384.194a1.5,1.5,0,0,0-.526-.966l-1.31-.665c-.124-.063-.387-.357-.31-.459a.8.8,0,0,1,.377-.236l1.115-.016a.786.786,0,0,0,.436-.237.565.565,0,0,0-.185-.541c-1.11-.36-2.928-.073-2.979,1.046-.081,1.794,2.977,1.632,2.047,2.277-.967.67-1.972-.591-2.211.691.983.734,3.628.481,3.547-.894m4.608.959.013-4.049-1,.02-.114,1.549h-1.754L341.7,341.9c-.025-.265-.978-.2-.976.063l.021,3.967c.138.232.932.265.956.03l.145-1.422,1.766-.053.2,1.453c.032.234.892.245.893-.023" transform="translate(-274.163 -283.457)" fill="#fbd365"/>
        <path id="Path_35394" data-name="Path 35394" d="M516.135,383.033l-16.059,4.991-12.066,3.817a41.12,41.12,0,0,1-4.273,1.153,3.218,3.218,0,0,1-2.548-.682l-7.863-5.6a2.083,2.083,0,0,0-.785-.3l-.043-.94.019-2.094a1.806,1.806,0,0,1,.728.214l9.833,6.85c.7.486,2.029.135,2.785-.1l12.044-3.684,4.4-1.4,7.641-2.54c.1-.035.378-.3.329-.388a1.151,1.151,0,0,0-.316-.352l-11.719-5.861a3.7,3.7,0,0,0-2.36.166l-4.258,1.709a78.869,78.869,0,0,1-14.743,4.282l-4,.765a2.134,2.134,0,0,1-.37.009l.029-1.478,2.726-.4a57.815,57.815,0,0,0,16.208-4.753l5.157-2.2a3.935,3.935,0,0,1,3.531.434l10.818,5.334,4.718,2.274c.261.126.39.58.435.774" transform="translate(-396.65 -313.934)" fill="#caf3dd"/>
        <path id="Path_35395" data-name="Path 35395" d="M222.655,449.366c-.113,1.513.841,2.469,2.227,3.154,3.313,1.637,7.336,1.583,10.849,1.2a5.516,5.516,0,0,0,1.727,2.779c2.795,2.374,6.679,2.974,10.287,3.011a16.811,16.811,0,0,0,10.288-3.1c.617-.092,3.348,2.85,3.469,3.391-1.421.219-3.037.487-4.54.594l-4.807.343c-2.829.048-5.636.149-8.462-.03l-4.838-.306c-4.757-.3-17.076-2.06-19.908-6.083-1.648-2.342,1.982-4.643,3.708-4.952" transform="translate(-183.448 -377.239)" fill="#dff0f8"/>
        <path id="Path_35396" data-name="Path 35396" d="M730.515,335.879l-.33,2.706a42.143,42.143,0,0,0-.492,4.274,3.614,3.614,0,0,1-2.441,3.251c-.136.039-.313.306-.258.31l-8.5-.694c-1.021-.083-1.968-.139-2.9-.122a12.421,12.421,0,0,0-2.083-.271L705,344.678l-2.369-.165a3.563,3.563,0,0,1-2.64-1.234l-1.89-3.452a5.07,5.07,0,0,1,1.986-.018l2.7.2,12.824.971,11.046.79c1.8.129,2.777-1.433,2.818-3l.081-3.083Z" transform="translate(-586.041 -281.808)" fill="#62a7d4"/>
        <path id="Path_35397" data-name="Path 35397" d="M726.025,216.506a28.991,28.991,0,0,1,1.386,6.415l-.984.317c0-1.513-1.542-2.448-2.849-2.535l-10.521-.7-12.607-.821-3.192-.2-2.117-.14a2.523,2.523,0,0,1-.761-.194c1.608-1.146,3.2-2.274,4.966-3.355a6.106,6.106,0,0,1,3.359-.527l14.9,1,7.263.58c.384.031.827.167,1.152.154" transform="translate(-582.914 -180.273)" fill="#96cbf1"/>
        <path id="Path_35398" data-name="Path 35398" d="M490.234,490.438l2.425-.514,4.79,4.657a6.288,6.288,0,0,0,5.972,1.733c2.587-.5,5.147-1.058,7.764-1.8l3.246-.92,4.587-1.363c5.06-1.5,9.99-3.062,14.916-4.936a14.414,14.414,0,0,0,2.823-1.471c-.005.463.568.376,1.671,1.369.226.2.4.961.187,1.195a4.371,4.371,0,0,1-1.851,1.205l-3.533,1.136-9.984,2.848-1.136.3-9.571,2.467-6.487,1.526c-1.422.334-2.809.6-4.256.85a7.013,7.013,0,0,1-4.561-.706,7.9,7.9,0,0,1-1.9-1.745l-1.538-1.68-2.15-2.338a8.889,8.889,0,0,1-1.417-1.813" transform="translate(-411.538 -407.846)" fill="#dff0f8"/>
        <path id="Path_35399" data-name="Path 35399" d="M515.963,430.506a1.448,1.448,0,0,1-.67,1.45l-1.173.51c-.932.405-1.787.683-2.9,1.092.438.318.85.6,1.187.8a.7.7,0,0,1-.344.453l-8.263,2.579a31,31,0,0,0-3.58,1.168l-.622-.047c-.105-.373-.964-1.091-1.425-.947l-5.547,1.728.562.826a.7.7,0,0,1-.378.5l-7.479,2.116a9.987,9.987,0,0,1-2.742.175l-.8-.4a4.335,4.335,0,0,0-1.259-1.283l-2.949-2.153a13.473,13.473,0,0,0-2.741-1.64l1.541,2.18A19.149,19.149,0,0,0,473.63,439l-.779-.7a1.862,1.862,0,0,0-.518-.286c.06-.939-.093-2.621-.019-3.487l.056-.647a2.083,2.083,0,0,1,.785.3l7.863,5.6a3.218,3.218,0,0,0,2.548.682,41.122,41.122,0,0,0,4.273-1.153L499.9,435.5Z" transform="translate(-396.478 -361.406)" fill="#93d4ce"/>
        <path id="Path_35400" data-name="Path 35400" d="M349.167,419.644l.021.164-.029,1.478.006.33-.019,2.094c-1.012,1.241-.878,1.673-2.643,2.673-3.635,2.059-7.482,2.38-11.624,2.07a15.262,15.262,0,0,1-2.666-.494,11.176,11.176,0,0,1-5.9-3.372c-.216-.256-.369-.634-.612-.734a6.555,6.555,0,0,1-.13-.942l-.014-1.8.057-1.61a1.954,1.954,0,0,1,.616.506,11.317,11.317,0,0,0,4.892,3.215,20.035,20.035,0,0,0,14.731-.932,9.672,9.672,0,0,0,2.891-2.343,1.946,1.946,0,0,1,.423-.308" transform="translate(-273.297 -352.171)" fill="#fbd365"/>
        <path id="Path_35401" data-name="Path 35401" d="M349.053,385.579l.047,2.92a2.512,2.512,0,0,1-.216,1.143,6.271,6.271,0,0,1-2.12,2.172,14.759,14.759,0,0,1-4.127,1.8c-5.123,1.316-12.865.928-16.478-3.409a1.343,1.343,0,0,1-.218-.591c-.012-.279-.092-.756-.4-.81l-.051-.472-.028-2.048a2,2,0,0,0,.181-.556,1.227,1.227,0,0,1,.638.373,10.23,10.23,0,0,0,4.23,2.948,19.841,19.841,0,0,0,9.8.956c3.075-.371,6.446-1.444,8.234-4.1a1.3,1.3,0,0,1,.508-.331" transform="translate(-273.218 -323.69)" fill="#fcd86a"/>
        <path id="Path_35402" data-name="Path 35402" d="M159.958,299.189l.5.319a14.483,14.483,0,0,0,17.454,3.184,16.83,16.83,0,0,0,4.986-3.811c.1.448,1.4.776,1.845.852,1.054.181,2.077.958,1.785,2.106a2.791,2.791,0,0,1-1.749,1.935l-1.864.73a23.905,23.905,0,0,1-7.182,1.159l-2.294.156-1.437.063-2.483-.033c-3.75-.23-9.115-.482-12.324-2.587-.607-.4-1.206-1.117-.945-1.862.6-1.72,2.337-1.98,3.707-2.21" transform="translate(-131.116 -250.908)" fill="#dff0f8"/>
        <path id="Path_35403" data-name="Path 35403" d="M514.78,131.093c.494.313,1.7,1.05,1.6,1.755-.669.411-1.076,1.345-1.607,1.795a5.039,5.039,0,0,0-1.488,4.162,9.206,9.206,0,0,0,2.186,5.905c.564.635,1.019,1.129,1.754,1.843a7.253,7.253,0,0,0,5.587,1.568,1.63,1.63,0,0,1,.331-.056c1.389-.024,3.4-1.329,3.643-2.544a5.718,5.718,0,0,0,1.192-4.179l1.31-.412.859-.529a11.441,11.441,0,0,1-.326,4.381l-.891,2.176-.687.9.177.21-1,.8c-3.6,2.857-9.3,1.9-12.771-1.91a13.4,13.4,0,0,1-2.86-5,1.249,1.249,0,0,0-.378-.452,22.908,22.908,0,0,1-.184-4.032l.01-.923c.143-.459.278-.993.463-1.489l.511-1.367a8.126,8.126,0,0,1,2.574-2.6" transform="translate(-429.148 -110.051)" fill="#96cbf1"/>
        <path id="Path_35404" data-name="Path 35404" d="M257.257,424.659a6.56,6.56,0,0,0,.131.942c-.04.421-.072.863-.077,1.285l-.046,3.509c-3.512.384-7.535.438-10.849-1.2-1.386-.685-2.34-1.64-2.227-3.153.04-.534.08-1.114.085-1.722l.019-2.737a2.145,2.145,0,0,1,.447.5c1.686,2.345,7.459,3.026,10.117,2.79Z" transform="translate(-204.982 -353.917)" fill="#82beec"/>
        <path id="Path_35405" data-name="Path 35405" d="M596.486,453.084l-14.245,5.131-10.151,3.3-8.821,2.573-1.207.358-1.322-.018a2.242,2.242,0,0,0,.12-.62l-.411-1.6a6.348,6.348,0,0,0,2.624.1c2.849-.6,5.526-1.305,8.332-2.126a.787.787,0,0,0,.4-.378,3.767,3.767,0,0,0,.961-.024l2.456-.769,3.341-1.09c.137-.045.2-.445.135-.5a1.2,1.2,0,0,0,.905.07c3.905-1.255,7.707-2.644,11.483-4.219a.921.921,0,0,0,.392-.454c.023-.129-.179-.389-.3-.459l-3.987-2.347c-.147-.59,1.693-.625,1.939-1.226l3.3,1.619,3.666,1.953a1.094,1.094,0,0,1,.379.72" transform="translate(-470.482 -376.757)" fill="#caf3dd"/>
        <path id="Path_35406" data-name="Path 35406" d="M257.639,388.818l.028,2.048-1.186-.255c-2.384-.512-6.132-.353-8.082,1.257a1.305,1.305,0,0,0-.209,1.747c2.247,2.077,6.725,1.889,9.464,1.55l.014,1.8-2.4.213c-2.658.236-8.431-.445-10.117-2.79a2.143,2.143,0,0,0-.447-.5,3.208,3.208,0,0,1,.412-2.256c2.063-2.7,6.829-3.214,9.975-2.994Z" transform="translate(-205.394 -326.222)" fill="#b2dbf7"/>
        <path id="Path_35407" data-name="Path 35407" d="M604.921,475.532a2.317,2.317,0,0,1-.785,1.652,14.419,14.419,0,0,1-2.823,1.471c-4.926,1.874-9.856,3.432-14.916,4.936l-4.587,1.363-3.246.92c-2.618.742-5.178,1.3-7.764,1.8a7.2,7.2,0,0,0-.3-.775l1.207-.358,8.821-2.573,10.151-3.3Z" transform="translate(-478.917 -399.205)" fill="#bce7e7"/>
        <path id="Path_35408" data-name="Path 35408" d="M883.269,190.9l1.764,5.577a20.012,20.012,0,0,0,.679,2.106,21.623,21.623,0,0,0,.626,2.906l.215,2.158.6,5.367c-.736.051-2,.831-1.929,1.622l-.157,0a4.418,4.418,0,0,1-.118-.8c-.058-1.591-.177-3.079-.32-4.656a8.622,8.622,0,0,0-.37-2.279,28.991,28.991,0,0,0-1.386-6.415,3.4,3.4,0,0,0-.106-.819l-1.546-4.6a12.7,12.7,0,0,0,2.049-.17" transform="translate(-739.761 -160.26)" fill="#3f8ac2"/>
        <path id="Path_35409" data-name="Path 35409" d="M907.1,314.838c-1.428-.109-3.1-.413-3.487-2.192a18.1,18.1,0,0,1-.332-3.775l-.014-1.447a10.83,10.83,0,0,0,.306-1.432l.157,0,.4,4.822a1.407,1.407,0,0,0,1.391,1.411c3.121.393.99-4.277,2.513-6.739a3.022,3.022,0,0,0,.006-.986c2.916-.342,2.092,6.695,1.735,8.353a2.159,2.159,0,0,1-1.606,1.745Z" transform="translate(-758.269 -255.613)" fill="#a5d4f5"/>
        <path id="Path_35410" data-name="Path 35410" d="M326.316,409.788a1.342,1.342,0,0,0,.218.591c3.613,4.337,11.355,4.725,16.478,3.409a14.763,14.763,0,0,0,4.126-1.8,6.272,6.272,0,0,0,2.12-2.172c.316.126.126.926.2,1.521a1.94,1.94,0,0,0-.423.308,9.672,9.672,0,0,1-2.891,2.343,20.035,20.035,0,0,1-14.73.932,11.314,11.314,0,0,1-4.892-3.216,1.958,1.958,0,0,0-.616-.506l.005-1.589Z" transform="translate(-273.592 -343.861)" fill="#e6bd51"/>
        <path id="Path_35411" data-name="Path 35411" d="M588.544,113.975a15.865,15.865,0,0,1,6.087,6.885,11.857,11.857,0,0,1,.6,2.895,9.832,9.832,0,0,1-.439,4.6,3.965,3.965,0,0,0-.292,1.447,7.818,7.818,0,0,1-1.883,1.78c.152-1.239,1.074-1.114,1.339-3.961a12.021,12.021,0,0,0-.1-3.234,13.691,13.691,0,0,0-.669-2.447,18.042,18.042,0,0,0-.947-1.887,13.267,13.267,0,0,0-6.687-5.859l.4-.178-.1-.848c1.872.319,1.191.425,2.69.807" transform="translate(-491.557 -95.004)" fill="#68abd6"/>
        <path id="Path_35412" data-name="Path 35412" d="M885.9,330.212a5.758,5.758,0,0,1-3.694,4.6,10.048,10.048,0,0,1-4.183.783c-.055,0,.122-.271.258-.31a3.614,3.614,0,0,0,2.441-3.251,42.148,42.148,0,0,1,.492-4.274l.33-2.706.2-1.627a1.794,1.794,0,0,1,.325-.631l.014,1.447a18.107,18.107,0,0,0,.332,3.775c.391,1.779,2.06,2.082,3.487,2.192" transform="translate(-737.065 -270.987)" fill="#3f8ac2"/>
        <path id="Path_35413" data-name="Path 35413" d="M910.294,303.625l.16.131a3.028,3.028,0,0,1-.006.986c-1.522,2.463.608,7.132-2.513,6.739a1.407,1.407,0,0,1-1.391-1.411l-.4-4.822c-.066-.791,1.193-1.572,1.929-1.622.72-.05,1.5-.006,2.223,0" transform="translate(-760.68 -254.872)" fill="#daeef9"/>
        <path id="Path_35414" data-name="Path 35414" d="M915.149,251.991a3.224,3.224,0,0,1,.991,2.4V260.3c-.725-.005-1.5-.048-2.223,0l-.6-5.366-.215-2.158,1.251-.551a4.008,4.008,0,0,1,.795-.233" transform="translate(-766.526 -211.544)" fill="#7ab5dd"/>
        <path id="Path_35415" data-name="Path 35415" d="M162.658,260.277l-.5-.319c-2.032-2.953-2.879-4.326-3.349-7.809l4.932,2.676Z" transform="translate(-133.313 -211.677)" fill="#585959"/>
        <path id="Path_35416" data-name="Path 35416" d="M274.833,154.394l-5.568.724-2.4-5a16.322,16.322,0,0,1,7.966,4.271" transform="translate(-224.028 -126.027)" fill="#585959"/>
        <path id="Path_35417" data-name="Path 35417" d="M319.849,232.061l-2.681-4.812,3.784-4.1a12.71,12.71,0,0,1-1.1,8.909" transform="translate(-266.254 -187.334)" fill="#585959"/>
        <path id="Path_35418" data-name="Path 35418" d="M485.121,118.5a7.828,7.828,0,0,0,1.695,4.654,7.574,7.574,0,0,1,.326,2.33l.1.205-.011.923c-.082-.01-.182-.035-.192.022l-.059.328a12.536,12.536,0,0,1-.765,2.833c-.426.969-1.343,1.756-1.376,2.267l-2.205,1.359a1.627,1.627,0,0,1,.258-.528L484,131.528a2.8,2.8,0,0,0,.392-.861.923.923,0,0,0,.38-.291,11.049,11.049,0,0,0,.082-8.665,5.254,5.254,0,0,0-.924-1.772l-.2-.516.577-1.269Z" transform="translate(-405.158 -99.19)" fill="#4b93c1"/>
        <path id="Path_35419" data-name="Path 35419" d="M467.193,478.3a8.951,8.951,0,0,0,1.261,1.623l2.707,2.858-2.425.514-.641-.032c-.122-.54-2.852-3.482-3.469-3.391a5.913,5.913,0,0,0,1.271-2.556,1.869,1.869,0,0,1,.518.285Z" transform="translate(-390.04 -400.704)" fill="#daeef9"/>
        <path id="Path_35420" data-name="Path 35420" d="M751.675,392.621l-.105.976c-2.018.033-3.915.077-5.983-.038a6.485,6.485,0,0,1-2.722-1.046c-1.778-1.135-1.7-.031-1.784-.818l8.511.655a12.407,12.407,0,0,1,2.083.271" transform="translate(-622.118 -328.825)" fill="#d2ecfa"/>
        <path id="Path_35421" data-name="Path 35421" d="M624.1,183.071a12.023,12.023,0,0,1,.1,3.234c-.265,2.846-1.187,2.721-1.339,3.961-.037.3-.424.435-.641.618,0-.22-.392-.322-.636-.289l.891-2.176a11.442,11.442,0,0,0,.326-4.382l.057-.452a2.956,2.956,0,0,0,.713-.226Z" transform="translate(-521.802 -153.687)" fill="#7ab5dd"/>
        <path id="Path_35422" data-name="Path 35422" d="M498.765,170.773a22.89,22.89,0,0,0,.184,4.032l-2.576,1.418c.033-.51.95-1.3,1.375-2.267a12.528,12.528,0,0,0,.766-2.833l.059-.328c.01-.056.11-.032.192-.022" transform="translate(-416.692 -143.351)" fill="#82beec"/>
        <path id="Path_35423" data-name="Path 35423" d="M718.683,443.695c-.246.6-2.086.635-1.939,1.226a5.881,5.881,0,0,1-.788-.306c-.337-.2-.75-.485-1.187-.8,1.115-.409,1.97-.686,2.9-1.092-.242.614.734.584,1.012.975" transform="translate(-600.029 -371.66)" fill="#bce7e7"/>
        <path id="Path_35424" data-name="Path 35424" d="M911.874,240.888a4.006,4.006,0,0,0-.795.233l-1.251.551a21.575,21.575,0,0,1-.626-2.906,5.1,5.1,0,0,1,1.27.836Z" transform="translate(-763.251 -200.441)" fill="#96cbf1"/>
        <path id="Path_35425" data-name="Path 35425" d="M709.42,384.213c-1.417.19-1.513,1.234-2.461.75-.409-.209-1.056-.719-.633-1.3a7.274,7.274,0,0,0,.454-.682,3.563,3.563,0,0,0,2.64,1.234" transform="translate(-592.826 -321.508)" fill="#d2ecfa"/>
        <path id="Path_35426" data-name="Path 35426" d="M618.625,230.2c-.361.3-.776.525-1.146.819l-.177-.21.687-.9c.244-.034.633.069.636.289" transform="translate(-518.209 -193.006)" fill="#68abd6"/>
        <path id="Path_35427" data-name="Path 35427" d="M224.672,219.521l-5.978-3.01,1.057-6.594,6.615-1.082,3.051,5.947Z" transform="translate(-183.588 -175.315)" fill="#585959"/>
        <path id="Path_35428" data-name="Path 35428" d="M245.475,309.29a13.628,13.628,0,0,1-8.807,1.47l3.873-4.02Z" transform="translate(-198.676 -257.506)" fill="#585959"/>
        <path id="Path_35429" data-name="Path 35429" d="M406.652,114.517l-1.115-.012a3.329,3.329,0,0,0-2.961,1.729,5.853,5.853,0,0,0-.428,4.735c.4,3.7,5.111,7.943,8.994,6.422l.467.023a2.99,2.99,0,0,1-1.907,1.518,11.951,11.951,0,0,1-4.617-2.2,1.88,1.88,0,0,0-1.887-.246l-1.166.423a9.45,9.45,0,0,1-2.289-3.72c-1.194-3.211-.4-8.362,3.935-9.028.529-.081,2.98-.293,2.974.354" transform="translate(-335.152 -95.756)" fill="#3f8ac2"/>
        <path id="Path_35430" data-name="Path 35430" d="M420.206,116.826a7.161,7.161,0,0,0,1.163.241,10.118,10.118,0,0,1,5.26,7.966c.126,1.268-.394,3.932-1.466,4.69l-.467-.023a2.566,2.566,0,0,1,.407-1.2,7.617,7.617,0,0,0,.869-4.687c-.852-2.364-3.13-4.656-5.734-4.862a3.445,3.445,0,0,0-3.731,3l-.2,1.254-.607.073a5.853,5.853,0,0,1,.428-4.735,3.329,3.329,0,0,1,2.961-1.729Z" transform="translate(-348.706 -98.064)" fill="#c3e4f6"/>
        <path id="Path_35431" data-name="Path 35431" d="M455.8,108.617l.177,0,.2.516c.27.14-.682.418-.658.412-.092.024-.02.375.029.467a13.347,13.347,0,0,1,1.253,3.581c-.585.481-.07,1.567-1.471,1.76a10.118,10.118,0,0,0-5.26-7.966c.237.161-.356-2.119-.494-2.1a11.1,11.1,0,0,1,4.674,2.978c.457.492.972.789,1.55.363" transform="translate(-377.405 -88.379)" fill="#89c0e6"/>
        <path id="Path_35432" data-name="Path 35432" d="M424.3,193.156a1.9,1.9,0,0,1-.531.316,6.946,6.946,0,0,1-6.457-1.588,3.324,3.324,0,0,1-.682-.75l1.166-.422a1.88,1.88,0,0,1,1.887.246,11.949,11.949,0,0,0,4.617,2.2" transform="translate(-349.746 -159.98)" fill="#4b93c1"/>
        <path id="Path_35433" data-name="Path 35433" d="M487.484,140a17.329,17.329,0,0,0,.508-4.343,9.962,9.962,0,0,0-.347-1.926,13.35,13.35,0,0,0-1.253-3.581c-.049-.092-.121-.443-.029-.467-.024.006.928-.272.658-.412a5.255,5.255,0,0,1,.924,1.772,11.049,11.049,0,0,1-.082,8.665.923.923,0,0,1-.38.291" transform="translate(-408.252 -108.522)" fill="#68abd6"/>
        <path id="Path_35434" data-name="Path 35434" d="M650.484,121.075c-1.192.039-2.005,2.018-3.945,3.492l-3.118,2.369a1.463,1.463,0,0,1-.725.1,11.863,11.863,0,0,0-.6-2.895,22.963,22.963,0,0,0,7.159-6.479,2.142,2.142,0,0,1,.594-.584c.386.99.981,3.024.634,4" transform="translate(-539.023 -98.286)" fill="#96cbf1"/>
        <path id="Path_35435" data-name="Path 35435" d="M618.016,92.87a2.146,2.146,0,0,0-.594.585,22.961,22.961,0,0,1-7.159,6.479,15.868,15.868,0,0,0-6.087-6.885,1.136,1.136,0,0,1,.361-.622,21.348,21.348,0,0,1,5.96-2.4c.773-.18,3.36-.831,3.2-1.782a8.286,8.286,0,0,1,4.323,4.628" transform="translate(-507.19 -74.078)" fill="#a5d4f5"/>
        <path id="Path_35436" data-name="Path 35436" d="M547.749,87.675l.406.381a7.567,7.567,0,0,1,.575.6,1.337,1.337,0,0,1-.378.406l-1.909.854a.972.972,0,0,0-.46.621,14.542,14.542,0,0,0-1.451.486,3.82,3.82,0,0,0-.344-.822l-1.732-1.9a5.089,5.089,0,0,1,.978-.6l1.632-.79a.907.907,0,0,0,.314-.659c1.163.44,1.508,1.094,2.37,1.43" transform="translate(-455.377 -72.402)" fill="#96cbf1"/>
        <path id="Path_35437" data-name="Path 35437" d="M511.962,101.993a14.516,14.516,0,0,1,1.451-.486,9.638,9.638,0,0,1,3.691.029l.1.848-.4.178-2.153-.329a6.431,6.431,0,0,0-3.615.6l-1.3.592c-.145-1.31.57-.78.253-2.353-1.4-.123-1.85,2.261-1.413,3l-.135.341a8.127,8.127,0,0,0-2.574,2.6c-1.518-.8-1.961-2.493-2.192-4.229a3.964,3.964,0,0,1,1.747-3.225,3.273,3.273,0,0,1,1.516-.232c2.979.5,4.171,2.983,4.463,2.874Z" transform="translate(-422.808 -83.371)" fill="#62a7d4"/>
        <path id="Path_35438" data-name="Path 35438" d="M577.993,90.2l.336.14.327.789a11.284,11.284,0,0,1-2.246.846,7.535,7.535,0,0,0-.574-.6L575.43,91c.018-.1.033-.254.115-.272l.329-.072Z" transform="translate(-483.058 -75.725)" fill="#68abd6"/>
        <path id="Path_35439" data-name="Path 35439" d="M530.2,84.112a.908.908,0,0,1-.314.659l-1.632.79a5.1,5.1,0,0,0-.979.6,18.112,18.112,0,0,0-2.9-.905c-.021-.7.739-.31.992-.861l1.744-.487a4.173,4.173,0,0,1,3.091.2" transform="translate(-440.194 -70.268)" fill="#a5d4f5"/>
        <path id="Path_35440" data-name="Path 35440" d="M477.667,80.715c-.252.551-1.013.162-.992.861l-.8.151c-.291.055-.737.284-.986.332a2.993,2.993,0,0,0-2.119,2.453l-1.053.6a3.011,3.011,0,0,1-.779-.566,21.406,21.406,0,0,0-3.381-2.353,1.122,1.122,0,0,1,.505-.524,43.283,43.283,0,0,1,7.492-1.855c.216-.032.409-.388.349-.5.572.161,1.705.856,1.767,1.4" transform="translate(-392.499 -66.585)" fill="#9ccff3"/>
        <path id="Path_35441" data-name="Path 35441" d="M496.642,96.4l.225.716a3.963,3.963,0,0,0-1.747,3.225c.231,1.736.674,3.427,2.192,4.229l-.512,1.367c-.185.5-.319,1.03-.462,1.489l-.1-.205a7.576,7.576,0,0,0-.326-2.33,7.827,7.827,0,0,1-1.695-4.653c.029-.85-.559-.182-.748-.784l1.053-.6a2.993,2.993,0,0,1,2.119-2.453" transform="translate(-414.255 -80.931)" fill="#7ab5dd"/>
        <path id="Path_35442" data-name="Path 35442" d="M725.919,263.87c0-.058-.156.3-.156.4l.005,4.4-.644.069-.016-3.521-3.193-.248-2.09-.152c-.855-.062-1.614-.095-2.524-.088l.037,6.763.078,2.549a9.705,9.705,0,0,0,1.177.152l2.81.154.107.3c.028.078.236-.162.268-.186l1.711.046c-.014.02.043.351.121.313l.413-.2.958.03.4.885-.89.224-1.735-.04c.025-.123-.3-.374-.433-.311l-.439.206-1.236-.139-.393-.222c-.078-.044-.288.169-.294.2l-1.691-.061c.027-.054-.17-.346-.265-.285l-.29.186-9.264-.666-10.572-.828.482-1.236a5.637,5.637,0,0,0,1.094.2l1.935.158,2.245.15,1.735.092.012-9.362-5.928-.47a3.461,3.461,0,0,0-1.1.09,8.69,8.69,0,0,1-.206-1.8l-.944.043a.639.639,0,0,1,.6-.235l5.136.348,18.973,1.278,3.06.186c.471.029.873.2.943.636m-10.729.629-4.352-.33c-1.135-.086-2.211-.143-3.368-.145l0,9.312,7.717.563Z" transform="translate(-585.288 -219.459)" fill="#62a7d4"/>
        <path id="Path_35443" data-name="Path 35443" d="M696.707,264.435l0,.293-.168.269c-.043.068.127.227.165.27.02.742-.089,1.62,0,2.353,0-.061-.181.3-.181.38v3.437c0,.1.182.465.179.4l0,1.742-.482,1.236c-.414-.033-.987-.128-.987-.78l0-10.862c0-.168.226-.392.313-.5l.944-.043a8.7,8.7,0,0,0,.206,1.8" transform="translate(-583.636 -220.479)" fill="#3f8ac2"/>
        <path id="Path_35444" data-name="Path 35444" d="M895,265.7a8.615,8.615,0,0,1,.37,2.279c.143,1.576.262,3.065.32,4.656a4.407,4.407,0,0,0,.118.8,10.828,10.828,0,0,1-.306,1.432,1.794,1.794,0,0,0-.325.632l-.2,1.627-.959-.19V266.019Z" transform="translate(-750.503 -223.055)" fill="#68abd6"/>
        <path id="Path_35445" data-name="Path 35445" d="M867.165,288.538l.89-.224-.4-.885c.176-1.947.153-3.939.144-5.911l.644-.069-.005-4.4c0-.1.152-.457.156-.4a1.133,1.133,0,0,1,.181.414l-.055,3.439-.039,7.219c0,.33-.285.846-.548.907a4.712,4.712,0,0,1-.968-.1" transform="translate(-727.962 -232.244)" fill="#68abd6"/>
        <path id="Path_35446" data-name="Path 35446" d="M851.794,348.8a2.714,2.714,0,0,1-.872-.1l.439-.206c.135-.063.458.187.433.311" transform="translate(-714.326 -292.544)" fill="#68abd6"/>
        <path id="Path_35447" data-name="Path 35447" d="M839.632,347.771c-.027.048-.3.178-.4.127l-.287-.148c.005-.032.216-.245.294-.2Z" transform="translate(-704.272 -291.759)" fill="#68abd6"/>
        <path id="Path_35448" data-name="Path 35448" d="M825.507,346.917a2.466,2.466,0,0,1-.555-.1l.29-.186c.095-.061.292.231.265.285" transform="translate(-692.525 -290.988)" fill="#68abd6"/>
        <path id="Path_35449" data-name="Path 35449" d="M418.639,367.262c0,.268-.861.257-.893.023l-.2-1.453-1.766.053-.145,1.422c-.024.235-.818.2-.956-.03l-.021-3.967c0-.265.952-.328.977-.063l.142,1.535h1.754l.114-1.549,1-.02Z" transform="translate(-348.097 -304.8)" fill="#fbf0ce"/>
        <path id="Path_35450" data-name="Path 35450" d="M363.1,366.009c-.459-.424-.356,1.084-.7,1.292a1.121,1.121,0,0,1-.8-.061l.006-4.076c.316-.083.818-.081.911.075l.283,1.444,1.287-1.226a2.768,2.768,0,0,1,.666-.486.789.789,0,0,1,.726.414l-1.652,1.788L365.3,366.8c.09.1,0,.418-.1.476-.124.073-.574.135-.685.033Z" transform="translate(-303.555 -304.7)" fill="#fbf0ce"/>
        <path id="Path_35451" data-name="Path 35451" d="M392.186,366.1c.081,1.375-2.563,1.628-3.547.894.239-1.282,1.244-.021,2.211-.691.93-.645-2.129-.483-2.047-2.277.051-1.119,1.869-1.406,2.979-1.046a.566.566,0,0,1,.185.541.787.787,0,0,1-.437.237l-1.115.016a.8.8,0,0,0-.377.236c-.076.1.186.4.31.459l1.31.664a1.5,1.5,0,0,1,.526.966" transform="translate(-326.252 -304.593)" fill="#fbf0ce"/>
        <path id="Path_35452" data-name="Path 35452" d="M472.589,394.047l-.006-.33a2.134,2.134,0,0,0,.37-.009l4-.765a78.853,78.853,0,0,0,14.743-4.282l4.258-1.709a3.7,3.7,0,0,1,2.36-.166l11.719,5.861a1.15,1.15,0,0,1,.316.352c.049.089-.224.353-.329.388l-7.641,2.54-4.4,1.4-12.044,3.684c-.757.231-2.088.582-2.785.1l-9.833-6.85a1.807,1.807,0,0,0-.728-.214M501.8,391.4c-.166-1.68-5.818-1.876-5.915-.459-.116,1.681,6.049,1.811,5.915.459m-4.018,3.838c-.039-.772-1.786-1.6-2.608-2.021l-3.586-1.854c-1.225-.32-5.281.158-5.115,1.631a1.526,1.526,0,0,0,.54.869c1.225.751,4.555,2.707,5.751,2.862,1.676.217,5.076-.339,5.017-1.487m-11.227,1.27c.013-1.692-5.75-1.907-5.708-.463.047,1.625,5.7,1.749,5.708.463" transform="translate(-396.721 -324.602)" fill="#a1e2c6"/>
        <path id="Path_35453" data-name="Path 35453" d="M349.542,446.648l-.056.647a10.762,10.762,0,0,1-3.15,2.745,19.935,19.935,0,0,1-14.43,1.046,10.864,10.864,0,0,1-5.218-3.232,2.919,2.919,0,0,0-.71-.715c.005-.423.037-.865.077-1.286.244.1.4.478.612.734a11.175,11.175,0,0,0,5.9,3.371,15.276,15.276,0,0,0,2.666.494c4.142.31,7.989-.011,11.624-2.07,1.765-1,1.63-1.433,2.643-2.673Z" transform="translate(-273.65 -374.168)" fill="#e6bd51"/>
        <path id="Path_35454" data-name="Path 35454" d="M349.245,454.775c-.074.865.079,2.547.019,3.487a5.913,5.913,0,0,1-1.271,2.556,16.812,16.812,0,0,1-10.288,3.1c-3.608-.038-7.492-.638-10.287-3.011a5.517,5.517,0,0,1-1.727-2.779l.046-3.509a2.919,2.919,0,0,1,.71.715,10.865,10.865,0,0,0,5.218,3.232,19.935,19.935,0,0,0,14.43-1.046,10.761,10.761,0,0,0,3.15-2.745" transform="translate(-273.409 -381.648)" fill="#fbd365"/>
        <path id="Path_35455" data-name="Path 35455" d="M488.779,478.717a15.565,15.565,0,0,1-3.745-1.755c-.105-.063-.448-.131-.422-.042a1.855,1.855,0,0,0,.105.369l1.662,1.77c1.793,1.91,3.493,3.72,5.4,5.494a3.08,3.08,0,0,0,1.947.738l1.322.019a7.168,7.168,0,0,1,.3.775,6.288,6.288,0,0,1-5.972-1.733l-4.79-4.657-2.707-2.858a8.954,8.954,0,0,1-1.261-1.623,19.118,19.118,0,0,1,2.752.606l-1.541-2.18a13.467,13.467,0,0,1,2.741,1.64l2.949,2.153a4.334,4.334,0,0,1,1.259,1.282" transform="translate(-403.468 -397.618)" fill="#a5e2ca"/>
        <path id="Path_35456" data-name="Path 35456" d="M659.22,454.829l3.987,2.347c.118.069.32.33.3.458a.92.92,0,0,1-.392.454c-3.776,1.575-7.578,2.964-11.483,4.219a1.2,1.2,0,0,1-.906-.07l-4.161-3.05a1.284,1.284,0,0,1-.318-.465,30.967,30.967,0,0,1,3.58-1.168l8.263-2.579a.7.7,0,0,0,.344-.453,5.873,5.873,0,0,0,.788.306" transform="translate(-542.505 -381.568)" fill="#a5e2ca"/>
        <path id="Path_35457" data-name="Path 35457" d="M547.624,490.724l4,4.012a.786.786,0,0,1-.4.378c-2.806.821-5.483,1.529-8.332,2.126a6.352,6.352,0,0,1-2.625-.1c-.054-.211-2.69-2.646-3.174-3.077a2.911,2.911,0,0,1-.685-.874,9.986,9.986,0,0,0,2.742-.175l7.479-2.116a.7.7,0,0,0,.378-.5Z" transform="translate(-450.3 -411.685)" fill="#a5e2ca"/>
        <path id="Path_35458" data-name="Path 35458" d="M612.693,480.44a1.287,1.287,0,0,0,.318.465l4.161,3.05c.063.053,0,.453-.134.5l-3.341,1.09-2.456.769a3.76,3.76,0,0,1-.961.024l-4-4.012a2,2,0,0,1,.508-.273l4.227-1.243a7.22,7.22,0,0,0,1.06-.416Z" transform="translate(-508.953 -403.286)" fill="#d9f6e8"/>
        <path id="Path_35459" data-name="Path 35459" d="M509.648,495.648l.8.4a2.914,2.914,0,0,0,.685.874c.484.431,3.12,2.867,3.174,3.077l.411,1.6a2.24,2.24,0,0,1-.12.62,3.08,3.08,0,0,1-1.947-.738c-1.907-1.774-3.606-3.584-5.4-5.494l-1.662-1.77a1.856,1.856,0,0,1-.105-.369c-.026-.09.316-.021.422.042a15.563,15.563,0,0,0,3.745,1.755" transform="translate(-424.337 -414.548)" fill="#d9f6e8"/>
        <path id="Path_35460" data-name="Path 35460" d="M605.907,475.34a7.224,7.224,0,0,1-1.06.416L600.621,477a2,2,0,0,0-.508.273l-.617-.326-.562-.826,5.547-1.727c.462-.144,1.32.574,1.425.947" transform="translate(-502.789 -398.233)" fill="#bce7e7"/>
        <path id="Path_35461" data-name="Path 35461" d="M274.746,400.059l.051.472,0,.628-.005,1.589-.056,1.61c-2.739.339-7.217.526-9.464-1.55a1.3,1.3,0,0,1,.209-1.747c1.951-1.61,5.7-1.769,8.082-1.257Z" transform="translate(-222.473 -335.414)" fill="#9ccff3"/>
        <path id="Path_35462" data-name="Path 35462" d="M326.342,406.5l-.4-.182,0-.628c.307.054.387.531.4.81" transform="translate(-273.618 -340.577)" fill="#fbd365"/>
        <path id="Path_35463" data-name="Path 35463" d="M548.492,129.091a18.063,18.063,0,0,1,.947,1.887,1.8,1.8,0,0,0-1.144.661,15.843,15.843,0,0,0,.567,2.3l-.057.452-.858.529-1.31.412c-.243-3.581-2.4-7.427-6.016-8.464.032-.048-.146-.334-.273-.369a7.412,7.412,0,0,0-4.406-.013l-.9.352c.1-.7-1.107-1.442-1.6-1.755l.135-.341,1-.467c.345.486.956-.275,1.7-.308a10.639,10.639,0,0,1,6.286,1.154c.687.392,1.241.975,1.909,1.418,2.362,1.567,2.409,3.933,4.017,2.553" transform="translate(-447.808 -104.041)" fill="#9ccff3"/>
        <path id="Path_35464" data-name="Path 35464" d="M551.426,141.174c3.614,1.037,5.772,4.883,6.016,8.464a5.719,5.719,0,0,1-1.192,4.179l-.94.15c.219-.408.495-.8.812-1.267,2.164-3.211.01-8.023-4.2-9.41a3.521,3.521,0,0,0-4.117,1.42c-.817,1.355-.5,2.694-.834,3.491l-.511-.8c-.262-1.812-.327-4.108,1.21-5.555a3.887,3.887,0,0,1,3.76-.669" transform="translate(-458.613 -118.347)" fill="#c3e4f6"/>
        <path id="Path_35465" data-name="Path 35465" d="M537.472,138.48a3.887,3.887,0,0,0-3.76.669c-1.538,1.447-1.473,3.744-1.21,5.555a2.22,2.22,0,0,0-.592.691c-1.047,1.817-.145,2.3-.666,3.308a9.358,9.358,0,0,1-.961-8.459c.532-.45.938-1.383,1.607-1.795l.9-.352a7.411,7.411,0,0,1,4.406.013c.127.035.3.322.273.37" transform="translate(-444.658 -115.653)" fill="#3f8ac2"/>
        <path id="Path_35466" data-name="Path 35466" d="M525.6,153.207a9.359,9.359,0,0,0,.961,8.459l.322.794c-.056-.008-.2,0-.212.058l-.077.33c-.031.133-.218.416-.3.427a9.206,9.206,0,0,1-2.186-5.905,5.039,5.039,0,0,1,1.488-4.162" transform="translate(-439.978 -128.616)" fill="#7ab5dd"/>
        <path id="Path_35467" data-name="Path 35467" d="M538.328,210.841l.2.03c.894,2.042,4.343,3.517,6.195,3.837l.3.052.061.307A7.254,7.254,0,0,1,539.5,213.5c-.735-.714-1.191-1.208-1.754-1.843.078-.012.265-.295.3-.427l.077-.33c.013-.055.155-.067.212-.058" transform="translate(-451.421 -176.997)" fill="#82beec"/>
        <path id="Path_35468" data-name="Path 35468" d="M585.551,220.983c-.247,1.215-2.254,2.52-3.643,2.544,0-.087-.033-.268-.122-.265a2,2,0,0,1-.269.014l-.3-.052c.2-.934,1.33-.142,1.169-1.9a14.16,14.16,0,0,0,2.228-.194Z" transform="translate(-487.914 -185.513)" fill="#4b93c1"/>
        <path id="Path_35469" data-name="Path 35469" d="M583.488,235.447a1.627,1.627,0,0,0-.331.056l-.061-.307a2.019,2.019,0,0,0,.269-.014c.089,0,.118.178.122.265" transform="translate(-489.494 -197.434)" fill="#62a7d4"/>
        <path id="Path_35470" data-name="Path 35470" d="M547.753,117.528a13.266,13.266,0,0,1,6.687,5.859c-1.608,1.381-1.655-.986-4.017-2.553-.668-.443-1.221-1.026-1.909-1.418a10.641,10.641,0,0,0-6.286-1.154c-.748.033-1.359.794-1.7.308.036-.051.1-.16.157-.185l1.3-.592a6.433,6.433,0,0,1,3.615-.6Z" transform="translate(-453.756 -98.337)" fill="#a5d4f5"/>
        <path id="Path_35471" data-name="Path 35471" d="M627.129,167.825a13.7,13.7,0,0,1,.669,2.447l-.533.288a2.956,2.956,0,0,1-.713.226,15.846,15.846,0,0,1-.567-2.3,1.8,1.8,0,0,1,1.144-.66" transform="translate(-525.498 -140.888)" fill="#82beec"/>
        <path id="Path_35472" data-name="Path 35472" d="M426.343,140.8c-3.883,1.521-8.589-2.718-8.994-6.422l.607-.073.2-1.253a3.445,3.445,0,0,1,3.731-3c2.6.206,4.882,2.5,5.734,4.862a7.619,7.619,0,0,1-.869,4.688,2.564,2.564,0,0,0-.407,1.2" transform="translate(-350.353 -109.166)" fill="#daeef9"/>
        <path id="Path_35473" data-name="Path 35473" d="M517.921,94.3l1.733,1.9a3.836,3.836,0,0,1,.344.822l-.563.21c-.293.109-1.484-2.371-4.464-2.874a3.275,3.275,0,0,0-1.516.232l-.225-.716c.249-.048.7-.277.986-.331l.8-.151a18.1,18.1,0,0,1,2.9.905" transform="translate(-430.843 -78.405)" fill="#82beec"/>
        <path id="Path_35474" data-name="Path 35474" d="M534.6,112.582c-.055.025-.121.133-.157.185l-1,.467c-.437-.744.011-3.127,1.413-3,.316,1.573-.4,1.042-.253,2.353" transform="translate(-447.673 -92.532)" fill="#4b93c1"/>
        <path id="Path_35475" data-name="Path 35475" d="M830.21,286.023c.009,1.971.031,3.964-.144,5.911l-.958-.03a2.113,2.113,0,0,0-.534-.112l-1.711-.046a1.262,1.262,0,0,0-.375-.114l-2.81-.154a9.662,9.662,0,0,1-1.177-.152l-.078-2.549-.037-6.763c.909-.007,1.669.026,2.524.088l2.09.152,3.193.248Z" transform="translate(-690.372 -236.748)" fill="#def0fa"/>
        <path id="Path_35476" data-name="Path 35476" d="M768.854,278.124v9.4l-7.717-.563,0-9.312c1.158,0,2.233.059,3.368.145Z" transform="translate(-638.952 -233.084)" fill="#def0fa"/>
        <path id="Path_35477" data-name="Path 35477" d="M704.188,282.472l0-1.742c.334-.71.1-3.39,0-4.218-.09-.733.018-1.611,0-2.353.032-.009.185-.2.147-.268l-.144-.271,0-.293a3.463,3.463,0,0,1,1.1-.09l5.928.47-.012,9.362-1.735-.092-2.245-.15-1.935-.158a5.631,5.631,0,0,1-1.094-.2" transform="translate(-591.114 -229.372)" fill="#def0fa"/>
        <path id="Path_35478" data-name="Path 35478" d="M861.452,343.047l-.413.2c-.078.038-.134-.293-.121-.313a2.113,2.113,0,0,1,.534.112" transform="translate(-722.716 -287.891)" fill="#68abd6"/>
        <path id="Path_35479" data-name="Path 35479" d="M848.313,342.05c-.032.024-.24.263-.268.186l-.107-.3a1.263,1.263,0,0,1,.375.114" transform="translate(-711.821 -287.052)" fill="#68abd6"/>
        <path id="Path_35480" data-name="Path 35480" d="M703.429,297.873c0,.063-.179-.3-.179-.4v-3.437c0-.081.184-.441.181-.38.1.828.333,3.507,0,4.218" transform="translate(-590.36 -246.515)" fill="#62a7d4"/>
        <path id="Path_35481" data-name="Path 35481" d="M703.469,276.217c-.038-.043-.207-.2-.165-.27l.168-.269.144.271c.038.071-.115.259-.147.268" transform="translate(-590.4 -231.429)" fill="#62a7d4"/>
        <path id="Path_35482" data-name="Path 35482" d="M570.384,419.309c.059,1.148-3.341,1.7-5.017,1.487-1.2-.155-4.526-2.111-5.751-2.862a1.526,1.526,0,0,1-.54-.869c-.166-1.472,3.89-1.951,5.115-1.631l3.586,1.854c.822.425,2.568,1.249,2.608,2.021" transform="translate(-469.325 -348.673)" fill="#caf3dd"/>
        <path id="Path_35483" data-name="Path 35483" d="M623.637,408.819c.134,1.352-6.031,1.222-5.915-.459.1-1.417,5.749-1.221,5.915.459" transform="translate(-518.559 -342.022)" fill="#caf3dd"/>
        <path id="Path_35484" data-name="Path 35484" d="M529.76,440.55c-.01,1.286-5.66,1.162-5.708-.463-.042-1.443,5.721-1.229,5.708.463" transform="translate(-439.927 -368.645)" fill="#caf3dd"/>
        <path id="Path_35485" data-name="Path 35485" d="M558.743,165.1a14.16,14.16,0,0,1-2.228.194c-3.111-.937-4.177-2.313-5.9-4.857a3.759,3.759,0,0,0-.218-1.1c.333-.8.017-2.136.834-3.491a3.521,3.521,0,0,1,4.117-1.42c4.215,1.388,6.368,6.2,4.2,9.41-.318.472-.594.859-.812,1.267" transform="translate(-462.046 -129.482)" fill="#daeef9"/>
        <path id="Path_35486" data-name="Path 35486" d="M541.15,181.8a3.758,3.758,0,0,1,.218,1.1,3.247,3.247,0,0,0-1.2,2.764l-.269.152-.2-.03-.322-.794c.521-1.01-.381-1.491.666-3.308a2.218,2.218,0,0,1,.592-.691Z" transform="translate(-452.796 -151.945)" fill="#4b93c1"/>
        <path id="Path_35487" data-name="Path 35487" d="M549.987,197.724c.161,1.755-.973.963-1.169,1.9-1.852-.319-5.3-1.794-6.2-3.837l.269-.153a3.247,3.247,0,0,1,1.2-2.764c1.721,2.544,2.787,3.92,5.9,4.857" transform="translate(-455.518 -161.91)" fill="#62a7d4"/>
      </g>
    </g>
  </g>
</svg>
