<svg xmlns="http://www.w3.org/2000/svg" xmlns:xlink="http://www.w3.org/1999/xlink" width="240" height="143" viewBox="0 0 240 143">
  <defs>
    <clipPath id="clip-path">
      <rect id="Rectangle_24458" data-name="Rectangle 24458" width="240" height="143" fill="none"/>
    </clipPath>
    <clipPath id="clip-No_matches_found_Desktop">
      <rect width="240" height="143"/>
    </clipPath>
  </defs>
  <g id="No_matches_found_Desktop" data-name="No matches found Desktop" clip-path="url(#clip-No_matches_found_Desktop)">
    <g id="Group_60366" data-name="Group 60366">
      <g id="Group_60365" data-name="Group 60365" clip-path="url(#clip-path)">
        <path id="Path_35371" data-name="Path 35371" d="M200.462,120.446a4.485,4.485,0,0,0-2.532,4.182,4,4,0,0,0,3.2,3.854c.082.2.5.38.952.386l2.208,6.574a4.859,4.859,0,0,1,.152,1.17c-.464.019-1.1-.177-1.646-.22l-10.376-.828-21.29-1.435a8.721,8.721,0,0,0-4.8.754c-2.518,1.545-4.8,3.156-7.095,4.793a4,4,0,0,0-3.119,3.689l-.05,19.851a3.9,3.9,0,0,0,2.375,3.936l1.647.586,2.7,4.931a10.374,10.374,0,0,1-.649.974c-.6.833.321,1.562.9,1.86,1.354.691,1.491-.8,3.515-1.071l3.385.236c.125,1.124.008-.453,2.548,1.168a9.257,9.257,0,0,0,3.889,1.494c2.953.165,5.664.1,8.546.055l.15-1.395c1.328-.025,2.682.055,4.14.174l12.142.992a14.356,14.356,0,0,0,5.976-1.118,8.226,8.226,0,0,0,5.277-6.578l1.53-.348a3.084,3.084,0,0,0,2.294-2.492c.51-2.368,1.688-12.42-2.478-11.932l-.228-.188v-8.442a4.6,4.6,0,0,0-1.416-3.425l-2-1.839A7.278,7.278,0,0,0,208.5,139.6a28.718,28.718,0,0,1-.969-3.008l-2.52-7.967c1.2-1.329,2.281-2.738,2.007-4.765a.733.733,0,0,1,.711-.059,95.21,95.21,0,0,1,12.563,8.123c10.536,8.321,18.455,19.152,19.6,32.883a26.514,26.514,0,0,1-2.047,13.1c-3.669,8.437-10.873,15.179-18.334,20.362a112.4,112.4,0,0,1-18.453,10.412,196.6,196.6,0,0,1-31.984,11.069,258.264,258.264,0,0,1-69.106,7.9c-26.984-.564-59.744-6.409-81.172-23.9C7.446,194.492-.584,181.486.033,166.421c.344-8.407,5.272-16.1,11.051-21.872,8.3-8.283,19.405-14.662,30.113-19.3a3.9,3.9,0,0,1,.962-.2,23,23,0,0,0-3.469,5.19,19.4,19.4,0,0,0-2.273,12.435c.671,4.975,1.882,6.936,4.785,11.155-1.957.329-4.436.7-5.3,3.158-.372,1.064.482,2.091,1.35,2.66,4.585,3.008,12.249,3.369,17.606,3.7l3.547.047,2.053-.09,3.278-.222c3.476-.236,7.01-.383,10.26-1.656l2.663-1.043a3.987,3.987,0,0,0,2.5-2.765c.416-1.64-1.045-2.75-2.551-3.008-.634-.109-2.486-.578-2.636-1.217a24.311,24.311,0,0,0,2.587-4.637,18.155,18.155,0,0,0,1.576-12.727l-.19-1.471c-.482-3.745-2.844-6.516-5.372-9.172a23.316,23.316,0,0,0-11.38-6.1l-2.336-.538A207.8,207.8,0,0,1,89.8,111.269a1.029,1.029,0,0,1,.676.235c-5.684,6.9-3.11,17.9,3.865,22.836,4.346,3.076,10.058,3.6,14.39.714l1.952-1.3,3.15-1.942,3.68-2.025a1.786,1.786,0,0,1,.539.645,19.14,19.14,0,0,0,4.086,7.138c4.953,5.443,13.1,6.81,18.245,2.728l1.435-1.138c.528-.419,1.122-.735,1.637-1.169.309-.261.862-.449.915-.883a11.168,11.168,0,0,0,2.689-2.543,85.012,85.012,0,0,0,8.964-9.941,31.94,31.94,0,0,0,2.66-4.521l2.084-1.808c2.756-2.39,2.644-4.98,2.509-8.2a148.1,148.1,0,0,1,36.1,9.763,8.356,8.356,0,0,1,1.084.587M74.895,173.48a2.854,2.854,0,0,1-.258.794L71,174.019c-4.495-.314-11.3.419-14.25,4.277a4.584,4.584,0,0,0-.588,3.223l-.027,3.911c-.006.867-.064,1.7-.121,2.459-2.465.441-7.651,3.728-5.3,7.074,4.045,5.748,21.644,8.261,28.439,8.69l6.912.437c4.038.255,8.047.111,12.089.042l6.867-.49c2.148-.153,4.456-.536,6.486-.849l.916.046a12.709,12.709,0,0,0,2.025,2.589l3.071,3.34,2.2,2.4a11.288,11.288,0,0,0,2.713,2.493,10.018,10.018,0,0,0,6.516,1.009c2.067-.35,4.048-.737,6.079-1.214l9.267-2.18,13.673-3.525,1.622-.429,14.263-4.069,5.046-1.622a6.246,6.246,0,0,0,2.645-1.722c.3-.334.056-1.416-.267-1.706-1.576-1.418-2.4-1.294-2.388-1.955a3.309,3.309,0,0,0,1.121-2.36,1.562,1.562,0,0,0-.542-1.029l-5.238-2.79-4.72-2.312c-.4-.558-1.793-.515-1.446-1.392l1.676-.729a2.069,2.069,0,0,0,.957-2.072c-.064-.278-.249-.926-.622-1.106l-6.74-3.249-15.454-7.62c-1.667-.822-3.2-1.408-5.045-.62l-7.367,3.137c-8.52,3.627-13.947,5.424-23.154,6.791l-3.894.578-.031-.234c-.111-.85.161-1.993-.291-2.173a3.593,3.593,0,0,0,.308-1.633l-.067-4.172a15.326,15.326,0,0,0-.156-3.331c-1.023-4.27-7-6.38-10.836-7.106-6.438-1.219-14.543-.595-19.835,3.67-2.857,2.3-2.583,4.357-2.613,6.985" transform="translate(0 -84.85)" fill="#edf0f2"/>
        <path id="Path_35372" data-name="Path 35372" d="M180.577,147.732l2.336.538,3.426,7.136,7.954-1.034c2.527,2.657,4.889,5.427,5.372,9.172l.189,1.471-5.406,5.853,3.83,6.875a24.345,24.345,0,0,1-2.587,4.637,24.051,24.051,0,0,1-7.123,5.444l-7.049-3.642-5.533,5.742c-4.822-.818-9.413-2.922-12.353-6.649l1.543-7.788-7.045-3.823a19.4,19.4,0,0,1,2.273-12.435,9.429,9.429,0,0,0,1.51-.092l6.336-1.03,1.237-7.946a21.8,21.8,0,0,1,11.091-2.428M180.406,177l6.778-6.77-4.359-8.5-9.45,1.546-1.51,9.42Z" transform="translate(-121.714 -113.847)" fill="#c3e4f6"/>
        <path id="Path_35373" data-name="Path 35373" d="M396.679,103.348c.2-.02,1.044,3.236.706,3.007a10.229,10.229,0,0,1-1.661-.345c.009-.925-3.493-.622-4.248-.506-6.195.952-7.327,8.31-5.622,12.9a13.5,13.5,0,0,0,3.269,5.314,4.754,4.754,0,0,0,.974,1.071,9.922,9.922,0,0,0,9.224,2.268,2.73,2.73,0,0,0,.759-.452,4.272,4.272,0,0,0,2.725-2.169c1.532-1.083,2.275-4.889,2.094-6.7,2-.276,1.266-1.827,2.1-2.514a14.225,14.225,0,0,1,.5,2.751,24.757,24.757,0,0,1-.725,6.2,4.012,4.012,0,0,1-.56,1.23l-1.581,1.949a2.327,2.327,0,0,0-.369.755l-1.952,1.3c-4.332,2.889-10.044,2.362-14.39-.714-6.974-4.937-9.549-15.936-3.865-22.836l1.084-1.013a2.222,2.222,0,0,1,.95-.619,4.3,4.3,0,0,0,1.341-.267,13.1,13.1,0,0,1,9.251-.614" transform="translate(-293.581 -79.208)" fill="#7ab5dd"/>
        <path id="Path_35374" data-name="Path 35374" d="M657.474,97.075c.135,3.219.246,5.809-2.51,8.2l-2.084,1.808a31.92,31.92,0,0,1-2.66,4.521,84.986,84.986,0,0,1-8.964,9.941,5.669,5.669,0,0,1,.418-2.067,14.049,14.049,0,0,0,.628-6.574,2.09,2.09,0,0,0,1.036-.144l4.455-3.384c2.771-2.106,3.933-4.933,5.636-4.989a3.544,3.544,0,0,0,.144,1.476,9.933,9.933,0,0,0,.249-8.308,5.915,5.915,0,0,1-.214-.921,8.955,8.955,0,0,0,1.932-3.432c1.043,1.007,1.392,2.517,1.935,3.873" transform="translate(-494.2 -71.831)" fill="#82beec"/>
        <path id="Path_35375" data-name="Path 35375" d="M587.136,83.512c.235,1.359-3.461,2.288-4.565,2.546a30.493,30.493,0,0,0-8.514,3.434,1.623,1.623,0,0,0-.516.889c-2.141-.545-1.168-.7-3.843-1.152a13.766,13.766,0,0,0-5.273-.042,1.389,1.389,0,0,1,.657-.888l2.727-1.22a1.907,1.907,0,0,0,.541-.58c1.128-.081,2.164-.9,3.209-1.209a53.152,53.152,0,0,0,6.342-2.3l.991-.438a2.678,2.678,0,0,1,.9-.282,9.716,9.716,0,0,0,1.8-.063c2.215-.429,3.851.555,5.544,1.3" transform="translate(-434.988 -63.279)" fill="#b2dbf7"/>
        <path id="Path_35376" data-name="Path 35376" d="M352.569,21.278c-.027.126-.363,2.476-1.076,2.034-1.6-.993.322-4.658-4-5.568l-2.231-.471a.939.939,0,0,1-.5-.713,1.028,1.028,0,0,1,.587-.569l2.432-.59A3.355,3.355,0,0,0,350.4,12.96l.716-2.691c.047-.175.666-.386.8-.259.895.862.46,4.549,2.756,5.173l3.633.989c.314.086-.045,1-.356,1.066-4.009.834-4.7.874-5.38,4.04" transform="translate(-265.703 -7.684)" fill="#c3e4f6"/>
        <path id="Path_35377" data-name="Path 35377" d="M870.455,155.09a8.557,8.557,0,0,1,.632,2.664,4.465,4.465,0,0,1-3.48,4.1l-1.325.354a4,4,0,0,1-3.2-3.854,4.485,4.485,0,0,1,2.532-4.182,4.81,4.81,0,0,1,4.845.92" transform="translate(-665.148 -118.574)" fill="#fbd365"/>
        <path id="Path_35378" data-name="Path 35378" d="M539.194,62.543a13.267,13.267,0,0,1-3.259,2.591c-.882.521-2.413-.477-3.183.221-1.122-.477-2.663-.3-3.895-.488-2.3-.355-1.7.949-2.895.97a1.978,1.978,0,0,1-.98-.481,9.216,9.216,0,0,0-5.547-2.275c1.925-1.515,5.679-1.179,7.949.323a5.928,5.928,0,0,0,1.363.533l2.22-1.44c2.5-1.623,6-1.769,8.227.046" transform="translate(-400.316 -47.191)" fill="#a5d4f5"/>
        <path id="Path_35379" data-name="Path 35379" d="M177.8,158.367l-1.237,7.946-6.336,1.03a9.432,9.432,0,0,1-1.51.092,23,23,0,0,1,3.469-5.19,24.132,24.132,0,0,1,5.613-3.879" transform="translate(-130.027 -122.054)" fill="#585959"/>
        <path id="Path_35380" data-name="Path 35380" d="M744.424,10.508c-.037.219-.552.712-.7.608a1.339,1.339,0,0,1-.419-.585l-.523-2.066c-.16-.632-.575-1.5-1.283-1.679l-2.8-.7a1.308,1.308,0,0,1-.577-.434c-.088-.142.2-.6.365-.638l2.653-.557a2.537,2.537,0,0,0,1.8-1.808l.414-2.005a1.219,1.219,0,0,1,.393-.627c.191-.112.7.286.731.532l.238,1.643a2.621,2.621,0,0,0,1.761,2.342l2.24.416c.24.044.654.289.706.5.358,1.48-4.16.062-4.66,3.025Z" transform="translate(-568.844 0)" fill="#c3e4f6"/>
        <path id="Path_35381" data-name="Path 35381" d="M633.214,78.179l3.058.033c2,.022,3.794,1.306,5.275,1.831a26,26,0,0,1,4.5,5.013,5.887,5.887,0,0,0,.214.921,9.934,9.934,0,0,1-.249,8.308,3.539,3.539,0,0,1-.144-1.476c.495-1.389-.355-4.3-.906-5.71a11.838,11.838,0,0,0-6.175-6.612c-1.694-.747-3.33-1.731-5.544-1.3a9.719,9.719,0,0,1-1.8.063c.409-.358,1.217-1.074,1.769-1.068" transform="translate(-486.64 -60.253)" fill="#68abd6"/>
        <path id="Path_35382" data-name="Path 35382" d="M510.917,69.3a9.215,9.215,0,0,1,5.547,2.275,1.973,1.973,0,0,0,.98.481c1.193-.021.6-1.325,2.895-.97,1.232.19,2.773.011,3.895.488,0,0,3.574,1.97,3.186,2.52l-3.028.643-.469.1c-.118.026-.139.248-.165.389-1.231-.48-1.724-1.414-3.385-2.043a5.963,5.963,0,0,0-4.416-.286,2.981,2.981,0,0,0-.893-1.077,7.952,7.952,0,0,0-6.682-1.4c.013-.091.03-.218.049-.3s.236-.119.368-.16Z" transform="translate(-391.798 -53.41)" fill="#82beec"/>
        <path id="Path_35383" data-name="Path 35383" d="M409.59,96.232c2.025.417,3-.053,5.651.942a16.049,16.049,0,0,1,7.63,5.9c-.826.609-1.562.185-2.214-.518a15.856,15.856,0,0,0-6.677-4.254,13.1,13.1,0,0,0-9.251.614,4.3,4.3,0,0,1-1.341.267c.543-1.22,4.906-2.627,6.2-2.955" transform="translate(-310.882 -74.166)" fill="#9ccff3"/>
        <path id="Path_35384" data-name="Path 35384" d="M457.839,77.451a9.285,9.285,0,0,1,3.874.364c.086.157-.189.666-.5.712a61.817,61.817,0,0,0-10.7,2.65,1.6,1.6,0,0,0-.722.748l-2.828-.617a12.227,12.227,0,0,0-2.457-.327,11.44,11.44,0,0,1,3.395-1.212c3.361-.877,6.624-1.713,9.939-2.317" transform="translate(-342.569 -59.628)" fill="#a5d4f5"/>
        <path id="Path_35385" data-name="Path 35385" d="M650.417,69.745c.887-.186-3.193,2.492-2.924,2.128-1.482-.525-3.274-1.81-5.275-1.831l-3.058-.033c.381-1.5,3.976-2.6,5.695-2.41a10.058,10.058,0,0,1,5.563,2.146" transform="translate(-492.585 -52.083)" fill="#b2dbf7"/>
        <path id="Path_35386" data-name="Path 35386" d="M433.661,93.114a12.241,12.241,0,0,1,2.457.327l2.829.617a30.6,30.6,0,0,1,4.83,3.361,4.292,4.292,0,0,0,1.113.809c.269.861,1.109-.094,1.068,1.12l-1.165-.493-.825,1.812-.253.007a16.052,16.052,0,0,0-7.63-5.9c-2.648-1-3.626-.525-5.651-.942a15.812,15.812,0,0,1,3.227-.714" transform="translate(-331.725 -71.762)" fill="#68abd6"/>
        <path id="Path_35387" data-name="Path 35387" d="M681.886,80.705a8.955,8.955,0,0,1-1.932,3.432,25.976,25.976,0,0,0-4.5-5.013c-.269.364,3.811-2.314,2.924-2.128.485-.132,3.848,3.276,3.508,3.709" transform="translate(-520.547 -59.334)" fill="#a5d4f5"/>
        <path id="Path_35388" data-name="Path 35388" d="M586.865,69.535l-1.487.81-3.285,1.79a7.9,7.9,0,0,1-.923.352l-.481-.2c.388-.549-3.186-2.519-3.186-2.519.77-.7,2.3.3,3.184-.221a13.269,13.269,0,0,0,3.259-2.591,5.525,5.525,0,0,1,2.92,2.58" transform="translate(-445.068 -51.602)" fill="#96cbf1"/>
        <path id="Path_35389" data-name="Path 35389" d="M511.54,75.99l-2.491.7c-.088-.776-1.706-1.769-2.524-2a9.285,9.285,0,0,0-3.874-.364,2.754,2.754,0,0,1,1.314-.815,7.953,7.953,0,0,1,6.682,1.4,2.982,2.982,0,0,1,.893,1.077" transform="translate(-387.38 -56.5)" fill="#4b93c1"/>
        <path id="Path_35390" data-name="Path 35390" d="M599.189,78.205a5.631,5.631,0,0,1,1.114,1.782,53.2,53.2,0,0,1-6.342,2.3l-.467-1.128a7.891,7.891,0,0,0,.923-.352l3.285-1.79Z" transform="translate(-457.392 -60.273)" fill="#82beec"/>
        <path id="Path_35391" data-name="Path 35391" d="M882.955,161.74c.275,2.027-.81,3.436-2.007,4.765a18.143,18.143,0,0,1-2.927.243c-.454-.005-.87-.183-.952-.386l1.325-.354a4.466,4.466,0,0,0,3.48-4.1,8.568,8.568,0,0,0-.632-2.664,5.174,5.174,0,0,1,1.712,2.493" transform="translate(-675.936 -122.732)" fill="#e6bd51"/>
        <path id="Path_35392" data-name="Path 35392" d="M729.514,245.647l0,15.595-.115,4.4c-.059,2.241-1.452,4.472-4.025,4.288l-15.78-1.129-18.319-1.387-3.852-.289a7.244,7.244,0,0,0-2.837.025l-1.647-.586a3.9,3.9,0,0,1-2.375-3.936l.05-19.851a4,4,0,0,1,3.119-3.689,3.6,3.6,0,0,0,1.088.277l3.024.2,4.56.28,18.01,1.173,15.029,1c1.867.125,4.069,1.459,4.069,3.621m-45.133-1.1c-.124.147-.447.468-.447.708l0,15.517c0,.932.818,1.069,1.41,1.115l15.1,1.183,13.234.952a3.5,3.5,0,0,0,.792.142l2.416.088.41.211c.14.072.533-.113.572-.182l1.766.2a3.876,3.876,0,0,0,1.245.15l2.479.057a6.73,6.73,0,0,0,1.383.136c.375-.087.78-.824.782-1.3l.055-10.312.079-4.913a1.621,1.621,0,0,0-.259-.591c-.1-.622-.674-.867-1.347-.908l-4.372-.266-27.1-1.826-7.337-.5a.912.912,0,0,0-.856.336" transform="translate(-524.494 -184.27)" fill="#d2ecfa"/>
        <path id="Path_35393" data-name="Path 35393" d="M360.03,348.643a1.854,1.854,0,0,0-.725.473c-2.554,3.793-7.371,5.326-11.763,5.855a28.343,28.343,0,0,1-14-1.365,14.612,14.612,0,0,1-6.043-4.212,1.754,1.754,0,0,0-.911-.534c.031-2.628-.244-4.682,2.613-6.985,5.292-4.265,13.4-4.889,19.835-3.67,3.837.726,9.813,2.836,10.836,7.106a15.326,15.326,0,0,1,.156,3.331m-23.265-.828,2.018,1.861c.158.145.8.057.978-.047.141-.083.271-.538.142-.68l-2.1-2.33,2.36-2.553a1.126,1.126,0,0,0-1.037-.591,3.952,3.952,0,0,0-.951.694l-1.839,1.752-.4-2.063c-.132-.223-.851-.226-1.3-.107l-.009,5.823a1.6,1.6,0,0,0,1.144.087c.494-.3.346-2.451,1-1.846m9.12.278a2.148,2.148,0,0,0-.752-1.379l-1.871-.949c-.177-.09-.552-.51-.444-.655a1.143,1.143,0,0,1,.539-.338l1.593-.023a1.123,1.123,0,0,0,.624-.339.807.807,0,0,0-.265-.773c-1.586-.514-4.183-.1-4.256,1.494-.116,2.563,4.253,2.332,2.924,3.253-1.382.958-2.818-.845-3.159.987,1.4,1.049,5.182.687,5.066-1.277m6.583,1.37.018-5.785-1.433.028-.163,2.213h-2.505l-.2-2.193c-.035-.378-1.4-.288-1.395.091l.029,5.667c.2.332,1.331.379,1.365.043l.207-2.032,2.523-.075.283,2.076c.045.334,1.274.35,1.276-.033" transform="translate(-251.694 -260.23)" fill="#fbd365"/>
        <path id="Path_35394" data-name="Path 35394" d="M534.836,386.923l-22.942,7.13-17.237,5.453a58.731,58.731,0,0,1-6.1,1.648,4.6,4.6,0,0,1-3.64-.975l-11.232-8a2.977,2.977,0,0,0-1.121-.428l-.062-1.342.028-2.992a2.58,2.58,0,0,1,1.04.305l14.047,9.786c1,.694,2.9.194,3.979-.137l17.205-5.262,6.287-2.006L526,386.474c.15-.05.54-.428.47-.555a1.645,1.645,0,0,0-.451-.5l-16.742-8.373a5.285,5.285,0,0,0-3.372.237l-6.083,2.442a112.669,112.669,0,0,1-21.061,6.118l-5.716,1.093a3.056,3.056,0,0,1-.528.013l.042-2.112,3.894-.578c9.207-1.367,14.635-3.163,23.154-6.791l7.367-3.137c1.849-.787,3.378-.2,5.045.62l15.454,7.62,6.74,3.249c.373.18.558.828.622,1.106" transform="translate(-364.144 -288.209)" fill="#caf3dd"/>
        <path id="Path_35395" data-name="Path 35395" d="M224.423,449.366c-.161,2.162,1.2,3.527,3.182,4.505,4.733,2.338,10.481,2.261,15.5,1.712a7.88,7.88,0,0,0,2.467,3.969c3.993,3.391,9.541,4.248,14.7,4.3,5.1.053,10.784-1.333,14.7-4.428.882-.131,4.783,4.072,4.956,4.844-2.03.312-4.338.7-6.486.849l-6.867.49c-4.042.069-8.051.213-12.089-.042l-6.912-.437c-6.8-.429-24.395-2.942-28.439-8.69-2.354-3.346,2.832-6.633,5.3-7.074" transform="translate(-168.414 -346.327)" fill="#dff0f8"/>
        <path id="Path_35396" data-name="Path 35396" d="M744.4,335.96l-.471,3.866a60.235,60.235,0,0,0-.7,6.106,5.163,5.163,0,0,1-3.487,4.645c-.194.056-.447.437-.368.443l-12.142-.992c-1.458-.119-2.812-.2-4.14-.174a17.746,17.746,0,0,0-2.976-.387l-12.158-.936-3.385-.235c-1.174-.082-3.151-.631-3.771-1.763l-2.7-4.932a7.243,7.243,0,0,1,2.837-.025l3.852.289,18.319,1.387,15.78,1.129c2.573.184,3.967-2.047,4.025-4.288l.115-4.4Z" transform="translate(-538.013 -258.716)" fill="#62a7d4"/>
        <path id="Path_35397" data-name="Path 35397" d="M739.587,217.262c.723,2.364,1.979,6.782,1.98,9.164l-1.405.453c0-2.162-2.2-3.5-4.069-3.621l-15.029-1-18.01-1.173-4.56-.28-3.024-.2a3.6,3.6,0,0,1-1.087-.277c2.3-1.637,4.576-3.248,7.095-4.793a8.723,8.723,0,0,1,4.8-.753l21.291,1.435,10.376.828c.548.044,1.182.239,1.646.22" transform="translate(-535.143 -165.501)" fill="#96cbf1"/>
        <path id="Path_35398" data-name="Path 35398" d="M490.234,492.415l3.465-.734,6.843,6.652a8.983,8.983,0,0,0,8.531,2.475c3.7-.717,7.352-1.511,11.092-2.571l4.637-1.314,6.553-1.948c7.228-2.148,14.272-4.375,21.308-7.051a20.591,20.591,0,0,0,4.034-2.1c-.008.661.811.537,2.388,1.955.323.291.569,1.373.267,1.706a6.244,6.244,0,0,1-2.645,1.722l-5.047,1.622L537.4,496.9l-1.622.429L522.1,500.853l-9.267,2.18c-2.031.478-4.013.864-6.079,1.214a10.018,10.018,0,0,1-6.516-1.009,11.284,11.284,0,0,1-2.713-2.493l-2.2-2.4L492.259,495a12.7,12.7,0,0,1-2.025-2.589" transform="translate(-377.812 -374.426)" fill="#dff0f8"/>
        <path id="Path_35399" data-name="Path 35399" d="M534.678,430.506a2.069,2.069,0,0,1-.957,2.072l-1.676.729c-1.331.579-2.552.976-4.146,1.559.625.455,1.214.861,1.7,1.147a.993.993,0,0,1-.492.647l-11.8,3.684a44.272,44.272,0,0,0-5.115,1.668l-.888-.067c-.151-.533-1.376-1.559-2.036-1.353l-7.925,2.468.8,1.18a1,1,0,0,1-.54.709l-10.684,3.022a14.268,14.268,0,0,1-3.917.251l-1.138-.572a6.192,6.192,0,0,0-1.8-1.832l-4.213-3.076a19.245,19.245,0,0,0-3.916-2.343l2.2,3.114a27.346,27.346,0,0,0-3.931-.865l-1.113-1a2.657,2.657,0,0,0-.74-.408c.086-1.342-.133-3.744-.027-4.981l.079-.925a2.976,2.976,0,0,1,1.121.428l11.232,8a4.6,4.6,0,0,0,3.64.975,58.75,58.75,0,0,0,6.1-1.648l17.237-5.453Z" transform="translate(-363.985 -331.792)" fill="#93d4ce"/>
        <path id="Path_35400" data-name="Path 35400" d="M359.285,419.7l.031.234-.042,2.112.008.472-.028,2.992c-1.446,1.773-1.254,2.391-3.775,3.819-5.192,2.942-10.688,3.4-16.605,2.958a21.8,21.8,0,0,1-3.809-.705,15.966,15.966,0,0,1-8.427-4.817c-.309-.366-.527-.905-.875-1.048a9.372,9.372,0,0,1-.186-1.346l-.02-2.57.081-2.3a2.791,2.791,0,0,1,.88.723,16.167,16.167,0,0,0,6.988,4.594,28.622,28.622,0,0,0,21.044-1.331,13.819,13.819,0,0,0,4.129-3.347,2.777,2.777,0,0,1,.6-.439" transform="translate(-250.9 -323.313)" fill="#fbd365"/>
        <path id="Path_35401" data-name="Path 35401" d="M359.163,385.579l.067,4.172a3.589,3.589,0,0,1-.308,1.632,8.958,8.958,0,0,1-3.028,3.1,21.084,21.084,0,0,1-5.9,2.577c-7.318,1.88-18.379,1.326-23.54-4.87a1.918,1.918,0,0,1-.311-.844c-.017-.4-.131-1.079-.57-1.157l-.073-.675-.04-2.926a2.858,2.858,0,0,0,.258-.794,1.753,1.753,0,0,1,.911.534,14.613,14.613,0,0,0,6.043,4.212,28.345,28.345,0,0,0,14,1.366c4.392-.53,9.209-2.063,11.763-5.855a1.853,1.853,0,0,1,.725-.473" transform="translate(-250.827 -297.167)" fill="#fcd86a"/>
        <path id="Path_35402" data-name="Path 35402" d="M161.574,299.321l.717.455c2.94,3.727,7.531,5.831,12.353,6.649a19.468,19.468,0,0,0,12.581-2.1,24.044,24.044,0,0,0,7.123-5.444c.149.64,2,1.109,2.636,1.217,1.505.258,2.967,1.368,2.551,3.008a3.987,3.987,0,0,1-2.5,2.765l-2.663,1.043c-3.25,1.273-6.783,1.42-10.26,1.656l-3.278.222-2.053.09-3.547-.047c-5.358-.328-13.021-.688-17.606-3.7-.868-.57-1.723-1.6-1.35-2.66.86-2.457,3.339-2.829,5.3-3.158" transform="translate(-120.371 -230.348)" fill="#dff0f8"/>
        <path id="Path_35403" data-name="Path 35403" d="M516.309,131.093c.705.447,2.432,1.5,2.286,2.507-.956.588-1.536,1.922-2.3,2.564-1.654,1.4-2.177,3.551-2.126,5.946a13.151,13.151,0,0,0,3.122,8.436c.805.906,1.456,1.612,2.506,2.633,1.738,1.688,5.928,2.857,7.982,2.239a2.33,2.33,0,0,1,.472-.08c1.984-.034,4.851-1.9,5.2-3.634a8.168,8.168,0,0,0,1.7-5.97l1.871-.588,1.226-.755c.108,1.743.239,4.541-.465,6.259l-1.273,3.109-.982,1.282.253.3-1.435,1.138c-5.145,4.081-13.292,2.715-18.245-2.728a19.138,19.138,0,0,1-4.086-7.139,1.784,1.784,0,0,0-.54-.645,32.727,32.727,0,0,1-.263-5.759l.015-1.318c.2-.655.4-1.419.661-2.127l.73-1.953a11.609,11.609,0,0,1,3.677-3.717" transform="translate(-393.979 -101.034)" fill="#96cbf1"/>
        <path id="Path_35404" data-name="Path 35404" d="M262.861,425.977a9.369,9.369,0,0,0,.186,1.346c-.057.6-.1,1.232-.11,1.836l-.066,5.013c-5.017.549-10.765.626-15.5-1.713-1.98-.978-3.343-2.343-3.182-4.5.057-.764.115-1.592.121-2.459l.027-3.911a3.065,3.065,0,0,1,.639.711c2.408,3.35,10.655,4.323,14.452,3.985Z" transform="translate(-188.183 -324.917)" fill="#82beec"/>
        <path id="Path_35405" data-name="Path 35405" d="M611.93,454.923l-20.35,7.33-14.5,4.721-12.6,3.676-1.724.511-1.889-.026a3.2,3.2,0,0,0,.172-.886l-.587-2.29a9.069,9.069,0,0,0,3.749.148c4.07-.853,7.895-1.865,11.9-3.037a1.124,1.124,0,0,0,.576-.54,5.381,5.381,0,0,0,1.372-.035l3.508-1.1,4.773-1.557c.2-.064.282-.635.192-.711a1.718,1.718,0,0,0,1.293.1c5.579-1.793,11.01-3.777,16.4-6.027a1.316,1.316,0,0,0,.56-.648c.032-.184-.256-.556-.424-.655l-5.7-3.353c-.209-.843,2.418-.892,2.77-1.751l4.721,2.312,5.238,2.79a1.563,1.563,0,0,1,.542,1.029" transform="translate(-431.925 -345.885)" fill="#caf3dd"/>
        <path id="Path_35406" data-name="Path 35406" d="M263.2,388.914l.04,2.926-1.694-.364c-3.4-.731-8.759-.5-11.546,1.8a1.864,1.864,0,0,0-.3,2.5c3.21,2.967,9.607,2.7,13.519,2.215l.02,2.569-3.43.3c-3.8.337-12.045-.636-14.452-3.986a3.062,3.062,0,0,0-.639-.711,4.583,4.583,0,0,1,.588-3.223c2.947-3.858,9.755-4.591,14.25-4.277Z" transform="translate(-188.561 -299.491)" fill="#b2dbf7"/>
        <path id="Path_35407" data-name="Path 35407" d="M619.674,475.532a3.31,3.31,0,0,1-1.121,2.36,20.6,20.6,0,0,1-4.034,2.1c-7.037,2.677-14.08,4.9-21.308,7.051l-6.553,1.948-4.637,1.314c-3.74,1.06-7.4,1.853-11.092,2.571a10.29,10.29,0,0,0-.432-1.107l1.725-.511,12.6-3.676,14.5-4.721Z" transform="translate(-439.668 -366.493)" fill="#bce7e7"/>
        <path id="Path_35408" data-name="Path 35408" d="M884.147,190.9l2.52,7.967a28.562,28.562,0,0,0,.969,3.008,30.889,30.889,0,0,0,.895,4.152l.307,3.082.856,7.667c-1.051.072-2.85,1.188-2.756,2.318l-.224,0a6.307,6.307,0,0,1-.168-1.141c-.083-2.272-.253-4.4-.457-6.651a12.319,12.319,0,0,0-.529-3.255c0-2.382-1.257-6.8-1.98-9.164a4.864,4.864,0,0,0-.151-1.17l-2.208-6.574a18.134,18.134,0,0,0,2.927-.243" transform="translate(-679.135 -147.128)" fill="#3f8ac2"/>
        <path id="Path_35409" data-name="Path 35409" d="M908.743,319.275c-2.039-.156-4.424-.589-4.982-3.131a25.855,25.855,0,0,1-.474-5.392l-.02-2.067a15.466,15.466,0,0,0,.438-2.045l.224,0,.575,6.888a2.01,2.01,0,0,0,1.987,2.016c4.458.561,1.415-6.109,3.589-9.628a4.318,4.318,0,0,0,.008-1.409c4.166-.488,2.988,9.564,2.478,11.932a3.084,3.084,0,0,1-2.294,2.492Z" transform="translate(-696.126 -234.667)" fill="#a5d4f5"/>
        <path id="Path_35410" data-name="Path 35410" d="M326.49,409.866a1.916,1.916,0,0,0,.311.844c5.161,6.2,16.222,6.749,23.54,4.87A21.09,21.09,0,0,0,356.236,413a8.96,8.96,0,0,0,3.029-3.1c.452.18.18,1.323.291,2.174a2.77,2.77,0,0,0-.6.439,13.818,13.818,0,0,1-4.129,3.347,28.621,28.621,0,0,1-21.043,1.331,16.163,16.163,0,0,1-6.988-4.594,2.8,2.8,0,0,0-.881-.723l.007-2.27Z" transform="translate(-251.17 -315.684)" fill="#e6bd51"/>
        <path id="Path_35411" data-name="Path 35411" d="M589.825,114.32a22.665,22.665,0,0,1,8.7,9.835,16.941,16.941,0,0,1,.854,4.135,14.046,14.046,0,0,1-.627,6.574,5.664,5.664,0,0,0-.418,2.067,11.168,11.168,0,0,1-2.689,2.543c.217-1.77,1.534-1.592,1.912-5.658a17.17,17.17,0,0,0-.137-4.62,19.555,19.555,0,0,0-.956-3.5,25.767,25.767,0,0,0-1.353-2.7c-2.016-3.929-5.541-6.576-9.553-8.37l.575-.255-.147-1.212c2.675.456,1.7.608,3.843,1.152" transform="translate(-451.273 -87.219)" fill="#68abd6"/>
        <path id="Path_35412" data-name="Path 35412" d="M889.277,333.39A8.226,8.226,0,0,1,884,339.967a14.354,14.354,0,0,1-5.976,1.118c-.079-.006.175-.387.368-.443A5.163,5.163,0,0,0,881.878,336a60.209,60.209,0,0,1,.7-6.106l.471-3.866.284-2.325a2.562,2.562,0,0,1,.465-.9l.02,2.067a25.863,25.863,0,0,0,.474,5.392c.558,2.542,2.943,2.975,4.982,3.131" transform="translate(-676.66 -248.782)" fill="#3f8ac2"/>
        <path id="Path_35413" data-name="Path 35413" d="M912.075,303.635l.228.188a4.321,4.321,0,0,1-.008,1.409c-2.174,3.518.869,10.189-3.589,9.628a2.01,2.01,0,0,1-1.987-2.016l-.575-6.888c-.094-1.13,1.7-2.245,2.756-2.318,1.028-.071,2.14-.009,3.176,0" transform="translate(-698.34 -233.988)" fill="#daeef9"/>
        <path id="Path_35414" data-name="Path 35414" d="M916.026,251.991a4.606,4.606,0,0,1,1.416,3.425v8.442c-1.036-.007-2.148-.069-3.176,0l-.856-7.666-.307-3.082,1.787-.787a5.725,5.725,0,0,1,1.135-.332" transform="translate(-703.707 -194.21)" fill="#7ab5dd"/>
        <path id="Path_35415" data-name="Path 35415" d="M164.308,263.76l-.717-.455c-2.9-4.219-4.113-6.181-4.785-11.156l7.045,3.823Z" transform="translate(-122.388 -194.332)" fill="#585959"/>
        <path id="Path_35416" data-name="Path 35416" d="M278.247,156.225l-7.954,1.034-3.427-7.136a23.317,23.317,0,0,1,11.38,6.1" transform="translate(-205.668 -115.7)" fill="#585959"/>
        <path id="Path_35417" data-name="Path 35417" d="M321,235.879,317.168,229l5.406-5.853A18.156,18.156,0,0,1,321,235.879" transform="translate(-244.434 -171.984)" fill="#585959"/>
        <path id="Path_35418" data-name="Path 35418" d="M486.187,118.648a11.182,11.182,0,0,0,2.421,6.648,10.819,10.819,0,0,1,.466,3.329l.142.293-.015,1.318c-.117-.014-.259-.049-.274.031l-.084.469a17.909,17.909,0,0,1-1.093,4.047c-.608,1.384-1.918,2.509-1.965,3.238l-3.15,1.942a2.322,2.322,0,0,1,.369-.755l1.581-1.949a4,4,0,0,0,.56-1.23,1.318,1.318,0,0,0,.542-.415,15.784,15.784,0,0,0,.117-12.379,7.505,7.505,0,0,0-1.321-2.532l-.286-.737.824-1.812Z" transform="translate(-371.955 -91.062)" fill="#4b93c1"/>
        <path id="Path_35419" data-name="Path 35419" d="M468.293,478.722a12.785,12.785,0,0,0,1.8,2.318l3.867,4.084-3.465.734-.916-.046c-.174-.772-4.074-4.975-4.956-4.844.694-1.052,1.731-2.329,1.816-3.652a2.671,2.671,0,0,1,.74.408Z" transform="translate(-358.075 -367.869)" fill="#daeef9"/>
        <path id="Path_35420" data-name="Path 35420" d="M756.215,393.018l-.15,1.395c-2.882.047-5.593.11-8.547-.055a9.264,9.264,0,0,1-3.889-1.494c-2.54-1.621-2.423-.044-2.548-1.168l12.158.936a17.723,17.723,0,0,1,2.976.387" transform="translate(-571.133 -301.88)" fill="#d2ecfa"/>
        <path id="Path_35421" data-name="Path 35421" d="M625.183,183.071a17.183,17.183,0,0,1,.137,4.62c-.379,4.066-1.7,3.888-1.912,5.658-.053.434-.606.622-.915.883,0-.314-.56-.46-.909-.412l1.273-3.109c.7-1.718.573-4.516.465-6.259l.081-.645a4.224,4.224,0,0,0,1.019-.323Z" transform="translate(-479.039 -141.093)" fill="#7ab5dd"/>
        <path id="Path_35422" data-name="Path 35422" d="M499.79,170.779a32.691,32.691,0,0,0,.263,5.759l-3.68,2.026c.047-.729,1.357-1.854,1.965-3.238a17.9,17.9,0,0,0,1.094-4.047l.084-.469c.014-.081.157-.045.274-.031" transform="translate(-382.543 -131.604)" fill="#82beec"/>
        <path id="Path_35423" data-name="Path 35423" d="M720.361,444.112c-.351.858-2.979.908-2.77,1.751a8.406,8.406,0,0,1-1.126-.437c-.482-.286-1.071-.692-1.7-1.147,1.593-.584,2.814-.98,4.146-1.559-.346.877,1.048.834,1.446,1.392" transform="translate(-550.855 -341.205)" fill="#bce7e7"/>
        <path id="Path_35424" data-name="Path 35424" d="M913.019,241.8a5.726,5.726,0,0,0-1.135.332l-1.787.787a30.814,30.814,0,0,1-.895-4.152,7.282,7.282,0,0,1,1.814,1.194Z" transform="translate(-700.7 -184.017)" fill="#96cbf1"/>
        <path id="Path_35425" data-name="Path 35425" d="M710.8,384.742c-2.024.271-2.161,1.762-3.515,1.071-.585-.3-1.508-1.027-.905-1.86a10.394,10.394,0,0,0,.649-.974c.62,1.133,2.6,1.682,3.771,1.763" transform="translate(-544.242 -295.163)" fill="#d2ecfa"/>
        <path id="Path_35426" data-name="Path 35426" d="M619.192,230.329c-.515.434-1.109.751-1.637,1.169l-.253-.3.982-1.282c.349-.048.9.1.909.412" transform="translate(-475.74 -177.191)" fill="#68abd6"/>
        <path id="Path_35427" data-name="Path 35427" d="M227.234,224.1l-8.54-4.3,1.51-9.42,9.45-1.546,4.359,8.5Z" transform="translate(-168.542 -160.95)" fill="#585959"/>
        <path id="Path_35428" data-name="Path 35428" d="M249.249,310.383a19.468,19.468,0,0,1-12.581,2.1l5.532-5.742Z" transform="translate(-182.394 -236.406)" fill="#585959"/>
        <path id="Path_35429" data-name="Path 35429" d="M409.828,114.712l-1.593-.017a4.756,4.756,0,0,0-4.231,2.47,8.361,8.361,0,0,0-.611,6.764c.578,5.292,7.3,11.347,12.849,9.174l.667.032a4.272,4.272,0,0,1-2.725,2.169,17.072,17.072,0,0,1-6.6-3.14,2.686,2.686,0,0,0-2.7-.351l-1.666.6a13.5,13.5,0,0,1-3.269-5.314c-1.706-4.588-.573-11.945,5.621-12.9.755-.116,4.257-.419,4.248.506" transform="translate(-307.686 -87.91)" fill="#3f8ac2"/>
        <path id="Path_35430" data-name="Path 35430" d="M422.271,116.831a10.23,10.23,0,0,0,1.661.345,14.454,14.454,0,0,1,7.514,11.38c.181,1.811-.562,5.617-2.094,6.7l-.667-.032a3.667,3.667,0,0,1,.582-1.717,10.882,10.882,0,0,0,1.242-6.7c-1.218-3.378-4.471-6.651-8.191-6.945a4.922,4.922,0,0,0-5.331,4.29l-.283,1.791-.867.1a8.362,8.362,0,0,1,.611-6.764,4.756,4.756,0,0,1,4.231-2.47Z" transform="translate(-320.129 -90.029)" fill="#c3e4f6"/>
        <path id="Path_35431" data-name="Path 35431" d="M458.465,110.048l.253-.007.286.737c.385.2-.974.6-.94.588-.132.034-.029.535.041.667a19.066,19.066,0,0,1,1.79,5.115c-.835.687-.1,2.238-2.1,2.514a14.455,14.455,0,0,0-7.514-11.38c.339.229-.508-3.026-.706-3.007a15.855,15.855,0,0,1,6.678,4.254c.653.7,1.388,1.127,2.214.518" transform="translate(-346.475 -81.137)" fill="#89c0e6"/>
        <path id="Path_35432" data-name="Path 35432" d="M427.583,194.265a2.717,2.717,0,0,1-.759.452,9.922,9.922,0,0,1-9.224-2.268,4.747,4.747,0,0,1-.974-1.071l1.666-.6a2.685,2.685,0,0,1,2.7.351,17.07,17.07,0,0,0,6.6,3.14" transform="translate(-321.084 -146.871)" fill="#4b93c1"/>
        <path id="Path_35433" data-name="Path 35433" d="M487.984,144.6a24.754,24.754,0,0,0,.725-6.2,14.23,14.23,0,0,0-.5-2.751,19.07,19.07,0,0,0-1.79-5.115c-.07-.132-.173-.634-.041-.667-.034.009,1.325-.388.94-.588a7.507,7.507,0,0,1,1.321,2.532,15.784,15.784,0,0,1-.117,12.379,1.318,1.318,0,0,1-.542.415" transform="translate(-374.794 -99.629)" fill="#68abd6"/>
        <path id="Path_35434" data-name="Path 35434" d="M654.078,122.788c-1.7.056-2.865,2.883-5.636,4.988l-4.455,3.384a2.09,2.09,0,0,1-1.036.144,16.949,16.949,0,0,0-.854-4.135,32.8,32.8,0,0,0,10.227-9.256,3.059,3.059,0,0,1,.848-.835c.552,1.414,1.4,4.32.906,5.71" transform="translate(-494.849 -90.232)" fill="#96cbf1"/>
        <path id="Path_35435" data-name="Path 35435" d="M623.948,94.854a3.066,3.066,0,0,0-.848.835,32.8,32.8,0,0,1-10.227,9.256,22.668,22.668,0,0,0-8.7-9.835,1.622,1.622,0,0,1,.516-.889,30.5,30.5,0,0,1,8.514-3.434c1.1-.258,4.8-1.187,4.565-2.545a11.837,11.837,0,0,1,6.175,6.612" transform="translate(-465.625 -68.008)" fill="#a5d4f5"/>
        <path id="Path_35436" data-name="Path 35436" d="M550.018,88.287l.58.544a10.811,10.811,0,0,1,.821.859,1.91,1.91,0,0,1-.541.58l-2.727,1.22a1.388,1.388,0,0,0-.657.887,20.774,20.774,0,0,0-2.072.695,5.46,5.46,0,0,0-.491-1.175l-2.475-2.719a7.27,7.27,0,0,1,1.4-.863l2.331-1.129a1.3,1.3,0,0,0,.448-.941c1.661.629,2.154,1.562,3.385,2.042" transform="translate(-418.058 -66.469)" fill="#96cbf1"/>
        <path id="Path_35437" data-name="Path 35437" d="M515.521,103.142a20.737,20.737,0,0,1,2.072-.695,13.769,13.769,0,0,1,5.273.041l.148,1.212-.575.255-3.076-.47a9.188,9.188,0,0,0-5.165.85l-1.861.846c-.207-1.872.814-1.114.362-3.361-2-.176-2.643,3.23-2.018,4.292l-.193.487a11.61,11.61,0,0,0-3.677,3.717c-2.168-1.146-2.8-3.562-3.131-6.041-.218-1.638,1.31-3.971,2.5-4.607a4.676,4.676,0,0,1,2.165-.332c4.256.719,5.958,4.262,6.376,4.106Z" transform="translate(-388.158 -76.539)" fill="#62a7d4"/>
        <path id="Path_35438" data-name="Path 35438" d="M579.092,90.2l.48.2.467,1.128c-1.045.31-2.081,1.128-3.209,1.209a10.765,10.765,0,0,0-.82-.858l-.58-.544c.025-.141.047-.363.165-.389l.469-.1Z" transform="translate(-443.47 -69.52)" fill="#68abd6"/>
        <path id="Path_35439" data-name="Path 35439" d="M532.694,84.286a1.3,1.3,0,0,1-.448.941l-2.331,1.129a7.289,7.289,0,0,0-1.4.863,25.872,25.872,0,0,0-4.147-1.293c-.03-1,1.056-.443,1.417-1.23l2.491-.7a5.962,5.962,0,0,1,4.416.286" transform="translate(-404.119 -64.511)" fill="#a5d4f5"/>
        <path id="Path_35440" data-name="Path 35440" d="M482,81.315c-.361.787-1.447.231-1.417,1.23l-1.146.216c-.416.079-1.053.405-1.409.474a4.276,4.276,0,0,0-3.027,3.5l-1.5.857a4.3,4.3,0,0,1-1.113-.809,30.58,30.58,0,0,0-4.83-3.361,1.6,1.6,0,0,1,.722-.748,61.833,61.833,0,0,1,10.7-2.65c.309-.046.584-.554.5-.712.818.23,2.436,1.223,2.524,2" transform="translate(-360.333 -61.129)" fill="#9ccff3"/>
        <path id="Path_35441" data-name="Path 35441" d="M498,96.4l.322,1.023c-1.186.636-2.714,2.969-2.5,4.607.33,2.479.963,4.9,3.131,6.041l-.731,1.953c-.265.708-.456,1.471-.661,2.127l-.142-.293a10.823,10.823,0,0,0-.466-3.329,11.182,11.182,0,0,1-2.421-6.648c.042-1.214-.8-.259-1.068-1.12l1.5-.857A4.275,4.275,0,0,1,498,96.4" transform="translate(-380.306 -74.3)" fill="#7ab5dd"/>
        <path id="Path_35442" data-name="Path 35442" d="M738.224,264.92c0-.083-.222.423-.222.57l.008,6.28-.919.1-.023-5.03-4.561-.354-2.986-.217c-1.221-.089-2.306-.135-3.605-.126l.052,9.661.111,3.642a13.862,13.862,0,0,0,1.681.217l4.015.22.153.429c.04.111.337-.231.382-.266l2.444.066c-.02.029.061.5.172.448l.59-.288,1.368.043.571,1.264-1.271.32-2.479-.057c.036-.176-.425-.534-.619-.444l-.627.294-1.766-.2-.561-.317c-.111-.063-.412.241-.42.287l-2.416-.088c.039-.077-.244-.494-.379-.407l-.414.266-13.234-.952-15.1-1.183.689-1.765a8.053,8.053,0,0,0,1.562.283l2.765.225,3.207.214,2.479.131.017-13.374-8.469-.672a4.944,4.944,0,0,0-1.566.129,12.413,12.413,0,0,1-.294-2.572l-1.349.061a.912.912,0,0,1,.856-.336l7.337.5,27.1,1.826,4.371.266c.673.041,1.247.286,1.347.908m-15.327.9-6.217-.471c-1.621-.123-3.158-.2-4.812-.207l0,13.3,11.025.8Z" transform="translate(-537.322 -201.477)" fill="#62a7d4"/>
        <path id="Path_35443" data-name="Path 35443" d="M697.335,265.206l0,.419-.24.384c-.061.1.182.324.236.386.028,1.06-.127,2.314,0,3.361.005-.088-.258.427-.258.543v4.909c0,.145.26.664.256.574l.006,2.488-.689,1.765c-.592-.047-1.41-.183-1.41-1.115l0-15.517c0-.24.322-.561.447-.708l1.349-.061a12.436,12.436,0,0,0,.294,2.572" transform="translate(-535.806 -202.413)" fill="#3f8ac2"/>
        <path id="Path_35444" data-name="Path 35444" d="M895.421,265.7a12.31,12.31,0,0,1,.529,3.255c.2,2.252.374,4.379.457,6.651a6.305,6.305,0,0,0,.168,1.141,15.463,15.463,0,0,1-.438,2.045,2.563,2.563,0,0,0-.465.9l-.284,2.325-1.37-.271,0-15.595Z" transform="translate(-688.997 -204.777)" fill="#68abd6"/>
        <path id="Path_35445" data-name="Path 35445" d="M867.165,293.634l1.271-.32-.571-1.264c.251-2.781.219-5.627.206-8.444l.919-.1-.008-6.28c0-.147.218-.653.222-.57a1.617,1.617,0,0,1,.259.591l-.079,4.913-.055,10.312c0,.472-.407,1.209-.782,1.3a6.732,6.732,0,0,1-1.383-.136" transform="translate(-668.303 -213.213)" fill="#68abd6"/>
        <path id="Path_35446" data-name="Path 35446" d="M852.168,348.936a3.877,3.877,0,0,1-1.245-.15l.627-.294c.193-.091.654.268.619.444" transform="translate(-655.785 -268.573)" fill="#68abd6"/>
        <path id="Path_35447" data-name="Path 35447" d="M839.926,347.868c-.038.069-.431.254-.572.182l-.41-.211c.008-.046.309-.35.42-.288Z" transform="translate(-646.555 -267.852)" fill="#68abd6"/>
        <path id="Path_35448" data-name="Path 35448" d="M825.745,347.043a3.525,3.525,0,0,1-.792-.142l.414-.266c.135-.087.417.33.379.407" transform="translate(-635.771 -267.144)" fill="#68abd6"/>
        <path id="Path_35449" data-name="Path 35449" d="M420.343,369.056c0,.382-1.23.367-1.276.033l-.283-2.076-2.523.075-.207,2.032c-.034.336-1.168.289-1.365-.043l-.029-5.667c0-.379,1.36-.469,1.4-.091l.2,2.193h2.505l.163-2.213,1.433-.028Z" transform="translate(-319.569 -279.824)" fill="#fbf0ce"/>
        <path id="Path_35450" data-name="Path 35450" d="M363.748,367.317c-.656-.605-.509,1.549-1,1.846a1.6,1.6,0,0,1-1.144-.087l.009-5.823c.451-.119,1.169-.116,1.3.107l.4,2.063,1.839-1.752a3.955,3.955,0,0,1,.951-.694,1.126,1.126,0,0,1,1.037.591l-2.36,2.554,2.1,2.33c.129.143,0,.6-.142.68-.177.1-.82.192-.978.047Z" transform="translate(-278.678 -279.732)" fill="#fbf0ce"/>
        <path id="Path_35451" data-name="Path 35451" d="M393.705,367.5c.116,1.964-3.662,2.326-5.066,1.277.341-1.832,1.777-.03,3.159-.987,1.329-.921-3.041-.69-2.925-3.253.073-1.6,2.67-2.008,4.256-1.494a.808.808,0,0,1,.265.773,1.124,1.124,0,0,1-.624.339l-1.593.023a1.142,1.142,0,0,0-.538.338c-.109.145.266.565.444.655l1.871.949a2.148,2.148,0,0,1,.752,1.379" transform="translate(-299.515 -279.634)" fill="#fbf0ce"/>
        <path id="Path_35452" data-name="Path 35452" d="M472.591,397.211l-.008-.472a3.055,3.055,0,0,0,.528-.013l5.716-1.093a112.652,112.652,0,0,0,21.061-6.118l6.083-2.442a5.283,5.283,0,0,1,3.372-.237l16.742,8.373a1.644,1.644,0,0,1,.451.5c.07.127-.32.5-.47.555L515.15,399.9l-6.287,2.006-17.205,5.263c-1.081.331-2.983.831-3.979.137l-14.047-9.786a2.581,2.581,0,0,0-1.04-.306m41.728-3.783c-.237-2.4-8.311-2.68-8.45-.656-.166,2.4,8.641,2.588,8.45.656m-5.741,5.483c-.056-1.1-2.551-2.281-3.725-2.888l-5.123-2.648c-1.75-.457-7.544.226-7.307,2.329a2.18,2.18,0,0,0,.771,1.242c1.75,1.074,6.508,3.867,8.216,4.089,2.394.31,7.251-.484,7.167-2.124m-16.038,1.814c.019-2.417-8.214-2.724-8.154-.662.068,2.322,8.14,2.5,8.154.662" transform="translate(-364.208 -298.003)" fill="#a1e2c6"/>
        <path id="Path_35453" data-name="Path 35453" d="M359.641,447.05l-.079.925a15.374,15.374,0,0,1-4.5,3.921,28.479,28.479,0,0,1-20.614,1.494,15.52,15.52,0,0,1-7.455-4.617,4.169,4.169,0,0,0-1.015-1.022c.008-.6.053-1.235.11-1.836.348.143.566.682.875,1.048a15.964,15.964,0,0,0,8.427,4.816,21.824,21.824,0,0,0,3.809.706c5.917.443,11.413-.016,16.605-2.958,2.521-1.429,2.329-2.046,3.775-3.819Z" transform="translate(-251.224 -343.508)" fill="#e6bd51"/>
        <path id="Path_35454" data-name="Path 35454" d="M359.34,454.842c-.106,1.236.113,3.639.027,4.981-.085,1.322-1.121,2.6-1.815,3.652-3.913,3.095-9.593,4.481-14.7,4.428-5.154-.054-10.7-.911-14.7-4.3a7.882,7.882,0,0,1-2.468-3.969l.066-5.013a4.17,4.17,0,0,1,1.015,1.022,15.521,15.521,0,0,0,7.455,4.617,28.479,28.479,0,0,0,20.614-1.494,15.372,15.372,0,0,0,4.5-3.921" transform="translate(-251.002 -350.375)" fill="#fbd365"/>
        <path id="Path_35455" data-name="Path 35455" d="M492.276,480.893a22.233,22.233,0,0,1-5.35-2.506c-.151-.089-.641-.188-.6-.06a2.652,2.652,0,0,0,.151.527l2.374,2.529c2.561,2.728,4.989,5.315,7.713,7.848a4.4,4.4,0,0,0,2.781,1.055l1.889.027a10.229,10.229,0,0,1,.432,1.107,8.983,8.983,0,0,1-8.531-2.476l-6.843-6.652-3.867-4.084a12.791,12.791,0,0,1-1.8-2.318,27.3,27.3,0,0,1,3.931.865l-2.2-3.114a19.238,19.238,0,0,1,3.916,2.343l4.213,3.076a6.191,6.191,0,0,1,1.8,1.832" transform="translate(-370.402 -365.036)" fill="#a5e2ca"/>
        <path id="Path_35456" data-name="Path 35456" d="M664.781,454.96l5.7,3.354c.168.1.457.471.424.655a1.315,1.315,0,0,1-.56.648c-5.395,2.249-10.826,4.234-16.4,6.027a1.718,1.718,0,0,1-1.294-.1l-5.944-4.357a1.835,1.835,0,0,1-.455-.664,44.241,44.241,0,0,1,5.115-1.668l11.8-3.684a.993.993,0,0,0,.491-.647,8.388,8.388,0,0,0,1.126.437" transform="translate(-498.046 -350.302)" fill="#a5e2ca"/>
        <path id="Path_35457" data-name="Path 35457" d="M552.431,490.864l5.719,5.731a1.123,1.123,0,0,1-.576.54c-4.008,1.172-7.833,2.184-11.9,3.037a9.076,9.076,0,0,1-3.75-.148c-.077-.3-3.842-3.78-4.534-4.4a4.159,4.159,0,0,1-.979-1.249,14.265,14.265,0,0,0,3.917-.251l10.684-3.022a.994.994,0,0,0,.54-.709Z" transform="translate(-413.397 -377.951)" fill="#a5e2ca"/>
        <path id="Path_35458" data-name="Path 35458" d="M615.443,480.46a1.838,1.838,0,0,0,.454.665l5.944,4.357c.09.076,0,.648-.192.711l-4.773,1.557-3.508,1.1a5.373,5.373,0,0,1-1.373.035l-5.719-5.731a2.861,2.861,0,0,1,.726-.39l6.038-1.776a10.321,10.321,0,0,0,1.514-.594Z" transform="translate(-467.243 -370.24)" fill="#d9f6e8"/>
        <path id="Path_35459" data-name="Path 35459" d="M511.435,496.436l1.138.572a4.164,4.164,0,0,0,.979,1.249c.691.616,4.457,4.1,4.534,4.4l.587,2.29a3.2,3.2,0,0,1-.172.886,4.4,4.4,0,0,1-2.781-1.055c-2.724-2.534-5.152-5.12-7.713-7.848l-2.374-2.529a2.652,2.652,0,0,1-.151-.527c-.038-.128.452-.03.6.06a22.231,22.231,0,0,0,5.35,2.506" transform="translate(-389.561 -380.579)" fill="#d9f6e8"/>
        <path id="Path_35460" data-name="Path 35460" d="M608.9,475.754a10.321,10.321,0,0,1-1.514.594l-6.038,1.776a2.861,2.861,0,0,0-.726.39l-.881-.466-.8-1.18,7.925-2.468c.66-.206,1.886.82,2.036,1.353" transform="translate(-461.584 -365.601)" fill="#bce7e7"/>
        <path id="Path_35461" data-name="Path 35461" d="M278.917,400.279l.073.675,0,.9-.007,2.27-.081,2.3c-3.913.484-10.31.752-13.519-2.215a1.864,1.864,0,0,1,.3-2.5c2.786-2.3,8.141-2.527,11.546-1.8Z" transform="translate(-204.241 -307.93)" fill="#9ccff3"/>
        <path id="Path_35462" data-name="Path 35462" d="M326.514,406.851l-.574-.26,0-.9c.439.078.553.759.57,1.157" transform="translate(-251.194 -312.669)" fill="#fbd365"/>
        <path id="Path_35463" data-name="Path 35463" d="M554.943,131.3A25.826,25.826,0,0,1,556.3,134a2.571,2.571,0,0,0-1.635.944,22.632,22.632,0,0,0,.81,3.287l-.081.645-1.226.755-1.871.588c-.347-5.115-3.43-10.609-8.594-12.091.046-.069-.208-.478-.389-.528a10.589,10.589,0,0,0-6.294-.019l-1.29.5c.145-1.007-1.581-2.06-2.286-2.507l.193-.487,1.432-.667c.493.694,1.366-.393,2.434-.441,3.328-.148,6.023-.038,8.979,1.649.982.56,1.773,1.392,2.727,2.025,3.374,2.238,3.441,5.619,5.738,3.646" transform="translate(-411.109 -95.515)" fill="#9ccff3"/>
        <path id="Path_35464" data-name="Path 35464" d="M553.619,141.259c5.163,1.481,8.246,6.976,8.594,12.091a8.169,8.169,0,0,1-1.7,5.97l-1.343.214c.313-.583.707-1.136,1.161-1.81,3.091-4.587.014-11.461-6.006-13.443a5.03,5.03,0,0,0-5.882,2.028c-1.167,1.936-.716,3.849-1.192,4.987l-.731-1.145c-.375-2.588-.467-5.869,1.729-7.936a5.552,5.552,0,0,1,5.372-.956" transform="translate(-421.028 -108.649)" fill="#c3e4f6"/>
        <path id="Path_35465" data-name="Path 35465" d="M540.808,138.786a5.552,5.552,0,0,0-5.372.956c-2.2,2.067-2.1,5.348-1.729,7.936a3.171,3.171,0,0,0-.845.987c-1.5,2.6-.207,3.283-.951,4.726a13.369,13.369,0,0,1-1.372-12.084c.76-.642,1.34-1.976,2.3-2.564l1.29-.5a10.587,10.587,0,0,1,6.294.019c.182.05.436.459.39.528" transform="translate(-408.217 -106.176)" fill="#3f8ac2"/>
        <path id="Path_35466" data-name="Path 35466" d="M526.242,153.207a13.37,13.37,0,0,0,1.372,12.084l.46,1.134c-.08-.012-.284,0-.3.083l-.11.471c-.044.189-.312.594-.423.61a13.151,13.151,0,0,1-3.122-8.436c-.051-2.4.472-4.548,2.126-5.946" transform="translate(-403.921 -118.077)" fill="#7ab5dd"/>
        <path id="Path_35467" data-name="Path 35467" d="M538.579,210.842l.283.043c1.277,2.918,6.2,5.025,8.85,5.481l.432.074.087.438c-2.053.617-6.244-.551-7.982-2.239-1.051-1.021-1.7-1.726-2.506-2.633.111-.017.379-.421.423-.61l.11-.471c.018-.079.222-.1.3-.083" transform="translate(-414.426 -162.493)" fill="#82beec"/>
        <path id="Path_35468" data-name="Path 35468" d="M587.41,220.983c-.353,1.736-3.221,3.6-5.2,3.634-.006-.124-.047-.382-.174-.378a2.853,2.853,0,0,1-.385.02l-.432-.075c.28-1.335,1.9-.2,1.671-2.711a20.23,20.23,0,0,0,3.182-.277Z" transform="translate(-447.928 -170.312)" fill="#4b93c1"/>
        <path id="Path_35469" data-name="Path 35469" d="M583.656,235.561a2.325,2.325,0,0,0-.472.08l-.087-.438a2.887,2.887,0,0,0,.385-.02c.128,0,.168.254.175.378" transform="translate(-449.378 -181.256)" fill="#62a7d4"/>
        <path id="Path_35470" data-name="Path 35470" d="M550.851,117.694c4.012,1.794,7.537,4.441,9.553,8.37-2.3,1.972-2.364-1.408-5.738-3.647-.954-.633-1.745-1.465-2.727-2.025-2.956-1.686-5.651-1.8-8.98-1.649-1.068.047-1.941,1.134-2.434.441.052-.073.145-.228.224-.264l1.861-.846a9.19,9.19,0,0,1,5.165-.85Z" transform="translate(-416.57 -90.279)" fill="#a5d4f5"/>
        <path id="Path_35471" data-name="Path 35471" d="M627.62,167.825a19.571,19.571,0,0,1,.956,3.5l-.762.412a4.221,4.221,0,0,1-1.019.323,22.626,22.626,0,0,1-.81-3.287,2.572,2.572,0,0,1,1.635-.944" transform="translate(-482.432 -129.343)" fill="#82beec"/>
        <path id="Path_35472" data-name="Path 35472" d="M430.2,145.414c-5.547,2.173-12.271-3.882-12.849-9.174l.867-.1.283-1.791a4.922,4.922,0,0,1,5.331-4.29c3.721.295,6.974,3.568,8.191,6.945a10.884,10.884,0,0,1-1.242,6.7,3.663,3.663,0,0,0-.582,1.717" transform="translate(-321.641 -100.22)" fill="#daeef9"/>
        <path id="Path_35473" data-name="Path 35473" d="M519.932,94.689l2.475,2.719a5.482,5.482,0,0,1,.491,1.175l-.8.3c-.419.156-2.12-3.387-6.376-4.106a4.678,4.678,0,0,0-2.165.332l-.322-1.023c.356-.068.993-.4,1.409-.473l1.146-.216a25.856,25.856,0,0,1,4.147,1.293" transform="translate(-395.534 -71.981)" fill="#82beec"/>
        <path id="Path_35474" data-name="Path 35474" d="M535.165,113.592c-.079.036-.172.19-.224.264l-1.432.667c-.625-1.062.015-4.468,2.018-4.292.452,2.247-.569,1.489-.362,3.361" transform="translate(-410.985 -84.95)" fill="#4b93c1"/>
        <path id="Path_35475" data-name="Path 35475" d="M833.563,287.742c.013,2.816.045,5.663-.206,8.444l-1.368-.043a3.018,3.018,0,0,0-.762-.16l-2.444-.066a1.8,1.8,0,0,0-.535-.163l-4.015-.22a13.8,13.8,0,0,1-1.681-.217l-.111-3.641-.052-9.661c1.3-.009,2.384.037,3.606.126l2.986.217,4.561.354Z" transform="translate(-633.794 -217.349)" fill="#def0fa"/>
        <path id="Path_35476" data-name="Path 35476" d="M772.163,278.327v13.428l-11.025-.8,0-13.3c1.654,0,3.191.084,4.812.207Z" transform="translate(-586.588 -213.985)" fill="#def0fa"/>
        <path id="Path_35477" data-name="Path 35477" d="M704.205,286.434l-.006-2.488c.477-1.015.147-4.843,0-6.026-.129-1.047.026-2.3,0-3.361.045-.013.264-.281.21-.383l-.206-.387,0-.419a4.947,4.947,0,0,1,1.566-.129l8.468.672-.017,13.374-2.479-.131-3.207-.214-2.765-.225a8.045,8.045,0,0,1-1.562-.283" transform="translate(-542.671 -210.577)" fill="#def0fa"/>
        <path id="Path_35478" data-name="Path 35478" d="M861.682,343.095l-.59.288c-.111.054-.192-.419-.172-.448a3.018,3.018,0,0,1,.762.16" transform="translate(-663.488 -264.301)" fill="#68abd6"/>
        <path id="Path_35479" data-name="Path 35479" d="M848.473,342.1c-.045.034-.343.376-.382.265l-.153-.429a1.8,1.8,0,0,1,.535.164" transform="translate(-653.486 -263.531)" fill="#68abd6"/>
        <path id="Path_35480" data-name="Path 35480" d="M703.506,299.684c0,.09-.256-.428-.256-.573V294.2c0-.116.263-.631.258-.543.145,1.183.476,5.011,0,6.026" transform="translate(-541.978 -226.315)" fill="#62a7d4"/>
        <path id="Path_35481" data-name="Path 35481" d="M703.543,276.448c-.054-.062-.3-.288-.235-.386l.24-.384.206.387c.054.1-.165.37-.21.383" transform="translate(-542.015 -212.466)" fill="#62a7d4"/>
        <path id="Path_35482" data-name="Path 35482" d="M575.232,421.01c.084,1.64-4.773,2.435-7.168,2.124-1.708-.222-6.466-3.015-8.216-4.089a2.179,2.179,0,0,1-.771-1.242c-.237-2.1,5.556-2.787,7.307-2.329l5.123,2.648c1.174.607,3.669,1.785,3.725,2.888" transform="translate(-430.862 -320.102)" fill="#caf3dd"/>
        <path id="Path_35483" data-name="Path 35483" d="M626.173,409.421c.191,1.932-8.616,1.746-8.45-.656.139-2.025,8.213-1.744,8.45.656" transform="translate(-476.062 -313.996)" fill="#caf3dd"/>
        <path id="Path_35484" data-name="Path 35484" d="M532.206,441.159c-.014,1.837-8.086,1.66-8.154-.662-.06-2.062,8.173-1.756,8.154.662" transform="translate(-403.874 -338.437)" fill="#caf3dd"/>
        <path id="Path_35485" data-name="Path 35485" d="M562.319,169.756a20.229,20.229,0,0,1-3.182.277c-4.445-1.338-5.967-3.3-8.426-6.938a5.371,5.371,0,0,0-.311-1.577c.476-1.138.025-3.051,1.192-4.987a5.029,5.029,0,0,1,5.881-2.028c6.021,1.983,9.1,8.856,6.007,13.443-.454.674-.848,1.227-1.161,1.81" transform="translate(-424.18 -118.872)" fill="#daeef9"/>
        <path id="Path_35486" data-name="Path 35486" d="M541.908,182.141a5.369,5.369,0,0,1,.311,1.577,4.638,4.638,0,0,0-1.71,3.949l-.384.218-.283-.043-.46-1.134c.744-1.443-.544-2.13.951-4.726a3.169,3.169,0,0,1,.845-.987Z" transform="translate(-415.688 -139.494)" fill="#4b93c1"/>
        <path id="Path_35487" data-name="Path 35487" d="M553.143,199.8c.23,2.507-1.39,1.376-1.67,2.711-2.645-.456-7.573-2.564-8.85-5.481l.384-.218a4.639,4.639,0,0,1,1.71-3.949c2.459,3.634,3.981,5.6,8.426,6.938" transform="translate(-418.187 -148.643)" fill="#62a7d4"/>
      </g>
    </g>
  </g>
</svg>
