<svg xmlns="http://www.w3.org/2000/svg" xmlns:xlink="http://www.w3.org/1999/xlink" width="18" height="18" viewBox="0 0 18 18">
  <defs>
    <clipPath id="clip-Sport_Filter_Icon_Clicked_1">
      <rect width="18" height="18"/>
    </clipPath>
  </defs>
  <g id="Sport_Filter_Icon_Clicked_1" data-name="Sport Filter Icon Clicked – 1" clip-path="url(#clip-Sport_Filter_Icon_Clicked_1)">
    <g id="Group_60492" data-name="Group 60492" transform="translate(14584 1931)">
      <path id="Path_34637" data-name="Path 34637" d="M14.858,13.216a9,9,0,1,0-1.787,14.867,8.5,8.5,0,0,0,2.535-1.918,9.653,9.653,0,0,0,1.3-1.807,9,9,0,0,0-2.044-11.142m-2.4-.384a7.91,7.91,0,0,1,2.574,1.951.626.626,0,0,1,.055.281l-.553,2.869-2.408.706a.692.692,0,0,1-.362-.045L9.6,16.948a.443.443,0,0,1-.17-.272l0-2.276a.374.374,0,0,1,.164-.224l1.321-.718,1.158-.639a.477.477,0,0,1,.384.013m-1.246,6.661-.787,2.365a.261.261,0,0,1-.2.171l-2.524,0c-.046,0-.147-.1-.163-.149l-.8-2.38a.253.253,0,0,1,.056-.223l2.093-1.542c.055-.041.23.024.283.064L10.51,18.8l.649.49a.307.307,0,0,1,.054.2M11,12.331,9.121,13.4a.642.642,0,0,1-.233.037l-1.713-.949a1.8,1.8,0,0,1-.245-.174A7.811,7.811,0,0,1,11,12.331M3.035,14.7a7.971,7.971,0,0,1,2.508-1.861.412.412,0,0,1,.35.01l2.4,1.308c.129.07.246.14.245.3l0,2.214a.512.512,0,0,1-.112.263L7.03,17.971l-.818.615a.584.584,0,0,1-.336.056l-.852-.267L3.492,17.9a.3.3,0,0,1-.127-.168L2.906,15.2c-.04-.219-.041-.377.13-.5M2.1,15.986l.371,1.892a.524.524,0,0,1-.07.291l-1.27,1.374a1.345,1.345,0,0,1-.149.113A7.54,7.54,0,0,1,2.1,15.986m.359,8.357a2.227,2.227,0,0,1-.292-.081A8.041,8.041,0,0,1,1.061,21.31c-.016-.094-.03-.308.032-.374l1.193-1.273.757-.812a.307.307,0,0,1,.241-.044l2.358.721a.51.51,0,0,1,.247.261l.829,2.416a.548.548,0,0,1-.068.363L5.206,24.626c-.04.057-.174.159-.243.148Zm.531,1.027.284.044,1.643.267a.443.443,0,0,1,.22.192l.547.951a6.488,6.488,0,0,1,.338.672A7.921,7.921,0,0,1,2.993,25.37m7.648,2.52a7.59,7.59,0,0,1-3.095.08.486.486,0,0,1-.292-.233L5.943,25.41a.336.336,0,0,1,.02-.238l1.4-2.036a.455.455,0,0,1,.328-.2h2.622a.468.468,0,0,1,.313.224l1.393,2.023a.426.426,0,0,1,.006.276l-.729,1.281Zm1.315-.38c.14-.3.278-.569.447-.865l.456-.8a.527.527,0,0,1,.305-.187l1.839-.28a7.923,7.923,0,0,1-3.048,2.134m4.985-6.235a7.885,7.885,0,0,1-1.028,2.87.474.474,0,0,1-.279.185l-2.584.423a.383.383,0,0,1-.262-.1l-.692-.993-.838-1.2a.475.475,0,0,1,0-.269l.811-2.373a.484.484,0,0,1,.221-.271l1.074-.307L14.7,18.86a.332.332,0,0,1,.245.078l1.908,2.055a.45.45,0,0,1,.094.281M15.456,17.99l.365-1.933c.024-.135.04-.182.08-.069a10.452,10.452,0,0,1,.583,1.167,7.2,7.2,0,0,1,.522,2.612c.029.081.022.076-.023.008l-.637-.683-.816-.873a.423.423,0,0,1-.073-.228" transform="translate(-14583.999 -1942.068)" fill="#fff"/>
    </g>
  </g>
</svg>
