<svg xmlns="http://www.w3.org/2000/svg" xmlns:xlink="http://www.w3.org/1999/xlink" width="50" height="50" viewBox="0 0 50 50">
  <defs>
    <clipPath id="clip-path">
      <rect id="Rectangle_24513" data-name="Rectangle 24513" width="50" height="43" fill="none"/>
    </clipPath>
    <clipPath id="clip-Sport_Bonus_Icon_-_Mobile">
      <rect width="50" height="50"/>
    </clipPath>
  </defs>
  <g id="Sport_Bonus_Icon_-_Mobile" data-name="Sport Bonus Icon - Mobile" clip-path="url(#clip-Sport_Bonus_Icon_-_Mobile)">
    <g id="Component_21_1" data-name="Component 21 – 1" transform="translate(0 4)">
      <g id="Group_60497" data-name="Group 60497" clip-path="url(#clip-path)">
        <path id="Path_35639" data-name="Path 35639" d="M83.516.259a2.416,2.416,0,0,0,.165.452L85.5,4.405l.689,1.48a.592.592,0,0,0-.4.244l-.762,1.388-1.7,2.943c-.043.075.064.33.131.317a.571.571,0,0,0,.286-.154l2.5-4.272a1.143,1.143,0,0,0,.114-.454l1.625-.232,1.363-.184,1.3-.178,1.2-.183.621-.11a15.173,15.173,0,0,1,3.338,4.744A12.935,12.935,0,0,1,96.9,13.494a1.373,1.373,0,0,0-.36.244l-.624.675-.884.938-1.486,1.523-.73.753a.455.455,0,0,0-.092.5l2.823,5.086-.937.06-1.029.084a10.921,10.921,0,0,0-1.168.2,6.984,6.984,0,0,0-3.163,1.308l-.7.577c-.539.443.068,1.153-.961,1.262a11.927,11.927,0,0,0-3.113.726,3.471,3.471,0,0,0-.657.331l-.937.709-.472-.185c.177-.512.016-.823-.107-1.621l-.378-2.44-.211-1.289c-.014-.086-.21-.21-.281-.179a.344.344,0,0,0-.127.276l.276,1.836.508,3.1a3.029,3.029,0,0,0,.137.33,6.472,6.472,0,0,1-.542.634l-1.913,1.9a1.361,1.361,0,0,1-.229.157,8.336,8.336,0,0,0-.561-.815c-1.192-1.4-3.684-1.707-5.444-1.547a10.9,10.9,0,0,0-3.04.67,2.511,2.511,0,0,1-.373.082c-.723-.548-1.4-1.145-2.068-1.756a.969.969,0,0,1,.007-.139l.665-3.208.395-2.032a2.315,2.315,0,0,0,.021-.861l-2.717-1.482-2.258-1.232a4.758,4.758,0,0,0-.495-.223A15.628,15.628,0,0,1,65.4,8.879a5.286,5.286,0,0,0,.836-.06l1.531-.235,3.184-.489.742-.1a.689.689,0,0,0,.246.629l.765.713.843.8,1.3,1.268c.172.167.437.663.914.474l-.382,2.292-.273,1.9-.467,3.126a2.205,2.205,0,0,0-.871.2L71.085,20.5l-1.618.648a.367.367,0,0,0-.169.328.376.376,0,0,0,.341.115l2.023-.822,2.833-1.162c.1-.042.133-.253.138-.33L78.1,21.02l2.274,1.145.851.434c.108.055.379-.068.468-.155l4.8-4.689a2.392,2.392,0,0,1,.27-.217,2.826,2.826,0,0,0,1.1.214l1.114.09,1.007.085,1.122.1c.378.032,1,.069,1.324.076.059,0,.117-.28.069-.314a.692.692,0,0,0-.281-.123L91,17.58l-1.568-.122-1.486-.118c-.419-.033-.809-.049-1.188-.046L84.4,12.714l-.943-1.838a6.063,6.063,0,0,0-.969.058l-1.138.164-.813.119-1.12.165-.892.134-1.856.285a7.763,7.763,0,0,1-.909.077.7.7,0,0,0-.219-.441L72.662,8.665l-.582-.545A.643.643,0,0,0,71.692,8l.189-1.184.345-2.173.112-.714.1-.726.179-1.34a3.136,3.136,0,0,1,.267-.184A17.579,17.579,0,0,1,82.365.088c.4.034.79.118,1.152.171M81.021,1.3a.689.689,0,0,0,.266-.127c.051-.039-.1-.255-.17-.268a7.1,7.1,0,0,0-2.74-.024A11.22,11.22,0,0,0,74.686,1.9a1.19,1.19,0,0,0-.234.18c-.05.049.054.339.12.314l.843-.308A11.928,11.928,0,0,1,81.021,1.3M95.615,12.4a12.094,12.094,0,0,0-2.767-5.76.527.527,0,0,0-.328-.1c-.078.008-.065.284,0,.359a10.9,10.9,0,0,1,2.374,4.395l.274,1.2c.021.091.225.219.3.181a.4.4,0,0,0,.149-.275m-30.472,5.21-.091-.875a11.317,11.317,0,0,1,.665-4.984l.482-1.173c.042-.1-.072-.353-.183-.335-.275.044-.665,1.078-.75,1.373A11.611,11.611,0,0,0,64.6,14.76a10.269,10.269,0,0,0,0,1.879l.073.925a.434.434,0,0,0,.213.27c.065.026.264-.154.257-.227" transform="translate(-57.626 0.001)" fill="#d6e6f2"/>
        <path id="Path_35640" data-name="Path 35640" d="M15.426,308.478a2.51,2.51,0,0,0,.372-.082,10.9,10.9,0,0,1,3.04-.67c1.76-.161,4.253.148,5.445,1.547a8.332,8.332,0,0,1,.561.815l.082,1.09a6.161,6.161,0,0,1,.112.81,3.427,3.427,0,0,1-.734,1.988,5.52,5.52,0,0,1-1.8,1.291,10.626,10.626,0,0,1-3.809,1,7.777,7.777,0,0,1-3.786-.591,9.144,9.144,0,0,1-5.092,3.578,2.513,2.513,0,0,1-.379.056l-.205.018c-.034,0-.025.089-.022.12a6.754,6.754,0,0,1-3.324.009c-.242-.56-.425-.359-.761-1.137a2.054,2.054,0,0,1-.148-.645l.845.167a6.481,6.481,0,0,0,3-.189,10.426,10.426,0,0,0,2.514-.995c1.387-.812,3.135-2.281,2.884-4.054s-2.7-2.157-4.25-1.9c-.251.042-.58.062-.816.129A9.882,9.882,0,0,0,4.4,313.688c-.682.779-.477.92-.881,1.361a.417.417,0,0,0-.285-.37,5.416,5.416,0,0,1,1.891-2.433l-.518-.336a1.281,1.281,0,0,0-.157-.594l0-.866,0-.447.683.289a5.755,5.755,0,0,0,2.677.459l1.454-.45c.056-.017.194-.134.15-.144a14.848,14.848,0,0,1-3.016-.451,2.9,2.9,0,0,1-1.313-.713.67.67,0,0,1-.128-.735,3.182,3.182,0,0,1,1.728-1.021,8.235,8.235,0,0,1,1.26-.269l.935-.1a7,7,0,0,1,1.365,0l.941.09a7.8,7.8,0,0,1,1.837.454c.363.128,1.257.716.965,1.185a3.414,3.414,0,0,1-2.23,1.248l-.78.2,1.7.3c.612.11.578-.263,1.511-1.034.518-.428,1.183-.563,1.249-.833m-5.259,1.264c.263-.412.078-.134.941-.446.172-.062.452-.355.4-.553a.9.9,0,0,0-.66-.5l-1.438-.232-.169-.027c-.033-.005.1-.12.135-.123l1.232-.1a.709.709,0,0,0,.294-.159c.223-.22-.77-.283-.99-.347-.369-.107-.72-.246-1.041-.034-.21.474-.757.089-1.284.661-.124.135.042.535.213.6,1.213.487,1.3.028,2.07.426-.606.382-1.7-.064-1.878.408-.02.053.113.2.173.21l1.042.117a1.061,1.061,0,0,0,.957.1m5.382,3.192-.555-.257.309,1.352c2.481.9,7.172.28,8.631-2.127a1.777,1.777,0,0,0-.157-2.391,4.1,4.1,0,0,0-1.062-.7,7.169,7.169,0,0,0-2.952-.583c-2.13.006-4.9.7-6.2,2.474l.875.845a2.578,2.578,0,0,1,.994-1.271,7.544,7.544,0,0,1,4.517-1.179,4.5,4.5,0,0,1,2.618.868,1.315,1.315,0,0,1-.026,1.849c-1.577,1.586-5.1,2-6.992,1.116M20.9,311.4c0-.475-.676-.693-1.228-.694h-.913c-.056,0-.163-.194-.11-.211.035-.012.142-.047.185-.056l1.064-.219c.12-.025.3-.269.236-.353a.647.647,0,0,0-.355-.153l-.852-.017a3.005,3.005,0,0,0-1.91.864.594.594,0,0,0,.147.9,2.312,2.312,0,0,0,.931.16l1.112.011a.45.45,0,0,1-.224.287l-1.2.26a.5.5,0,0,0-.258.3c-.072.747,3.377.116,3.374-1.075" transform="translate(-2.934 -279.092)" fill="#fbaf06"/>
        <path id="Path_35641" data-name="Path 35641" d="M280.9,256.765a2.033,2.033,0,0,1,.231.011,1.778,1.778,0,0,0,.484.118l.992.126c1.574.2,3.92.844,4.522,2.394l-.044.635-.376-.205c-.122-.85-1.723-1.65-2.487-1.892a11.99,11.99,0,0,0-7.883.265c-.643.278-1.63.861-1.819,1.562a2.508,2.508,0,0,0,.072.977c-.154.122-.126.326-.12.558l.054,2.051c.016.617.6,1.071,1.1,1.362a9.5,9.5,0,0,0,3.151,1.063,1.285,1.285,0,0,0,.443.019l1.091.085.1.111,1.028-.089c1.894-.164,5.61-.816,5.625-3.274l.011-1.857c0-.087.242-.146.282-.12l.015.549-.01,2.405-.016.757a2,2,0,0,0-.037.261l-.076,1.086-.048.974c-.667,1.58-1.7,2.017-3.344,2.351l-.009-2.608c0-.07-.164-.158-.23-.145-.343.066-2.123.348-2.265.349l-1.56.013c-.228,0-.554-.012-.749-.033l-1.362-.28-.919-.189-.054.562a10.418,10.418,0,0,0,0,1.956c-.744-.155-.629-.6-1.491-.475a6.259,6.259,0,0,1-1.519-.059l.052-1.251a3.928,3.928,0,0,1,.017-1.153l1.35-.047a6.524,6.524,0,0,0-.886-.884c-.264-.647-.487-.694-.518-1.608l-.045-1.357,0-.737v-.45a6.185,6.185,0,0,0-.918.069l-.855.15a7.439,7.439,0,0,0-2.412.9l-.794.7a1.151,1.151,0,0,0-.31,1.138l.63.043a5.2,5.2,0,0,1,.3,2.4c-.032.23-.082.653.128.818a2.18,2.18,0,0,1-.47-.227l-.543-.392-.278-.558a3.853,3.853,0,0,1-.206-1.046l-.143-1.026c-.08-.572.428-1.213.456-1.6l.937-.709a3.459,3.459,0,0,1,.657-.331,11.921,11.921,0,0,1,3.113-.726c1.029-.109.422-.819.961-1.262l.7-.577a6.986,6.986,0,0,1,3.163-1.308,10.933,10.933,0,0,1,1.168-.2l1.029-.083Z" transform="translate(-242.978 -233.55)" fill="#f98d02"/>
        <path id="Path_35642" data-name="Path 35642" d="M410.084,293.359l.048-.974.076-1.086a1.989,1.989,0,0,1,.037-.261,4.218,4.218,0,0,0,1.586.015c1.087-.138,2.842-.49,3.512-1.357a1.074,1.074,0,0,0,.023-.865,1.876,1.876,0,0,0-.8-.731,12.687,12.687,0,0,0-3.727-.831.985.985,0,0,0-.585.058c-.04-.026-.282.033-.282.12l-.011,1.857c-.015,2.458-3.73,3.11-5.625,3.274l-1.028.089-.1-.111a1.937,1.937,0,0,1,.568-.083l.3-.013c.079,0,.119-.209.122-.287l.024-.611.029-2.128a11.591,11.591,0,0,0,3.459-.626c.852-.309,2.3-1.279,1.9-2.3l.376.2.044-.635c.173.05.109.677.279.708a3.1,3.1,0,0,0,.312.028,14.216,14.216,0,0,1,2.476.354c1.111.251,2.77.8,2.776,2.141l.009,2.007c0,.6-.7,1.13-1.193,1.305a11.18,11.18,0,0,1-4.066.723Z" transform="translate(-365.883 -260.211)" fill="#fbaf06"/>
        <path id="Path_35643" data-name="Path 35643" d="M212.3,393.417a4.847,4.847,0,0,1,2.1,1.309c.585.646.424,1.581.388,2.517-.053,1.381-1.244,2.073-2.444,2.477a10.71,10.71,0,0,1-3.479.6c-.742,0-1.453,0-2.183-.066-.4-.035-.823-.162-1.2-.234a7.139,7.139,0,0,1-2.159-.893l-.091-.637a6.64,6.64,0,0,1,.011-1.232l.636.274a9.282,9.282,0,0,0,2.506.687,12.043,12.043,0,0,0,6.142-.569,3.716,3.716,0,0,0,1.578-1.149,1.172,1.172,0,0,0,0-1.384,3.488,3.488,0,0,0-1.332-.985,12.865,12.865,0,0,0-9.238.1,3.7,3.7,0,0,1-.657.244l-.319-.1a7.813,7.813,0,0,1,4.664-1.515,14.668,14.668,0,0,1,4.109.288" transform="translate(-183.815 -357.32)" fill="#fbaf06"/>
        <path id="Path_35644" data-name="Path 35644" d="M69.645,213.14a1.237,1.237,0,0,1-.375-.256l-.423-.357a.888.888,0,0,0-.135-.346,14.973,14.973,0,0,1-2.243-3.591,14.435,14.435,0,0,1-1.213-4.487,4.753,4.753,0,0,1,.495.223l2.258,1.232,2.717,1.482a2.315,2.315,0,0,1-.021.861l-.395,2.032Z" transform="translate(-59.213 -185.649)" fill="#515050"/>
        <path id="Path_35645" data-name="Path 35645" d="M91.183,20.562,91,21.9l-.1.726-.112.714-.345,2.173L90.254,26.7l-.742.1-3.184.489-1.531.235a5.286,5.286,0,0,1-.836.06,4.29,4.29,0,0,1,.307-.618,16.115,16.115,0,0,1,4.355-4.925,10.1,10.1,0,0,1,2.56-1.477" transform="translate(-76.189 -18.703)" fill="#515050"/>
        <path id="Path_35646" data-name="Path 35646" d="M288.637,7.619l-.621.11-1.2.183-1.3.178-1.362.184-1.626.232-.172-.013-.689-1.48L279.85,3.318a2.42,2.42,0,0,1-.165-.452A15.782,15.782,0,0,1,284.8,4.628a16.169,16.169,0,0,1,3.584,2.613,1.524,1.524,0,0,1,.255.378" transform="translate(-253.795 -2.607)" fill="#515050"/>
        <path id="Path_35647" data-name="Path 35647" d="M382.905,149.257a14.189,14.189,0,0,1,.234,4.378,15.2,15.2,0,0,1-1.212,4.874,2.4,2.4,0,0,0-.144.48,2.039,2.039,0,0,0-.231-.011l-2.823-5.086a.455.455,0,0,1,.092-.5l.73-.753,1.486-1.523.884-.938.624-.675a1.372,1.372,0,0,1,.36-.244" transform="translate(-343.633 -135.763)" fill="#515050"/>
        <path id="Path_35648" data-name="Path 35648" d="M279.138,300.232c-1.069-.033-3.57.585-4.294,1.5a1.346,1.346,0,0,0-.153,1.166,2.951,2.951,0,0,0,1.36,1.176,4.063,4.063,0,0,0,1.594.556,11.008,11.008,0,0,0,1.595.231,3.927,3.927,0,0,0-.017,1.153l-.052,1.251a8.044,8.044,0,0,1-.853-.06L277,306.943A5.008,5.008,0,0,1,274.9,306c-.21-.165-.16-.588-.128-.818a5.194,5.194,0,0,0-.3-2.4l-.63-.043a1.152,1.152,0,0,1,.31-1.138l.794-.7a7.436,7.436,0,0,1,2.412-.9l.855-.15a6.173,6.173,0,0,1,.918-.069Z" transform="translate(-248.469 -272.678)" fill="#fbaf06"/>
        <path id="Path_35649" data-name="Path 35649" d="M239.566,312.892l.472.185c-.028.387-.536,1.028-.456,1.6l.143,1.026a3.851,3.851,0,0,0,.206,1.046l.278.558a11.56,11.56,0,0,1-2.572.242l-.745-.049a6.162,6.162,0,0,0-.112-.81l-.082-1.09a1.365,1.365,0,0,0,.229-.157l1.913-1.9a6.455,6.455,0,0,0,.542-.634Z" transform="translate(-214.787 -284.603)" fill="#515050"/>
        <path id="Path_35650" data-name="Path 35650" d="M416.823,364.935a4.636,4.636,0,0,1-.623.126l-.215.012c-.034,0-.019.09-.014.123l-.424.012-.372-.106-.034.186c-.1,0-.269-.009-.361,0l-.461-.1v-2.658c.142,0,1.922-.283,2.265-.349.066-.013.23.075.23.145Z" transform="translate(-375.966 -329.436)" fill="#fbaf06"/>
        <path id="Path_35651" data-name="Path 35651" d="M389,365.854v2.658l.461.1a8.8,8.8,0,0,1-3.044-.077l.234-.121c-.04-.678-.006-1.335.02-2.04l.02-.539c.195.021.522.035.749.033Z" transform="translate(-350.649 -332.758)" fill="#fbd73e"/>
        <path id="Path_35652" data-name="Path 35652" d="M366.049,361.114l-.02.539c-.026.7-.059,1.361-.02,2.04l-.234.121a2.075,2.075,0,0,0-.346-.015l-.061-.17c-.016-.045-.169.081-.156.089l-1.048-.3a2.264,2.264,0,0,1-.446-.25,10.432,10.432,0,0,1,0-1.956l.054-.562.919.189Z" transform="translate(-330.006 -328.039)" fill="#fbaf06"/>
        <path id="Path_35653" data-name="Path 35653" d="M19.743,294.547l.423.357a1.233,1.233,0,0,0,.375.256.957.957,0,0,0-.007.139,12.992,12.992,0,0,0-4.936-.485,9.864,9.864,0,0,0-4.449,1.318l-.009-.444a6.978,6.978,0,0,1,2.9-1.125,12.049,12.049,0,0,1,4.019-.208l1.322.15Z" transform="translate(-10.11 -267.669)" fill="#fbaf06"/>
        <path id="Path_35654" data-name="Path 35654" d="M.593,393.982A2.348,2.348,0,0,0,2.05,396.61a2.053,2.053,0,0,0,.148.645c.336.778.518.578.761,1.137a3.952,3.952,0,0,1-1.881-1.025c-.676-.7-1.531-2.993-.77-3.755a.417.417,0,0,1,.285.37" transform="translate(-0.009 -358.025)" fill="#f98d02"/>
        <path id="Path_35655" data-name="Path 35655" d="M194.749,408.859c.031.007.093.035.105.011l.024.175-.523.931a1.3,1.3,0,0,0,.152,1.076c.258.3.493.546.735.779a6.637,6.637,0,0,0-.011,1.232l.091.637c-1.6-.885-1.658-1.593-1.541-3.591a1.662,1.662,0,0,1,.969-1.251" transform="translate(-175.808 -371.894)" fill="#f98d02"/>
        <path id="Path_35656" data-name="Path 35656" d="M1.041,310.354l-.384.453A1.087,1.087,0,0,0,.9,312.284a3.781,3.781,0,0,0,.6.518l0,.447,0,.866a1.279,1.279,0,0,1,.157.594A2.332,2.332,0,0,1,.044,312.7L0,311.338a1.426,1.426,0,0,1,.3-.815,1.585,1.585,0,0,0,.531-.5c.054-.031.146-.086.2-.112Z" transform="translate(0 -281.891)" fill="#f98d02"/>
        <path id="Path_35657" data-name="Path 35657" d="M3.791,311.144a1.586,1.586,0,0,1-.531.5,1.644,1.644,0,0,1,.531-.5" transform="translate(-2.958 -283.013)" fill="#fbd73e"/>
        <path id="Path_35658" data-name="Path 35658" d="M423.607,394.592a.952.952,0,0,1-.406.08l.034-.186Z" transform="translate(-384.026 -358.82)" fill="#fbd73e"/>
        <path id="Path_35659" data-name="Path 35659" d="M380.542,393.718a.767.767,0,0,1-.217-.082c-.013-.008.14-.133.156-.089Z" transform="translate(-345.118 -357.958)" fill="#fbd73e"/>
        <path id="Path_35660" data-name="Path 35660" d="M432.322,394.034c0,.042-.034.132-.083.133l-.146,0c-.005-.033-.02-.121.014-.123Z" transform="translate(-392.088 -358.409)" fill="#fbd73e"/>
        <path id="Path_35661" data-name="Path 35661" d="M67.978,444.842c0,.042-.026.14-.076.141a1.45,1.45,0,0,0-.151,0c0-.032-.012-.117.022-.12Z" transform="translate(-61.476 -404.623)" fill="#f98d02"/>
        <path id="Path_35662" data-name="Path 35662" d="M195.839,126.7l0,.246a2.394,2.394,0,0,0-.27.217l-4.8,4.689c-.089.087-.36.211-.468.155l-.851-.434-2.274-1.145-3.465-1.744c0-.021.006-.062.009-.082l.467-3.126.273-1.9.382-2.292a7.762,7.762,0,0,0,.909-.077l1.856-.285.892-.134,1.12-.165.813-.119,1.139-.164a6.052,6.052,0,0,1,.969-.057l.943,1.838Z" transform="translate(-166.708 -109.404)" fill="#515050"/>
        <path id="Path_35663" data-name="Path 35663" d="M14.931,300.246c.667.612,1.345,1.209,2.068,1.756-.066.27-.731.4-1.249.833-.934.771-.9,1.144-1.512,1.034l-1.7-.305.78-.2a3.414,3.414,0,0,0,2.23-1.248c.292-.469-.6-1.057-.965-1.186a7.8,7.8,0,0,0-1.837-.454l-.941-.09a7.009,7.009,0,0,0-1.365,0l-.935.1a8.21,8.21,0,0,0-1.26.269,3.18,3.18,0,0,0-1.727,1.021.67.67,0,0,0,.128.735,2.9,2.9,0,0,0,1.313.713,14.85,14.85,0,0,0,3.016.451c.045.01-.093.126-.15.144l-1.454.45a5.755,5.755,0,0,1-2.677-.46l-.683-.289a3.778,3.778,0,0,1-.6-.518,1.087,1.087,0,0,1-.248-1.477l.384-.453A9.862,9.862,0,0,1,10,299.761a12.991,12.991,0,0,1,4.936.485" transform="translate(-4.507 -272.616)" fill="#fbd73e"/>
        <path id="Path_35664" data-name="Path 35664" d="M75.462,120.632c.008.073-.192.253-.257.227a.434.434,0,0,1-.213-.27l-.073-.925a10.268,10.268,0,0,1,0-1.879,11.611,11.611,0,0,1,.664-3.146c.085-.295.476-1.329.75-1.373.111-.018.226.232.183.335l-.482,1.173a11.317,11.317,0,0,0-.665,4.984Z" transform="translate(-67.945 -103.024)" fill="#fefefd"/>
        <path id="Path_35665" data-name="Path 35665" d="M188.2,8.993a11.926,11.926,0,0,0-5.606.786l-.843.308c-.067.024-.171-.265-.12-.314a1.191,1.191,0,0,1,.234-.18,11.221,11.221,0,0,1,3.692-1.019,7.1,7.1,0,0,1,2.74.024c.067.013.221.229.17.268a.69.69,0,0,1-.266.127" transform="translate(-164.806 -7.688)" fill="#fefefd"/>
        <path id="Path_35666" data-name="Path 35666" d="M379.512,78.165a.4.4,0,0,1-.149.275c-.076.039-.28-.089-.3-.181l-.274-1.2a10.9,10.9,0,0,0-2.374-4.395c-.063-.075-.075-.351,0-.359a.527.527,0,0,1,.328.1,12.1,12.1,0,0,1,2.767,5.76" transform="translate(-341.523 -65.767)" fill="#fefefd"/>
        <path id="Path_35667" data-name="Path 35667" d="M131.37,212.3c0,.02-.007.061-.009.082-.005.078-.036.288-.138.33l-2.833,1.162-2.023.822a.376.376,0,0,1-.341-.115.367.367,0,0,1,.17-.328l1.618-.648,2.685-1.1a2.2,2.2,0,0,1,.871-.2" transform="translate(-114.355 -193.106)" fill="#fefefd"/>
        <path id="Path_35668" data-name="Path 35668" d="M280.442,65.1l.172.013a1.144,1.144,0,0,1-.114.454L278,69.836a.571.571,0,0,1-.286.154c-.067.012-.174-.243-.131-.317l1.7-2.943.762-1.388a.592.592,0,0,1,.4-.244" transform="translate(-251.875 -59.211)" fill="#fefefd"/>
        <path id="Path_35669" data-name="Path 35669" d="M155.936,92.31c-.477.189-.742-.306-.914-.474l-1.3-1.268-.843-.8-.765-.713a.689.689,0,0,1-.246-.629.643.643,0,0,1,.389.124l.581.545,2.882,2.772a.7.7,0,0,1,.219.441" transform="translate(-137.799 -80.432)" fill="#fefefd"/>
        <path id="Path_35670" data-name="Path 35670" d="M314.7,191.525l0-.246c.379,0,.769.013,1.188.046l1.486.118,1.568.122,1.211.082a.689.689,0,0,1,.281.123c.048.034-.01.315-.069.314-.325-.006-.946-.044-1.324-.076l-1.121-.1-1.007-.085-1.114-.09a2.83,2.83,0,0,1-1.1-.214" transform="translate(-285.566 -173.985)" fill="#fefefd"/>
        <path id="Path_35671" data-name="Path 35671" d="M256.839,257.224l-.185.014a3.087,3.087,0,0,1-.137-.33l-.508-3.1-.276-1.836a.343.343,0,0,1,.127-.276c.071-.032.267.093.281.179l.211,1.289.378,2.44c.124.8.285,1.11.108,1.621" transform="translate(-232.06 -228.936)" fill="#fefefd"/>
        <path id="Path_35672" data-name="Path 35672" d="M7.742,355.932A2.348,2.348,0,0,1,6.286,353.3c.4-.442.2-.582.881-1.361a9.882,9.882,0,0,1,4.753-2.851c.236-.067.565-.087.816-.129,1.546-.259,4,.136,4.25,1.9s-1.5,3.242-2.884,4.054a10.424,10.424,0,0,1-2.514.994,6.48,6.48,0,0,1-3,.189Zm6.507-2.405c.852-.651,1.794-1.768,1.183-2.879a1.645,1.645,0,0,0-1.171-.708,5.767,5.767,0,0,0-2.836.278,7.21,7.21,0,0,0-3.277,2.135,2.018,2.018,0,0,0-.535,1.442c.067,1.1,1.507,1.372,2.448,1.315a7.631,7.631,0,0,0,4.189-1.582" transform="translate(-5.701 -317.348)" fill="#fbd73e"/>
        <path id="Path_35673" data-name="Path 35673" d="M116.793,327c1.9.879,5.414.47,6.992-1.116a1.315,1.315,0,0,0,.026-1.849,4.5,4.5,0,0,0-2.619-.868,7.543,7.543,0,0,0-4.517,1.179,2.577,2.577,0,0,0-.994,1.271l-.875-.845c1.3-1.779,4.072-2.468,6.2-2.474a7.172,7.172,0,0,1,2.952.583,4.1,4.1,0,0,1,1.062.7,1.777,1.777,0,0,1,.157,2.391c-1.459,2.406-6.151,3.023-8.631,2.127l-.309-1.352Z" transform="translate(-104.178 -293.162)" fill="#fbd73e"/>
        <path id="Path_35674" data-name="Path 35674" d="M154.637,340.248c0,1.192-3.446,1.822-3.374,1.075a.5.5,0,0,1,.258-.3l1.2-.26a.45.45,0,0,0,.224-.287l-1.112-.011a2.312,2.312,0,0,1-.931-.16.593.593,0,0,1-.147-.9,3.005,3.005,0,0,1,1.91-.864l.852.017a.647.647,0,0,1,.355.153c.065.084-.117.329-.236.353l-1.064.219c-.043.009-.149.044-.185.056-.053.018.054.211.11.211h.913c.552,0,1.227.219,1.228.694" transform="translate(-136.672 -307.936)" fill="#fbd73e"/>
        <path id="Path_35675" data-name="Path 35675" d="M52.437,312.535a1.061,1.061,0,0,1-.957-.1l-1.042-.117c-.06-.007-.193-.157-.173-.21.179-.472,1.272-.026,1.878-.409-.766-.4-.857.062-2.07-.426-.172-.069-.338-.469-.213-.6.527-.572,1.074-.187,1.284-.661.321-.212.672-.073,1.041.034.22.064,1.213.127.99.348a.71.71,0,0,1-.295.159l-1.231.1c-.032,0-.167.118-.135.123l.169.027,1.438.232a.9.9,0,0,1,.66.5c.05.2-.23.491-.4.553-.863.311-.679.034-.941.446" transform="translate(-45.205 -281.884)" fill="#fbd73e"/>
        <path id="Path_35676" data-name="Path 35676" d="M352.6,266.379c.4,1.024-1.046,1.994-1.9,2.3a11.594,11.594,0,0,1-3.459.626l-.029,2.128-.024.611c0,.078-.043.284-.122.287l-.3.013a1.938,1.938,0,0,0-.568.083l-1.091-.085a1.552,1.552,0,0,1-.084-.349l-.008-2.765-1.217-.2a6.722,6.722,0,0,1-2.273-.841c-.561-.327-.645-.652-1.041-.9a2.509,2.509,0,0,1-.072-.977c.189-.7,1.176-1.284,1.819-1.562a11.991,11.991,0,0,1,7.883-.265c.764.242,2.366,1.043,2.487,1.892m-6.88,1.879a8.581,8.581,0,0,0,1.685,0l.9-.1a3.773,3.773,0,0,0,2.808-1.323c.385-1.636-4.276-2.264-5.275-2.021-1.006-.059-3.939.519-3.9,1.7.029.867,1.311,1.3,2.082,1.482a6.465,6.465,0,0,0,.706.162Z" transform="translate(-308.877 -240.084)" fill="#fbd73e"/>
        <path id="Path_35677" data-name="Path 35677" d="M344.872,305.966a1.284,1.284,0,0,1-.443-.019,9.5,9.5,0,0,1-3.151-1.063c-.5-.291-1.079-.745-1.1-1.362l-.054-2.051c-.006-.232-.033-.436.12-.558.4.244.48.57,1.041.9a6.719,6.719,0,0,0,2.273.841l1.217.2.008,2.765a1.557,1.557,0,0,0,.084.349" transform="translate(-308.638 -273.706)" fill="#fbaf06"/>
        <path id="Path_35678" data-name="Path 35678" d="M286.994,304.742l0,.737a6.168,6.168,0,0,0-1.8.386,2.007,2.007,0,0,0-1.14.777.652.652,0,0,0,.083.741c.453.708,2.659,1.206,3.416,1.062a6.521,6.521,0,0,1,.887.884l-1.35.047a11,11,0,0,1-1.595-.232,4.062,4.062,0,0,1-1.594-.556,2.951,2.951,0,0,1-1.36-1.176,1.346,1.346,0,0,1,.153-1.166c.724-.919,3.225-1.536,4.294-1.5" transform="translate(-256.325 -277.189)" fill="#fbd73e"/>
        <path id="Path_35679" data-name="Path 35679" d="M479.243,302.895l.016-.757.831-.041a5.289,5.289,0,0,0,2.57-.666c.123-.073.359-.389.293-.52-.375-.746-2.038-.947-2.835-1.059l-.849-.119-.015-.549a.986.986,0,0,1,.585-.058,12.685,12.685,0,0,1,3.727.831,1.875,1.875,0,0,1,.8.731,1.075,1.075,0,0,1-.023.865c-.671.867-2.426,1.22-3.512,1.357a4.216,4.216,0,0,1-1.586-.015" transform="translate(-434.88 -272.068)" fill="#fbd73e"/>
        <path id="Path_35680" data-name="Path 35680" d="M301.753,312.907l.045,1.357c.03.914.254.961.518,1.608-.757.145-2.963-.353-3.416-1.062a.652.652,0,0,1-.083-.74,2.007,2.007,0,0,1,1.14-.777,6.172,6.172,0,0,1,1.8-.386" transform="translate(-271.081 -284.617)" fill="#fbaf06"/>
        <path id="Path_35681" data-name="Path 35681" d="M479.413,308.391l.01-2.405.849.119c.8.112,2.46.313,2.835,1.059.066.131-.171.448-.293.52a5.288,5.288,0,0,1-2.57.666Z" transform="translate(-435.034 -278.321)" fill="#fbaf06"/>
        <path id="Path_35682" data-name="Path 35682" d="M200.646,402.253c-.242-.233-.477-.479-.735-.779a1.3,1.3,0,0,1-.152-1.076l.523-.931a3.709,3.709,0,0,0,.657-.244,12.864,12.864,0,0,1,9.238-.1,3.49,3.49,0,0,1,1.332.986,1.172,1.172,0,0,1,0,1.384,3.716,3.716,0,0,1-1.578,1.149,12.043,12.043,0,0,1-6.142.569,9.283,9.283,0,0,1-2.506-.687Zm9.135-.716a.833.833,0,0,0,.407-1.066c-.641-1.076-2.694-1.311-3.888-1.441a11.2,11.2,0,0,0-3.471.4,3.7,3.7,0,0,0-1.388.707.724.724,0,0,0-.091,1.038c.817.932,1.8.911,3.009,1.224,1.772.094,3.873.076,5.422-.864" transform="translate(-181.212 -362.314)" fill="#fbd73e"/>
        <path id="Path_35683" data-name="Path 35683" d="M27.26,363.34a7.631,7.631,0,0,1-4.189,1.582c-.94.057-2.381-.217-2.448-1.314a2.017,2.017,0,0,1,.535-1.442,7.21,7.21,0,0,1,3.277-2.135,5.767,5.767,0,0,1,2.836-.278,1.645,1.645,0,0,1,1.171.708c.611,1.111-.33,2.229-1.183,2.879m-3.389.245c-.068.052-.112.329-.044.369.418.244.735-.09,1.172-.082a1.457,1.457,0,0,0,.72-.058c.133-.058.189-.376.268-.484.15-.2,1.107-1.052.567-1.571-.637-.613-2.033.322-2.425.012.4-.49,1.753-.708,1.486-1.1a.511.511,0,0,0-.384-.147l-.674.2a.649.649,0,0,0-.653-.051c-.166.071-.249.34-.358.472-.25.3-.719.583-.815,1a.874.874,0,0,0,.227.629,1.38,1.38,0,0,0,.971.128l.98-.219c.039-.009.194-.016.233-.018s.053.132.062.208c-.6.417-.767.278-1.335.706" transform="translate(-18.711 -327.16)" fill="#fbaf06"/>
        <path id="Path_35684" data-name="Path 35684" d="M361.009,276.483l-.991-.093a6.472,6.472,0,0,1-.706-.162c-.771-.18-2.053-.615-2.082-1.482-.039-1.185,2.894-1.764,3.9-1.7,1-.242,5.66.385,5.275,2.021a3.773,3.773,0,0,1-2.808,1.323l-.9.1a8.588,8.588,0,0,1-1.685,0m1.416-.491.635-.151c.236-.056.64-.336.629-.549-.026-.506-.492-.634-.863-.714l-1.013-.219a.111.111,0,0,1-.006-.21l.923.009c.161,0,.44-.272.307-.414a1.128,1.128,0,0,0-.6-.212c-1.311.01-1.058-.1-2.1.338a.716.716,0,0,0-.312.434.654.654,0,0,0,.285.467c.964.494,1.505.161,1.727.624l-1.464.019c-.1,0-.3.136-.289.224.011.07.1.255.175.272.794.185.68-.14,1.06.32a.625.625,0,0,0,.631.023c.052-.043.205-.246.27-.262" transform="translate(-324.161 -248.309)" fill="#fbaf06"/>
        <path id="Path_35685" data-name="Path 35685" d="M224.244,408.322c-1.549.94-3.649.958-5.422.864-1.206-.312-2.192-.292-3.009-1.224a.724.724,0,0,1,.091-1.038,3.7,3.7,0,0,1,1.388-.707,11.19,11.19,0,0,1,3.471-.4c1.193.13,3.247.365,3.888,1.441a.833.833,0,0,1-.407,1.066m-3.566.39c.529-.068,1.441-.3,1.508-.734.039-.256-.3-.558-.628-.639l-.66-.16-.749-.2,1.511-.064a.375.375,0,0,0,.285-.188c.017-.07-.036-.31-.107-.321-.972-.15-.519.052-1.082-.222a1.055,1.055,0,0,0-.786.013c-.658.481-.138-.028-1.221.363-.145.052-.438.318-.417.47.053.387.466.6.8.657l1.319.238c-.723.47-1.329-.106-2.023.269-.083.287.213.464.449.477l.606.033a.786.786,0,0,0,.611.269,1.015,1.015,0,0,0,.587-.262" transform="translate(-195.675 -369.1)" fill="#fbaf06"/>
        <path id="Path_35686" data-name="Path 35686" d="M44.518,372.091c.567-.427.738-.289,1.335-.706-.009-.076-.022-.21-.062-.208s-.195.009-.233.018l-.98.219a1.381,1.381,0,0,1-.971-.128.874.874,0,0,1-.227-.629c.1-.414.564-.693.815-1,.109-.132.192-.4.358-.472a.649.649,0,0,1,.653.051l.674-.2a.511.511,0,0,1,.384.147c.267.387-1.084.606-1.486,1.1.392.309,1.788-.625,2.425-.012.539.519-.417,1.366-.567,1.571-.079.108-.135.425-.268.484a1.458,1.458,0,0,1-.72.058c-.438-.008-.754.326-1.172.082-.068-.04-.024-.318.044-.369" transform="translate(-39.359 -335.666)" fill="#fbd73e"/>
        <path id="Path_35687" data-name="Path 35687" d="M389.878,281.382c-.064.015-.217.218-.27.262a.625.625,0,0,1-.631-.023c-.38-.46-.266-.136-1.06-.32-.071-.017-.164-.2-.175-.272-.014-.088.192-.223.289-.224l1.464-.019c-.222-.463-.764-.13-1.727-.624a.654.654,0,0,1-.285-.467.716.716,0,0,1,.312-.434c1.038-.44.785-.327,2.1-.338a1.128,1.128,0,0,1,.6.212c.133.142-.146.415-.307.414l-.923-.01a.111.111,0,0,0,.006.21l1.013.219c.371.08.837.208.863.714.011.213-.393.493-.629.549Z" transform="translate(-351.614 -253.7)" fill="#fbd73e"/>
        <path id="Path_35688" data-name="Path 35688" d="M247.092,412.005a1.015,1.015,0,0,1-.587.262.786.786,0,0,1-.611-.269l-.606-.033c-.236-.013-.532-.19-.449-.477.693-.375,1.3.2,2.023-.269l-1.319-.238c-.331-.06-.743-.27-.8-.657-.021-.152.273-.418.417-.47,1.083-.391.562.118,1.221-.363a1.055,1.055,0,0,1,.786-.013c.563.274.11.072,1.082.221.071.011.124.251.107.321a.375.375,0,0,1-.285.188l-1.511.064.749.2.66.161c.332.081.668.383.628.639-.066.432-.978.665-1.508.734" transform="translate(-222.089 -372.393)" fill="#fbd73e"/>
      </g>
    </g>
  </g>
</svg>
