<svg xmlns="http://www.w3.org/2000/svg" xmlns:xlink="http://www.w3.org/1999/xlink" width="60" height="60" viewBox="0 0 60 60">
  <defs>
    <clipPath id="clip-path">
      <rect id="Rectangle_24513" data-name="Rectangle 24513" width="58" height="50.267" fill="none"/>
    </clipPath>
    <clipPath id="clip-Sport_Bonus_Icon_-_Mobile_Desktop">
      <rect width="60" height="60"/>
    </clipPath>
  </defs>
  <g id="Sport_Bonus_Icon_-_Mobile_Desktop" data-name="Sport Bonus Icon - Mobile – Desktop" clip-path="url(#clip-Sport_Bonus_Icon_-_Mobile_Desktop)">
    <g id="Component_21_2" data-name="Component 21 – 2" transform="translate(1 5)">
      <g id="Group_60497" data-name="Group 60497" clip-path="url(#clip-path)">
        <path id="Path_35639" data-name="Path 35639" d="M86.718.3a2.839,2.839,0,0,0,.192.529L89.024,5.15l.8,1.73a.686.686,0,0,0-.461.285l-.884,1.622L86.5,12.228c-.05.087.074.385.152.371a.661.661,0,0,0,.331-.179l2.9-4.994a1.345,1.345,0,0,0,.133-.53l1.885-.271,1.581-.215L95,6.2l1.386-.213.72-.129a17.737,17.737,0,0,1,3.872,5.545,15.21,15.21,0,0,1,1.268,4.37,1.593,1.593,0,0,0-.418.285l-.724.789-1.026,1.1-1.724,1.78-.847.881a.535.535,0,0,0-.107.586l3.275,5.946-1.086.07-1.193.1a12.579,12.579,0,0,0-1.355.237,8.068,8.068,0,0,0-3.669,1.529l-.814.674c-.625.518.078,1.348-1.115,1.475a13.747,13.747,0,0,0-3.611.848,4.014,4.014,0,0,0-.762.387l-1.087.829-.548-.216c.206-.6.019-.962-.125-1.9l-.439-2.852-.245-1.506c-.016-.1-.244-.246-.326-.209a.4.4,0,0,0-.148.322l.32,2.146.589,3.624a3.556,3.556,0,0,0,.158.386,7.551,7.551,0,0,1-.628.741L82.368,36.05a1.578,1.578,0,0,1-.266.183,9.746,9.746,0,0,0-.651-.952c-1.382-1.635-4.274-2-6.316-1.808a12.564,12.564,0,0,0-3.527.783,2.893,2.893,0,0,1-.432.1c-.838-.64-1.625-1.338-2.4-2.053a1.141,1.141,0,0,1,.008-.163l.771-3.75.458-2.376A2.727,2.727,0,0,0,70.041,25l-3.152-1.733-2.619-1.44a5.5,5.5,0,0,0-.574-.261A18.391,18.391,0,0,1,65.7,10.379a6.085,6.085,0,0,0,.97-.07l1.776-.275,3.694-.571L73,9.347a.809.809,0,0,0,.285.735l.887.833.978.934,1.512,1.482c.2.2.507.775,1.06.554l-.443,2.679-.316,2.219-.542,3.654a2.541,2.541,0,0,0-1.01.233L72.3,23.963l-1.877.758a.43.43,0,0,0-.2.383.435.435,0,0,0,.4.134l2.346-.961,3.287-1.358c.118-.049.154-.3.16-.386l4.02,2.039,2.638,1.339.987.508c.126.065.44-.08.543-.182l5.567-5.481a2.779,2.779,0,0,1,.313-.253,3.257,3.257,0,0,0,1.272.25l1.292.105,1.168.1,1.3.111c.439.038,1.159.081,1.536.088.069,0,.136-.327.08-.367a.8.8,0,0,0-.326-.144l-1.405-.1-1.819-.142-1.724-.138c-.486-.039-.938-.058-1.378-.054l-2.731-5.354-1.094-2.149a6.98,6.98,0,0,0-1.124.067l-1.321.191-.943.139-1.3.193-1.035.157-2.153.333a8.938,8.938,0,0,1-1.054.091.818.818,0,0,0-.254-.515l-3.343-3.241-.675-.637A.742.742,0,0,0,73,9.347l.219-1.384.4-2.54.13-.835.121-.849.207-1.567a3.638,3.638,0,0,1,.309-.216A20.254,20.254,0,0,1,85.382.1c.466.039.916.138,1.336.2M83.824,1.525a.8.8,0,0,0,.309-.148c.059-.046-.12-.3-.2-.314a8.173,8.173,0,0,0-3.178-.028,12.938,12.938,0,0,0-4.282,1.191,1.382,1.382,0,0,0-.272.211c-.058.058.062.4.14.368l.978-.36c2.827-1.042,3.6-.939,6.5-.919m16.928,12.968a14.184,14.184,0,0,0-3.21-6.733.609.609,0,0,0-.381-.118c-.09.009-.076.332,0,.42A12.777,12.777,0,0,1,99.913,13.2l.317,1.4c.024.107.262.256.349.211a.473.473,0,0,0,.173-.322m-35.347,6.09L65.3,19.56a13.325,13.325,0,0,1,.771-5.826l.559-1.371c.049-.12-.084-.412-.213-.391-.319.051-.772,1.26-.87,1.6a13.663,13.663,0,0,0-.77,3.678,12.1,12.1,0,0,0,0,2.2l.085,1.081a.507.507,0,0,0,.247.316c.075.031.307-.18.3-.265" transform="translate(-56.686 0.001)" fill="#d6e6f2"/>
        <path id="Path_35640" data-name="Path 35640" d="M17.376,308.757a2.889,2.889,0,0,0,.432-.1,12.561,12.561,0,0,1,3.527-.783c2.042-.188,4.933.173,6.316,1.808a9.744,9.744,0,0,1,.651.952l.095,1.274a7.255,7.255,0,0,1,.13.947,4.025,4.025,0,0,1-.852,2.324,6.4,6.4,0,0,1-2.09,1.509,12.251,12.251,0,0,1-4.419,1.171,8.959,8.959,0,0,1-4.392-.691,10.608,10.608,0,0,1-5.907,4.182,2.892,2.892,0,0,1-.44.065l-.238.021c-.039,0-.029.1-.025.141a7.776,7.776,0,0,1-3.856.011c-.281-.654-.493-.42-.882-1.329a2.417,2.417,0,0,1-.172-.754l.98.2a7.463,7.463,0,0,0,3.481-.221,12.04,12.04,0,0,0,2.916-1.163c1.609-.949,3.636-2.666,3.346-4.739s-3.137-2.522-4.93-2.22c-.291.049-.672.073-.946.151a11.447,11.447,0,0,0-5.514,3.333c-.791.911-.554,1.075-1.022,1.591A.487.487,0,0,0,3.233,316c.155-.952,1.352-2.135,2.194-2.844l-.6-.393a1.506,1.506,0,0,0-.182-.695l-.005-1.012,0-.523.792.338a6.63,6.63,0,0,0,3.1.537l1.687-.526c.066-.02.225-.157.174-.168a17.1,17.1,0,0,1-3.5-.527,3.353,3.353,0,0,1-1.523-.833.788.788,0,0,1-.149-.859,3.686,3.686,0,0,1,2-1.194,9.488,9.488,0,0,1,1.461-.315l1.085-.118a8.064,8.064,0,0,1,1.583,0l1.091.105a9,9,0,0,1,2.13.531c.422.15,1.458.837,1.12,1.386a3.953,3.953,0,0,1-2.587,1.459l-.9.23,1.969.356c.71.129.67-.308,1.753-1.208.6-.5,1.373-.658,1.449-.973m-6.1,1.478c.3-.481.091-.157,1.092-.521.2-.073.524-.415.466-.646a1.045,1.045,0,0,0-.765-.582l-1.669-.271-.2-.032c-.038-.006.118-.141.156-.144l1.429-.12a.821.821,0,0,0,.342-.186c.259-.257-.893-.331-1.148-.406-.428-.125-.835-.288-1.207-.04-.243.554-.878.1-1.489.772-.144.158.048.625.248.706,1.407.57,1.512.033,2.4.5-.7.447-1.971-.075-2.178.477-.023.061.131.237.2.245l1.209.137a1.223,1.223,0,0,0,1.111.111m6.243,3.731-.644-.3.358,1.58c2.878,1.048,8.32.327,10.012-2.486a2.089,2.089,0,0,0-.182-2.8,4.747,4.747,0,0,0-1.232-.814,8.261,8.261,0,0,0-3.425-.682c-2.47.007-5.682.813-7.194,2.892l1.015.988a3.01,3.01,0,0,1,1.153-1.486,8.7,8.7,0,0,1,5.24-1.378A5.193,5.193,0,0,1,25.66,310.5a1.546,1.546,0,0,1-.03,2.162c-1.83,1.854-5.912,2.332-8.11,1.3m6.206-1.789c0-.555-.785-.811-1.425-.811h-1.06c-.065,0-.19-.226-.128-.247.041-.014.164-.055.214-.065l1.234-.256c.139-.029.349-.315.274-.413a.747.747,0,0,0-.412-.179l-.988-.02a3.474,3.474,0,0,0-2.216,1.01.7.7,0,0,0,.17,1.048,2.663,2.663,0,0,0,1.08.187l1.29.012a.525.525,0,0,1-.26.336l-1.39.3a.585.585,0,0,0-.3.351c-.083.874,3.917.136,3.914-1.257" transform="translate(-2.886 -274.404)" fill="#fbaf06"/>
        <path id="Path_35641" data-name="Path 35641" d="M283,256.766a2.328,2.328,0,0,1,.268.012,2.05,2.05,0,0,0,.561.137l1.15.148c1.826.235,4.547.986,5.246,2.8l-.051.743-.437-.24c-.141-.993-2-1.929-2.885-2.212a13.808,13.808,0,0,0-9.145.31c-.745.325-1.891,1.007-2.11,1.826a2.953,2.953,0,0,0,.084,1.142c-.178.143-.147.381-.14.652l.062,2.4c.019.721.7,1.252,1.271,1.592a10.957,10.957,0,0,0,3.655,1.243,1.479,1.479,0,0,0,.514.023l1.265.1.12.129,1.193-.1c2.2-.192,6.508-.954,6.525-3.827l.013-2.171c0-.1.281-.17.327-.14l.017.641-.012,2.812-.018.885a2.352,2.352,0,0,0-.043.3l-.088,1.27-.056,1.139c-.774,1.847-1.974,2.358-3.879,2.749l-.011-3.048c0-.082-.191-.184-.267-.169-.4.077-2.462.406-2.628.408l-1.81.015c-.264,0-.643-.014-.869-.039l-1.58-.327-1.066-.221-.062.657a12.27,12.27,0,0,0,0,2.287c-.864-.181-.73-.7-1.729-.555a7.2,7.2,0,0,1-1.762-.069l.06-1.463a4.625,4.625,0,0,1,.02-1.348l1.567-.055a7.593,7.593,0,0,0-1.028-1.033c-.306-.757-.565-.811-.6-1.88l-.053-1.586,0-.862v-.526a7.122,7.122,0,0,0-1.065.081l-.991.175a8.589,8.589,0,0,0-2.8,1.053l-.921.824a1.353,1.353,0,0,0-.359,1.33l.73.051a6.118,6.118,0,0,1,.343,2.8c-.037.269-.1.763.148.956a2.52,2.52,0,0,1-.545-.266l-.63-.458-.322-.652a4.533,4.533,0,0,1-.239-1.222l-.166-1.2c-.092-.668.5-1.418.529-1.87l1.087-.829a4,4,0,0,1,.762-.387,13.738,13.738,0,0,1,3.611-.848c1.193-.127.49-.957,1.115-1.475l.814-.674a8.07,8.07,0,0,1,3.669-1.529,12.579,12.579,0,0,1,1.355-.237l1.193-.1Z" transform="translate(-239.012 -229.627)" fill="#f98d02"/>
        <path id="Path_35642" data-name="Path 35642" d="M411.185,294.59l.056-1.139.088-1.27a2.335,2.335,0,0,1,.043-.3,4.856,4.856,0,0,0,1.84.017c1.261-.161,3.3-.573,4.074-1.587a1.265,1.265,0,0,0,.027-1.011,2.183,2.183,0,0,0-.926-.855,14.62,14.62,0,0,0-4.323-.972,1.135,1.135,0,0,0-.678.068c-.046-.03-.327.038-.327.14l-.013,2.17c-.017,2.873-4.327,3.635-6.525,3.827l-1.193.1-.12-.129a2.232,2.232,0,0,1,.659-.1l.353-.015c.091,0,.138-.244.142-.336l.028-.714.033-2.487a13.353,13.353,0,0,0,4.013-.732c.988-.361,2.669-1.5,2.2-2.692l.437.24.051-.743c.2.058.126.791.323.828a3.565,3.565,0,0,0,.362.033,16.372,16.372,0,0,1,2.872.414c1.289.293,3.214.932,3.22,2.5l.01,2.346c0,.7-.807,1.322-1.384,1.526a12.879,12.879,0,0,1-4.717.845Z" transform="translate(-359.911 -255.84)" fill="#fbaf06"/>
        <path id="Path_35643" data-name="Path 35643" d="M213.862,393.515a5.616,5.616,0,0,1,2.439,1.531c.679.755.492,1.848.45,2.943-.062,1.615-1.443,2.423-2.835,2.9a12.339,12.339,0,0,1-4.036.7c-.861,0-1.685,0-2.532-.077-.458-.041-.954-.189-1.392-.274a8.246,8.246,0,0,1-2.5-1.044l-.105-.745a7.822,7.822,0,0,1,.013-1.44l.738.32a10.7,10.7,0,0,0,2.907.8,13.87,13.87,0,0,0,7.125-.666,4.313,4.313,0,0,0,1.831-1.343,1.379,1.379,0,0,0,0-1.618,4.049,4.049,0,0,0-1.546-1.152,14.817,14.817,0,0,0-10.716.112,4.273,4.273,0,0,1-.762.285l-.371-.117a9.02,9.02,0,0,1,5.41-1.771,16.89,16.89,0,0,1,4.766.337" transform="translate(-180.815 -351.318)" fill="#fbaf06"/>
        <path id="Path_35644" data-name="Path 35644" d="M70.348,214.667a1.433,1.433,0,0,1-.436-.3l-.49-.417a1.043,1.043,0,0,0-.156-.405,17.525,17.525,0,0,1-2.6-4.2,16.978,16.978,0,0,1-1.407-5.246,5.489,5.489,0,0,1,.574.261l2.619,1.44,3.152,1.733a2.726,2.726,0,0,1-.025,1.006l-.458,2.376Z" transform="translate(-58.247 -182.53)" fill="#515050"/>
        <path id="Path_35645" data-name="Path 35645" d="M92.339,20.562l-.207,1.567-.121.849-.13.835-.4,2.54-.219,1.384-.861.115-3.694.571-1.776.275a6.086,6.086,0,0,1-.97.07,5.031,5.031,0,0,1,.356-.722,18.793,18.793,0,0,1,5.052-5.757,11.7,11.7,0,0,1,2.97-1.727" transform="translate(-74.945 -18.389)" fill="#515050"/>
        <path id="Path_35646" data-name="Path 35646" d="M290.069,8.422l-.721.129-1.386.213-1.507.208-1.58.215-1.886.271-.2-.016-.8-1.73-2.114-4.318a2.845,2.845,0,0,1-.192-.529,18.213,18.213,0,0,1,5.93,2.06,18.762,18.762,0,0,1,4.158,3.055,1.783,1.783,0,0,1,.3.441" transform="translate(-249.653 -2.563)" fill="#515050"/>
        <path id="Path_35647" data-name="Path 35647" d="M383.58,149.257a16.712,16.712,0,0,1,.271,5.118,17.877,17.877,0,0,1-1.406,5.7,2.819,2.819,0,0,0-.167.561,2.351,2.351,0,0,0-.268-.013l-3.275-5.946a.535.535,0,0,1,.107-.586l.847-.881,1.724-1.78,1.026-1.1.724-.789a1.592,1.592,0,0,1,.418-.285" transform="translate(-338.024 -133.482)" fill="#515050"/>
        <path id="Path_35648" data-name="Path 35648" d="M279.989,300.308c-1.24-.039-4.141.684-4.981,1.757a1.584,1.584,0,0,0-.177,1.363,3.432,3.432,0,0,0,1.578,1.375,4.691,4.691,0,0,0,1.849.65,12.68,12.68,0,0,0,1.85.271,4.625,4.625,0,0,0-.02,1.348l-.06,1.463a9.267,9.267,0,0,1-.989-.07l-1.533-.311a5.788,5.788,0,0,1-2.43-1.1c-.244-.193-.185-.688-.148-.956a6.115,6.115,0,0,0-.343-2.8l-.73-.051a1.353,1.353,0,0,1,.359-1.33l.921-.824a8.585,8.585,0,0,1,2.8-1.053l.991-.175a7.106,7.106,0,0,1,1.065-.081Z" transform="translate(-244.413 -268.098)" fill="#fbaf06"/>
        <path id="Path_35649" data-name="Path 35649" d="M240.025,312.892l.548.216c-.033.452-.621,1.2-.529,1.87l.166,1.2a4.531,4.531,0,0,0,.239,1.222l.322.652a13.311,13.311,0,0,1-2.983.283l-.864-.057a7.254,7.254,0,0,0-.13-.947l-.095-1.274a1.586,1.586,0,0,0,.266-.183l2.219-2.224a7.536,7.536,0,0,0,.628-.741Z" transform="translate(-211.281 -279.822)" fill="#515050"/>
        <path id="Path_35650" data-name="Path 35650" d="M417.224,365.4a5.338,5.338,0,0,1-.723.147l-.249.014c-.039,0-.022.1-.016.143l-.492.014-.431-.124-.039.218c-.116,0-.312-.01-.418,0l-.535-.115v-3.107c.165,0,2.229-.331,2.627-.408.076-.015.267.088.267.169Z" transform="translate(-369.83 -323.903)" fill="#fbaf06"/>
        <path id="Path_35651" data-name="Path 35651" d="M389.415,365.857v3.107l.535.115a10.136,10.136,0,0,1-3.531-.09l.271-.142c-.046-.793-.007-1.56.023-2.384l.023-.63c.226.024.605.041.869.038Z" transform="translate(-344.926 -327.169)" fill="#fbd73e"/>
        <path id="Path_35652" data-name="Path 35652" d="M366.429,361.193l-.023.63c-.03.824-.069,1.591-.023,2.384l-.271.142a2.39,2.39,0,0,0-.4-.017l-.07-.2c-.019-.052-.2.095-.181.1l-1.216-.355a2.621,2.621,0,0,1-.518-.292,12.285,12.285,0,0,1,0-2.287l.062-.657,1.066.221Z" transform="translate(-324.619 -322.528)" fill="#fbaf06"/>
        <path id="Path_35653" data-name="Path 35653" d="M21.119,294.593l.49.417a1.43,1.43,0,0,0,.436.3,1.128,1.128,0,0,0-.008.163,14.96,14.96,0,0,0-5.725-.568,11.377,11.377,0,0,0-5.16,1.541l-.01-.519a8.058,8.058,0,0,1,3.368-1.315,13.871,13.871,0,0,1,4.662-.243l1.533.176Z" transform="translate(-9.945 -263.173)" fill="#fbaf06"/>
        <path id="Path_35654" data-name="Path 35654" d="M.687,394.045a2.749,2.749,0,0,0,1.69,3.072,2.416,2.416,0,0,0,.172.754c.39.91.6.675.882,1.329A4.574,4.574,0,0,1,1.249,398c-.784-.815-1.776-3.5-.893-4.39a.487.487,0,0,1,.331.433" transform="translate(-0.009 -352.011)" fill="#f98d02"/>
        <path id="Path_35655" data-name="Path 35655" d="M194.911,408.859c.036.008.108.041.122.013l.027.2-.607,1.089a1.525,1.525,0,0,0,.177,1.258c.3.351.572.638.853.911a7.818,7.818,0,0,0-.013,1.44l.105.745c-1.861-1.034-1.924-1.863-1.788-4.2a1.94,1.94,0,0,1,1.124-1.462" transform="translate(-172.938 -365.647)" fill="#f98d02"/>
        <path id="Path_35656" data-name="Path 35656" d="M1.207,310.429l-.445.529a1.277,1.277,0,0,0,.287,1.727,4.4,4.4,0,0,0,.7.605l0,.523.005,1.012a1.5,1.5,0,0,1,.182.695,2.721,2.721,0,0,1-1.889-2.346L0,311.579a1.675,1.675,0,0,1,.35-.953,1.845,1.845,0,0,0,.616-.585c.063-.036.17-.1.23-.13Z" transform="translate(0 -277.156)" fill="#f98d02"/>
        <path id="Path_35657" data-name="Path 35657" d="M3.876,311.144a1.845,1.845,0,0,1-.616.585,1.913,1.913,0,0,1,.616-.585" transform="translate(-2.91 -278.259)" fill="#fbd73e"/>
        <path id="Path_35658" data-name="Path 35658" d="M423.671,394.61a1.1,1.1,0,0,1-.47.094l.039-.218Z" transform="translate(-377.758 -352.793)" fill="#fbd73e"/>
        <path id="Path_35659" data-name="Path 35659" d="M380.577,393.749a.886.886,0,0,1-.252-.1c-.015-.009.163-.156.181-.1Z" transform="translate(-339.485 -351.945)" fill="#fbd73e"/>
        <path id="Path_35660" data-name="Path 35660" d="M432.36,394.034c-.005.05-.039.154-.1.155l-.169,0c-.006-.038-.023-.141.016-.143Z" transform="translate(-385.688 -352.388)" fill="#fbd73e"/>
        <path id="Path_35661" data-name="Path 35661" d="M68.015,444.842c0,.049-.03.164-.088.164a1.648,1.648,0,0,0-.175,0c0-.037-.014-.137.025-.141Z" transform="translate(-60.473 -397.827)" fill="#f98d02"/>
        <path id="Path_35662" data-name="Path 35662" d="M197.779,127.783l0,.287a2.779,2.779,0,0,0-.313.253L191.9,133.8c-.1.1-.418.246-.543.182l-.987-.508-2.638-1.339-4.02-2.039c0-.024.007-.072.01-.1l.542-3.654.316-2.219.443-2.679a8.935,8.935,0,0,0,1.054-.091l2.153-.333,1.035-.157,1.3-.193.943-.139,1.321-.191a6.966,6.966,0,0,1,1.124-.067l1.094,2.149Z" transform="translate(-163.987 -107.566)" fill="#515050"/>
        <path id="Path_35663" data-name="Path 35663" d="M16.526,300.336c.774.715,1.56,1.413,2.4,2.053-.076.315-.848.473-1.449.973-1.083.9-1.043,1.337-1.753,1.209l-1.969-.357.9-.23a3.953,3.953,0,0,0,2.587-1.458c.339-.549-.7-1.236-1.12-1.386a8.99,8.99,0,0,0-2.13-.531L12.9,300.5a8.067,8.067,0,0,0-1.583,0l-1.085.118a9.459,9.459,0,0,0-1.461.315,3.684,3.684,0,0,0-2,1.194.788.788,0,0,0,.149.859,3.353,3.353,0,0,0,1.523.833,17.1,17.1,0,0,0,3.5.527c.052.012-.108.148-.174.168l-1.687.526a6.63,6.63,0,0,1-3.1-.537l-.792-.338a4.392,4.392,0,0,1-.7-.605,1.277,1.277,0,0,1-.288-1.727l.445-.529a11.376,11.376,0,0,1,5.16-1.541,14.96,14.96,0,0,1,5.725.567" transform="translate(-4.433 -268.037)" fill="#fbd73e"/>
        <path id="Path_35664" data-name="Path 35664" d="M75.556,121.877c.009.085-.223.3-.3.265a.507.507,0,0,1-.247-.316l-.084-1.081a12.1,12.1,0,0,1,0-2.2,13.664,13.664,0,0,1,.77-3.678c.1-.345.552-1.554.87-1.6.129-.021.262.271.213.391l-.559,1.371a13.324,13.324,0,0,0-.771,5.826Z" transform="translate(-66.836 -101.293)" fill="#fefefd"/>
        <path id="Path_35665" data-name="Path 35665" d="M189.254,9.084c-2.906-.019-3.676-.123-6.5.919l-.978.36c-.078.029-.2-.31-.14-.368a1.383,1.383,0,0,1,.272-.211,12.939,12.939,0,0,1,4.283-1.191,8.174,8.174,0,0,1,3.178.028c.077.016.256.268.2.314a.8.8,0,0,1-.309.148" transform="translate(-162.116 -7.559)" fill="#fefefd"/>
        <path id="Path_35666" data-name="Path 35666" d="M380.015,79.156a.474.474,0,0,1-.173.322c-.088.045-.325-.1-.349-.211l-.317-1.4a12.776,12.776,0,0,0-2.754-5.137c-.073-.088-.087-.41,0-.42a.609.609,0,0,1,.381.118,14.185,14.185,0,0,1,3.21,6.733" transform="translate(-335.949 -64.662)" fill="#fefefd"/>
        <path id="Path_35667" data-name="Path 35667" d="M132.226,212.3c0,.023-.008.071-.01.1-.006.091-.042.337-.16.386l-3.287,1.358-2.346.961a.28.28,0,1,1-.2-.518l1.877-.758,3.115-1.292a2.54,2.54,0,0,1,1.01-.234" transform="translate(-112.489 -189.862)" fill="#fefefd"/>
        <path id="Path_35668" data-name="Path 35668" d="M280.9,65.1l.2.016a1.346,1.346,0,0,1-.133.53l-2.9,4.994a.661.661,0,0,1-.331.179c-.078.014-.2-.284-.152-.371L279.556,67l.884-1.623a.686.686,0,0,1,.461-.285" transform="translate(-247.764 -58.216)" fill="#fefefd"/>
        <path id="Path_35669" data-name="Path 35669" d="M156.588,92.967c-.554.221-.861-.358-1.06-.554l-1.512-1.482L153.038,90l-.887-.833a.809.809,0,0,1-.285-.735.742.742,0,0,1,.451.145l.675.637,3.343,3.241a.818.818,0,0,1,.254.515" transform="translate(-135.55 -79.081)" fill="#fefefd"/>
        <path id="Path_35670" data-name="Path 35670" d="M314.7,191.566l0-.287c.44,0,.892.015,1.378.054l1.724.138,1.819.143,1.405.1a.8.8,0,0,1,.326.144c.055.04-.012.369-.08.367-.377-.007-1.1-.051-1.536-.089l-1.3-.111-1.168-.1-1.292-.105a3.261,3.261,0,0,1-1.272-.25" transform="translate(-280.905 -171.062)" fill="#fefefd"/>
        <path id="Path_35671" data-name="Path 35671" d="M257.016,258.16l-.214.016a3.626,3.626,0,0,1-.158-.386l-.589-3.624-.32-2.146a.4.4,0,0,1,.148-.322c.082-.037.309.108.326.209l.245,1.506.439,2.852c.144.933.33,1.3.125,1.9" transform="translate(-228.272 -225.09)" fill="#fefefd"/>
        <path id="Path_35672" data-name="Path 35672" d="M7.976,357.122a2.749,2.749,0,0,1-1.69-3.072c.469-.516.232-.68,1.022-1.591a11.448,11.448,0,0,1,5.514-3.333c.274-.078.655-.1.946-.151,1.793-.3,4.641.159,4.93,2.22s-1.737,3.79-3.346,4.739a12.035,12.035,0,0,1-2.916,1.162,7.46,7.46,0,0,1-3.481.22Zm7.549-2.812c.988-.76,2.08-2.067,1.372-3.366a1.906,1.906,0,0,0-1.358-.828,6.641,6.641,0,0,0-3.29.325,8.357,8.357,0,0,0-3.8,2.5,2.369,2.369,0,0,0-.62,1.685c.078,1.283,1.748,1.6,2.839,1.537a8.812,8.812,0,0,0,4.859-1.849" transform="translate(-5.608 -312.017)" fill="#fbd73e"/>
        <path id="Path_35673" data-name="Path 35673" d="M117.111,327.8c2.2,1.028,6.281.549,8.11-1.3a1.546,1.546,0,0,0,.03-2.162,5.193,5.193,0,0,0-3.038-1.015,8.7,8.7,0,0,0-5.24,1.378,3.01,3.01,0,0,0-1.153,1.486l-1.015-.988c1.512-2.08,4.724-2.885,7.195-2.892a8.264,8.264,0,0,1,3.424.682,4.751,4.751,0,0,1,1.232.814,2.089,2.089,0,0,1,.182,2.8c-1.692,2.813-7.135,3.534-10.012,2.486l-.358-1.58Z" transform="translate(-102.477 -288.237)" fill="#fbd73e"/>
        <path id="Path_35674" data-name="Path 35674" d="M155.281,340.536c0,1.393-4,2.13-3.914,1.257a.584.584,0,0,1,.3-.351l1.39-.3a.525.525,0,0,0,.26-.336l-1.29-.012a2.663,2.663,0,0,1-1.08-.187.7.7,0,0,1-.17-1.048,3.474,3.474,0,0,1,2.216-1.01l.988.02a.748.748,0,0,1,.412.179c.075.1-.135.384-.274.413l-1.234.256c-.05.01-.173.052-.214.065-.062.021.063.247.128.247h1.06c.64,0,1.424.256,1.425.811" transform="translate(-134.441 -302.763)" fill="#fbd73e"/>
        <path id="Path_35675" data-name="Path 35675" d="M52.857,312.98a1.222,1.222,0,0,1-1.111-.111l-1.209-.137c-.07-.008-.224-.184-.2-.245.207-.552,1.476-.031,2.179-.478-.889-.465-.994.072-2.4-.5-.2-.081-.392-.548-.248-.706.611-.668,1.246-.219,1.489-.772.373-.248.78-.085,1.207.04.256.075,1.407.149,1.148.406a.821.821,0,0,1-.342.186l-1.428.119c-.038,0-.194.138-.156.144l.2.032,1.668.271a1.046,1.046,0,0,1,.765.582c.058.231-.267.574-.466.646-1,.364-.787.04-1.092.521" transform="translate(-44.467 -277.15)" fill="#fbd73e"/>
        <path id="Path_35676" data-name="Path 35676" d="M354.56,266.789c.468,1.2-1.213,2.331-2.2,2.692a13.356,13.356,0,0,1-4.013.732l-.033,2.487-.027.714c0,.091-.05.332-.142.336l-.353.015a2.234,2.234,0,0,0-.659.1l-1.265-.1a1.824,1.824,0,0,1-.1-.408l-.009-3.233-1.412-.235a7.76,7.76,0,0,1-2.636-.983c-.651-.382-.748-.762-1.208-1.048a2.956,2.956,0,0,1-.084-1.142c.219-.819,1.365-1.5,2.11-1.826a13.81,13.81,0,0,1,9.145-.31c.887.283,2.744,1.219,2.885,2.212m-7.981,2.2a9.877,9.877,0,0,0,1.955,0l1.046-.116c1.138-.126,2.63-.513,3.258-1.547.446-1.913-4.96-2.646-6.119-2.363-1.167-.069-4.57.607-4.524,1.993.034,1.013,1.521,1.521,2.415,1.732a7.434,7.434,0,0,0,.819.189Z" transform="translate(-303.835 -236.051)" fill="#fbd73e"/>
        <path id="Path_35677" data-name="Path 35677" d="M345.632,306.82a1.479,1.479,0,0,1-.514-.023,10.96,10.96,0,0,1-3.655-1.243c-.575-.34-1.252-.871-1.271-1.592l-.062-2.4c-.007-.271-.039-.509.139-.652.46.286.557.666,1.208,1.048a7.756,7.756,0,0,0,2.636.983l1.412.235.009,3.233a1.829,1.829,0,0,0,.1.408" transform="translate(-303.601 -269.109)" fill="#fbaf06"/>
        <path id="Path_35678" data-name="Path 35678" d="M287.717,304.743l0,.862a7.107,7.107,0,0,0-2.084.451,2.327,2.327,0,0,0-1.322.909.767.767,0,0,0,.1.866c.525.828,3.085,1.41,3.962,1.241A7.591,7.591,0,0,1,289.4,310.1l-1.567.055a12.673,12.673,0,0,1-1.85-.271,4.689,4.689,0,0,1-1.849-.65,3.431,3.431,0,0,1-1.578-1.375,1.584,1.584,0,0,1,.177-1.363c.84-1.074,3.741-1.8,4.981-1.757" transform="translate(-252.141 -272.533)" fill="#fbd73e"/>
        <path id="Path_35679" data-name="Path 35679" d="M479.243,303.534l.018-.885.964-.048a6.1,6.1,0,0,0,2.981-.779c.143-.085.417-.455.34-.608-.435-.872-2.364-1.107-3.289-1.238l-.984-.139-.017-.642a1.136,1.136,0,0,1,.678-.068,14.619,14.619,0,0,1,4.323.972,2.182,2.182,0,0,1,.926.855,1.265,1.265,0,0,1-.027,1.011c-.778,1.014-2.814,1.426-4.074,1.587a4.853,4.853,0,0,1-1.84-.017" transform="translate(-427.782 -267.498)" fill="#fbd73e"/>
        <path id="Path_35680" data-name="Path 35680" d="M302.236,312.907l.053,1.587c.035,1.068.295,1.123.6,1.88-.878.169-3.437-.413-3.962-1.241a.767.767,0,0,1-.1-.866,2.328,2.328,0,0,1,1.322-.909,7.113,7.113,0,0,1,2.084-.451" transform="translate(-266.656 -279.836)" fill="#fbaf06"/>
        <path id="Path_35681" data-name="Path 35681" d="M479.413,308.8l.012-2.812.984.139c.925.131,2.854.366,3.289,1.238.077.153-.2.523-.34.608a6.1,6.1,0,0,1-2.981.779Z" transform="translate(-427.934 -273.646)" fill="#fbaf06"/>
        <path id="Path_35682" data-name="Path 35682" d="M200.8,402.916c-.281-.273-.553-.56-.853-.911a1.524,1.524,0,0,1-.177-1.258l.607-1.089a4.285,4.285,0,0,0,.762-.285,14.816,14.816,0,0,1,10.716-.112,4.05,4.05,0,0,1,1.545,1.152,1.379,1.379,0,0,1,0,1.618,4.313,4.313,0,0,1-1.831,1.343,13.869,13.869,0,0,1-7.124.665,10.705,10.705,0,0,1-2.907-.8Zm10.6-.836a.977.977,0,0,0,.472-1.247c-.744-1.258-3.125-1.533-4.51-1.685a12.893,12.893,0,0,0-4.026.471,4.277,4.277,0,0,0-1.61.827.85.85,0,0,0-.106,1.213c.948,1.089,2.092,1.065,3.491,1.431,2.056.11,4.492.089,6.289-1.011" transform="translate(-178.254 -356.228)" fill="#fbd73e"/>
        <path id="Path_35683" data-name="Path 35683" d="M28.322,363.958a8.811,8.811,0,0,1-4.859,1.849c-1.091.067-2.762-.254-2.839-1.537a2.369,2.369,0,0,1,.62-1.685,8.358,8.358,0,0,1,3.8-2.5,6.64,6.64,0,0,1,3.29-.325,1.905,1.905,0,0,1,1.358.827c.709,1.3-.383,2.606-1.372,3.366m-3.931.287c-.079.06-.13.385-.052.431.485.286.852-.1,1.36-.1a1.678,1.678,0,0,0,.835-.068c.154-.068.22-.439.311-.565.174-.239,1.284-1.23.658-1.836-.739-.716-2.358.376-2.813.014.466-.572,2.034-.828,1.724-1.28a.591.591,0,0,0-.445-.172l-.781.237a.748.748,0,0,0-.757-.06c-.193.083-.289.4-.415.552-.291.356-.834.682-.945,1.166a1.027,1.027,0,0,0,.263.735,1.59,1.59,0,0,0,1.126.15L25.6,363.2c.045-.01.225-.019.271-.021s.061.155.072.243c-.692.487-.89.325-1.548.825" transform="translate(-18.406 -321.665)" fill="#fbaf06"/>
        <path id="Path_35684" data-name="Path 35684" d="M361.614,277.073l-1.15-.109a7.45,7.45,0,0,1-.819-.189c-.894-.211-2.381-.719-2.415-1.732-.046-1.386,3.357-2.062,4.524-1.993,1.159-.283,6.566.45,6.119,2.363-.627,1.034-2.12,1.421-3.258,1.547l-1.046.116a9.886,9.886,0,0,1-1.955,0m1.643-.575.737-.177c.274-.066.742-.392.73-.642-.03-.592-.571-.741-1-.835l-1.175-.256a.13.13,0,0,1-.007-.245l1.071.011c.186,0,.511-.318.356-.484a1.3,1.3,0,0,0-.694-.248c-1.521.012-1.228-.12-2.431.395a.837.837,0,0,0-.362.508.765.765,0,0,0,.331.546c1.118.577,1.746.188,2,.73l-1.7.022c-.112,0-.351.159-.335.261.013.082.12.3.2.318.921.216.789-.164,1.229.375a.721.721,0,0,0,.732.026c.061-.051.238-.288.313-.306" transform="translate(-318.87 -244.138)" fill="#fbaf06"/>
        <path id="Path_35685" data-name="Path 35685" d="M225.622,408.751c-1.8,1.1-4.233,1.12-6.289,1.01-1.4-.365-2.543-.341-3.491-1.431a.85.85,0,0,1,.105-1.213,4.279,4.279,0,0,1,1.611-.827,12.886,12.886,0,0,1,4.026-.471c1.384.152,3.766.427,4.51,1.685a.977.977,0,0,1-.472,1.247m-4.137.455c.614-.08,1.672-.353,1.749-.858.046-.3-.344-.652-.729-.747l-.766-.188-.868-.235,1.752-.075a.434.434,0,0,0,.331-.22c.02-.081-.041-.362-.124-.375-1.128-.175-.6.061-1.255-.259a1.216,1.216,0,0,0-.912.015c-.764.563-.16-.033-1.416.425-.168.061-.509.372-.484.549a1.056,1.056,0,0,0,.924.768l1.53.278c-.838.549-1.542-.124-2.346.315-.1.336.247.543.521.558l.7.039a.909.909,0,0,0,.709.314,1.173,1.173,0,0,0,.681-.306" transform="translate(-192.481 -362.9)" fill="#fbaf06"/>
        <path id="Path_35686" data-name="Path 35686" d="M44.7,372.608c.658-.5.857-.338,1.548-.825-.011-.089-.026-.245-.072-.243s-.226.011-.271.021l-1.136.256a1.591,1.591,0,0,1-1.126-.15,1.026,1.026,0,0,1-.263-.735c.111-.484.655-.81.945-1.166.126-.154.222-.469.415-.552a.748.748,0,0,1,.757.06l.781-.236a.59.59,0,0,1,.445.172c.31.453-1.257.708-1.724,1.28.455.361,2.074-.731,2.813-.014.626.607-.484,1.6-.658,1.836-.092.126-.157.5-.311.565a1.678,1.678,0,0,1-.835.068c-.508-.01-.875.381-1.36.1-.079-.047-.028-.371.052-.431" transform="translate(-38.717 -330.028)" fill="#fbd73e"/>
        <path id="Path_35687" data-name="Path 35687" d="M390.261,281.8c-.074.018-.252.255-.313.306a.72.72,0,0,1-.732-.026c-.44-.538-.309-.159-1.229-.375-.083-.019-.191-.236-.2-.318-.016-.1.223-.26.335-.261l1.7-.022c-.257-.542-.886-.152-2-.73a.765.765,0,0,1-.331-.546.837.837,0,0,1,.362-.508c1.2-.515.91-.383,2.431-.395a1.3,1.3,0,0,1,.694.248c.155.166-.169.486-.356.484l-1.071-.011a.13.13,0,0,0,.007.245l1.175.256c.43.094.971.243,1,.835.013.249-.456.576-.73.642Z" transform="translate(-345.875 -249.439)" fill="#fbd73e"/>
        <path id="Path_35688" data-name="Path 35688" d="M247.468,412.444a1.173,1.173,0,0,1-.681.306.909.909,0,0,1-.709-.314l-.7-.039c-.274-.015-.617-.222-.521-.558.8-.439,1.508.234,2.346-.315l-1.53-.278a1.056,1.056,0,0,1-.924-.768c-.024-.178.317-.488.484-.549,1.256-.457.652.138,1.416-.424a1.215,1.215,0,0,1,.912-.015c.653.32.127.084,1.255.259.083.013.144.294.124.375a.435.435,0,0,1-.331.22l-1.752.075.868.235.766.188c.385.094.775.448.729.747-.077.5-1.135.778-1.749.858" transform="translate(-218.464 -366.138)" fill="#fbd73e"/>
      </g>
    </g>
  </g>
</svg>
