<svg xmlns="http://www.w3.org/2000/svg" xmlns:xlink="http://www.w3.org/1999/xlink" width="50" height="30" viewBox="0 0 50 30">
  <defs>
    <clipPath id="clip-Tigo">
      <rect width="50" height="30"/>
    </clipPath>
  </defs>
  <g id="Tigo" clip-path="url(#clip-Tigo)">
    <rect id="Rectangle_24751" data-name="Rectangle 24751" width="50" height="30" rx="4" fill="#20409a"/>
    <g id="Group_61379" data-name="Group 61379" transform="translate(22857.764 22026.453)">
      <path id="Path_10266" data-name="Path 10266" d="M31.183,15.9a5.762,5.762,0,0,1,.21-1.553,4.052,4.052,0,0,1,4.544-3.059,4,4,0,0,1,3.6,3.661,5.785,5.785,0,0,1-.212,2.495,4.159,4.159,0,0,1-8.108-.876c-.02-.222-.022-.444-.032-.666m6.17.014c-.025-.283-.036-.566-.079-.849a3.278,3.278,0,0,0-.168-.642A1.793,1.793,0,0,0,35.219,13.2,1.686,1.686,0,0,0,33.6,14.5a4.144,4.144,0,0,0,.056,2.663,1.752,1.752,0,0,0,1.868,1.243,1.71,1.71,0,0,0,1.666-1.312,3.9,3.9,0,0,0,.166-1.175" transform="translate(-22857.74 -22028.266)" fill="#fbfcfc"/>
      <path id="Path_10267" data-name="Path 10267" d="M29.714,17.714c0,.223.008.445,0,.668a1.909,1.909,0,0,1-1.376,1.911,5.239,5.239,0,0,1-5.054-.794,4.587,4.587,0,0,1-.094-6.9,5.317,5.317,0,0,1,4.676-1.2,1.906,1.906,0,0,1,1.715,2.082c0,.023,0,.044-.008.067-.008.45-.094.493-.5.259a4.31,4.31,0,0,0-3.079-.507c-1.585.325-2.371,1.729-1.982,3.491a2.547,2.547,0,0,0,3.074,1.879l.054-.013a.555.555,0,0,0,.489-.6,8.059,8.059,0,0,0-.136-1.85c-.043-.2,0-.26.189-.256.334.008.669-.013,1,.011a1.068,1.068,0,0,1,1.04,1.094l0,.039v.62Z" transform="translate(-22857.205 -22028.266)" fill="#fbfcfd"/>
      <path id="Path_10268" data-name="Path 10268" d="M14.918,17.939c0,.343.019.644,0,.944a1.334,1.334,0,0,1-1.181,1.191,3.938,3.938,0,0,1-2.249-.2A2.657,2.657,0,0,1,9.8,17.236c-.048-1.969-.043-3.942-.008-5.913A2,2,0,0,1,11.6,9.38c.261,0,.325.088.316.328-.015.412.012.827-.009,1.239-.016.307.079.418.4.409.762-.021,1.526,0,2.288-.011.274-.006.341.084.346.35.023,1.213-.341,1.592-1.571,1.593-.365,0-.731.012-1.1,0-.237-.011-.337.045-.332.31.017,1.113-.007,2.226.022,3.339a1.21,1.21,0,0,0,1.091,1.317,1.2,1.2,0,0,0,.266,0,4.137,4.137,0,0,0,1.6-.3" transform="translate(-22856.533 -22028.16)" fill="#fafbfc"/>
      <path id="Path_10269" data-name="Path 10269" d="M24.075,22.42A6.875,6.875,0,0,0,29.9,25.566a6.963,6.963,0,0,0,5.851-3,3.7,3.7,0,0,1-.715,3.049,6.715,6.715,0,0,1-10.38-.244,4.1,4.1,0,0,1-.584-2.954" transform="translate(-22857.336 -22028.895)" fill="#fafbfc"/>
      <path id="Path_10270" data-name="Path 10270" d="M16.913,15.01c0-.985.008-1.971-.006-2.956,0-.257.051-.353.335-.359,1.332-.029,1.822.433,1.824,1.772,0,1.24,0,2.48,0,3.719.006,1.028.266,1.3,1.3,1.308.343,0,.421.108.414.431-.02,1-.4,1.387-1.4,1.351a2.3,2.3,0,0,1-2.453-2.134,2.249,2.249,0,0,1,0-.319c-.027-.937,0-1.875,0-2.813H16.91" transform="translate(-22856.936 -22028.291)" fill="#fcfdfd"/>
      <path id="Path_10271" data-name="Path 10271" d="M31.651,10.055a2.509,2.509,0,0,1,1.115-2.67,4.923,4.923,0,0,1,5.354-.094,2.534,2.534,0,0,1,1.264,2.8,4.759,4.759,0,0,0-3.869-1.842,4.87,4.87,0,0,0-3.86,1.8" transform="translate(-22857.764 -22028)" fill="#f9fafc"/>
      <path id="Path_10272" data-name="Path 10272" d="M19.212,9.422A1.269,1.269,0,1,1,16.675,9.4a1.251,1.251,0,0,1,1.253-1.251h.025a1.271,1.271,0,0,1,1.259,1.276" transform="translate(-22856.922 -22028.09)" fill="#f9fafb"/>
    </g>
  </g>
</svg>
