<svg xmlns="http://www.w3.org/2000/svg" xmlns:xlink="http://www.w3.org/1999/xlink" width="17" height="17" viewBox="0 0 17 17">
  <defs>
    <clipPath id="clip-path">
      <rect id="Rectangle_24511" data-name="Rectangle 24511" width="15" height="14.999" fill="none"/>
    </clipPath>
    <clipPath id="clip-Toaster_message_Close_X">
      <rect width="17" height="17"/>
    </clipPath>
  </defs>
  <g id="Toaster_message_Close_X" data-name="Toaster message Close X" clip-path="url(#clip-Toaster_message_Close_X)">
    <g id="Group_60489" data-name="Group 60489" transform="translate(1 1)">
      <g id="Group_60488" data-name="Group 60488" transform="translate(0 0)" clip-path="url(#clip-path)">
        <path id="Path_35632" data-name="Path 35632" d="M14.7,13.194,9,7.487,14.677,1.8A1.059,1.059,0,0,0,14.67.309a1.064,1.064,0,0,0-1.487,0L7.5,5.988,1.833.307A1.059,1.059,0,0,0,.39.262L.277.377A1.055,1.055,0,0,0,.286,1.733L6.019,7.487.334,13.167a1.067,1.067,0,0,0-.046,1.5A1.063,1.063,0,0,0,1.046,15a1.168,1.168,0,0,0,.74-.3L7.5,8.973l5.667,5.673a1.054,1.054,0,0,0,.736.336,1.025,1.025,0,0,0,.76-.285,1.049,1.049,0,0,0,.043-1.5" transform="translate(0 0)" fill="#fff"/>
      </g>
    </g>
  </g>
</svg>
