<svg xmlns="http://www.w3.org/2000/svg" xmlns:xlink="http://www.w3.org/1999/xlink" width="50" height="30" viewBox="0 0 50 30">
  <defs>
    <clipPath id="clip-USSD">
      <rect width="50" height="30"/>
    </clipPath>
  </defs>
  <g id="USSD" clip-path="url(#clip-USSD)">
    <rect id="Rectangle_24750" data-name="Rectangle 24750" width="50" height="30" rx="4" fill="#0a7ea4"/>
    <g id="Group_61377" data-name="Group 61377" transform="translate(-0.893 0.73)">
      <g id="Group_61376" data-name="Group 61376" transform="translate(15.893 4.27)">
        <g id="Group_54787" data-name="Group 54787" transform="translate(0 0)">
          <path id="Path_10369" data-name="Path 10369" d="M28.9,11.112c1.488,0,2.975-.006,4.463,0a5.983,5.983,0,1,1,.019,11.967c-2.991.011-5.983.026-8.974,0a5.982,5.982,0,0,1-.115-11.963c1.535-.021,3.071,0,4.607,0m4.587,10.413a1.363,1.363,0,0,1,.239,0c.492.089.679-.132.714-.611.033-.46.158-.914.209-1.374.032-.288.16-.359.434-.362.953-.01.926-.025,1.077-.93.077-.459-.043-.582-.5-.563-.759.031-.784-.038-.607-.769.111-.46.468-.272.7-.256.476.032.674-.115.724-.609.088-.867.119-.876-.751-.9-.3-.007-.4-.094-.338-.395.093-.47.148-.947.239-1.418.05-.26-.034-.348-.29-.338-.351.013-.7.014-1.055,0-.233-.009-.344.059-.37.31-.04.4-.124.789-.185,1.184-.11.7-.139.717-.862.656-.237-.02-.307-.109-.266-.331.083-.456.143-.916.24-1.369.068-.317.028-.486-.353-.452a6.153,6.153,0,0,1-.91,0c-.273-.016-.405.068-.434.361-.041.428-.143.851-.187,1.279-.037.355-.148.524-.558.517-.9-.015-.794-.2-.956.81l-.015.095c-.09.577-.09.577.5.579.736,0,.79.079.572.791-.137.45-.513.259-.766.242-.453-.03-.609.144-.666.569-.121.912-.139.922.781.931.3,0,.4.08.335.387-.108.532-.178,1.072-.273,1.606-.044.243.02.362.287.353.335-.012.672-.013,1.007,0a.334.334,0,0,0,.407-.345c.054-.444.142-.883.211-1.325.112-.717.11-.705.838-.677.261.01.341.1.294.345-.071.377-.129.756-.189,1.134-.138.864-.137.864.725.864m-9.069-7.638a5.906,5.906,0,0,1-.623,0c-.38-.04-.473.122-.418.475.061.394.064.8.116,1.192.047.359,0,.527-.408.326-.386-.191-.8-.334-1.185-.521-.258-.124-.406-.1-.492.2-.133.46-.277.918-.443,1.367-.093.249-.021.342.22.394.484.1.963.233,1.446.342.259.058.336.155.128.372-.177.184-.344.379-.512.571-.685.779-.684.78.152,1.383.894.645.894.645,1.47-.3.548-.9.548-.9,1.1-.011.593.964.593.964,1.516.291.811-.591.811-.591.135-1.352-.775-.873-.775-.873.368-1.152,1-.245,1-.245.682-1.211-.346-1.037-.346-1.037-1.366-.607-1,.422-1,.422-.9-.662s.1-1.091-.979-1.091" transform="translate(-18.424 -11.106)" fill="#fff"/>
          <path id="Path_10377" data-name="Path 10377" d="M162.458,68.741c.129.085.457-.172.461.238.006.668-.118.831-.67.809-.192-.007-.517.164-.49-.29.041-.69.087-.759.7-.758" transform="translate(-147.988 -63.202)" fill="#f2f7f9"/>
        </g>
        <g id="Group_54849" data-name="Group 54849" transform="translate(0.827 15.76)">
          <path id="Path_27595" data-name="Path 27595" d="M1.028,5.8a1.787,1.787,0,0,1-.76-.679A1.91,1.91,0,0,1,0,4.109V.732H1.093V4.011a1.255,1.255,0,0,0,.128.585.919.919,0,0,0,.373.385,1.2,1.2,0,0,0,.6.138,1.2,1.2,0,0,0,.6-.138A.908.908,0,0,0,3.156,4.6a1.27,1.27,0,0,0,.127-.585V.732H4.376V4.109A1.91,1.91,0,0,1,4.11,5.124a1.791,1.791,0,0,1-.756.679,2.6,2.6,0,0,1-1.164.243A2.618,2.618,0,0,1,1.028,5.8" transform="translate(0 -0.642)" fill="#fff"/>
          <path id="Path_27596" data-name="Path 27596" d="M43.486,5.221a1.681,1.681,0,0,1-.728-.525,1.449,1.449,0,0,1-.295-.823l0-.058h1.032l.007.04a.642.642,0,0,0,.183.349.985.985,0,0,0,.382.228,1.619,1.619,0,0,0,.532.081,1.5,1.5,0,0,0,.523-.081.755.755,0,0,0,.338-.232.545.545,0,0,0,.119-.349v0a.483.483,0,0,0-.208-.414,1.867,1.867,0,0,0-.693-.248l-.55-.112a2.316,2.316,0,0,1-1.164-.523,1.262,1.262,0,0,1-.393-.961v0a1.4,1.4,0,0,1,.261-.832A1.7,1.7,0,0,1,43.535.2,2.512,2.512,0,0,1,44.563,0a2.621,2.621,0,0,1,1.044.19,1.607,1.607,0,0,1,.686.532,1.482,1.482,0,0,1,.271.8l0,.065H45.537l-.007-.043a.632.632,0,0,0-.154-.351A.845.845,0,0,0,45.041.97a1.483,1.483,0,0,0-.959,0,.688.688,0,0,0-.309.223.533.533,0,0,0-.107.328v0a.469.469,0,0,0,.21.4,1.763,1.763,0,0,0,.659.241l.554.112a3.169,3.169,0,0,1,.9.3,1.3,1.3,0,0,1,.52.483,1.378,1.378,0,0,1,.168.7v0a1.5,1.5,0,0,1-.252.87A1.616,1.616,0,0,1,45.7,5.2a2.883,2.883,0,0,1-1.131.2,2.925,2.925,0,0,1-1.08-.183" transform="translate(-37.214)" fill="#fff"/>
          <path id="Path_27597" data-name="Path 27597" d="M82.987,5.221A1.681,1.681,0,0,1,82.26,4.7a1.449,1.449,0,0,1-.295-.823l0-.058h1.032l.007.04a.642.642,0,0,0,.183.349.985.985,0,0,0,.382.228,1.619,1.619,0,0,0,.532.081,1.5,1.5,0,0,0,.523-.081.755.755,0,0,0,.338-.232.544.544,0,0,0,.119-.349v0a.483.483,0,0,0-.208-.414,1.867,1.867,0,0,0-.693-.248l-.55-.112a2.316,2.316,0,0,1-1.164-.523,1.262,1.262,0,0,1-.393-.961v0A1.4,1.4,0,0,1,82.33.753,1.7,1.7,0,0,1,83.036.2,2.512,2.512,0,0,1,84.064,0a2.621,2.621,0,0,1,1.044.19,1.607,1.607,0,0,1,.686.532,1.482,1.482,0,0,1,.271.8l0,.065H85.038l-.007-.043a.632.632,0,0,0-.154-.351A.845.845,0,0,0,84.542.97a1.483,1.483,0,0,0-.959,0,.687.687,0,0,0-.309.223.533.533,0,0,0-.107.328v0a.469.469,0,0,0,.21.4,1.763,1.763,0,0,0,.659.241l.554.112a3.169,3.169,0,0,1,.9.3,1.3,1.3,0,0,1,.52.483,1.378,1.378,0,0,1,.168.7v0a1.5,1.5,0,0,1-.252.87A1.616,1.616,0,0,1,85.2,5.2a2.883,2.883,0,0,1-1.131.2,2.925,2.925,0,0,1-1.08-.183" transform="translate(-71.835)" fill="#fff"/>
          <path id="Path_27598" data-name="Path 27598" d="M123.073.733h1.994a2.784,2.784,0,0,1,1.341.3,2.026,2.026,0,0,1,.852.878,3.049,3.049,0,0,1,.3,1.406v.007a3.143,3.143,0,0,1-.3,1.419,2.062,2.062,0,0,1-.852.9,2.715,2.715,0,0,1-1.343.311h-1.994Zm1.864,4.318a1.609,1.609,0,0,0,.823-.2,1.241,1.241,0,0,0,.509-.579,2.294,2.294,0,0,0,.174-.948V3.321a2.148,2.148,0,0,0-.177-.919,1.254,1.254,0,0,0-.514-.57,1.609,1.609,0,0,0-.814-.194h-.771V5.051Z" transform="translate(-107.868 -0.642)" fill="#fff"/>
        </g>
      </g>
    </g>
  </g>
</svg>
